  0
SECTION
  2
HEADER
  9
$ACADVER
  1
AC1009
  9
$EXTMIN
 10
0.0
 20
0.0
 30
0.0
  9
$EXTMAX
 10
1000.0
 20
1000.0
 30
0.0
  9
$FILLMODE
 70
 0
  9
$SPLFRAME
 70
 1
  0
ENDSEC
  0
SECTION
  2
TABLES
  0
TABLE
  2
LAYER
 70
1
  0
LAYER
  2
0
 70
     0
 62
     7
  6
CONTINUOUS
  0
ENDTAB
  0
ENDSEC
  0
SECTION
  2
ENTITIES
  0
LINE
  8
0
 62
     204
 10
0.265082
 20
0.19184
 30
0.0
 11
0.265082
 21
0.689236
 31
0.0
  0
LINE
  8
0
 62
     204
 10
0.265082
 20
0.689236
 30
0.0
 11
0.371853
 21
0.689236
 31
0.0
  0
LINE
  8
0
 62
     204
 10
0.371853
 20
0.689236
 30
0.0
 11
0.380533
 21
0.623264
 31
0.0
  0
LINE
  8
0
 62
     204
 10
0.380533
 20
0.623264
 30
0.0
 11
0.384006
 21
0.623264
 31
0.0
  0
LINE
  8
0
 62
     204
 10
0.384006
 20
0.623264
 30
0.0
 11
0.395833
 21
0.636393
 31
0.0
  0
LINE
  8
0
 62
     204
 10
0.395833
 20
0.636393
 30
0.0
 11
0.458822
 21
0.6824
 31
0.0
  0
LINE
  8
0
 62
     204
 10
0.458822
 20
0.6824
 30
0.0
 11
0.517253
 21
0.702257
 31
0.0
  0
LINE
  8
0
 62
     204
 10
0.517253
 20
0.702257
 30
0.0
 11
0.536783
 21
0.702257
 31
0.0
  0
LINE
  8
0
 62
     204
 10
0.536783
 20
0.702257
 30
0.0
 11
0.547851
 21
0.70166
 31
0.0
  0
LINE
  8
0
 62
     204
 10
0.547851
 20
0.70166
 30
0.0
 11
0.580892
 21
0.695313
 31
0.0
  0
LINE
  8
0
 62
     204
 10
0.580892
 20
0.695313
 30
0.0
 11
0.619032
 21
0.679036
 31
0.0
  0
LINE
  8
0
 62
     204
 10
0.619032
 20
0.679036
 30
0.0
 11
0.650282
 21
0.652453
 31
0.0
  0
LINE
  8
0
 62
     204
 10
0.650282
 20
0.652453
 30
0.0
 11
0.669433
 21
0.624675
 31
0.0
  0
LINE
  8
0
 62
     204
 10
0.669433
 20
0.624675
 30
0.0
 11
0.673936
 21
0.614583
 31
0.0
  0
LINE
  8
0
 62
     204
 10
0.673936
 20
0.614583
 30
0.0
 11
0.680012
 21
0.621039
 31
0.0
  0
LINE
  8
0
 62
     204
 10
0.680012
 20
0.621039
 30
0.0
 11
0.712185
 21
0.650825
 31
0.0
  0
LINE
  8
0
 62
     204
 10
0.712185
 20
0.650825
 30
0.0
 11
0.744575
 21
0.675456
 31
0.0
  0
LINE
  8
0
 62
     204
 10
0.744575
 20
0.675456
 30
0.0
 11
0.75076
 21
0.679254
 31
0.0
  0
LINE
  8
0
 62
     204
 10
0.75076
 20
0.679254
 30
0.0
 11
0.756836
 21
0.682997
 31
0.0
  0
LINE
  8
0
 62
     204
 10
0.756836
 20
0.682997
 30
0.0
 11
0.789387
 21
0.696343
 31
0.0
  0
LINE
  8
0
 62
     204
 10
0.789387
 20
0.696343
 30
0.0
 11
0.821289
 21
0.702257
 31
0.0
  0
LINE
  8
0
 62
     204
 10
0.821289
 20
0.702257
 30
0.0
 11
0.831922
 21
0.702257
 31
0.0
  0
LINE
  8
0
 62
     204
 10
0.831922
 20
0.702257
 30
0.0
 11
0.840549
 21
0.70166
 31
0.0
  0
LINE
  8
0
 62
     204
 10
0.840549
 20
0.70166
 30
0.0
 11
0.866374
 21
0.697537
 31
0.0
  0
LINE
  8
0
 62
     204
 10
0.866374
 20
0.697537
 30
0.0
 11
0.897949
 21
0.687935
 31
0.0
  0
LINE
  8
0
 62
     204
 10
0.897949
 20
0.687935
 30
0.0
 11
0.925456
 21
0.672472
 31
0.0
  0
LINE
  8
0
 62
     204
 10
0.925456
 20
0.672472
 30
0.0
 11
0.943143
 21
0.656467
 31
0.0
  0
LINE
  8
0
 62
     204
 10
0.943143
 20
0.656467
 30
0.0
 11
0.947808
 21
0.650174
 31
0.0
  0
LINE
  8
0
 62
     204
 10
0.947808
 20
0.650174
 30
0.0
 11
0.953993
 21
0.641493
 31
0.0
  0
LINE
  8
0
 62
     204
 10
0.953993
 20
0.641493
 30
0.0
 11
0.9764
 21
0.587022
 31
0.0
  0
LINE
  8
0
 62
     204
 10
0.9764
 20
0.587022
 30
0.0
 11
0.986436
 21
0.523058
 31
0.0
  0
LINE
  8
0
 62
     204
 10
0.986436
 20
0.523058
 30
0.0
 11
0.986436
 21
0.501736
 31
0.0
  0
LINE
  8
0
 62
     204
 10
0.986436
 20
0.501736
 30
0.0
 11
0.986436
 21
0.19184
 31
0.0
  0
LINE
  8
0
 62
     204
 10
0.986436
 20
0.19184
 30
0.0
 11
0.856228
 21
0.19184
 31
0.0
  0
LINE
  8
0
 62
     204
 10
0.856228
 20
0.19184
 30
0.0
 11
0.856228
 21
0.486111
 31
0.0
  0
LINE
  8
0
 62
     204
 10
0.856228
 20
0.486111
 30
0.0
 11
0.855469
 21
0.495335
 31
0.0
  0
LINE
  8
0
 62
     204
 10
0.855469
 20
0.495335
 30
0.0
 11
0.850857
 21
0.534071
 31
0.0
  0
LINE
  8
0
 62
     204
 10
0.850857
 20
0.534071
 30
0.0
 11
0.842122
 21
0.562446
 31
0.0
  0
LINE
  8
0
 62
     204
 10
0.842122
 20
0.562446
 30
0.0
 11
0.839301
 21
0.566407
 31
0.0
  0
LINE
  8
0
 62
     204
 10
0.839301
 20
0.566407
 30
0.0
 11
0.835992
 21
0.569282
 31
0.0
  0
LINE
  8
0
 62
     204
 10
0.835992
 20
0.569282
 30
0.0
 11
0.816949
 21
0.582628
 31
0.0
  0
LINE
  8
0
 62
     204
 10
0.816949
 20
0.582628
 30
0.0
 11
0.794325
 21
0.590278
 31
0.0
  0
LINE
  8
0
 62
     204
 10
0.794325
 20
0.590278
 30
0.0
 11
0.786783
 21
0.590278
 31
0.0
  0
LINE
  8
0
 62
     204
 10
0.786783
 20
0.590278
 30
0.0
 11
0.778971
 21
0.589518
 31
0.0
  0
LINE
  8
0
 62
     204
 10
0.778971
 20
0.589518
 30
0.0
 11
0.740289
 21
0.574978
 31
0.0
  0
LINE
  8
0
 62
     204
 10
0.740289
 20
0.574978
 30
0.0
 11
0.699382
 21
0.543294
 31
0.0
  0
LINE
  8
0
 62
     204
 10
0.699382
 20
0.543294
 30
0.0
 11
0.690429
 21
0.533854
 31
0.0
  0
LINE
  8
0
 62
     204
 10
0.690429
 20
0.533854
 30
0.0
 11
0.690429
 21
0.19184
 31
0.0
  0
LINE
  8
0
 62
     204
 10
0.690429
 20
0.19184
 30
0.0
 11
0.560221
 21
0.19184
 31
0.0
  0
LINE
  8
0
 62
     204
 10
0.560221
 20
0.19184
 30
0.0
 11
0.560221
 21
0.486111
 31
0.0
  0
LINE
  8
0
 62
     204
 10
0.560221
 20
0.486111
 30
0.0
 11
0.559842
 21
0.495335
 31
0.0
  0
LINE
  8
0
 62
     204
 10
0.559842
 20
0.495335
 30
0.0
 11
0.555393
 21
0.534071
 31
0.0
  0
LINE
  8
0
 62
     204
 10
0.555393
 20
0.534071
 30
0.0
 11
0.546115
 21
0.562446
 31
0.0
  0
LINE
  8
0
 62
     204
 10
0.546115
 20
0.562446
 30
0.0
 11
0.543294
 21
0.566407
 31
0.0
  0
LINE
  8
0
 62
     204
 10
0.543294
 20
0.566407
 30
0.0
 11
0.540365
 21
0.569282
 31
0.0
  0
LINE
  8
0
 62
     204
 10
0.540365
 20
0.569282
 30
0.0
 11
0.521485
 21
0.582628
 31
0.0
  0
LINE
  8
0
 62
     204
 10
0.521485
 20
0.582628
 30
0.0
 11
0.498426
 21
0.590278
 31
0.0
  0
LINE
  8
0
 62
     204
 10
0.498426
 20
0.590278
 30
0.0
 11
0.490776
 21
0.590278
 31
0.0
  0
LINE
  8
0
 62
     204
 10
0.490776
 20
0.590278
 30
0.0
 11
0.48329
 21
0.589518
 31
0.0
  0
LINE
  8
0
 62
     204
 10
0.48329
 20
0.589518
 30
0.0
 11
0.444824
 21
0.574978
 31
0.0
  0
LINE
  8
0
 62
     204
 10
0.444824
 20
0.574978
 30
0.0
 11
0.403375
 21
0.543294
 31
0.0
  0
LINE
  8
0
 62
     204
 10
0.403375
 20
0.543294
 30
0.0
 11
0.394422
 21
0.533854
 31
0.0
  0
LINE
  8
0
 62
     204
 10
0.394422
 20
0.533854
 30
0.0
 11
0.394422
 21
0.19184
 31
0.0
  0
LINE
  8
0
 62
     204
 10
0.394422
 20
0.19184
 30
0.0
 11
0.265082
 21
0.19184
 31
0.0
  0
LINE
  8
0
 62
     204
 10
1.12185
 20
0.19184
 30
0.0
 11
1.12185
 21
0.689236
 31
0.0
  0
LINE
  8
0
 62
     204
 10
1.12185
 20
0.689236
 30
0.0
 11
1.25119
 21
0.689236
 31
0.0
  0
LINE
  8
0
 62
     204
 10
1.25119
 20
0.689236
 30
0.0
 11
1.25119
 21
0.19184
 31
0.0
  0
LINE
  8
0
 62
     204
 10
1.25119
 20
0.19184
 30
0.0
 11
1.12185
 21
0.19184
 31
0.0
  0
LINE
  8
0
 62
     204
 10
1.18782
 20
0.769965
 30
0.0
 11
1.18121
 21
0.76926
 31
0.0
  0
LINE
  8
0
 62
     204
 10
1.18121
 20
0.76926
 30
0.0
 11
1.15544
 21
0.773981
 31
0.0
  0
LINE
  8
0
 62
     204
 10
1.15544
 20
0.773981
 30
0.0
 11
1.13552
 21
0.787001
 31
0.0
  0
LINE
  8
0
 62
     204
 10
1.13552
 20
0.787001
 30
0.0
 11
1.13184
 21
0.790365
 31
0.0
  0
LINE
  8
0
 62
     204
 10
1.13184
 20
0.790365
 30
0.0
 11
1.12723
 21
0.793674
 31
0.0
  0
LINE
  8
0
 62
     204
 10
1.12723
 20
0.793674
 30
0.0
 11
1.11382
 21
0.813097
 31
0.0
  0
LINE
  8
0
 62
     204
 10
1.11382
 20
0.813097
 30
0.0
 11
1.1097
 21
0.834147
 31
0.0
  0
LINE
  8
0
 62
     204
 10
1.1097
 20
0.834147
 30
0.0
 11
1.1097
 21
0.841146
 31
0.0
  0
LINE
  8
0
 62
     204
 10
1.1097
 20
0.841146
 30
0.0
 11
1.10948
 21
0.845486
 31
0.0
  0
LINE
  8
0
 62
     204
 10
1.10948
 20
0.845486
 30
0.0
 11
1.11491
 21
0.868164
 31
0.0
  0
LINE
  8
0
 62
     204
 10
1.11491
 20
0.868164
 30
0.0
 11
1.12815
 21
0.888672
 31
0.0
  0
LINE
  8
0
 62
     204
 10
1.12815
 20
0.888672
 30
0.0
 11
1.13184
 21
0.891928
 31
0.0
  0
LINE
  8
0
 62
     204
 10
1.13184
 20
0.891928
 30
0.0
 11
1.1346
 21
0.894749
 31
0.0
  0
LINE
  8
0
 62
     204
 10
1.1346
 20
0.894749
 30
0.0
 11
1.15549
 21
0.905871
 31
0.0
  0
LINE
  8
0
 62
     204
 10
1.15549
 20
0.905871
 30
0.0
 11
1.17974
 21
0.911458
 31
0.0
  0
LINE
  8
0
 62
     204
 10
1.17974
 20
0.911458
 30
0.0
 11
1.18782
 21
0.911458
 31
0.0
  0
LINE
  8
0
 62
     204
 10
1.18782
 20
0.911458
 30
0.0
 11
1.19249
 21
0.910536
 31
0.0
  0
LINE
  8
0
 62
     204
 10
1.19249
 20
0.910536
 30
0.0
 11
1.21718
 21
0.905165
 31
0.0
  0
LINE
  8
0
 62
     204
 10
1.21718
 20
0.905165
 30
0.0
 11
1.23975
 21
0.895182
 31
0.0
  0
LINE
  8
0
 62
     204
 10
1.23975
 20
0.895182
 30
0.0
 11
1.24338
 21
0.891928
 31
0.0
  0
LINE
  8
0
 62
     204
 10
1.24338
 20
0.891928
 30
0.0
 11
1.24604
 21
0.888237
 31
0.0
  0
LINE
  8
0
 62
     204
 10
1.24604
 20
0.888237
 30
0.0
 11
1.25819
 21
0.868761
 31
0.0
  0
LINE
  8
0
 62
     204
 10
1.25819
 20
0.868761
 30
0.0
 11
1.26508
 21
0.84809
 31
0.0
  0
LINE
  8
0
 62
     204
 10
1.26508
 20
0.84809
 30
0.0
 11
1.26508
 21
0.841146
 31
0.0
  0
LINE
  8
0
 62
     204
 10
1.26508
 20
0.841146
 30
0.0
 11
1.26465
 21
0.835232
 31
0.0
  0
LINE
  8
0
 62
     204
 10
1.26465
 20
0.835232
 30
0.0
 11
1.2589
 21
0.811957
 31
0.0
  0
LINE
  8
0
 62
     204
 10
1.2589
 20
0.811957
 30
0.0
 11
1.24664
 21
0.793782
 31
0.0
  0
LINE
  8
0
 62
     204
 10
1.24664
 20
0.793782
 30
0.0
 11
1.24295
 21
0.790365
 31
0.0
  0
LINE
  8
0
 62
     204
 10
1.24295
 20
0.790365
 30
0.0
 11
1.23834
 21
0.786893
 31
0.0
  0
LINE
  8
0
 62
     204
 10
1.23834
 20
0.786893
 30
0.0
 11
1.21669
 21
0.774903
 31
0.0
  0
LINE
  8
0
 62
     204
 10
1.21669
 20
0.774903
 30
0.0
 11
1.19504
 21
0.769965
 31
0.0
  0
LINE
  8
0
 62
     204
 10
1.19504
 20
0.769965
 30
0.0
 11
1.18782
 21
0.769965
 31
0.0
  0
LINE
  8
0
 62
     204
 10
1.39182
 20
0.19184
 30
0.0
 11
1.39182
 21
0.689236
 31
0.0
  0
LINE
  8
0
 62
     204
 10
1.39182
 20
0.689236
 30
0.0
 11
1.49858
 21
0.689236
 31
0.0
  0
LINE
  8
0
 62
     204
 10
1.49858
 20
0.689236
 30
0.0
 11
1.50726
 21
0.624132
 31
0.0
  0
LINE
  8
0
 62
     204
 10
1.50726
 20
0.624132
 30
0.0
 11
1.51074
 21
0.624132
 31
0.0
  0
LINE
  8
0
 62
     204
 10
1.51074
 20
0.624132
 30
0.0
 11
1.52333
 21
0.637044
 31
0.0
  0
LINE
  8
0
 62
     204
 10
1.52333
 20
0.637044
 30
0.0
 11
1.5899
 21
0.682508
 31
0.0
  0
LINE
  8
0
 62
     204
 10
1.5899
 20
0.682508
 30
0.0
 11
1.65158
 21
0.702257
 31
0.0
  0
LINE
  8
0
 62
     204
 10
1.65158
 20
0.702257
 30
0.0
 11
1.67219
 21
0.702257
 31
0.0
  0
LINE
  8
0
 62
     204
 10
1.67219
 20
0.702257
 30
0.0
 11
1.68901
 21
0.701714
 31
0.0
  0
LINE
  8
0
 62
     204
 10
1.68901
 20
0.701714
 30
0.0
 11
1.73926
 21
0.68826
 31
0.0
  0
LINE
  8
0
 62
     204
 10
1.73926
 20
0.68826
 30
0.0
 11
1.7876
 21
0.650825
 31
0.0
  0
LINE
  8
0
 62
     204
 10
1.7876
 20
0.650825
 30
0.0
 11
1.81685
 21
0.588976
 31
0.0
  0
LINE
  8
0
 62
     204
 10
1.81685
 20
0.588976
 30
0.0
 11
1.82671
 21
0.523546
 31
0.0
  0
LINE
  8
0
 62
     204
 10
1.82671
 20
0.523546
 30
0.0
 11
1.82671
 21
0.501736
 31
0.0
  0
LINE
  8
0
 62
     204
 10
1.82671
 20
0.501736
 30
0.0
 11
1.82671
 21
0.19184
 31
0.0
  0
LINE
  8
0
 62
     204
 10
1.82671
 20
0.19184
 30
0.0
 11
1.69564
 21
0.19184
 31
0.0
  0
LINE
  8
0
 62
     204
 10
1.69564
 20
0.19184
 30
0.0
 11
1.69564
 21
0.486111
 31
0.0
  0
LINE
  8
0
 62
     204
 10
1.69564
 20
0.486111
 30
0.0
 11
1.69456
 21
0.495335
 31
0.0
  0
LINE
  8
0
 62
     204
 10
1.69456
 20
0.495335
 30
0.0
 11
1.68983
 21
0.534071
 31
0.0
  0
LINE
  8
0
 62
     204
 10
1.68983
 20
0.534071
 30
0.0
 11
1.68186
 21
0.562446
 31
0.0
  0
LINE
  8
0
 62
     204
 10
1.68186
 20
0.562446
 30
0.0
 11
1.67914
 21
0.566407
 31
0.0
  0
LINE
  8
0
 62
     204
 10
1.67914
 20
0.566407
 30
0.0
 11
1.67551
 21
0.569282
 31
0.0
  0
LINE
  8
0
 62
     204
 10
1.67551
 20
0.569282
 30
0.0
 11
1.65608
 21
0.582628
 31
0.0
  0
LINE
  8
0
 62
     204
 10
1.65608
 20
0.582628
 30
0.0
 11
1.63297
 21
0.590278
 31
0.0
  0
LINE
  8
0
 62
     204
 10
1.63297
 20
0.590278
 30
0.0
 11
1.62532
 21
0.590278
 31
0.0
  0
LINE
  8
0
 62
     204
 10
1.62532
 20
0.590278
 30
0.0
 11
1.61951
 21
0.589518
 31
0.0
  0
LINE
  8
0
 62
     204
 10
1.61951
 20
0.589518
 30
0.0
 11
1.59674
 21
0.585829
 31
0.0
  0
LINE
  8
0
 62
     204
 10
1.59674
 20
0.585829
 30
0.0
 11
1.57824
 21
0.579428
 31
0.0
  0
LINE
  8
0
 62
     204
 10
1.57824
 20
0.579428
 30
0.0
 11
1.57454
 21
0.577257
 31
0.0
  0
LINE
  8
0
 62
     204
 10
1.57454
 20
0.577257
 30
0.0
 11
1.57058
 21
0.574219
 31
0.0
  0
LINE
  8
0
 62
     204
 10
1.57058
 20
0.574219
 30
0.0
 11
1.54969
 21
0.558594
 31
0.0
  0
LINE
  8
0
 62
     204
 10
1.54969
 20
0.558594
 30
0.0
 11
1.52636
 21
0.538954
 31
0.0
  0
LINE
  8
0
 62
     204
 10
1.52636
 20
0.538954
 30
0.0
 11
1.52115
 21
0.533854
 31
0.0
  0
LINE
  8
0
 62
     204
 10
1.52115
 20
0.533854
 30
0.0
 11
1.52115
 21
0.19184
 31
0.0
  0
LINE
  8
0
 62
     204
 10
1.52115
 20
0.19184
 30
0.0
 11
1.39182
 21
0.19184
 31
0.0
  0
LINE
  8
0
 62
     204
 10
1.96126
 20
0.19184
 30
0.0
 11
1.96126
 21
0.689236
 31
0.0
  0
LINE
  8
0
 62
     204
 10
1.96126
 20
0.689236
 30
0.0
 11
2.0906
 21
0.689236
 31
0.0
  0
LINE
  8
0
 62
     204
 10
2.0906
 20
0.689236
 30
0.0
 11
2.0906
 21
0.19184
 31
0.0
  0
LINE
  8
0
 62
     204
 10
2.0906
 20
0.19184
 30
0.0
 11
1.96126
 21
0.19184
 31
0.0
  0
LINE
  8
0
 62
     204
 10
2.02724
 20
0.769965
 30
0.0
 11
2.02061
 21
0.76926
 31
0.0
  0
LINE
  8
0
 62
     204
 10
2.02061
 20
0.76926
 30
0.0
 11
1.99485
 21
0.773981
 31
0.0
  0
LINE
  8
0
 62
     204
 10
1.99485
 20
0.773981
 30
0.0
 11
1.97493
 21
0.787001
 31
0.0
  0
LINE
  8
0
 62
     204
 10
1.97493
 20
0.787001
 30
0.0
 11
1.97125
 21
0.790365
 31
0.0
  0
LINE
  8
0
 62
     204
 10
1.97125
 20
0.790365
 30
0.0
 11
1.96664
 21
0.793674
 31
0.0
  0
LINE
  8
0
 62
     204
 10
1.96664
 20
0.793674
 30
0.0
 11
1.95324
 21
0.813097
 31
0.0
  0
LINE
  8
0
 62
     204
 10
1.95324
 20
0.813097
 30
0.0
 11
1.94911
 21
0.834147
 31
0.0
  0
LINE
  8
0
 62
     204
 10
1.94911
 20
0.834147
 30
0.0
 11
1.94911
 21
0.841146
 31
0.0
  0
LINE
  8
0
 62
     204
 10
1.94911
 20
0.841146
 30
0.0
 11
1.94889
 21
0.845486
 31
0.0
  0
LINE
  8
0
 62
     204
 10
1.94889
 20
0.845486
 30
0.0
 11
1.95432
 21
0.868164
 31
0.0
  0
LINE
  8
0
 62
     204
 10
1.95432
 20
0.868164
 30
0.0
 11
1.96756
 21
0.888672
 31
0.0
  0
LINE
  8
0
 62
     204
 10
1.96756
 20
0.888672
 30
0.0
 11
1.97125
 21
0.891928
 31
0.0
  0
LINE
  8
0
 62
     204
 10
1.97125
 20
0.891928
 30
0.0
 11
1.97401
 21
0.894749
 31
0.0
  0
LINE
  8
0
 62
     204
 10
1.97401
 20
0.894749
 30
0.0
 11
1.9949
 21
0.905871
 31
0.0
  0
LINE
  8
0
 62
     204
 10
1.9949
 20
0.905871
 30
0.0
 11
2.01915
 21
0.911458
 31
0.0
  0
LINE
  8
0
 62
     204
 10
2.01915
 20
0.911458
 30
0.0
 11
2.02724
 21
0.911458
 31
0.0
  0
LINE
  8
0
 62
     204
 10
2.02724
 20
0.911458
 30
0.0
 11
2.0319
 21
0.910536
 31
0.0
  0
LINE
  8
0
 62
     204
 10
2.0319
 20
0.910536
 30
0.0
 11
2.05658
 21
0.905165
 31
0.0
  0
LINE
  8
0
 62
     204
 10
2.05658
 20
0.905165
 30
0.0
 11
2.07915
 21
0.895182
 31
0.0
  0
LINE
  8
0
 62
     204
 10
2.07915
 20
0.895182
 30
0.0
 11
2.08279
 21
0.891928
 31
0.0
  0
LINE
  8
0
 62
     204
 10
2.08279
 20
0.891928
 30
0.0
 11
2.08544
 21
0.888237
 31
0.0
  0
LINE
  8
0
 62
     204
 10
2.08544
 20
0.888237
 30
0.0
 11
2.0976
 21
0.868761
 31
0.0
  0
LINE
  8
0
 62
     204
 10
2.0976
 20
0.868761
 30
0.0
 11
2.10449
 21
0.84809
 31
0.0
  0
LINE
  8
0
 62
     204
 10
2.10449
 20
0.84809
 30
0.0
 11
2.10449
 21
0.841146
 31
0.0
  0
LINE
  8
0
 62
     204
 10
2.10449
 20
0.841146
 30
0.0
 11
2.10406
 21
0.835232
 31
0.0
  0
LINE
  8
0
 62
     204
 10
2.10406
 20
0.835232
 30
0.0
 11
2.09831
 21
0.811957
 31
0.0
  0
LINE
  8
0
 62
     204
 10
2.09831
 20
0.811957
 30
0.0
 11
2.08604
 21
0.793782
 31
0.0
  0
LINE
  8
0
 62
     204
 10
2.08604
 20
0.793782
 30
0.0
 11
2.08236
 21
0.790365
 31
0.0
  0
LINE
  8
0
 62
     204
 10
2.08236
 20
0.790365
 30
0.0
 11
2.07775
 21
0.786893
 31
0.0
  0
LINE
  8
0
 62
     204
 10
2.07775
 20
0.786893
 30
0.0
 11
2.0561
 21
0.774903
 31
0.0
  0
LINE
  8
0
 62
     204
 10
2.0561
 20
0.774903
 30
0.0
 11
2.03444
 21
0.769965
 31
0.0
  0
LINE
  8
0
 62
     204
 10
2.03444
 20
0.769965
 30
0.0
 11
2.02724
 21
0.769965
 31
0.0
  0
LINE
  8
0
 62
     204
 10
2.24431
 20
0.19184
 30
0.0
 11
2.24431
 21
0.849826
 31
0.0
  0
LINE
  8
0
 62
     204
 10
2.24431
 20
0.849826
 30
0.0
 11
2.42486
 21
0.849826
 31
0.0
  0
LINE
  8
0
 62
     204
 10
2.42486
 20
0.849826
 30
0.0
 11
2.44965
 21
0.849393
 31
0.0
  0
LINE
  8
0
 62
     204
 10
2.44965
 20
0.849393
 30
0.0
 11
2.56065
 21
0.828776
 31
0.0
  0
LINE
  8
0
 62
     204
 10
2.56065
 20
0.828776
 30
0.0
 11
2.65061
 21
0.781847
 31
0.0
  0
LINE
  8
0
 62
     204
 10
2.65061
 20
0.781847
 30
0.0
 11
2.66488
 21
0.768229
 31
0.0
  0
LINE
  8
0
 62
     204
 10
2.66488
 20
0.768229
 30
0.0
 11
2.67899
 21
0.754069
 31
0.0
  0
LINE
  8
0
 62
     204
 10
2.67899
 20
0.754069
 30
0.0
 11
2.72879
 21
0.665365
 31
0.0
  0
LINE
  8
0
 62
     204
 10
2.72879
 20
0.665365
 30
0.0
 11
2.75037
 21
0.558919
 31
0.0
  0
LINE
  8
0
 62
     204
 10
2.75037
 20
0.558919
 30
0.0
 11
2.75037
 21
0.523438
 31
0.0
  0
LINE
  8
0
 62
     204
 10
2.75037
 20
0.523438
 30
0.0
 11
2.75006
 21
0.495389
 31
0.0
  0
LINE
  8
0
 62
     204
 10
2.75006
 20
0.495389
 30
0.0
 11
2.72862
 21
0.379015
 31
0.0
  0
LINE
  8
0
 62
     204
 10
2.72862
 20
0.379015
 30
0.0
 11
2.67947
 21
0.290582
 31
0.0
  0
LINE
  8
0
 62
     204
 10
2.67947
 20
0.290582
 30
0.0
 11
2.66531
 21
0.276476
 31
0.0
  0
LINE
  8
0
 62
     204
 10
2.66531
 20
0.276476
 30
0.0
 11
2.65099
 21
0.262261
 31
0.0
  0
LINE
  8
0
 62
     204
 10
2.65099
 20
0.262261
 30
0.0
 11
2.56418
 21
0.212836
 31
0.0
  0
LINE
  8
0
 62
     204
 10
2.56418
 20
0.212836
 30
0.0
 11
2.4649
 21
0.19184
 31
0.0
  0
LINE
  8
0
 62
     204
 10
2.4649
 20
0.19184
 30
0.0
 11
2.43181
 21
0.19184
 31
0.0
  0
LINE
  8
0
 62
     204
 10
2.43181
 20
0.19184
 30
0.0
 11
2.24431
 21
0.19184
 31
0.0
  0
LINE
  8
0
 62
     204
 10
2.37625
 20
0.297743
 30
0.0
 11
2.41704
 21
0.297743
 31
0.0
  0
LINE
  8
0
 62
     204
 10
2.41704
 20
0.297743
 30
0.0
 11
2.43853
 21
0.29731
 31
0.0
  0
LINE
  8
0
 62
     204
 10
2.43853
 20
0.29731
 30
0.0
 11
2.50347
 21
0.310656
 31
0.0
  0
LINE
  8
0
 62
     204
 10
2.50347
 20
0.310656
 30
0.0
 11
2.56565
 21
0.353082
 31
0.0
  0
LINE
  8
0
 62
     204
 10
2.56565
 20
0.353082
 30
0.0
 11
2.60319
 21
0.424317
 31
0.0
  0
LINE
  8
0
 62
     204
 10
2.60319
 20
0.424317
 30
0.0
 11
2.61583
 21
0.498699
 31
0.0
  0
LINE
  8
0
 62
     204
 10
2.61583
 20
0.498699
 30
0.0
 11
2.61583
 21
0.523438
 31
0.0
  0
LINE
  8
0
 62
     204
 10
2.61583
 20
0.523438
 30
0.0
 11
2.6154
 21
0.54731
 31
0.0
  0
LINE
  8
0
 62
     204
 10
2.6154
 20
0.54731
 30
0.0
 11
2.60226
 21
0.618599
 31
0.0
  0
LINE
  8
0
 62
     204
 10
2.60226
 20
0.618599
 30
0.0
 11
2.56511
 21
0.687935
 31
0.0
  0
LINE
  8
0
 62
     204
 10
2.56511
 20
0.687935
 30
0.0
 11
2.50358
 21
0.730414
 31
0.0
  0
LINE
  8
0
 62
     204
 10
2.50358
 20
0.730414
 30
0.0
 11
2.43864
 21
0.744792
 31
0.0
  0
LINE
  8
0
 62
     204
 10
2.43864
 20
0.744792
 30
0.0
 11
2.41704
 21
0.744792
 31
0.0
  0
LINE
  8
0
 62
     204
 10
2.41704
 20
0.744792
 30
0.0
 11
2.37625
 21
0.744792
 31
0.0
  0
LINE
  8
0
 62
     204
 10
2.37625
 20
0.744792
 30
0.0
 11
2.37625
 21
0.297743
 31
0.0
  0
LINE
  8
0
 62
     204
 10
3.08458
 20
0.179688
 30
0.0
 11
3.0715
 21
0.179633
 31
0.0
  0
LINE
  8
0
 62
     204
 10
3.0715
 20
0.179633
 30
0.0
 11
3.03222
 21
0.183865
 31
0.0
  0
LINE
  8
0
 62
     204
 10
3.03222
 20
0.183865
 30
0.0
 11
2.98579
 21
0.197103
 31
0.0
  0
LINE
  8
0
 62
     204
 10
2.98579
 20
0.197103
 30
0.0
 11
2.9445
 21
0.219185
 31
0.0
  0
LINE
  8
0
 62
     204
 10
2.9445
 20
0.219185
 30
0.0
 11
2.91596
 21
0.241536
 31
0.0
  0
LINE
  8
0
 62
     204
 10
2.91596
 20
0.241536
 30
0.0
 11
2.9075
 21
0.25
 31
0.0
  0
LINE
  8
0
 62
     204
 10
2.9075
 20
0.25
 30
0.0
 11
2.89828
 21
0.258301
 31
0.0
  0
LINE
  8
0
 62
     204
 10
2.89828
 20
0.258301
 30
0.0
 11
2.875
 21
0.287924
 31
0.0
  0
LINE
  8
0
 62
     204
 10
2.875
 20
0.287924
 30
0.0
 11
2.85319
 21
0.332357
 31
0.0
  0
LINE
  8
0
 62
     204
 10
2.85319
 20
0.332357
 30
0.0
 11
2.84099
 21
0.383192
 31
0.0
  0
LINE
  8
0
 62
     204
 10
2.84099
 20
0.383192
 30
0.0
 11
2.83718
 21
0.42589
 31
0.0
  0
LINE
  8
0
 62
     204
 10
2.83718
 20
0.42589
 30
0.0
 11
2.83718
 21
0.440104
 31
0.0
  0
LINE
  8
0
 62
     204
 10
2.83718
 20
0.440104
 30
0.0
 11
2.83649
 21
0.453504
 31
0.0
  0
LINE
  8
0
 62
     204
 10
2.83649
 20
0.453504
 30
0.0
 11
2.83985
 21
0.493869
 31
0.0
  0
LINE
  8
0
 62
     204
 10
2.83985
 20
0.493869
 30
0.0
 11
2.85297
 21
0.544054
 31
0.0
  0
LINE
  8
0
 62
     204
 10
2.85297
 20
0.544054
 30
0.0
 11
2.87543
 21
0.589626
 31
0.0
  0
LINE
  8
0
 62
     204
 10
2.87543
 20
0.589626
 30
0.0
 11
2.89757
 21
0.620281
 31
0.0
  0
LINE
  8
0
 62
     204
 10
2.89757
 20
0.620281
 30
0.0
 11
2.90619
 21
0.62934
 31
0.0
  0
LINE
  8
0
 62
     204
 10
2.90619
 20
0.62934
 30
0.0
 11
2.91396
 21
0.637858
 31
0.0
  0
LINE
  8
0
 62
     204
 10
2.91396
 20
0.637858
 30
0.0
 11
2.94069
 21
0.660265
 31
0.0
  0
LINE
  8
0
 62
     204
 10
2.94069
 20
0.660265
 30
0.0
 11
2.97999
 21
0.68316
 31
0.0
  0
LINE
  8
0
 62
     204
 10
2.97999
 20
0.68316
 30
0.0
 11
3.02311
 21
0.697374
 31
0.0
  0
LINE
  8
0
 62
     204
 10
3.02311
 20
0.697374
 30
0.0
 11
3.05746
 21
0.702257
 31
0.0
  0
LINE
  8
0
 62
     204
 10
3.05746
 20
0.702257
 30
0.0
 11
3.06896
 21
0.702257
 31
0.0
  0
LINE
  8
0
 62
     204
 10
3.06896
 20
0.702257
 30
0.0
 11
3.08051
 21
0.70166
 31
0.0
  0
LINE
  8
0
 62
     204
 10
3.08051
 20
0.70166
 30
0.0
 11
3.11501
 21
0.696669
 31
0.0
  0
LINE
  8
0
 62
     204
 10
3.11501
 20
0.696669
 30
0.0
 11
3.15647
 21
0.684462
 31
0.0
  0
LINE
  8
0
 62
     204
 10
3.15647
 20
0.684462
 30
0.0
 11
3.19271
 21
0.66466
 31
0.0
  0
LINE
  8
0
 62
     204
 10
3.19271
 20
0.66466
 30
0.0
 11
3.21647
 21
0.64426
 31
0.0
  0
LINE
  8
0
 62
     204
 10
3.21647
 20
0.64426
 30
0.0
 11
3.22304
 21
0.636285
 31
0.0
  0
LINE
  8
0
 62
     204
 10
3.22304
 20
0.636285
 30
0.0
 11
3.23139
 21
0.625325
 31
0.0
  0
LINE
  8
0
 62
     204
 10
3.23139
 20
0.625325
 30
0.0
 11
3.26269
 21
0.560112
 31
0.0
  0
LINE
  8
0
 62
     204
 10
3.26269
 20
0.560112
 30
0.0
 11
3.27729
 21
0.487685
 31
0.0
  0
LINE
  8
0
 62
     204
 10
3.27729
 20
0.487685
 30
0.0
 11
3.27729
 21
0.463542
 31
0.0
  0
LINE
  8
0
 62
     204
 10
3.27729
 20
0.463542
 30
0.0
 11
3.27669
 21
0.456381
 31
0.0
  0
LINE
  8
0
 62
     204
 10
3.27669
 20
0.456381
 30
0.0
 11
3.27485
 21
0.428276
 31
0.0
  0
LINE
  8
0
 62
     204
 10
3.27485
 20
0.428276
 30
0.0
 11
3.27219
 21
0.407878
 31
0.0
  0
LINE
  8
0
 62
     204
 10
3.27219
 20
0.407878
 30
0.0
 11
3.27121
 21
0.404514
 31
0.0
  0
LINE
  8
0
 62
     204
 10
3.27121
 20
0.404514
 30
0.0
 11
2.96392
 21
0.404514
 31
0.0
  0
LINE
  8
0
 62
     204
 10
2.96392
 20
0.404514
 30
0.0
 11
2.96414
 21
0.394206
 31
0.0
  0
LINE
  8
0
 62
     204
 10
2.96414
 20
0.394206
 30
0.0
 11
2.97732
 21
0.350911
 31
0.0
  0
LINE
  8
0
 62
     204
 10
2.97732
 20
0.350911
 30
0.0
 11
3.00244
 21
0.317492
 31
0.0
  0
LINE
  8
0
 62
     204
 10
3.00244
 20
0.317492
 30
0.0
 11
3.00863
 21
0.312067
 31
0.0
  0
LINE
  8
0
 62
     204
 10
3.00863
 20
0.312067
 30
0.0
 11
3.0146
 21
0.305881
 31
0.0
  0
LINE
  8
0
 62
     204
 10
3.0146
 20
0.305881
 30
0.0
 11
3.05007
 21
0.286513
 31
0.0
  0
LINE
  8
0
 62
     204
 10
3.05007
 20
0.286513
 30
0.0
 11
3.08897
 21
0.279514
 31
0.0
  0
LINE
  8
0
 62
     204
 10
3.08897
 20
0.279514
 30
0.0
 11
3.10194
 21
0.279514
 31
0.0
  0
LINE
  8
0
 62
     204
 10
3.10194
 20
0.279514
 30
0.0
 11
3.11046
 21
0.279189
 31
0.0
  0
LINE
  8
0
 62
     204
 10
3.11046
 20
0.279189
 30
0.0
 11
3.15701
 21
0.287651
 31
0.0
  0
LINE
  8
0
 62
     204
 10
3.15701
 20
0.287651
 30
0.0
 11
3.20481
 21
0.308485
 31
0.0
  0
LINE
  8
0
 62
     204
 10
3.20481
 20
0.308485
 30
0.0
 11
3.21392
 21
0.314236
 31
0.0
  0
LINE
  8
0
 62
     204
 10
3.21392
 20
0.314236
 30
0.0
 11
3.25819
 21
0.234375
 31
0.0
  0
LINE
  8
0
 62
     204
 10
3.25819
 20
0.234375
 30
0.0
 11
3.24501
 21
0.225206
 31
0.0
  0
LINE
  8
0
 62
     204
 10
3.24501
 20
0.225206
 30
0.0
 11
3.17546
 21
0.193251
 31
0.0
  0
LINE
  8
0
 62
     204
 10
3.17546
 20
0.193251
 30
0.0
 11
3.10726
 21
0.179688
 31
0.0
  0
LINE
  8
0
 62
     204
 10
3.10726
 20
0.179688
 30
0.0
 11
3.08458
 21
0.179688
 31
0.0
  0
LINE
  8
0
 62
     204
 10
2.96218
 20
0.490451
 30
0.0
 11
3.16531
 21
0.490451
 31
0.0
  0
LINE
  8
0
 62
     204
 10
3.16531
 20
0.490451
 30
0.0
 11
3.16476
 21
0.498589
 31
0.0
  0
LINE
  8
0
 62
     204
 10
3.16476
 20
0.498589
 30
0.0
 11
3.15853
 21
0.535915
 31
0.0
  0
LINE
  8
0
 62
     204
 10
3.15853
 20
0.535915
 30
0.0
 11
3.1454
 21
0.566786
 31
0.0
  0
LINE
  8
0
 62
     204
 10
3.1454
 20
0.566786
 30
0.0
 11
3.14144
 21
0.571615
 31
0.0
  0
LINE
  8
0
 62
     204
 10
3.14144
 20
0.571615
 30
0.0
 11
3.13661
 21
0.576064
 31
0.0
  0
LINE
  8
0
 62
     204
 10
3.13661
 20
0.576064
 30
0.0
 11
3.11051
 21
0.592828
 31
0.0
  0
LINE
  8
0
 62
     204
 10
3.11051
 20
0.592828
 30
0.0
 11
3.08062
 21
0.600694
 31
0.0
  0
LINE
  8
0
 62
     204
 10
3.08062
 20
0.600694
 30
0.0
 11
3.07069
 21
0.600694
 31
0.0
  0
LINE
  8
0
 62
     204
 10
3.07069
 20
0.600694
 30
0.0
 11
3.06315
 21
0.600206
 31
0.0
  0
LINE
  8
0
 62
     204
 10
3.06315
 20
0.600206
 30
0.0
 11
3.03136
 21
0.592774
 31
0.0
  0
LINE
  8
0
 62
     204
 10
3.03136
 20
0.592774
 30
0.0
 11
3.00456
 21
0.576824
 31
0.0
  0
LINE
  8
0
 62
     204
 10
3.00456
 20
0.576824
 30
0.0
 11
2.99951
 21
0.572049
 31
0.0
  0
LINE
  8
0
 62
     204
 10
2.99951
 20
0.572049
 30
0.0
 11
2.99388
 21
0.56684
 31
0.0
  0
LINE
  8
0
 62
     204
 10
2.99388
 20
0.56684
 30
0.0
 11
2.97407
 21
0.536675
 31
0.0
  0
LINE
  8
0
 62
     204
 10
2.97407
 20
0.536675
 30
0.0
 11
2.96332
 21
0.499294
 31
0.0
  0
LINE
  8
0
 62
     204
 10
2.96332
 20
0.499294
 30
0.0
 11
2.96218
 21
0.490451
 31
0.0
  0
LINE
  8
0
 62
     204
 10
3.38406
 20
0.19184
 30
0.0
 11
3.38406
 21
0.689236
 31
0.0
  0
LINE
  8
0
 62
     204
 10
3.38406
 20
0.689236
 30
0.0
 11
3.49083
 21
0.689236
 31
0.0
  0
LINE
  8
0
 62
     204
 10
3.49083
 20
0.689236
 30
0.0
 11
3.49951
 21
0.624132
 31
0.0
  0
LINE
  8
0
 62
     204
 10
3.49951
 20
0.624132
 30
0.0
 11
3.50299
 21
0.624132
 31
0.0
  0
LINE
  8
0
 62
     204
 10
3.50299
 20
0.624132
 30
0.0
 11
3.51557
 21
0.637044
 31
0.0
  0
LINE
  8
0
 62
     204
 10
3.51557
 20
0.637044
 30
0.0
 11
3.58214
 21
0.682508
 31
0.0
  0
LINE
  8
0
 62
     204
 10
3.58214
 20
0.682508
 30
0.0
 11
3.64382
 21
0.702257
 31
0.0
  0
LINE
  8
0
 62
     204
 10
3.64382
 20
0.702257
 30
0.0
 11
3.66444
 21
0.702257
 31
0.0
  0
LINE
  8
0
 62
     204
 10
3.66444
 20
0.702257
 30
0.0
 11
3.68126
 21
0.701714
 31
0.0
  0
LINE
  8
0
 62
     204
 10
3.68126
 20
0.701714
 30
0.0
 11
3.7315
 21
0.68826
 31
0.0
  0
LINE
  8
0
 62
     204
 10
3.7315
 20
0.68826
 30
0.0
 11
3.77983
 21
0.650825
 31
0.0
  0
LINE
  8
0
 62
     204
 10
3.77983
 20
0.650825
 30
0.0
 11
3.80908
 21
0.588976
 31
0.0
  0
LINE
  8
0
 62
     204
 10
3.80908
 20
0.588976
 30
0.0
 11
3.81896
 21
0.523546
 31
0.0
  0
LINE
  8
0
 62
     204
 10
3.81896
 20
0.523546
 30
0.0
 11
3.81896
 21
0.501736
 31
0.0
  0
LINE
  8
0
 62
     204
 10
3.81896
 20
0.501736
 30
0.0
 11
3.81896
 21
0.19184
 31
0.0
  0
LINE
  8
0
 62
     204
 10
3.81896
 20
0.19184
 30
0.0
 11
3.68788
 21
0.19184
 31
0.0
  0
LINE
  8
0
 62
     204
 10
3.68788
 20
0.19184
 30
0.0
 11
3.68788
 21
0.486111
 31
0.0
  0
LINE
  8
0
 62
     204
 10
3.68788
 20
0.486111
 30
0.0
 11
3.68679
 21
0.495335
 31
0.0
  0
LINE
  8
0
 62
     204
 10
3.68679
 20
0.495335
 30
0.0
 11
3.68207
 21
0.534071
 31
0.0
  0
LINE
  8
0
 62
     204
 10
3.68207
 20
0.534071
 30
0.0
 11
3.6741
 21
0.562446
 31
0.0
  0
LINE
  8
0
 62
     204
 10
3.6741
 20
0.562446
 30
0.0
 11
3.67139
 21
0.566407
 31
0.0
  0
LINE
  8
0
 62
     204
 10
3.67139
 20
0.566407
 30
0.0
 11
3.66775
 21
0.569282
 31
0.0
  0
LINE
  8
0
 62
     204
 10
3.66775
 20
0.569282
 30
0.0
 11
3.64833
 21
0.582628
 31
0.0
  0
LINE
  8
0
 62
     204
 10
3.64833
 20
0.582628
 30
0.0
 11
3.62522
 21
0.590278
 31
0.0
  0
LINE
  8
0
 62
     204
 10
3.62522
 20
0.590278
 30
0.0
 11
3.61757
 21
0.590278
 31
0.0
  0
LINE
  8
0
 62
     204
 10
3.61757
 20
0.590278
 30
0.0
 11
3.61176
 21
0.589518
 31
0.0
  0
LINE
  8
0
 62
     204
 10
3.61176
 20
0.589518
 30
0.0
 11
3.58897
 21
0.585829
 31
0.0
  0
LINE
  8
0
 62
     204
 10
3.58897
 20
0.585829
 30
0.0
 11
3.57047
 21
0.579428
 31
0.0
  0
LINE
  8
0
 62
     204
 10
3.57047
 20
0.579428
 30
0.0
 11
3.56679
 21
0.577257
 31
0.0
  0
LINE
  8
0
 62
     204
 10
3.56679
 20
0.577257
 30
0.0
 11
3.56282
 21
0.574219
 31
0.0
  0
LINE
  8
0
 62
     204
 10
3.56282
 20
0.574219
 30
0.0
 11
3.54194
 21
0.558594
 31
0.0
  0
LINE
  8
0
 62
     204
 10
3.54194
 20
0.558594
 30
0.0
 11
3.51861
 21
0.538954
 31
0.0
  0
LINE
  8
0
 62
     204
 10
3.51861
 20
0.538954
 30
0.0
 11
3.5134
 21
0.533854
 31
0.0
  0
LINE
  8
0
 62
     204
 10
3.5134
 20
0.533854
 30
0.0
 11
3.5134
 21
0.19184
 31
0.0
  0
LINE
  8
0
 62
     204
 10
3.5134
 20
0.19184
 30
0.0
 11
3.38406
 21
0.19184
 31
0.0
  0
LINE
  8
0
 62
     204
 10
3.9535
 20
0.19184
 30
0.0
 11
3.9535
 21
0.901042
 31
0.0
  0
LINE
  8
0
 62
     204
 10
3.9535
 20
0.901042
 30
0.0
 11
4.08024
 21
0.901042
 31
0.0
  0
LINE
  8
0
 62
     204
 10
4.08024
 20
0.901042
 30
0.0
 11
4.08024
 21
0.474826
 31
0.0
  0
LINE
  8
0
 62
     204
 10
4.08024
 20
0.474826
 30
0.0
 11
4.08371
 21
0.474826
 31
0.0
  0
LINE
  8
0
 62
     204
 10
4.08371
 20
0.474826
 30
0.0
 11
4.25646
 21
0.689236
 31
0.0
  0
LINE
  8
0
 62
     204
 10
4.25646
 20
0.689236
 30
0.0
 11
4.39882
 21
0.689236
 31
0.0
  0
LINE
  8
0
 62
     204
 10
4.39882
 20
0.689236
 30
0.0
 11
4.22607
 21
0.486111
 31
0.0
  0
LINE
  8
0
 62
     204
 10
4.22607
 20
0.486111
 30
0.0
 11
4.41444
 21
0.19184
 31
0.0
  0
LINE
  8
0
 62
     204
 10
4.41444
 20
0.19184
 30
0.0
 11
4.27382
 21
0.19184
 31
0.0
  0
LINE
  8
0
 62
     204
 10
4.27382
 20
0.19184
 30
0.0
 11
4.15229
 21
0.398438
 31
0.0
  0
LINE
  8
0
 62
     204
 10
4.15229
 20
0.398438
 30
0.0
 11
4.08024
 21
0.315972
 31
0.0
  0
LINE
  8
0
 62
     204
 10
4.08024
 20
0.315972
 30
0.0
 11
4.08024
 21
0.19184
 31
0.0
  0
LINE
  8
0
 62
     204
 10
4.08024
 20
0.19184
 30
0.0
 11
3.9535
 21
0.19184
 31
0.0
  0
LINE
  8
0
 62
     204
 10
4.84538
 20
0.250868
 30
0.0
 11
4.83344
 21
0.238715
 31
0.0
  0
LINE
  8
0
 62
     204
 10
4.83344
 20
0.238715
 30
0.0
 11
4.76774
 21
0.197049
 31
0.0
  0
LINE
  8
0
 62
     204
 10
4.76774
 20
0.197049
 30
0.0
 11
4.69965
 21
0.179688
 31
0.0
  0
LINE
  8
0
 62
     204
 10
4.69965
 20
0.179688
 30
0.0
 11
4.67697
 21
0.179688
 31
0.0
  0
LINE
  8
0
 62
     204
 10
4.67697
 20
0.179688
 30
0.0
 11
4.66054
 21
0.179579
 31
0.0
  0
LINE
  8
0
 62
     204
 10
4.66054
 20
0.179579
 30
0.0
 11
4.58556
 21
0.197319
 31
0.0
  0
LINE
  8
0
 62
     204
 10
4.58556
 20
0.197319
 30
0.0
 11
4.51992
 21
0.23904
 31
0.0
  0
LINE
  8
0
 62
     204
 10
4.51992
 20
0.23904
 30
0.0
 11
4.50814
 21
0.250868
 31
0.0
  0
LINE
  8
0
 62
     204
 10
4.50814
 20
0.250868
 30
0.0
 11
4.49886
 21
0.259224
 31
0.0
  0
LINE
  8
0
 62
     204
 10
4.49886
 20
0.259224
 30
0.0
 11
4.47537
 21
0.2889
 31
0.0
  0
LINE
  8
0
 62
     204
 10
4.47537
 20
0.2889
 30
0.0
 11
4.45344
 21
0.333333
 31
0.0
  0
LINE
  8
0
 62
     204
 10
4.45344
 20
0.333333
 30
0.0
 11
4.44119
 21
0.383843
 31
0.0
  0
LINE
  8
0
 62
     204
 10
4.44119
 20
0.383843
 30
0.0
 11
4.43739
 21
0.426053
 31
0.0
  0
LINE
  8
0
 62
     204
 10
4.43739
 20
0.426053
 30
0.0
 11
4.43739
 21
0.440104
 31
0.0
  0
LINE
  8
0
 62
     204
 10
4.43739
 20
0.440104
 30
0.0
 11
4.43668
 21
0.453722
 31
0.0
  0
LINE
  8
0
 62
     204
 10
4.43668
 20
0.453722
 30
0.0
 11
4.44015
 21
0.4949
 31
0.0
  0
LINE
  8
0
 62
     204
 10
4.44015
 20
0.4949
 30
0.0
 11
4.45361
 21
0.545682
 31
0.0
  0
LINE
  8
0
 62
     204
 10
4.45361
 20
0.545682
 30
0.0
 11
4.47661
 21
0.591308
 31
0.0
  0
LINE
  8
0
 62
     204
 10
4.47661
 20
0.591308
 30
0.0
 11
4.49929
 21
0.621744
 31
0.0
  0
LINE
  8
0
 62
     204
 10
4.49929
 20
0.621744
 30
0.0
 11
4.50814
 21
0.630643
 31
0.0
  0
LINE
  8
0
 62
     204
 10
4.50814
 20
0.630643
 30
0.0
 11
4.51606
 21
0.638997
 31
0.0
  0
LINE
  8
0
 62
     204
 10
4.51606
 20
0.638997
 30
0.0
 11
4.5434
 21
0.660807
 31
0.0
  0
LINE
  8
0
 62
     204
 10
4.5434
 20
0.660807
 30
0.0
 11
4.5841
 21
0.683322
 31
0.0
  0
LINE
  8
0
 62
     204
 10
4.5841
 20
0.683322
 30
0.0
 11
4.62901
 21
0.697428
 31
0.0
  0
LINE
  8
0
 62
     204
 10
4.62901
 20
0.697428
 30
0.0
 11
4.66499
 21
0.702257
 31
0.0
  0
LINE
  8
0
 62
     204
 10
4.66499
 20
0.702257
 30
0.0
 11
4.67697
 21
0.702257
 31
0.0
  0
LINE
  8
0
 62
     204
 10
4.67697
 20
0.702257
 30
0.0
 11
4.69325
 21
0.701389
 31
0.0
  0
LINE
  8
0
 62
     204
 10
4.69325
 20
0.701389
 30
0.0
 11
4.76801
 21
0.68316
 31
0.0
  0
LINE
  8
0
 62
     204
 10
4.76801
 20
0.68316
 30
0.0
 11
4.83365
 21
0.642958
 31
0.0
  0
LINE
  8
0
 62
     204
 10
4.83365
 20
0.642958
 30
0.0
 11
4.84538
 21
0.631076
 31
0.0
  0
LINE
  8
0
 62
     204
 10
4.84538
 20
0.631076
 30
0.0
 11
4.85379
 21
0.621907
 31
0.0
  0
LINE
  8
0
 62
     204
 10
4.85379
 20
0.621907
 30
0.0
 11
4.87576
 21
0.591254
 31
0.0
  0
LINE
  8
0
 62
     204
 10
4.87576
 20
0.591254
 30
0.0
 11
4.89779
 21
0.546658
 31
0.0
  0
LINE
  8
0
 62
     204
 10
4.89779
 20
0.546658
 30
0.0
 11
4.91114
 21
0.496582
 31
0.0
  0
LINE
  8
0
 62
     204
 10
4.91114
 20
0.496582
 30
0.0
 11
4.91569
 21
0.454264
 31
0.0
  0
LINE
  8
0
 62
     204
 10
4.91569
 20
0.454264
 30
0.0
 11
4.91569
 21
0.440104
 31
0.0
  0
LINE
  8
0
 62
     204
 10
4.91569
 20
0.440104
 30
0.0
 11
4.91547
 21
0.425672
 31
0.0
  0
LINE
  8
0
 62
     204
 10
4.91547
 20
0.425672
 30
0.0
 11
4.91075
 21
0.382324
 31
0.0
  0
LINE
  8
0
 62
     204
 10
4.91075
 20
0.382324
 30
0.0
 11
4.89763
 21
0.332249
 31
0.0
  0
LINE
  8
0
 62
     204
 10
4.89763
 20
0.332249
 30
0.0
 11
4.87592
 21
0.288846
 31
0.0
  0
LINE
  8
0
 62
     204
 10
4.87592
 20
0.288846
 30
0.0
 11
4.85389
 21
0.259494
 31
0.0
  0
LINE
  8
0
 62
     204
 10
4.85389
 20
0.259494
 30
0.0
 11
4.84538
 21
0.250868
 31
0.0
  0
LINE
  8
0
 62
     204
 10
4.59885
 20
0.327692
 30
0.0
 11
4.60297
 21
0.319933
 31
0.0
  0
LINE
  8
0
 62
     204
 10
4.60297
 20
0.319933
 30
0.0
 11
4.63146
 21
0.29541
 31
0.0
  0
LINE
  8
0
 62
     204
 10
4.63146
 20
0.29541
 30
0.0
 11
4.66558
 21
0.286458
 31
0.0
  0
LINE
  8
0
 62
     204
 10
4.66558
 20
0.286458
 30
0.0
 11
4.67697
 21
0.286458
 31
0.0
  0
LINE
  8
0
 62
     204
 10
4.67697
 20
0.286458
 30
0.0
 11
4.68528
 21
0.285536
 31
0.0
  0
LINE
  8
0
 62
     204
 10
4.68528
 20
0.285536
 30
0.0
 11
4.7214
 21
0.295356
 31
0.0
  0
LINE
  8
0
 62
     204
 10
4.7214
 20
0.295356
 30
0.0
 11
4.75011
 21
0.320856
 31
0.0
  0
LINE
  8
0
 62
     204
 10
4.75011
 20
0.320856
 30
0.0
 11
4.75467
 21
0.327692
 31
0.0
  0
LINE
  8
0
 62
     204
 10
4.75467
 20
0.327692
 30
0.0
 11
4.75846
 21
0.333658
 31
0.0
  0
LINE
  8
0
 62
     204
 10
4.75846
 20
0.333658
 30
0.0
 11
4.77403
 21
0.375054
 31
0.0
  0
LINE
  8
0
 62
     204
 10
4.77403
 20
0.375054
 30
0.0
 11
4.78201
 21
0.423882
 31
0.0
  0
LINE
  8
0
 62
     204
 10
4.78201
 20
0.423882
 30
0.0
 11
4.78201
 21
0.440104
 31
0.0
  0
LINE
  8
0
 62
     204
 10
4.78201
 20
0.440104
 30
0.0
 11
4.78125
 21
0.451118
 31
0.0
  0
LINE
  8
0
 62
     204
 10
4.78125
 20
0.451118
 30
0.0
 11
4.77403
 21
0.503039
 31
0.0
  0
LINE
  8
0
 62
     204
 10
4.77403
 20
0.503039
 30
0.0
 11
4.75922
 21
0.546875
 31
0.0
  0
LINE
  8
0
 62
     204
 10
4.75922
 20
0.546875
 30
0.0
 11
4.75467
 21
0.553819
 31
0.0
  0
LINE
  8
0
 62
     204
 10
4.75467
 20
0.553819
 30
0.0
 11
4.74935
 21
0.56071
 31
0.0
  0
LINE
  8
0
 62
     204
 10
4.74935
 20
0.56071
 30
0.0
 11
4.72038
 21
0.584961
 31
0.0
  0
LINE
  8
0
 62
     204
 10
4.72038
 20
0.584961
 30
0.0
 11
4.68782
 21
0.595486
 31
0.0
  0
LINE
  8
0
 62
     204
 10
4.68782
 20
0.595486
 30
0.0
 11
4.67697
 21
0.595486
 31
0.0
  0
LINE
  8
0
 62
     204
 10
4.67697
 20
0.595486
 30
0.0
 11
4.66851
 21
0.595432
 31
0.0
  0
LINE
  8
0
 62
     204
 10
4.66851
 20
0.595432
 30
0.0
 11
4.63211
 21
0.584961
 31
0.0
  0
LINE
  8
0
 62
     204
 10
4.63211
 20
0.584961
 30
0.0
 11
4.60346
 21
0.560764
 31
0.0
  0
LINE
  8
0
 62
     204
 10
4.60346
 20
0.560764
 30
0.0
 11
4.59885
 21
0.553819
 31
0.0
  0
LINE
  8
0
 62
     204
 10
4.59885
 20
0.553819
 30
0.0
 11
4.59369
 21
0.546821
 31
0.0
  0
LINE
  8
0
 62
     204
 10
4.59369
 20
0.546821
 30
0.0
 11
4.57721
 21
0.504449
 31
0.0
  0
LINE
  8
0
 62
     204
 10
4.57721
 20
0.504449
 30
0.0
 11
4.57107
 21
0.456218
 31
0.0
  0
LINE
  8
0
 62
     204
 10
4.57107
 20
0.456218
 30
0.0
 11
4.57107
 21
0.440104
 31
0.0
  0
LINE
  8
0
 62
     204
 10
4.57107
 20
0.440104
 30
0.0
 11
4.57053
 21
0.427246
 31
0.0
  0
LINE
  8
0
 62
     204
 10
4.57053
 20
0.427246
 30
0.0
 11
4.57721
 21
0.374892
 31
0.0
  0
LINE
  8
0
 62
     204
 10
4.57721
 20
0.374892
 30
0.0
 11
4.59418
 21
0.334581
 31
0.0
  0
LINE
  8
0
 62
     204
 10
4.59418
 20
0.334581
 30
0.0
 11
4.59885
 21
0.327692
 31
0.0
  0
ENDSEC
  0
EOF
