M48
;DRILL file {KiCad 5.0.1-33cea8e~66~ubuntu18.04.1} date 2019年09月26日 22時02分50秒
;FORMAT={3:3/ absolute / metric / suppress leading zeros}
FMAT,2
METRIC,TZ
T1C0.400
T2C0.650
T3C1.000
T4C1.200
T5C0.700
%
G90
G05
M71
T1
X60417Y-42761
X65256Y-34647
X69321Y-32500
X74966Y-32085
T2
X83750Y-35000
X83750Y-49000
X85750Y-35000
X85750Y-49000
X87750Y-35000
X87750Y-49000
X89750Y-35000
X89750Y-49000
X91750Y-35000
X91750Y-49000
X93750Y-35000
X93750Y-49000
X95750Y-35000
X95750Y-49000
X97750Y-35000
X97750Y-49000
T3
X103500Y-36000
X103500Y-38540
X103500Y-41080
X103500Y-43620
X103500Y-46160
X103500Y-48700
X72500Y-31875
X72500Y-34415
X72500Y-36955
X72500Y-39495
X72500Y-42035
X72500Y-44575
X72500Y-47115
X72500Y-49655
X67250Y-36750
X67250Y-39290
T5
X80625Y-26600
X83625Y-26650
T4
X52150Y-35665G85X51350Y-35665
G05
X52150Y-38205G85X51350Y-38205
G05
X52150Y-40745G85X51350Y-40745
G05
X52150Y-43285G85X51350Y-43285
G05
X52150Y-45825G85X51350Y-45825
G05
T0
M30
