G04 #@! TF.GenerationSoftware,KiCad,Pcbnew,5.0.1-33cea8e~66~ubuntu18.04.1*
G04 #@! TF.CreationDate,2019-09-26T22:02:42+09:00*
G04 #@! TF.ProjectId,minidenko,6D696E6964656E6B6F2E6B696361645F,rev?*
G04 #@! TF.SameCoordinates,Original*
G04 #@! TF.FileFunction,Profile,NP*
%FSLAX46Y46*%
G04 Gerber Fmt 4.6, Leading zero omitted, Abs format (unit mm)*
G04 Created by KiCad (PCBNEW 5.0.1-33cea8e~66~ubuntu18.04.1) date 2019年09月26日 22時02分42秒*
%MOMM*%
%LPD*%
G01*
G04 APERTURE LIST*
%ADD10C,0.150000*%
G04 APERTURE END LIST*
D10*
X88500000Y-30000000D02*
G75*
G02X87500000Y-29000000I0J1000000D01*
G01*
X86500000Y-24750000D02*
G75*
G02X87500000Y-25750000I0J-1000000D01*
G01*
X76500000Y-25750000D02*
G75*
G02X77500000Y-24750000I1000000J0D01*
G01*
X76500000Y-29000000D02*
G75*
G02X75500000Y-30000000I-1000000J0D01*
G01*
X103500000Y-30000000D02*
X88500000Y-30000000D01*
X87500000Y-25750000D02*
X87500000Y-29000000D01*
X77500000Y-24750000D02*
X86500000Y-24750000D01*
X76500000Y-29000000D02*
X76500000Y-25750000D01*
X51000000Y-47750000D02*
X55000000Y-47750000D01*
X50000000Y-46750000D02*
G75*
G03X51000000Y-47750000I1000000J0D01*
G01*
X56000000Y-48750000D02*
G75*
G03X55000000Y-47750000I-1000000J0D01*
G01*
X56000000Y-50500000D02*
G75*
G03X57000000Y-51500000I1000000J0D01*
G01*
X56000000Y-48750000D02*
X56000000Y-50500000D01*
X56000000Y-31000000D02*
G75*
G02X57000000Y-30000000I1000000J0D01*
G01*
X56000000Y-32750000D02*
G75*
G02X55000000Y-33750000I-1000000J0D01*
G01*
X50000000Y-34750000D02*
G75*
G02X51000000Y-33750000I1000000J0D01*
G01*
X56000000Y-32750000D02*
X56000000Y-31000000D01*
X51000000Y-33750000D02*
X55000000Y-33750000D01*
X103500000Y-30000000D02*
G75*
G02X105500000Y-32000000I0J-2000000D01*
G01*
X105500000Y-49500000D02*
G75*
G02X103500000Y-51500000I-2000000J0D01*
G01*
X75500000Y-30000000D02*
X57000000Y-30000000D01*
X105500000Y-49500000D02*
X105500000Y-32000000D01*
X57000000Y-51500000D02*
X103500000Y-51500000D01*
X50000000Y-34750000D02*
X50000000Y-46750000D01*
M02*
