G04 #@! TF.GenerationSoftware,KiCad,Pcbnew,5.0.1-33cea8e~66~ubuntu18.04.1*
G04 #@! TF.CreationDate,2019-09-26T22:02:42+09:00*
G04 #@! TF.ProjectId,minidenko,6D696E6964656E6B6F2E6B696361645F,rev?*
G04 #@! TF.SameCoordinates,Original*
G04 #@! TF.FileFunction,Legend,Top*
G04 #@! TF.FilePolarity,Positive*
%FSLAX46Y46*%
G04 Gerber Fmt 4.6, Leading zero omitted, Abs format (unit mm)*
G04 Created by KiCad (PCBNEW 5.0.1-33cea8e~66~ubuntu18.04.1) date 2019年09月26日 22時02分42秒*
%MOMM*%
%LPD*%
G01*
G04 APERTURE LIST*
%ADD10C,0.300000*%
%ADD11C,0.250000*%
%ADD12C,0.120000*%
%ADD13C,0.010000*%
%ADD14C,0.150000*%
%ADD15C,0.152400*%
G04 APERTURE END LIST*
D10*
X67107142Y-41500000D02*
X66964285Y-41428571D01*
X66750000Y-41428571D01*
X66535714Y-41500000D01*
X66392857Y-41642857D01*
X66321428Y-41785714D01*
X66250000Y-42071428D01*
X66250000Y-42285714D01*
X66321428Y-42571428D01*
X66392857Y-42714285D01*
X66535714Y-42857142D01*
X66750000Y-42928571D01*
X66892857Y-42928571D01*
X67107142Y-42857142D01*
X67178571Y-42785714D01*
X67178571Y-42285714D01*
X66892857Y-42285714D01*
X67821428Y-42928571D02*
X67821428Y-41428571D01*
X68678571Y-42928571D01*
X68678571Y-41428571D01*
X69392857Y-42928571D02*
X69392857Y-41428571D01*
X69750000Y-41428571D01*
X69964285Y-41500000D01*
X70107142Y-41642857D01*
X70178571Y-41785714D01*
X70250000Y-42071428D01*
X70250000Y-42285714D01*
X70178571Y-42571428D01*
X70107142Y-42714285D01*
X69964285Y-42857142D01*
X69750000Y-42928571D01*
X69392857Y-42928571D01*
D11*
X101000000Y-35928571D02*
X101500000Y-37428571D01*
X102000000Y-35928571D01*
X101964285Y-39928571D02*
X101464285Y-39214285D01*
X101107142Y-39928571D02*
X101107142Y-38428571D01*
X101678571Y-38428571D01*
X101821428Y-38500000D01*
X101892857Y-38571428D01*
X101964285Y-38714285D01*
X101964285Y-38928571D01*
X101892857Y-39071428D01*
X101821428Y-39142857D01*
X101678571Y-39214285D01*
X101107142Y-39214285D01*
X101607142Y-41642857D02*
X101821428Y-41714285D01*
X101892857Y-41785714D01*
X101964285Y-41928571D01*
X101964285Y-42142857D01*
X101892857Y-42285714D01*
X101821428Y-42357142D01*
X101678571Y-42428571D01*
X101107142Y-42428571D01*
X101107142Y-40928571D01*
X101607142Y-40928571D01*
X101750000Y-41000000D01*
X101821428Y-41071428D01*
X101892857Y-41214285D01*
X101892857Y-41357142D01*
X101821428Y-41500000D01*
X101750000Y-41571428D01*
X101607142Y-41642857D01*
X101107142Y-41642857D01*
X101892857Y-43500000D02*
X101750000Y-43428571D01*
X101535714Y-43428571D01*
X101321428Y-43500000D01*
X101178571Y-43642857D01*
X101107142Y-43785714D01*
X101035714Y-44071428D01*
X101035714Y-44285714D01*
X101107142Y-44571428D01*
X101178571Y-44714285D01*
X101321428Y-44857142D01*
X101535714Y-44928571D01*
X101678571Y-44928571D01*
X101892857Y-44857142D01*
X101964285Y-44785714D01*
X101964285Y-44285714D01*
X101678571Y-44285714D01*
X101071428Y-45928571D02*
X101928571Y-45928571D01*
X101500000Y-47428571D02*
X101500000Y-45928571D01*
X101964285Y-49928571D02*
X101464285Y-49214285D01*
X101107142Y-49928571D02*
X101107142Y-48428571D01*
X101678571Y-48428571D01*
X101821428Y-48500000D01*
X101892857Y-48571428D01*
X101964285Y-48714285D01*
X101964285Y-48928571D01*
X101892857Y-49071428D01*
X101821428Y-49142857D01*
X101678571Y-49214285D01*
X101107142Y-49214285D01*
D12*
G04 #@! TO.C,J3*
X53080000Y-34335000D02*
X50420000Y-34335000D01*
X53080000Y-44555000D02*
X53080000Y-34335000D01*
X50420000Y-44555000D02*
X50420000Y-34335000D01*
X53080000Y-44555000D02*
X50420000Y-44555000D01*
X53080000Y-45825000D02*
X53080000Y-47155000D01*
X53080000Y-47155000D02*
X51750000Y-47155000D01*
D13*
G04 #@! TO.C,G1*
G36*
X61984754Y-46454230D02*
X62027553Y-46468605D01*
X62066208Y-46491297D01*
X62098786Y-46522172D01*
X62108499Y-46535037D01*
X62131380Y-46577957D01*
X62143099Y-46622680D01*
X62143825Y-46667706D01*
X62133730Y-46711540D01*
X62112985Y-46752681D01*
X62081761Y-46789634D01*
X62079127Y-46792080D01*
X62042116Y-46818300D01*
X61998839Y-46836338D01*
X61952085Y-46845601D01*
X61904642Y-46845497D01*
X61865457Y-46837477D01*
X61818990Y-46817060D01*
X61779617Y-46787265D01*
X61747908Y-46748567D01*
X61738280Y-46732173D01*
X61731870Y-46718346D01*
X61727870Y-46703812D01*
X61725754Y-46685255D01*
X61724995Y-46659359D01*
X61724953Y-46648163D01*
X61726295Y-46611317D01*
X61731248Y-46582375D01*
X61741203Y-46557637D01*
X61757553Y-46533403D01*
X61776223Y-46511836D01*
X61810759Y-46482601D01*
X61850813Y-46462358D01*
X61894452Y-46450972D01*
X61939743Y-46448307D01*
X61984754Y-46454230D01*
X61984754Y-46454230D01*
G37*
X61984754Y-46454230D02*
X62027553Y-46468605D01*
X62066208Y-46491297D01*
X62098786Y-46522172D01*
X62108499Y-46535037D01*
X62131380Y-46577957D01*
X62143099Y-46622680D01*
X62143825Y-46667706D01*
X62133730Y-46711540D01*
X62112985Y-46752681D01*
X62081761Y-46789634D01*
X62079127Y-46792080D01*
X62042116Y-46818300D01*
X61998839Y-46836338D01*
X61952085Y-46845601D01*
X61904642Y-46845497D01*
X61865457Y-46837477D01*
X61818990Y-46817060D01*
X61779617Y-46787265D01*
X61747908Y-46748567D01*
X61738280Y-46732173D01*
X61731870Y-46718346D01*
X61727870Y-46703812D01*
X61725754Y-46685255D01*
X61724995Y-46659359D01*
X61724953Y-46648163D01*
X61726295Y-46611317D01*
X61731248Y-46582375D01*
X61741203Y-46557637D01*
X61757553Y-46533403D01*
X61776223Y-46511836D01*
X61810759Y-46482601D01*
X61850813Y-46462358D01*
X61894452Y-46450972D01*
X61939743Y-46448307D01*
X61984754Y-46454230D01*
G36*
X59401206Y-46457617D02*
X59441093Y-46472975D01*
X59477007Y-46495977D01*
X59507390Y-46526583D01*
X59530685Y-46564752D01*
X59536101Y-46577787D01*
X59547491Y-46623974D01*
X59547759Y-46669730D01*
X59537538Y-46713471D01*
X59517462Y-46753611D01*
X59488165Y-46788568D01*
X59450283Y-46816755D01*
X59437766Y-46823444D01*
X59416387Y-46833196D01*
X59397779Y-46839223D01*
X59377338Y-46842570D01*
X59350459Y-46844280D01*
X59345042Y-46844479D01*
X59312651Y-46844699D01*
X59287816Y-46842477D01*
X59266449Y-46837375D01*
X59260754Y-46835450D01*
X59216894Y-46814069D01*
X59180409Y-46783670D01*
X59150840Y-46743836D01*
X59142199Y-46727907D01*
X59129169Y-46689773D01*
X59124919Y-46647453D01*
X59129464Y-46604679D01*
X59141691Y-46567545D01*
X59165746Y-46528261D01*
X59196738Y-46496905D01*
X59233108Y-46473435D01*
X59273299Y-46457812D01*
X59315751Y-46449995D01*
X59358906Y-46449943D01*
X59401206Y-46457617D01*
X59401206Y-46457617D01*
G37*
X59401206Y-46457617D02*
X59441093Y-46472975D01*
X59477007Y-46495977D01*
X59507390Y-46526583D01*
X59530685Y-46564752D01*
X59536101Y-46577787D01*
X59547491Y-46623974D01*
X59547759Y-46669730D01*
X59537538Y-46713471D01*
X59517462Y-46753611D01*
X59488165Y-46788568D01*
X59450283Y-46816755D01*
X59437766Y-46823444D01*
X59416387Y-46833196D01*
X59397779Y-46839223D01*
X59377338Y-46842570D01*
X59350459Y-46844280D01*
X59345042Y-46844479D01*
X59312651Y-46844699D01*
X59287816Y-46842477D01*
X59266449Y-46837375D01*
X59260754Y-46835450D01*
X59216894Y-46814069D01*
X59180409Y-46783670D01*
X59150840Y-46743836D01*
X59142199Y-46727907D01*
X59129169Y-46689773D01*
X59124919Y-46647453D01*
X59129464Y-46604679D01*
X59141691Y-46567545D01*
X59165746Y-46528261D01*
X59196738Y-46496905D01*
X59233108Y-46473435D01*
X59273299Y-46457812D01*
X59315751Y-46449995D01*
X59358906Y-46449943D01*
X59401206Y-46457617D01*
G36*
X68111974Y-46451092D02*
X68116835Y-46452854D01*
X68119132Y-46454099D01*
X68134740Y-46463320D01*
X68132357Y-47108044D01*
X68129973Y-47752768D01*
X68202881Y-47681808D01*
X68230330Y-47655118D01*
X68263549Y-47622855D01*
X68299816Y-47587662D01*
X68336409Y-47552178D01*
X68370608Y-47519046D01*
X68373328Y-47516412D01*
X68431573Y-47459935D01*
X68483841Y-47409078D01*
X68529798Y-47364173D01*
X68569112Y-47325548D01*
X68601449Y-47293532D01*
X68626476Y-47268456D01*
X68643861Y-47250648D01*
X68653269Y-47240437D01*
X68654928Y-47237983D01*
X68648768Y-47236761D01*
X68632760Y-47234467D01*
X68608796Y-47231350D01*
X68578767Y-47227656D01*
X68547153Y-47223930D01*
X68504315Y-47219059D01*
X68471774Y-47215272D01*
X68448130Y-47212007D01*
X68431980Y-47208703D01*
X68421923Y-47204797D01*
X68416558Y-47199729D01*
X68414484Y-47192938D01*
X68414298Y-47183860D01*
X68414601Y-47171935D01*
X68414604Y-47170818D01*
X68414604Y-47135489D01*
X69052558Y-47135489D01*
X69052558Y-47170461D01*
X69052760Y-47182810D01*
X69052425Y-47192233D01*
X69050143Y-47199271D01*
X69044503Y-47204464D01*
X69034093Y-47208355D01*
X69017503Y-47211483D01*
X68993321Y-47214389D01*
X68960136Y-47217615D01*
X68919651Y-47221404D01*
X68877953Y-47225709D01*
X68846804Y-47229765D01*
X68824944Y-47233789D01*
X68811118Y-47237995D01*
X68806002Y-47240807D01*
X68796767Y-47248435D01*
X68780834Y-47262388D01*
X68759458Y-47281510D01*
X68733890Y-47304644D01*
X68705385Y-47330636D01*
X68675194Y-47358328D01*
X68644571Y-47386564D01*
X68614768Y-47414187D01*
X68587039Y-47440043D01*
X68562636Y-47462974D01*
X68542813Y-47481825D01*
X68528821Y-47495439D01*
X68521914Y-47502660D01*
X68521403Y-47503445D01*
X68523956Y-47509064D01*
X68531397Y-47524259D01*
X68543247Y-47548082D01*
X68559024Y-47579586D01*
X68578247Y-47617824D01*
X68600436Y-47661848D01*
X68625109Y-47710712D01*
X68651786Y-47763467D01*
X68679986Y-47819166D01*
X68709228Y-47876862D01*
X68739031Y-47935608D01*
X68768914Y-47994456D01*
X68798397Y-48052459D01*
X68826997Y-48108669D01*
X68854236Y-48162140D01*
X68879631Y-48211924D01*
X68902702Y-48257074D01*
X68922968Y-48296641D01*
X68939948Y-48329680D01*
X68953161Y-48355242D01*
X68962127Y-48372380D01*
X68966364Y-48380148D01*
X68966600Y-48380491D01*
X68972679Y-48381786D01*
X68988291Y-48384229D01*
X69011245Y-48387500D01*
X69039352Y-48391278D01*
X69047250Y-48392305D01*
X69126395Y-48402535D01*
X69128154Y-48439454D01*
X69129912Y-48476373D01*
X68859386Y-48476306D01*
X68588860Y-48476240D01*
X68241832Y-47756020D01*
X68228328Y-47766643D01*
X68218120Y-47775270D01*
X68202002Y-47789553D01*
X68182684Y-47807073D01*
X68172466Y-47816482D01*
X68130109Y-47855698D01*
X68132066Y-48118292D01*
X68132546Y-48172861D01*
X68133136Y-48223744D01*
X68133811Y-48269733D01*
X68134547Y-48309624D01*
X68135319Y-48342208D01*
X68136104Y-48366279D01*
X68136876Y-48380631D01*
X68137423Y-48384281D01*
X68144278Y-48386088D01*
X68160560Y-48388583D01*
X68183923Y-48391452D01*
X68212022Y-48394383D01*
X68215690Y-48394732D01*
X68290558Y-48401788D01*
X68290558Y-48476373D01*
X67564000Y-48476373D01*
X67564000Y-48401592D01*
X67644986Y-48394422D01*
X67674670Y-48391596D01*
X67699941Y-48388815D01*
X67718559Y-48386353D01*
X67728290Y-48384486D01*
X67729130Y-48384095D01*
X67729508Y-48377928D01*
X67729902Y-48360600D01*
X67730308Y-48332766D01*
X67730722Y-48295079D01*
X67731140Y-48248192D01*
X67731558Y-48192760D01*
X67731972Y-48129435D01*
X67732378Y-48058871D01*
X67732772Y-47981722D01*
X67733150Y-47898641D01*
X67733508Y-47810283D01*
X67733842Y-47717300D01*
X67734149Y-47620346D01*
X67734424Y-47520075D01*
X67734454Y-47507774D01*
X67734745Y-47389132D01*
X67734997Y-47281741D01*
X67735203Y-47185040D01*
X67735358Y-47098466D01*
X67735456Y-47021457D01*
X67735492Y-46953450D01*
X67735460Y-46893883D01*
X67735355Y-46842194D01*
X67735170Y-46797821D01*
X67734900Y-46760201D01*
X67734540Y-46728772D01*
X67734083Y-46702972D01*
X67733524Y-46682239D01*
X67732858Y-46666009D01*
X67732079Y-46653722D01*
X67731180Y-46644814D01*
X67730157Y-46638724D01*
X67729003Y-46634888D01*
X67727714Y-46632746D01*
X67726283Y-46631733D01*
X67725624Y-46631506D01*
X67715889Y-46629858D01*
X67696903Y-46627512D01*
X67671187Y-46624753D01*
X67641264Y-46621862D01*
X67633407Y-46621151D01*
X67552186Y-46613901D01*
X67552186Y-46551536D01*
X67583197Y-46545216D01*
X67595643Y-46542747D01*
X67618285Y-46538325D01*
X67649716Y-46532221D01*
X67688530Y-46524708D01*
X67733320Y-46516059D01*
X67782679Y-46506544D01*
X67835202Y-46496437D01*
X67858866Y-46491888D01*
X67918752Y-46480409D01*
X67968140Y-46471039D01*
X68008126Y-46463616D01*
X68039805Y-46457984D01*
X68064275Y-46453981D01*
X68082630Y-46451450D01*
X68095968Y-46450231D01*
X68105384Y-46450164D01*
X68111974Y-46451092D01*
X68111974Y-46451092D01*
G37*
X68111974Y-46451092D02*
X68116835Y-46452854D01*
X68119132Y-46454099D01*
X68134740Y-46463320D01*
X68132357Y-47108044D01*
X68129973Y-47752768D01*
X68202881Y-47681808D01*
X68230330Y-47655118D01*
X68263549Y-47622855D01*
X68299816Y-47587662D01*
X68336409Y-47552178D01*
X68370608Y-47519046D01*
X68373328Y-47516412D01*
X68431573Y-47459935D01*
X68483841Y-47409078D01*
X68529798Y-47364173D01*
X68569112Y-47325548D01*
X68601449Y-47293532D01*
X68626476Y-47268456D01*
X68643861Y-47250648D01*
X68653269Y-47240437D01*
X68654928Y-47237983D01*
X68648768Y-47236761D01*
X68632760Y-47234467D01*
X68608796Y-47231350D01*
X68578767Y-47227656D01*
X68547153Y-47223930D01*
X68504315Y-47219059D01*
X68471774Y-47215272D01*
X68448130Y-47212007D01*
X68431980Y-47208703D01*
X68421923Y-47204797D01*
X68416558Y-47199729D01*
X68414484Y-47192938D01*
X68414298Y-47183860D01*
X68414601Y-47171935D01*
X68414604Y-47170818D01*
X68414604Y-47135489D01*
X69052558Y-47135489D01*
X69052558Y-47170461D01*
X69052760Y-47182810D01*
X69052425Y-47192233D01*
X69050143Y-47199271D01*
X69044503Y-47204464D01*
X69034093Y-47208355D01*
X69017503Y-47211483D01*
X68993321Y-47214389D01*
X68960136Y-47217615D01*
X68919651Y-47221404D01*
X68877953Y-47225709D01*
X68846804Y-47229765D01*
X68824944Y-47233789D01*
X68811118Y-47237995D01*
X68806002Y-47240807D01*
X68796767Y-47248435D01*
X68780834Y-47262388D01*
X68759458Y-47281510D01*
X68733890Y-47304644D01*
X68705385Y-47330636D01*
X68675194Y-47358328D01*
X68644571Y-47386564D01*
X68614768Y-47414187D01*
X68587039Y-47440043D01*
X68562636Y-47462974D01*
X68542813Y-47481825D01*
X68528821Y-47495439D01*
X68521914Y-47502660D01*
X68521403Y-47503445D01*
X68523956Y-47509064D01*
X68531397Y-47524259D01*
X68543247Y-47548082D01*
X68559024Y-47579586D01*
X68578247Y-47617824D01*
X68600436Y-47661848D01*
X68625109Y-47710712D01*
X68651786Y-47763467D01*
X68679986Y-47819166D01*
X68709228Y-47876862D01*
X68739031Y-47935608D01*
X68768914Y-47994456D01*
X68798397Y-48052459D01*
X68826997Y-48108669D01*
X68854236Y-48162140D01*
X68879631Y-48211924D01*
X68902702Y-48257074D01*
X68922968Y-48296641D01*
X68939948Y-48329680D01*
X68953161Y-48355242D01*
X68962127Y-48372380D01*
X68966364Y-48380148D01*
X68966600Y-48380491D01*
X68972679Y-48381786D01*
X68988291Y-48384229D01*
X69011245Y-48387500D01*
X69039352Y-48391278D01*
X69047250Y-48392305D01*
X69126395Y-48402535D01*
X69128154Y-48439454D01*
X69129912Y-48476373D01*
X68859386Y-48476306D01*
X68588860Y-48476240D01*
X68241832Y-47756020D01*
X68228328Y-47766643D01*
X68218120Y-47775270D01*
X68202002Y-47789553D01*
X68182684Y-47807073D01*
X68172466Y-47816482D01*
X68130109Y-47855698D01*
X68132066Y-48118292D01*
X68132546Y-48172861D01*
X68133136Y-48223744D01*
X68133811Y-48269733D01*
X68134547Y-48309624D01*
X68135319Y-48342208D01*
X68136104Y-48366279D01*
X68136876Y-48380631D01*
X68137423Y-48384281D01*
X68144278Y-48386088D01*
X68160560Y-48388583D01*
X68183923Y-48391452D01*
X68212022Y-48394383D01*
X68215690Y-48394732D01*
X68290558Y-48401788D01*
X68290558Y-48476373D01*
X67564000Y-48476373D01*
X67564000Y-48401592D01*
X67644986Y-48394422D01*
X67674670Y-48391596D01*
X67699941Y-48388815D01*
X67718559Y-48386353D01*
X67728290Y-48384486D01*
X67729130Y-48384095D01*
X67729508Y-48377928D01*
X67729902Y-48360600D01*
X67730308Y-48332766D01*
X67730722Y-48295079D01*
X67731140Y-48248192D01*
X67731558Y-48192760D01*
X67731972Y-48129435D01*
X67732378Y-48058871D01*
X67732772Y-47981722D01*
X67733150Y-47898641D01*
X67733508Y-47810283D01*
X67733842Y-47717300D01*
X67734149Y-47620346D01*
X67734424Y-47520075D01*
X67734454Y-47507774D01*
X67734745Y-47389132D01*
X67734997Y-47281741D01*
X67735203Y-47185040D01*
X67735358Y-47098466D01*
X67735456Y-47021457D01*
X67735492Y-46953450D01*
X67735460Y-46893883D01*
X67735355Y-46842194D01*
X67735170Y-46797821D01*
X67734900Y-46760201D01*
X67734540Y-46728772D01*
X67734083Y-46702972D01*
X67733524Y-46682239D01*
X67732858Y-46666009D01*
X67732079Y-46653722D01*
X67731180Y-46644814D01*
X67730157Y-46638724D01*
X67729003Y-46634888D01*
X67727714Y-46632746D01*
X67726283Y-46631733D01*
X67725624Y-46631506D01*
X67715889Y-46629858D01*
X67696903Y-46627512D01*
X67671187Y-46624753D01*
X67641264Y-46621862D01*
X67633407Y-46621151D01*
X67552186Y-46613901D01*
X67552186Y-46551536D01*
X67583197Y-46545216D01*
X67595643Y-46542747D01*
X67618285Y-46538325D01*
X67649716Y-46532221D01*
X67688530Y-46524708D01*
X67733320Y-46516059D01*
X67782679Y-46506544D01*
X67835202Y-46496437D01*
X67858866Y-46491888D01*
X67918752Y-46480409D01*
X67968140Y-46471039D01*
X68008126Y-46463616D01*
X68039805Y-46457984D01*
X68064275Y-46453981D01*
X68082630Y-46451450D01*
X68095968Y-46450231D01*
X68105384Y-46450164D01*
X68111974Y-46451092D01*
G36*
X66370995Y-47106099D02*
X66377572Y-47111580D01*
X66382692Y-47118550D01*
X66386656Y-47128621D01*
X66389764Y-47143403D01*
X66392317Y-47164509D01*
X66394617Y-47193549D01*
X66396963Y-47232136D01*
X66397986Y-47250675D01*
X66399678Y-47278544D01*
X66401440Y-47302020D01*
X66403062Y-47318633D01*
X66404336Y-47325913D01*
X66409173Y-47323664D01*
X66420563Y-47314371D01*
X66436851Y-47299486D01*
X66456381Y-47280463D01*
X66458220Y-47278619D01*
X66514549Y-47226082D01*
X66569523Y-47183556D01*
X66625168Y-47149731D01*
X66683508Y-47123299D01*
X66716348Y-47111797D01*
X66750044Y-47103858D01*
X66791640Y-47098298D01*
X66837440Y-47095261D01*
X66883744Y-47094888D01*
X66926853Y-47097323D01*
X66961488Y-47102366D01*
X67022604Y-47120910D01*
X67077394Y-47149316D01*
X67125584Y-47187299D01*
X67166898Y-47234574D01*
X67201062Y-47290856D01*
X67227799Y-47355860D01*
X67237410Y-47388167D01*
X67252667Y-47445605D01*
X67257427Y-47914689D01*
X67258404Y-48006282D01*
X67259367Y-48086587D01*
X67260328Y-48156128D01*
X67261300Y-48215433D01*
X67262297Y-48265027D01*
X67263331Y-48305434D01*
X67264415Y-48337182D01*
X67265563Y-48360795D01*
X67266788Y-48376799D01*
X67268102Y-48385719D01*
X67269129Y-48388063D01*
X67277538Y-48390130D01*
X67295072Y-48392474D01*
X67319058Y-48394789D01*
X67343244Y-48396550D01*
X67410418Y-48400747D01*
X67410418Y-48476373D01*
X66701581Y-48476373D01*
X66701581Y-48401389D01*
X66776483Y-48394498D01*
X66804857Y-48391749D01*
X66828635Y-48389180D01*
X66845529Y-48387059D01*
X66853246Y-48385653D01*
X66853458Y-48385535D01*
X66853845Y-48379438D01*
X66854307Y-48362462D01*
X66854831Y-48335545D01*
X66855405Y-48299620D01*
X66856016Y-48255623D01*
X66856652Y-48204490D01*
X66857301Y-48147157D01*
X66857950Y-48084558D01*
X66858588Y-48017630D01*
X66859129Y-47955882D01*
X66859843Y-47864575D01*
X66860330Y-47784254D01*
X66860560Y-47714091D01*
X66860504Y-47653260D01*
X66860130Y-47600935D01*
X66859408Y-47556288D01*
X66858308Y-47518494D01*
X66856799Y-47486724D01*
X66854852Y-47460153D01*
X66852436Y-47437954D01*
X66849520Y-47419300D01*
X66846075Y-47403364D01*
X66842070Y-47389319D01*
X66837921Y-47377508D01*
X66818784Y-47338726D01*
X66794241Y-47310146D01*
X66763288Y-47291007D01*
X66724917Y-47280546D01*
X66707391Y-47278630D01*
X66658482Y-47280446D01*
X66607199Y-47292929D01*
X66555383Y-47314908D01*
X66533879Y-47326886D01*
X66508323Y-47342858D01*
X66481307Y-47361002D01*
X66455424Y-47379493D01*
X66433266Y-47396510D01*
X66417426Y-47410230D01*
X66412781Y-47415167D01*
X66411284Y-47418453D01*
X66410009Y-47424866D01*
X66408949Y-47435133D01*
X66408100Y-47449979D01*
X66407455Y-47470133D01*
X66407010Y-47496321D01*
X66406757Y-47529270D01*
X66406693Y-47569706D01*
X66406810Y-47618357D01*
X66407103Y-47675950D01*
X66407566Y-47743210D01*
X66408194Y-47820866D01*
X66408939Y-47905007D01*
X66409899Y-48002124D01*
X66410908Y-48088767D01*
X66411963Y-48164770D01*
X66413062Y-48229971D01*
X66414200Y-48284206D01*
X66415374Y-48327311D01*
X66416580Y-48359121D01*
X66417815Y-48379474D01*
X66419076Y-48388206D01*
X66419300Y-48388528D01*
X66427350Y-48390404D01*
X66444499Y-48392605D01*
X66468052Y-48394826D01*
X66489595Y-48396409D01*
X66553907Y-48400578D01*
X66553907Y-48476373D01*
X65845069Y-48476373D01*
X65845069Y-48401206D01*
X65896755Y-48397165D01*
X65925062Y-48394823D01*
X65953224Y-48392280D01*
X65975960Y-48390016D01*
X65979453Y-48389633D01*
X66010465Y-48386141D01*
X66009947Y-47886338D01*
X66009823Y-47809797D01*
X66009615Y-47736137D01*
X66009332Y-47666287D01*
X66008981Y-47601176D01*
X66008570Y-47541734D01*
X66008107Y-47488888D01*
X66007600Y-47443568D01*
X66007056Y-47406702D01*
X66006484Y-47379219D01*
X66005890Y-47362048D01*
X66005517Y-47357000D01*
X66001604Y-47327466D01*
X65913000Y-47317715D01*
X65882103Y-47314288D01*
X65855699Y-47311309D01*
X65835856Y-47309015D01*
X65824644Y-47307644D01*
X65822918Y-47307377D01*
X65822066Y-47301706D01*
X65821532Y-47287893D01*
X65821442Y-47277897D01*
X65822183Y-47260098D01*
X65825336Y-47250682D01*
X65832292Y-47246263D01*
X65834732Y-47245556D01*
X65843041Y-47243226D01*
X65861475Y-47237943D01*
X65888818Y-47230059D01*
X65923853Y-47219927D01*
X65965365Y-47207898D01*
X66012136Y-47194324D01*
X66062950Y-47179558D01*
X66101442Y-47168361D01*
X66354862Y-47094612D01*
X66370995Y-47106099D01*
X66370995Y-47106099D01*
G37*
X66370995Y-47106099D02*
X66377572Y-47111580D01*
X66382692Y-47118550D01*
X66386656Y-47128621D01*
X66389764Y-47143403D01*
X66392317Y-47164509D01*
X66394617Y-47193549D01*
X66396963Y-47232136D01*
X66397986Y-47250675D01*
X66399678Y-47278544D01*
X66401440Y-47302020D01*
X66403062Y-47318633D01*
X66404336Y-47325913D01*
X66409173Y-47323664D01*
X66420563Y-47314371D01*
X66436851Y-47299486D01*
X66456381Y-47280463D01*
X66458220Y-47278619D01*
X66514549Y-47226082D01*
X66569523Y-47183556D01*
X66625168Y-47149731D01*
X66683508Y-47123299D01*
X66716348Y-47111797D01*
X66750044Y-47103858D01*
X66791640Y-47098298D01*
X66837440Y-47095261D01*
X66883744Y-47094888D01*
X66926853Y-47097323D01*
X66961488Y-47102366D01*
X67022604Y-47120910D01*
X67077394Y-47149316D01*
X67125584Y-47187299D01*
X67166898Y-47234574D01*
X67201062Y-47290856D01*
X67227799Y-47355860D01*
X67237410Y-47388167D01*
X67252667Y-47445605D01*
X67257427Y-47914689D01*
X67258404Y-48006282D01*
X67259367Y-48086587D01*
X67260328Y-48156128D01*
X67261300Y-48215433D01*
X67262297Y-48265027D01*
X67263331Y-48305434D01*
X67264415Y-48337182D01*
X67265563Y-48360795D01*
X67266788Y-48376799D01*
X67268102Y-48385719D01*
X67269129Y-48388063D01*
X67277538Y-48390130D01*
X67295072Y-48392474D01*
X67319058Y-48394789D01*
X67343244Y-48396550D01*
X67410418Y-48400747D01*
X67410418Y-48476373D01*
X66701581Y-48476373D01*
X66701581Y-48401389D01*
X66776483Y-48394498D01*
X66804857Y-48391749D01*
X66828635Y-48389180D01*
X66845529Y-48387059D01*
X66853246Y-48385653D01*
X66853458Y-48385535D01*
X66853845Y-48379438D01*
X66854307Y-48362462D01*
X66854831Y-48335545D01*
X66855405Y-48299620D01*
X66856016Y-48255623D01*
X66856652Y-48204490D01*
X66857301Y-48147157D01*
X66857950Y-48084558D01*
X66858588Y-48017630D01*
X66859129Y-47955882D01*
X66859843Y-47864575D01*
X66860330Y-47784254D01*
X66860560Y-47714091D01*
X66860504Y-47653260D01*
X66860130Y-47600935D01*
X66859408Y-47556288D01*
X66858308Y-47518494D01*
X66856799Y-47486724D01*
X66854852Y-47460153D01*
X66852436Y-47437954D01*
X66849520Y-47419300D01*
X66846075Y-47403364D01*
X66842070Y-47389319D01*
X66837921Y-47377508D01*
X66818784Y-47338726D01*
X66794241Y-47310146D01*
X66763288Y-47291007D01*
X66724917Y-47280546D01*
X66707391Y-47278630D01*
X66658482Y-47280446D01*
X66607199Y-47292929D01*
X66555383Y-47314908D01*
X66533879Y-47326886D01*
X66508323Y-47342858D01*
X66481307Y-47361002D01*
X66455424Y-47379493D01*
X66433266Y-47396510D01*
X66417426Y-47410230D01*
X66412781Y-47415167D01*
X66411284Y-47418453D01*
X66410009Y-47424866D01*
X66408949Y-47435133D01*
X66408100Y-47449979D01*
X66407455Y-47470133D01*
X66407010Y-47496321D01*
X66406757Y-47529270D01*
X66406693Y-47569706D01*
X66406810Y-47618357D01*
X66407103Y-47675950D01*
X66407566Y-47743210D01*
X66408194Y-47820866D01*
X66408939Y-47905007D01*
X66409899Y-48002124D01*
X66410908Y-48088767D01*
X66411963Y-48164770D01*
X66413062Y-48229971D01*
X66414200Y-48284206D01*
X66415374Y-48327311D01*
X66416580Y-48359121D01*
X66417815Y-48379474D01*
X66419076Y-48388206D01*
X66419300Y-48388528D01*
X66427350Y-48390404D01*
X66444499Y-48392605D01*
X66468052Y-48394826D01*
X66489595Y-48396409D01*
X66553907Y-48400578D01*
X66553907Y-48476373D01*
X65845069Y-48476373D01*
X65845069Y-48401206D01*
X65896755Y-48397165D01*
X65925062Y-48394823D01*
X65953224Y-48392280D01*
X65975960Y-48390016D01*
X65979453Y-48389633D01*
X66010465Y-48386141D01*
X66009947Y-47886338D01*
X66009823Y-47809797D01*
X66009615Y-47736137D01*
X66009332Y-47666287D01*
X66008981Y-47601176D01*
X66008570Y-47541734D01*
X66008107Y-47488888D01*
X66007600Y-47443568D01*
X66007056Y-47406702D01*
X66006484Y-47379219D01*
X66005890Y-47362048D01*
X66005517Y-47357000D01*
X66001604Y-47327466D01*
X65913000Y-47317715D01*
X65882103Y-47314288D01*
X65855699Y-47311309D01*
X65835856Y-47309015D01*
X65824644Y-47307644D01*
X65822918Y-47307377D01*
X65822066Y-47301706D01*
X65821532Y-47287893D01*
X65821442Y-47277897D01*
X65822183Y-47260098D01*
X65825336Y-47250682D01*
X65832292Y-47246263D01*
X65834732Y-47245556D01*
X65843041Y-47243226D01*
X65861475Y-47237943D01*
X65888818Y-47230059D01*
X65923853Y-47219927D01*
X65965365Y-47207898D01*
X66012136Y-47194324D01*
X66062950Y-47179558D01*
X66101442Y-47168361D01*
X66354862Y-47094612D01*
X66370995Y-47106099D01*
G36*
X62979929Y-46639393D02*
X63060480Y-46639659D01*
X63134416Y-46640090D01*
X63200993Y-46640677D01*
X63259465Y-46641412D01*
X63309087Y-46642284D01*
X63349112Y-46643284D01*
X63378797Y-46644403D01*
X63397078Y-46645601D01*
X63507010Y-46661237D01*
X63610052Y-46685893D01*
X63705932Y-46719361D01*
X63794379Y-46761435D01*
X63875121Y-46811906D01*
X63947884Y-46870569D01*
X64012398Y-46937215D01*
X64068391Y-47011637D01*
X64115591Y-47093628D01*
X64153725Y-47182981D01*
X64170686Y-47235019D01*
X64192949Y-47328705D01*
X64207091Y-47428281D01*
X64213012Y-47530959D01*
X64210609Y-47633954D01*
X64199782Y-47734479D01*
X64190705Y-47785256D01*
X64164819Y-47884188D01*
X64129340Y-47976403D01*
X64084557Y-48061649D01*
X64030765Y-48139679D01*
X63968253Y-48210242D01*
X63897315Y-48273089D01*
X63818242Y-48327970D01*
X63731325Y-48374635D01*
X63636856Y-48412836D01*
X63535128Y-48442322D01*
X63426432Y-48462844D01*
X63393542Y-48467095D01*
X63375775Y-48468944D01*
X63355896Y-48470541D01*
X63332980Y-48471902D01*
X63306106Y-48473046D01*
X63274350Y-48473988D01*
X63236789Y-48474746D01*
X63192501Y-48475336D01*
X63140563Y-48475775D01*
X63080051Y-48476080D01*
X63010043Y-48476268D01*
X62929616Y-48476354D01*
X62884197Y-48476365D01*
X62454465Y-48476373D01*
X62454465Y-48435024D01*
X62454734Y-48413366D01*
X62456090Y-48400934D01*
X62459357Y-48395142D01*
X62465358Y-48393404D01*
X62467755Y-48393288D01*
X62477953Y-48392574D01*
X62497603Y-48390848D01*
X62524407Y-48388324D01*
X62556066Y-48385217D01*
X62578511Y-48382951D01*
X62675976Y-48373000D01*
X62679576Y-48198745D01*
X62680164Y-48163996D01*
X62680722Y-48118825D01*
X62681243Y-48064623D01*
X62681718Y-48002781D01*
X62682140Y-47934693D01*
X62682500Y-47861748D01*
X62682792Y-47785338D01*
X62683007Y-47706856D01*
X62683137Y-47627692D01*
X62683173Y-47560518D01*
X63098449Y-47560518D01*
X63098491Y-47648068D01*
X63098609Y-47734418D01*
X63098805Y-47818386D01*
X63099078Y-47898789D01*
X63099427Y-47974443D01*
X63099854Y-48044166D01*
X63100357Y-48106775D01*
X63100937Y-48161086D01*
X63101594Y-48205918D01*
X63102246Y-48236971D01*
X63106167Y-48389346D01*
X63204141Y-48386140D01*
X63251317Y-48384049D01*
X63289205Y-48381043D01*
X63320314Y-48376852D01*
X63347153Y-48371211D01*
X63349372Y-48370643D01*
X63420042Y-48346251D01*
X63486109Y-48311392D01*
X63546524Y-48266863D01*
X63600238Y-48213465D01*
X63646199Y-48151995D01*
X63654709Y-48138235D01*
X63693709Y-48063523D01*
X63725537Y-47981708D01*
X63750309Y-47892263D01*
X63768142Y-47794660D01*
X63779151Y-47688373D01*
X63783453Y-47572875D01*
X63783527Y-47554848D01*
X63780240Y-47436946D01*
X63770308Y-47328583D01*
X63753647Y-47229475D01*
X63730174Y-47139338D01*
X63699805Y-47057887D01*
X63662458Y-46984836D01*
X63618048Y-46919902D01*
X63586468Y-46883100D01*
X63549226Y-46846613D01*
X63511583Y-46817395D01*
X63468653Y-46791785D01*
X63455369Y-46784938D01*
X63422482Y-46769434D01*
X63391895Y-46757595D01*
X63361024Y-46748885D01*
X63327289Y-46742770D01*
X63288108Y-46738716D01*
X63240897Y-46736189D01*
X63215952Y-46735397D01*
X63106160Y-46732434D01*
X63102256Y-46879322D01*
X63101529Y-46913799D01*
X63100880Y-46958908D01*
X63100307Y-47013463D01*
X63099811Y-47076284D01*
X63099392Y-47146186D01*
X63099050Y-47221987D01*
X63098784Y-47302504D01*
X63098595Y-47386553D01*
X63098484Y-47472952D01*
X63098449Y-47560518D01*
X62683173Y-47560518D01*
X62683175Y-47557838D01*
X62683127Y-47479237D01*
X62682987Y-47400080D01*
X62682763Y-47321759D01*
X62682464Y-47245664D01*
X62682096Y-47173188D01*
X62681668Y-47105721D01*
X62681187Y-47044657D01*
X62680662Y-46991385D01*
X62680100Y-46947298D01*
X62679576Y-46916931D01*
X62675976Y-46742675D01*
X62572604Y-46732734D01*
X62538558Y-46729477D01*
X62508373Y-46726622D01*
X62484111Y-46724361D01*
X62467831Y-46722886D01*
X62461848Y-46722397D01*
X62457524Y-46717562D01*
X62455126Y-46702951D01*
X62454465Y-46680652D01*
X62454465Y-46639303D01*
X62893509Y-46639303D01*
X62979929Y-46639393D01*
X62979929Y-46639393D01*
G37*
X62979929Y-46639393D02*
X63060480Y-46639659D01*
X63134416Y-46640090D01*
X63200993Y-46640677D01*
X63259465Y-46641412D01*
X63309087Y-46642284D01*
X63349112Y-46643284D01*
X63378797Y-46644403D01*
X63397078Y-46645601D01*
X63507010Y-46661237D01*
X63610052Y-46685893D01*
X63705932Y-46719361D01*
X63794379Y-46761435D01*
X63875121Y-46811906D01*
X63947884Y-46870569D01*
X64012398Y-46937215D01*
X64068391Y-47011637D01*
X64115591Y-47093628D01*
X64153725Y-47182981D01*
X64170686Y-47235019D01*
X64192949Y-47328705D01*
X64207091Y-47428281D01*
X64213012Y-47530959D01*
X64210609Y-47633954D01*
X64199782Y-47734479D01*
X64190705Y-47785256D01*
X64164819Y-47884188D01*
X64129340Y-47976403D01*
X64084557Y-48061649D01*
X64030765Y-48139679D01*
X63968253Y-48210242D01*
X63897315Y-48273089D01*
X63818242Y-48327970D01*
X63731325Y-48374635D01*
X63636856Y-48412836D01*
X63535128Y-48442322D01*
X63426432Y-48462844D01*
X63393542Y-48467095D01*
X63375775Y-48468944D01*
X63355896Y-48470541D01*
X63332980Y-48471902D01*
X63306106Y-48473046D01*
X63274350Y-48473988D01*
X63236789Y-48474746D01*
X63192501Y-48475336D01*
X63140563Y-48475775D01*
X63080051Y-48476080D01*
X63010043Y-48476268D01*
X62929616Y-48476354D01*
X62884197Y-48476365D01*
X62454465Y-48476373D01*
X62454465Y-48435024D01*
X62454734Y-48413366D01*
X62456090Y-48400934D01*
X62459357Y-48395142D01*
X62465358Y-48393404D01*
X62467755Y-48393288D01*
X62477953Y-48392574D01*
X62497603Y-48390848D01*
X62524407Y-48388324D01*
X62556066Y-48385217D01*
X62578511Y-48382951D01*
X62675976Y-48373000D01*
X62679576Y-48198745D01*
X62680164Y-48163996D01*
X62680722Y-48118825D01*
X62681243Y-48064623D01*
X62681718Y-48002781D01*
X62682140Y-47934693D01*
X62682500Y-47861748D01*
X62682792Y-47785338D01*
X62683007Y-47706856D01*
X62683137Y-47627692D01*
X62683173Y-47560518D01*
X63098449Y-47560518D01*
X63098491Y-47648068D01*
X63098609Y-47734418D01*
X63098805Y-47818386D01*
X63099078Y-47898789D01*
X63099427Y-47974443D01*
X63099854Y-48044166D01*
X63100357Y-48106775D01*
X63100937Y-48161086D01*
X63101594Y-48205918D01*
X63102246Y-48236971D01*
X63106167Y-48389346D01*
X63204141Y-48386140D01*
X63251317Y-48384049D01*
X63289205Y-48381043D01*
X63320314Y-48376852D01*
X63347153Y-48371211D01*
X63349372Y-48370643D01*
X63420042Y-48346251D01*
X63486109Y-48311392D01*
X63546524Y-48266863D01*
X63600238Y-48213465D01*
X63646199Y-48151995D01*
X63654709Y-48138235D01*
X63693709Y-48063523D01*
X63725537Y-47981708D01*
X63750309Y-47892263D01*
X63768142Y-47794660D01*
X63779151Y-47688373D01*
X63783453Y-47572875D01*
X63783527Y-47554848D01*
X63780240Y-47436946D01*
X63770308Y-47328583D01*
X63753647Y-47229475D01*
X63730174Y-47139338D01*
X63699805Y-47057887D01*
X63662458Y-46984836D01*
X63618048Y-46919902D01*
X63586468Y-46883100D01*
X63549226Y-46846613D01*
X63511583Y-46817395D01*
X63468653Y-46791785D01*
X63455369Y-46784938D01*
X63422482Y-46769434D01*
X63391895Y-46757595D01*
X63361024Y-46748885D01*
X63327289Y-46742770D01*
X63288108Y-46738716D01*
X63240897Y-46736189D01*
X63215952Y-46735397D01*
X63106160Y-46732434D01*
X63102256Y-46879322D01*
X63101529Y-46913799D01*
X63100880Y-46958908D01*
X63100307Y-47013463D01*
X63099811Y-47076284D01*
X63099392Y-47146186D01*
X63099050Y-47221987D01*
X63098784Y-47302504D01*
X63098595Y-47386553D01*
X63098484Y-47472952D01*
X63098449Y-47560518D01*
X62683173Y-47560518D01*
X62683175Y-47557838D01*
X62683127Y-47479237D01*
X62682987Y-47400080D01*
X62682763Y-47321759D01*
X62682464Y-47245664D01*
X62682096Y-47173188D01*
X62681668Y-47105721D01*
X62681187Y-47044657D01*
X62680662Y-46991385D01*
X62680100Y-46947298D01*
X62679576Y-46916931D01*
X62675976Y-46742675D01*
X62572604Y-46732734D01*
X62538558Y-46729477D01*
X62508373Y-46726622D01*
X62484111Y-46724361D01*
X62467831Y-46722886D01*
X62461848Y-46722397D01*
X62457524Y-46717562D01*
X62455126Y-46702951D01*
X62454465Y-46680652D01*
X62454465Y-46639303D01*
X62893509Y-46639303D01*
X62979929Y-46639393D01*
G36*
X62131012Y-47106973D02*
X62148416Y-47119365D01*
X62143429Y-47279532D01*
X62142879Y-47302932D01*
X62142381Y-47335530D01*
X62141933Y-47376332D01*
X62141537Y-47424340D01*
X62141192Y-47478560D01*
X62140898Y-47537994D01*
X62140656Y-47601648D01*
X62140466Y-47668526D01*
X62140327Y-47737632D01*
X62140240Y-47807970D01*
X62140205Y-47878544D01*
X62140222Y-47948358D01*
X62140291Y-48016417D01*
X62140412Y-48081725D01*
X62140585Y-48143285D01*
X62140811Y-48200103D01*
X62141089Y-48251182D01*
X62141419Y-48295526D01*
X62141802Y-48332141D01*
X62142238Y-48360029D01*
X62142727Y-48378195D01*
X62143268Y-48385643D01*
X62143326Y-48385761D01*
X62149401Y-48386882D01*
X62164951Y-48388905D01*
X62187692Y-48391553D01*
X62215344Y-48394548D01*
X62218394Y-48394867D01*
X62292023Y-48402535D01*
X62293782Y-48439454D01*
X62295540Y-48476373D01*
X61574325Y-48476373D01*
X61574325Y-48401206D01*
X61626011Y-48397165D01*
X61654318Y-48394823D01*
X61682480Y-48392280D01*
X61705216Y-48390016D01*
X61708709Y-48389633D01*
X61739721Y-48386141D01*
X61739679Y-47892245D01*
X61739628Y-47815880D01*
X61739495Y-47742194D01*
X61739286Y-47672148D01*
X61739007Y-47606698D01*
X61738666Y-47546804D01*
X61738269Y-47493424D01*
X61737822Y-47447515D01*
X61737333Y-47410037D01*
X61736808Y-47381948D01*
X61736253Y-47364206D01*
X61735950Y-47359321D01*
X61732263Y-47320293D01*
X61663631Y-47313383D01*
X61624546Y-47309485D01*
X61595659Y-47306412D01*
X61575438Y-47303588D01*
X61562350Y-47300440D01*
X61554864Y-47296392D01*
X61551446Y-47290871D01*
X61550565Y-47283302D01*
X61550687Y-47273110D01*
X61550697Y-47271058D01*
X61551179Y-47253709D01*
X61554217Y-47244432D01*
X61562200Y-47239486D01*
X61572848Y-47236374D01*
X61583066Y-47233678D01*
X61603443Y-47228320D01*
X61632711Y-47220635D01*
X61669602Y-47210954D01*
X61712846Y-47199611D01*
X61761176Y-47186939D01*
X61813323Y-47173269D01*
X61854304Y-47162529D01*
X62113608Y-47094580D01*
X62131012Y-47106973D01*
X62131012Y-47106973D01*
G37*
X62131012Y-47106973D02*
X62148416Y-47119365D01*
X62143429Y-47279532D01*
X62142879Y-47302932D01*
X62142381Y-47335530D01*
X62141933Y-47376332D01*
X62141537Y-47424340D01*
X62141192Y-47478560D01*
X62140898Y-47537994D01*
X62140656Y-47601648D01*
X62140466Y-47668526D01*
X62140327Y-47737632D01*
X62140240Y-47807970D01*
X62140205Y-47878544D01*
X62140222Y-47948358D01*
X62140291Y-48016417D01*
X62140412Y-48081725D01*
X62140585Y-48143285D01*
X62140811Y-48200103D01*
X62141089Y-48251182D01*
X62141419Y-48295526D01*
X62141802Y-48332141D01*
X62142238Y-48360029D01*
X62142727Y-48378195D01*
X62143268Y-48385643D01*
X62143326Y-48385761D01*
X62149401Y-48386882D01*
X62164951Y-48388905D01*
X62187692Y-48391553D01*
X62215344Y-48394548D01*
X62218394Y-48394867D01*
X62292023Y-48402535D01*
X62293782Y-48439454D01*
X62295540Y-48476373D01*
X61574325Y-48476373D01*
X61574325Y-48401206D01*
X61626011Y-48397165D01*
X61654318Y-48394823D01*
X61682480Y-48392280D01*
X61705216Y-48390016D01*
X61708709Y-48389633D01*
X61739721Y-48386141D01*
X61739679Y-47892245D01*
X61739628Y-47815880D01*
X61739495Y-47742194D01*
X61739286Y-47672148D01*
X61739007Y-47606698D01*
X61738666Y-47546804D01*
X61738269Y-47493424D01*
X61737822Y-47447515D01*
X61737333Y-47410037D01*
X61736808Y-47381948D01*
X61736253Y-47364206D01*
X61735950Y-47359321D01*
X61732263Y-47320293D01*
X61663631Y-47313383D01*
X61624546Y-47309485D01*
X61595659Y-47306412D01*
X61575438Y-47303588D01*
X61562350Y-47300440D01*
X61554864Y-47296392D01*
X61551446Y-47290871D01*
X61550565Y-47283302D01*
X61550687Y-47273110D01*
X61550697Y-47271058D01*
X61551179Y-47253709D01*
X61554217Y-47244432D01*
X61562200Y-47239486D01*
X61572848Y-47236374D01*
X61583066Y-47233678D01*
X61603443Y-47228320D01*
X61632711Y-47220635D01*
X61669602Y-47210954D01*
X61712846Y-47199611D01*
X61761176Y-47186939D01*
X61813323Y-47173269D01*
X61854304Y-47162529D01*
X62113608Y-47094580D01*
X62131012Y-47106973D01*
G36*
X60933826Y-47097650D02*
X60966729Y-47102343D01*
X60968189Y-47102661D01*
X61029936Y-47122091D01*
X61085249Y-47151282D01*
X61133772Y-47189862D01*
X61175148Y-47237460D01*
X61209021Y-47293706D01*
X61235034Y-47358229D01*
X61243985Y-47389489D01*
X61246639Y-47400440D01*
X61248922Y-47411468D01*
X61250878Y-47423581D01*
X61252550Y-47437785D01*
X61253982Y-47455090D01*
X61255217Y-47476501D01*
X61256300Y-47503027D01*
X61257272Y-47535675D01*
X61258180Y-47575454D01*
X61259065Y-47623370D01*
X61259971Y-47680432D01*
X61260943Y-47747646D01*
X61261627Y-47797070D01*
X61262947Y-47893047D01*
X61264125Y-47977902D01*
X61265176Y-48052326D01*
X61266117Y-48117011D01*
X61266962Y-48172647D01*
X61267727Y-48219926D01*
X61268429Y-48259538D01*
X61269082Y-48292176D01*
X61269702Y-48318530D01*
X61270305Y-48339290D01*
X61270906Y-48355149D01*
X61271521Y-48366798D01*
X61272165Y-48374927D01*
X61272855Y-48380227D01*
X61273605Y-48383390D01*
X61274431Y-48385107D01*
X61274907Y-48385669D01*
X61282381Y-48388041D01*
X61299115Y-48390905D01*
X61322589Y-48393891D01*
X61348744Y-48396497D01*
X61417790Y-48402535D01*
X61421308Y-48476373D01*
X60706000Y-48476373D01*
X60706000Y-48401788D01*
X60780867Y-48394732D01*
X60809365Y-48391829D01*
X60833396Y-48388973D01*
X60850621Y-48386469D01*
X60858703Y-48384626D01*
X60858952Y-48384458D01*
X60859497Y-48378179D01*
X60860072Y-48361003D01*
X60860667Y-48333849D01*
X60861270Y-48297634D01*
X60861870Y-48253275D01*
X60862455Y-48201692D01*
X60863015Y-48143800D01*
X60863538Y-48080519D01*
X60864013Y-48012765D01*
X60864429Y-47941457D01*
X60864467Y-47934097D01*
X60864899Y-47844311D01*
X60865185Y-47765502D01*
X60865284Y-47696838D01*
X60865156Y-47637483D01*
X60864757Y-47586602D01*
X60864048Y-47543360D01*
X60862987Y-47506924D01*
X60861532Y-47476456D01*
X60859643Y-47451124D01*
X60857278Y-47430093D01*
X60854395Y-47412526D01*
X60850954Y-47397590D01*
X60846912Y-47384450D01*
X60842230Y-47372271D01*
X60836864Y-47360218D01*
X60835973Y-47358316D01*
X60814258Y-47324345D01*
X60785925Y-47299584D01*
X60751678Y-47283968D01*
X60712217Y-47277435D01*
X60668246Y-47279921D01*
X60620466Y-47291360D01*
X60569579Y-47311690D01*
X60516287Y-47340847D01*
X60461293Y-47378767D01*
X60441662Y-47394186D01*
X60416558Y-47414540D01*
X60416558Y-47897477D01*
X60416594Y-47988073D01*
X60416707Y-48067490D01*
X60416908Y-48136364D01*
X60417206Y-48195328D01*
X60417611Y-48245018D01*
X60418132Y-48286068D01*
X60418779Y-48319115D01*
X60419561Y-48344792D01*
X60420488Y-48363734D01*
X60421570Y-48376576D01*
X60422816Y-48383954D01*
X60423942Y-48386352D01*
X60432614Y-48389165D01*
X60450293Y-48392131D01*
X60474181Y-48394848D01*
X60494825Y-48396504D01*
X60558325Y-48400719D01*
X60558325Y-48476373D01*
X59849488Y-48476373D01*
X59849488Y-48401592D01*
X59930475Y-48394422D01*
X59960095Y-48391638D01*
X59985240Y-48388969D01*
X60003696Y-48386673D01*
X60013245Y-48385009D01*
X60014036Y-48384677D01*
X60014427Y-48378520D01*
X60014814Y-48361402D01*
X60015192Y-48334174D01*
X60015554Y-48297689D01*
X60015897Y-48252798D01*
X60016214Y-48200355D01*
X60016501Y-48141210D01*
X60016752Y-48076218D01*
X60016962Y-48006228D01*
X60017125Y-47932095D01*
X60017224Y-47866598D01*
X60017298Y-47770883D01*
X60017273Y-47686424D01*
X60017142Y-47612664D01*
X60016899Y-47549045D01*
X60016537Y-47495008D01*
X60016049Y-47449998D01*
X60015428Y-47413455D01*
X60014667Y-47384822D01*
X60013761Y-47363543D01*
X60012700Y-47349058D01*
X60011480Y-47340811D01*
X60010777Y-47338796D01*
X60006627Y-47333635D01*
X59999652Y-47329706D01*
X59987849Y-47326548D01*
X59969213Y-47323701D01*
X59941741Y-47320703D01*
X59925126Y-47319104D01*
X59888851Y-47315696D01*
X59862677Y-47312899D01*
X59844960Y-47310029D01*
X59834059Y-47306405D01*
X59828330Y-47301344D01*
X59826132Y-47294163D01*
X59825821Y-47284181D01*
X59825860Y-47277870D01*
X59825860Y-47249745D01*
X60087244Y-47174065D01*
X60140802Y-47158545D01*
X60190978Y-47143981D01*
X60236611Y-47130711D01*
X60276540Y-47119074D01*
X60309602Y-47109409D01*
X60334638Y-47102054D01*
X60350486Y-47097349D01*
X60355883Y-47095680D01*
X60364264Y-47097790D01*
X60376293Y-47106363D01*
X60380120Y-47109957D01*
X60386872Y-47117136D01*
X60391667Y-47124376D01*
X60394972Y-47133888D01*
X60397257Y-47147882D01*
X60398991Y-47168572D01*
X60400642Y-47198167D01*
X60401209Y-47209481D01*
X60402962Y-47241290D01*
X60404878Y-47270435D01*
X60406751Y-47294088D01*
X60408372Y-47309419D01*
X60408687Y-47311470D01*
X60412059Y-47330917D01*
X60474855Y-47269787D01*
X60533089Y-47217154D01*
X60589292Y-47174938D01*
X60644875Y-47142255D01*
X60701253Y-47118221D01*
X60732581Y-47108512D01*
X60765023Y-47102078D01*
X60805180Y-47097680D01*
X60849240Y-47095413D01*
X60893392Y-47095372D01*
X60933826Y-47097650D01*
X60933826Y-47097650D01*
G37*
X60933826Y-47097650D02*
X60966729Y-47102343D01*
X60968189Y-47102661D01*
X61029936Y-47122091D01*
X61085249Y-47151282D01*
X61133772Y-47189862D01*
X61175148Y-47237460D01*
X61209021Y-47293706D01*
X61235034Y-47358229D01*
X61243985Y-47389489D01*
X61246639Y-47400440D01*
X61248922Y-47411468D01*
X61250878Y-47423581D01*
X61252550Y-47437785D01*
X61253982Y-47455090D01*
X61255217Y-47476501D01*
X61256300Y-47503027D01*
X61257272Y-47535675D01*
X61258180Y-47575454D01*
X61259065Y-47623370D01*
X61259971Y-47680432D01*
X61260943Y-47747646D01*
X61261627Y-47797070D01*
X61262947Y-47893047D01*
X61264125Y-47977902D01*
X61265176Y-48052326D01*
X61266117Y-48117011D01*
X61266962Y-48172647D01*
X61267727Y-48219926D01*
X61268429Y-48259538D01*
X61269082Y-48292176D01*
X61269702Y-48318530D01*
X61270305Y-48339290D01*
X61270906Y-48355149D01*
X61271521Y-48366798D01*
X61272165Y-48374927D01*
X61272855Y-48380227D01*
X61273605Y-48383390D01*
X61274431Y-48385107D01*
X61274907Y-48385669D01*
X61282381Y-48388041D01*
X61299115Y-48390905D01*
X61322589Y-48393891D01*
X61348744Y-48396497D01*
X61417790Y-48402535D01*
X61421308Y-48476373D01*
X60706000Y-48476373D01*
X60706000Y-48401788D01*
X60780867Y-48394732D01*
X60809365Y-48391829D01*
X60833396Y-48388973D01*
X60850621Y-48386469D01*
X60858703Y-48384626D01*
X60858952Y-48384458D01*
X60859497Y-48378179D01*
X60860072Y-48361003D01*
X60860667Y-48333849D01*
X60861270Y-48297634D01*
X60861870Y-48253275D01*
X60862455Y-48201692D01*
X60863015Y-48143800D01*
X60863538Y-48080519D01*
X60864013Y-48012765D01*
X60864429Y-47941457D01*
X60864467Y-47934097D01*
X60864899Y-47844311D01*
X60865185Y-47765502D01*
X60865284Y-47696838D01*
X60865156Y-47637483D01*
X60864757Y-47586602D01*
X60864048Y-47543360D01*
X60862987Y-47506924D01*
X60861532Y-47476456D01*
X60859643Y-47451124D01*
X60857278Y-47430093D01*
X60854395Y-47412526D01*
X60850954Y-47397590D01*
X60846912Y-47384450D01*
X60842230Y-47372271D01*
X60836864Y-47360218D01*
X60835973Y-47358316D01*
X60814258Y-47324345D01*
X60785925Y-47299584D01*
X60751678Y-47283968D01*
X60712217Y-47277435D01*
X60668246Y-47279921D01*
X60620466Y-47291360D01*
X60569579Y-47311690D01*
X60516287Y-47340847D01*
X60461293Y-47378767D01*
X60441662Y-47394186D01*
X60416558Y-47414540D01*
X60416558Y-47897477D01*
X60416594Y-47988073D01*
X60416707Y-48067490D01*
X60416908Y-48136364D01*
X60417206Y-48195328D01*
X60417611Y-48245018D01*
X60418132Y-48286068D01*
X60418779Y-48319115D01*
X60419561Y-48344792D01*
X60420488Y-48363734D01*
X60421570Y-48376576D01*
X60422816Y-48383954D01*
X60423942Y-48386352D01*
X60432614Y-48389165D01*
X60450293Y-48392131D01*
X60474181Y-48394848D01*
X60494825Y-48396504D01*
X60558325Y-48400719D01*
X60558325Y-48476373D01*
X59849488Y-48476373D01*
X59849488Y-48401592D01*
X59930475Y-48394422D01*
X59960095Y-48391638D01*
X59985240Y-48388969D01*
X60003696Y-48386673D01*
X60013245Y-48385009D01*
X60014036Y-48384677D01*
X60014427Y-48378520D01*
X60014814Y-48361402D01*
X60015192Y-48334174D01*
X60015554Y-48297689D01*
X60015897Y-48252798D01*
X60016214Y-48200355D01*
X60016501Y-48141210D01*
X60016752Y-48076218D01*
X60016962Y-48006228D01*
X60017125Y-47932095D01*
X60017224Y-47866598D01*
X60017298Y-47770883D01*
X60017273Y-47686424D01*
X60017142Y-47612664D01*
X60016899Y-47549045D01*
X60016537Y-47495008D01*
X60016049Y-47449998D01*
X60015428Y-47413455D01*
X60014667Y-47384822D01*
X60013761Y-47363543D01*
X60012700Y-47349058D01*
X60011480Y-47340811D01*
X60010777Y-47338796D01*
X60006627Y-47333635D01*
X59999652Y-47329706D01*
X59987849Y-47326548D01*
X59969213Y-47323701D01*
X59941741Y-47320703D01*
X59925126Y-47319104D01*
X59888851Y-47315696D01*
X59862677Y-47312899D01*
X59844960Y-47310029D01*
X59834059Y-47306405D01*
X59828330Y-47301344D01*
X59826132Y-47294163D01*
X59825821Y-47284181D01*
X59825860Y-47277870D01*
X59825860Y-47249745D01*
X60087244Y-47174065D01*
X60140802Y-47158545D01*
X60190978Y-47143981D01*
X60236611Y-47130711D01*
X60276540Y-47119074D01*
X60309602Y-47109409D01*
X60334638Y-47102054D01*
X60350486Y-47097349D01*
X60355883Y-47095680D01*
X60364264Y-47097790D01*
X60376293Y-47106363D01*
X60380120Y-47109957D01*
X60386872Y-47117136D01*
X60391667Y-47124376D01*
X60394972Y-47133888D01*
X60397257Y-47147882D01*
X60398991Y-47168572D01*
X60400642Y-47198167D01*
X60401209Y-47209481D01*
X60402962Y-47241290D01*
X60404878Y-47270435D01*
X60406751Y-47294088D01*
X60408372Y-47309419D01*
X60408687Y-47311470D01*
X60412059Y-47330917D01*
X60474855Y-47269787D01*
X60533089Y-47217154D01*
X60589292Y-47174938D01*
X60644875Y-47142255D01*
X60701253Y-47118221D01*
X60732581Y-47108512D01*
X60765023Y-47102078D01*
X60805180Y-47097680D01*
X60849240Y-47095413D01*
X60893392Y-47095372D01*
X60933826Y-47097650D01*
G36*
X59535169Y-47107029D02*
X59554594Y-47119013D01*
X59549937Y-47178937D01*
X59549302Y-47192795D01*
X59548709Y-47216856D01*
X59548160Y-47250160D01*
X59547656Y-47291746D01*
X59547198Y-47340654D01*
X59546787Y-47395924D01*
X59546423Y-47456596D01*
X59546109Y-47521710D01*
X59545844Y-47590305D01*
X59545631Y-47661423D01*
X59545470Y-47734102D01*
X59545362Y-47807383D01*
X59545309Y-47880305D01*
X59545311Y-47951908D01*
X59545370Y-48021233D01*
X59545487Y-48087319D01*
X59545662Y-48149205D01*
X59545897Y-48205933D01*
X59546193Y-48256542D01*
X59546551Y-48300071D01*
X59546972Y-48335561D01*
X59547457Y-48362051D01*
X59548007Y-48378582D01*
X59548580Y-48384177D01*
X59555412Y-48385990D01*
X59571620Y-48388517D01*
X59594814Y-48391429D01*
X59622602Y-48394398D01*
X59623894Y-48394525D01*
X59695907Y-48401572D01*
X59695907Y-48476373D01*
X58981162Y-48476373D01*
X58981162Y-48401613D01*
X59058931Y-48394697D01*
X59088030Y-48391883D01*
X59112715Y-48389070D01*
X59130685Y-48386552D01*
X59139643Y-48384621D01*
X59140152Y-48384329D01*
X59140927Y-48377771D01*
X59141604Y-48360430D01*
X59142187Y-48333333D01*
X59142678Y-48297508D01*
X59143080Y-48253983D01*
X59143394Y-48203785D01*
X59143623Y-48147943D01*
X59143770Y-48087483D01*
X59143836Y-48023433D01*
X59143825Y-47956822D01*
X59143739Y-47888677D01*
X59143579Y-47820025D01*
X59143349Y-47751894D01*
X59143050Y-47685313D01*
X59142686Y-47621308D01*
X59142258Y-47560907D01*
X59141770Y-47505138D01*
X59141222Y-47455030D01*
X59140618Y-47411608D01*
X59139961Y-47375902D01*
X59139251Y-47348939D01*
X59138493Y-47331746D01*
X59137697Y-47325359D01*
X59129704Y-47322508D01*
X59112606Y-47319139D01*
X59089071Y-47315712D01*
X59066814Y-47313177D01*
X59028471Y-47309353D01*
X59000300Y-47306313D01*
X58980742Y-47303455D01*
X58968236Y-47300179D01*
X58961222Y-47295884D01*
X58958141Y-47289968D01*
X58957432Y-47281829D01*
X58957535Y-47271058D01*
X58957535Y-47242270D01*
X58982639Y-47235403D01*
X58993542Y-47232482D01*
X59014568Y-47226904D01*
X59044414Y-47219014D01*
X59081778Y-47209155D01*
X59125354Y-47197671D01*
X59173841Y-47184906D01*
X59225935Y-47171204D01*
X59261744Y-47161791D01*
X59515744Y-47095046D01*
X59535169Y-47107029D01*
X59535169Y-47107029D01*
G37*
X59535169Y-47107029D02*
X59554594Y-47119013D01*
X59549937Y-47178937D01*
X59549302Y-47192795D01*
X59548709Y-47216856D01*
X59548160Y-47250160D01*
X59547656Y-47291746D01*
X59547198Y-47340654D01*
X59546787Y-47395924D01*
X59546423Y-47456596D01*
X59546109Y-47521710D01*
X59545844Y-47590305D01*
X59545631Y-47661423D01*
X59545470Y-47734102D01*
X59545362Y-47807383D01*
X59545309Y-47880305D01*
X59545311Y-47951908D01*
X59545370Y-48021233D01*
X59545487Y-48087319D01*
X59545662Y-48149205D01*
X59545897Y-48205933D01*
X59546193Y-48256542D01*
X59546551Y-48300071D01*
X59546972Y-48335561D01*
X59547457Y-48362051D01*
X59548007Y-48378582D01*
X59548580Y-48384177D01*
X59555412Y-48385990D01*
X59571620Y-48388517D01*
X59594814Y-48391429D01*
X59622602Y-48394398D01*
X59623894Y-48394525D01*
X59695907Y-48401572D01*
X59695907Y-48476373D01*
X58981162Y-48476373D01*
X58981162Y-48401613D01*
X59058931Y-48394697D01*
X59088030Y-48391883D01*
X59112715Y-48389070D01*
X59130685Y-48386552D01*
X59139643Y-48384621D01*
X59140152Y-48384329D01*
X59140927Y-48377771D01*
X59141604Y-48360430D01*
X59142187Y-48333333D01*
X59142678Y-48297508D01*
X59143080Y-48253983D01*
X59143394Y-48203785D01*
X59143623Y-48147943D01*
X59143770Y-48087483D01*
X59143836Y-48023433D01*
X59143825Y-47956822D01*
X59143739Y-47888677D01*
X59143579Y-47820025D01*
X59143349Y-47751894D01*
X59143050Y-47685313D01*
X59142686Y-47621308D01*
X59142258Y-47560907D01*
X59141770Y-47505138D01*
X59141222Y-47455030D01*
X59140618Y-47411608D01*
X59139961Y-47375902D01*
X59139251Y-47348939D01*
X59138493Y-47331746D01*
X59137697Y-47325359D01*
X59129704Y-47322508D01*
X59112606Y-47319139D01*
X59089071Y-47315712D01*
X59066814Y-47313177D01*
X59028471Y-47309353D01*
X59000300Y-47306313D01*
X58980742Y-47303455D01*
X58968236Y-47300179D01*
X58961222Y-47295884D01*
X58958141Y-47289968D01*
X58957432Y-47281829D01*
X58957535Y-47271058D01*
X58957535Y-47242270D01*
X58982639Y-47235403D01*
X58993542Y-47232482D01*
X59014568Y-47226904D01*
X59044414Y-47219014D01*
X59081778Y-47209155D01*
X59125354Y-47197671D01*
X59173841Y-47184906D01*
X59225935Y-47171204D01*
X59261744Y-47161791D01*
X59515744Y-47095046D01*
X59535169Y-47107029D01*
G36*
X57527209Y-47098829D02*
X57592843Y-47112920D01*
X57646186Y-47133646D01*
X57680134Y-47154760D01*
X57714521Y-47184480D01*
X57746703Y-47220008D01*
X57774037Y-47258546D01*
X57787740Y-47283448D01*
X57798236Y-47305950D01*
X57806374Y-47324921D01*
X57810975Y-47337534D01*
X57811581Y-47340526D01*
X57815387Y-47339292D01*
X57825870Y-47330711D01*
X57841628Y-47316059D01*
X57861260Y-47296608D01*
X57871712Y-47285875D01*
X57924291Y-47234405D01*
X57973980Y-47192593D01*
X58022546Y-47159238D01*
X58071751Y-47133140D01*
X58123361Y-47113098D01*
X58127604Y-47111733D01*
X58162823Y-47103469D01*
X58205959Y-47097815D01*
X58253380Y-47094902D01*
X58301452Y-47094861D01*
X58346543Y-47097822D01*
X58379180Y-47102670D01*
X58442078Y-47120522D01*
X58497155Y-47147228D01*
X58544414Y-47182791D01*
X58583858Y-47227213D01*
X58615490Y-47280498D01*
X58631058Y-47317650D01*
X58636656Y-47333133D01*
X58641564Y-47347309D01*
X58645836Y-47361044D01*
X58649530Y-47375200D01*
X58652700Y-47390643D01*
X58655403Y-47408238D01*
X58657693Y-47428847D01*
X58659626Y-47453336D01*
X58661259Y-47482569D01*
X58662646Y-47517411D01*
X58663844Y-47558725D01*
X58664907Y-47607376D01*
X58665892Y-47664229D01*
X58666855Y-47730147D01*
X58667850Y-47805995D01*
X58668934Y-47892638D01*
X58669141Y-47909303D01*
X58670074Y-47983142D01*
X58670993Y-48053503D01*
X58671885Y-48119501D01*
X58672737Y-48180252D01*
X58673535Y-48234870D01*
X58674266Y-48282472D01*
X58674916Y-48322172D01*
X58675472Y-48353086D01*
X58675921Y-48374329D01*
X58676249Y-48385017D01*
X58676348Y-48386146D01*
X58682374Y-48387197D01*
X58697857Y-48389092D01*
X58720492Y-48391568D01*
X58747977Y-48394360D01*
X58749661Y-48394525D01*
X58821674Y-48401572D01*
X58821674Y-48476373D01*
X58124087Y-48476373D01*
X58125846Y-48439454D01*
X58127604Y-48402535D01*
X58197967Y-48395181D01*
X58225581Y-48392048D01*
X58248712Y-48388962D01*
X58264930Y-48386276D01*
X58271804Y-48384353D01*
X58272346Y-48378042D01*
X58272863Y-48360812D01*
X58273347Y-48333558D01*
X58273792Y-48297173D01*
X58274191Y-48252554D01*
X58274538Y-48200595D01*
X58274826Y-48142191D01*
X58275049Y-48078236D01*
X58275200Y-48009625D01*
X58275273Y-47937253D01*
X58275279Y-47910289D01*
X58275265Y-47824234D01*
X58275213Y-47749172D01*
X58275105Y-47684279D01*
X58274923Y-47628735D01*
X58274649Y-47581717D01*
X58274267Y-47542404D01*
X58273758Y-47509974D01*
X58273106Y-47483604D01*
X58272292Y-47462474D01*
X58271299Y-47445760D01*
X58270109Y-47432642D01*
X58268705Y-47422297D01*
X58267070Y-47413904D01*
X58265185Y-47406640D01*
X58264477Y-47404256D01*
X58248311Y-47361422D01*
X58228507Y-47328920D01*
X58203841Y-47305519D01*
X58173089Y-47289986D01*
X58143451Y-47282427D01*
X58094829Y-47279747D01*
X58043848Y-47288087D01*
X57991351Y-47307095D01*
X57938179Y-47336420D01*
X57885175Y-47375709D01*
X57854663Y-47403094D01*
X57841826Y-47417024D01*
X57834558Y-47428254D01*
X57833970Y-47433293D01*
X57834663Y-47440069D01*
X57835408Y-47457758D01*
X57836192Y-47485458D01*
X57836998Y-47522266D01*
X57837812Y-47567283D01*
X57838621Y-47619605D01*
X57839409Y-47678332D01*
X57840162Y-47742562D01*
X57840865Y-47811393D01*
X57841503Y-47883924D01*
X57841715Y-47910904D01*
X57842326Y-47984487D01*
X57843008Y-48054649D01*
X57843746Y-48120493D01*
X57844525Y-48181125D01*
X57845331Y-48235648D01*
X57846148Y-48283165D01*
X57846963Y-48322782D01*
X57847760Y-48353602D01*
X57848526Y-48374729D01*
X57849245Y-48385267D01*
X57849494Y-48386301D01*
X57856746Y-48388488D01*
X57873219Y-48391225D01*
X57896357Y-48394138D01*
X57919761Y-48396513D01*
X57985837Y-48402535D01*
X57987595Y-48439454D01*
X57989354Y-48476373D01*
X57291767Y-48476373D01*
X57291767Y-48401389D01*
X57366669Y-48394498D01*
X57395194Y-48391647D01*
X57419267Y-48388812D01*
X57436543Y-48386300D01*
X57444680Y-48384419D01*
X57444937Y-48384245D01*
X57445822Y-48377599D01*
X57446630Y-48360237D01*
X57447359Y-48333259D01*
X57448009Y-48297762D01*
X57448579Y-48254846D01*
X57449067Y-48205608D01*
X57449473Y-48151147D01*
X57449794Y-48092561D01*
X57450032Y-48030950D01*
X57450183Y-47967411D01*
X57450248Y-47903043D01*
X57450225Y-47838944D01*
X57450113Y-47776214D01*
X57449911Y-47715949D01*
X57449618Y-47659250D01*
X57449233Y-47607213D01*
X57448756Y-47560938D01*
X57448184Y-47521524D01*
X57447517Y-47490068D01*
X57446754Y-47467669D01*
X57445893Y-47455426D01*
X57445821Y-47454926D01*
X57434839Y-47403124D01*
X57419256Y-47361421D01*
X57398505Y-47328811D01*
X57372014Y-47304286D01*
X57354632Y-47293798D01*
X57325506Y-47284166D01*
X57289548Y-47280575D01*
X57250074Y-47283017D01*
X57210398Y-47291481D01*
X57201727Y-47294233D01*
X57165543Y-47309693D01*
X57125519Y-47332184D01*
X57085181Y-47359503D01*
X57048056Y-47389447D01*
X57045151Y-47392052D01*
X57014139Y-47420118D01*
X57014139Y-47903545D01*
X57014150Y-47990516D01*
X57014194Y-48066426D01*
X57014286Y-48132032D01*
X57014443Y-48188086D01*
X57014681Y-48235343D01*
X57015015Y-48274558D01*
X57015462Y-48306485D01*
X57016039Y-48331877D01*
X57016760Y-48351490D01*
X57017641Y-48366077D01*
X57018700Y-48376393D01*
X57019952Y-48383192D01*
X57021413Y-48387229D01*
X57023098Y-48389257D01*
X57024476Y-48389901D01*
X57034535Y-48391515D01*
X57053331Y-48393511D01*
X57077807Y-48395588D01*
X57095360Y-48396843D01*
X57155907Y-48400856D01*
X57155907Y-48476373D01*
X56447069Y-48476373D01*
X56447069Y-48401206D01*
X56498755Y-48397165D01*
X56526877Y-48394842D01*
X56554678Y-48392341D01*
X56576974Y-48390131D01*
X56580495Y-48389745D01*
X56610548Y-48386367D01*
X56613863Y-48042986D01*
X56614422Y-47972919D01*
X56614771Y-47901787D01*
X56614920Y-47830586D01*
X56614880Y-47760315D01*
X56614660Y-47691973D01*
X56614272Y-47626555D01*
X56613725Y-47565061D01*
X56613030Y-47508488D01*
X56612197Y-47457834D01*
X56611236Y-47414096D01*
X56610159Y-47378273D01*
X56608974Y-47351362D01*
X56607693Y-47334362D01*
X56606456Y-47328348D01*
X56600210Y-47326974D01*
X56584725Y-47324636D01*
X56562508Y-47321638D01*
X56536066Y-47318283D01*
X56507905Y-47314875D01*
X56480533Y-47311719D01*
X56456455Y-47309118D01*
X56438179Y-47307375D01*
X56428588Y-47306791D01*
X56425611Y-47301487D01*
X56423752Y-47287970D01*
X56423442Y-47278210D01*
X56423442Y-47249629D01*
X56684825Y-47173968D01*
X56738324Y-47158474D01*
X56788393Y-47143958D01*
X56833877Y-47130756D01*
X56873625Y-47119202D01*
X56906483Y-47109633D01*
X56931297Y-47102384D01*
X56946913Y-47097791D01*
X56952116Y-47096217D01*
X56960217Y-47098201D01*
X56972482Y-47105787D01*
X56974712Y-47107518D01*
X56980901Y-47112858D01*
X56985518Y-47118724D01*
X56988992Y-47127026D01*
X56991753Y-47139671D01*
X56994233Y-47158568D01*
X56996861Y-47185625D01*
X56999687Y-47218280D01*
X57002481Y-47251642D01*
X57004889Y-47281412D01*
X57006737Y-47305361D01*
X57007853Y-47321260D01*
X57008103Y-47326293D01*
X57011843Y-47327296D01*
X57022839Y-47319194D01*
X57040956Y-47302098D01*
X57059432Y-47283132D01*
X57119520Y-47225259D01*
X57179322Y-47178624D01*
X57239885Y-47142728D01*
X57302255Y-47117070D01*
X57367477Y-47101149D01*
X57436600Y-47094467D01*
X57454741Y-47094181D01*
X57527209Y-47098829D01*
X57527209Y-47098829D01*
G37*
X57527209Y-47098829D02*
X57592843Y-47112920D01*
X57646186Y-47133646D01*
X57680134Y-47154760D01*
X57714521Y-47184480D01*
X57746703Y-47220008D01*
X57774037Y-47258546D01*
X57787740Y-47283448D01*
X57798236Y-47305950D01*
X57806374Y-47324921D01*
X57810975Y-47337534D01*
X57811581Y-47340526D01*
X57815387Y-47339292D01*
X57825870Y-47330711D01*
X57841628Y-47316059D01*
X57861260Y-47296608D01*
X57871712Y-47285875D01*
X57924291Y-47234405D01*
X57973980Y-47192593D01*
X58022546Y-47159238D01*
X58071751Y-47133140D01*
X58123361Y-47113098D01*
X58127604Y-47111733D01*
X58162823Y-47103469D01*
X58205959Y-47097815D01*
X58253380Y-47094902D01*
X58301452Y-47094861D01*
X58346543Y-47097822D01*
X58379180Y-47102670D01*
X58442078Y-47120522D01*
X58497155Y-47147228D01*
X58544414Y-47182791D01*
X58583858Y-47227213D01*
X58615490Y-47280498D01*
X58631058Y-47317650D01*
X58636656Y-47333133D01*
X58641564Y-47347309D01*
X58645836Y-47361044D01*
X58649530Y-47375200D01*
X58652700Y-47390643D01*
X58655403Y-47408238D01*
X58657693Y-47428847D01*
X58659626Y-47453336D01*
X58661259Y-47482569D01*
X58662646Y-47517411D01*
X58663844Y-47558725D01*
X58664907Y-47607376D01*
X58665892Y-47664229D01*
X58666855Y-47730147D01*
X58667850Y-47805995D01*
X58668934Y-47892638D01*
X58669141Y-47909303D01*
X58670074Y-47983142D01*
X58670993Y-48053503D01*
X58671885Y-48119501D01*
X58672737Y-48180252D01*
X58673535Y-48234870D01*
X58674266Y-48282472D01*
X58674916Y-48322172D01*
X58675472Y-48353086D01*
X58675921Y-48374329D01*
X58676249Y-48385017D01*
X58676348Y-48386146D01*
X58682374Y-48387197D01*
X58697857Y-48389092D01*
X58720492Y-48391568D01*
X58747977Y-48394360D01*
X58749661Y-48394525D01*
X58821674Y-48401572D01*
X58821674Y-48476373D01*
X58124087Y-48476373D01*
X58125846Y-48439454D01*
X58127604Y-48402535D01*
X58197967Y-48395181D01*
X58225581Y-48392048D01*
X58248712Y-48388962D01*
X58264930Y-48386276D01*
X58271804Y-48384353D01*
X58272346Y-48378042D01*
X58272863Y-48360812D01*
X58273347Y-48333558D01*
X58273792Y-48297173D01*
X58274191Y-48252554D01*
X58274538Y-48200595D01*
X58274826Y-48142191D01*
X58275049Y-48078236D01*
X58275200Y-48009625D01*
X58275273Y-47937253D01*
X58275279Y-47910289D01*
X58275265Y-47824234D01*
X58275213Y-47749172D01*
X58275105Y-47684279D01*
X58274923Y-47628735D01*
X58274649Y-47581717D01*
X58274267Y-47542404D01*
X58273758Y-47509974D01*
X58273106Y-47483604D01*
X58272292Y-47462474D01*
X58271299Y-47445760D01*
X58270109Y-47432642D01*
X58268705Y-47422297D01*
X58267070Y-47413904D01*
X58265185Y-47406640D01*
X58264477Y-47404256D01*
X58248311Y-47361422D01*
X58228507Y-47328920D01*
X58203841Y-47305519D01*
X58173089Y-47289986D01*
X58143451Y-47282427D01*
X58094829Y-47279747D01*
X58043848Y-47288087D01*
X57991351Y-47307095D01*
X57938179Y-47336420D01*
X57885175Y-47375709D01*
X57854663Y-47403094D01*
X57841826Y-47417024D01*
X57834558Y-47428254D01*
X57833970Y-47433293D01*
X57834663Y-47440069D01*
X57835408Y-47457758D01*
X57836192Y-47485458D01*
X57836998Y-47522266D01*
X57837812Y-47567283D01*
X57838621Y-47619605D01*
X57839409Y-47678332D01*
X57840162Y-47742562D01*
X57840865Y-47811393D01*
X57841503Y-47883924D01*
X57841715Y-47910904D01*
X57842326Y-47984487D01*
X57843008Y-48054649D01*
X57843746Y-48120493D01*
X57844525Y-48181125D01*
X57845331Y-48235648D01*
X57846148Y-48283165D01*
X57846963Y-48322782D01*
X57847760Y-48353602D01*
X57848526Y-48374729D01*
X57849245Y-48385267D01*
X57849494Y-48386301D01*
X57856746Y-48388488D01*
X57873219Y-48391225D01*
X57896357Y-48394138D01*
X57919761Y-48396513D01*
X57985837Y-48402535D01*
X57987595Y-48439454D01*
X57989354Y-48476373D01*
X57291767Y-48476373D01*
X57291767Y-48401389D01*
X57366669Y-48394498D01*
X57395194Y-48391647D01*
X57419267Y-48388812D01*
X57436543Y-48386300D01*
X57444680Y-48384419D01*
X57444937Y-48384245D01*
X57445822Y-48377599D01*
X57446630Y-48360237D01*
X57447359Y-48333259D01*
X57448009Y-48297762D01*
X57448579Y-48254846D01*
X57449067Y-48205608D01*
X57449473Y-48151147D01*
X57449794Y-48092561D01*
X57450032Y-48030950D01*
X57450183Y-47967411D01*
X57450248Y-47903043D01*
X57450225Y-47838944D01*
X57450113Y-47776214D01*
X57449911Y-47715949D01*
X57449618Y-47659250D01*
X57449233Y-47607213D01*
X57448756Y-47560938D01*
X57448184Y-47521524D01*
X57447517Y-47490068D01*
X57446754Y-47467669D01*
X57445893Y-47455426D01*
X57445821Y-47454926D01*
X57434839Y-47403124D01*
X57419256Y-47361421D01*
X57398505Y-47328811D01*
X57372014Y-47304286D01*
X57354632Y-47293798D01*
X57325506Y-47284166D01*
X57289548Y-47280575D01*
X57250074Y-47283017D01*
X57210398Y-47291481D01*
X57201727Y-47294233D01*
X57165543Y-47309693D01*
X57125519Y-47332184D01*
X57085181Y-47359503D01*
X57048056Y-47389447D01*
X57045151Y-47392052D01*
X57014139Y-47420118D01*
X57014139Y-47903545D01*
X57014150Y-47990516D01*
X57014194Y-48066426D01*
X57014286Y-48132032D01*
X57014443Y-48188086D01*
X57014681Y-48235343D01*
X57015015Y-48274558D01*
X57015462Y-48306485D01*
X57016039Y-48331877D01*
X57016760Y-48351490D01*
X57017641Y-48366077D01*
X57018700Y-48376393D01*
X57019952Y-48383192D01*
X57021413Y-48387229D01*
X57023098Y-48389257D01*
X57024476Y-48389901D01*
X57034535Y-48391515D01*
X57053331Y-48393511D01*
X57077807Y-48395588D01*
X57095360Y-48396843D01*
X57155907Y-48400856D01*
X57155907Y-48476373D01*
X56447069Y-48476373D01*
X56447069Y-48401206D01*
X56498755Y-48397165D01*
X56526877Y-48394842D01*
X56554678Y-48392341D01*
X56576974Y-48390131D01*
X56580495Y-48389745D01*
X56610548Y-48386367D01*
X56613863Y-48042986D01*
X56614422Y-47972919D01*
X56614771Y-47901787D01*
X56614920Y-47830586D01*
X56614880Y-47760315D01*
X56614660Y-47691973D01*
X56614272Y-47626555D01*
X56613725Y-47565061D01*
X56613030Y-47508488D01*
X56612197Y-47457834D01*
X56611236Y-47414096D01*
X56610159Y-47378273D01*
X56608974Y-47351362D01*
X56607693Y-47334362D01*
X56606456Y-47328348D01*
X56600210Y-47326974D01*
X56584725Y-47324636D01*
X56562508Y-47321638D01*
X56536066Y-47318283D01*
X56507905Y-47314875D01*
X56480533Y-47311719D01*
X56456455Y-47309118D01*
X56438179Y-47307375D01*
X56428588Y-47306791D01*
X56425611Y-47301487D01*
X56423752Y-47287970D01*
X56423442Y-47278210D01*
X56423442Y-47249629D01*
X56684825Y-47173968D01*
X56738324Y-47158474D01*
X56788393Y-47143958D01*
X56833877Y-47130756D01*
X56873625Y-47119202D01*
X56906483Y-47109633D01*
X56931297Y-47102384D01*
X56946913Y-47097791D01*
X56952116Y-47096217D01*
X56960217Y-47098201D01*
X56972482Y-47105787D01*
X56974712Y-47107518D01*
X56980901Y-47112858D01*
X56985518Y-47118724D01*
X56988992Y-47127026D01*
X56991753Y-47139671D01*
X56994233Y-47158568D01*
X56996861Y-47185625D01*
X56999687Y-47218280D01*
X57002481Y-47251642D01*
X57004889Y-47281412D01*
X57006737Y-47305361D01*
X57007853Y-47321260D01*
X57008103Y-47326293D01*
X57011843Y-47327296D01*
X57022839Y-47319194D01*
X57040956Y-47302098D01*
X57059432Y-47283132D01*
X57119520Y-47225259D01*
X57179322Y-47178624D01*
X57239885Y-47142728D01*
X57302255Y-47117070D01*
X57367477Y-47101149D01*
X57436600Y-47094467D01*
X57454741Y-47094181D01*
X57527209Y-47098829D01*
G36*
X69968573Y-47099463D02*
X70057263Y-47115189D01*
X70141321Y-47140954D01*
X70220032Y-47176394D01*
X70292681Y-47221145D01*
X70358552Y-47274842D01*
X70416931Y-47337123D01*
X70455155Y-47388926D01*
X70495640Y-47460296D01*
X70527285Y-47538016D01*
X70550100Y-47620614D01*
X70564096Y-47706615D01*
X70569283Y-47794544D01*
X70565671Y-47882927D01*
X70553271Y-47970290D01*
X70532094Y-48055160D01*
X70502149Y-48136061D01*
X70463448Y-48211520D01*
X70449169Y-48234348D01*
X70424828Y-48267479D01*
X70394280Y-48303092D01*
X70360473Y-48338157D01*
X70326352Y-48369649D01*
X70294864Y-48394539D01*
X70290069Y-48397840D01*
X70212454Y-48442881D01*
X70128388Y-48478376D01*
X70041976Y-48503184D01*
X70019297Y-48506829D01*
X69987543Y-48509940D01*
X69949443Y-48512438D01*
X69907728Y-48514247D01*
X69865127Y-48515287D01*
X69824371Y-48515481D01*
X69788189Y-48514750D01*
X69759312Y-48513018D01*
X69747423Y-48511594D01*
X69657494Y-48492160D01*
X69574317Y-48463071D01*
X69497704Y-48424231D01*
X69427469Y-48375545D01*
X69364359Y-48317894D01*
X69310051Y-48253490D01*
X69264968Y-48182504D01*
X69228798Y-48104346D01*
X69201233Y-48018426D01*
X69196361Y-47998719D01*
X69187349Y-47949707D01*
X69181036Y-47893036D01*
X69177550Y-47832514D01*
X69177262Y-47799687D01*
X69596972Y-47799687D01*
X69597608Y-47850233D01*
X69601841Y-47954248D01*
X69610056Y-48047359D01*
X69622352Y-48129820D01*
X69638826Y-48201883D01*
X69659574Y-48263802D01*
X69684696Y-48315830D01*
X69714289Y-48358219D01*
X69748449Y-48391224D01*
X69787275Y-48415097D01*
X69820047Y-48427313D01*
X69851987Y-48432235D01*
X69888570Y-48431543D01*
X69924274Y-48425644D01*
X69947522Y-48417886D01*
X69979023Y-48401087D01*
X70005580Y-48379823D01*
X70030286Y-48351340D01*
X70043861Y-48332116D01*
X70068595Y-48287306D01*
X70090151Y-48232118D01*
X70108354Y-48167600D01*
X70123033Y-48094798D01*
X70134015Y-48014759D01*
X70141128Y-47928532D01*
X70144199Y-47837161D01*
X70143056Y-47741696D01*
X70142708Y-47732093D01*
X70137021Y-47632820D01*
X70127918Y-47544493D01*
X70115259Y-47466709D01*
X70098905Y-47399065D01*
X70078715Y-47341157D01*
X70054549Y-47292580D01*
X70026266Y-47252931D01*
X69993726Y-47221806D01*
X69957615Y-47199206D01*
X69935229Y-47188952D01*
X69916716Y-47183078D01*
X69896842Y-47180414D01*
X69870674Y-47179791D01*
X69844292Y-47180428D01*
X69824456Y-47183117D01*
X69805931Y-47189028D01*
X69783733Y-47199206D01*
X69743802Y-47225020D01*
X69708737Y-47260811D01*
X69678507Y-47306687D01*
X69653083Y-47362754D01*
X69632434Y-47429118D01*
X69616528Y-47505887D01*
X69605337Y-47593167D01*
X69598828Y-47691064D01*
X69596972Y-47799687D01*
X69177262Y-47799687D01*
X69177018Y-47771947D01*
X69179567Y-47715142D01*
X69185244Y-47666382D01*
X69205776Y-47575191D01*
X69235859Y-47490604D01*
X69275325Y-47412893D01*
X69324004Y-47342328D01*
X69381727Y-47279180D01*
X69448324Y-47223717D01*
X69473524Y-47206286D01*
X69547449Y-47164018D01*
X69625793Y-47131890D01*
X69709287Y-47109697D01*
X69798661Y-47097238D01*
X69875968Y-47094140D01*
X69968573Y-47099463D01*
X69968573Y-47099463D01*
G37*
X69968573Y-47099463D02*
X70057263Y-47115189D01*
X70141321Y-47140954D01*
X70220032Y-47176394D01*
X70292681Y-47221145D01*
X70358552Y-47274842D01*
X70416931Y-47337123D01*
X70455155Y-47388926D01*
X70495640Y-47460296D01*
X70527285Y-47538016D01*
X70550100Y-47620614D01*
X70564096Y-47706615D01*
X70569283Y-47794544D01*
X70565671Y-47882927D01*
X70553271Y-47970290D01*
X70532094Y-48055160D01*
X70502149Y-48136061D01*
X70463448Y-48211520D01*
X70449169Y-48234348D01*
X70424828Y-48267479D01*
X70394280Y-48303092D01*
X70360473Y-48338157D01*
X70326352Y-48369649D01*
X70294864Y-48394539D01*
X70290069Y-48397840D01*
X70212454Y-48442881D01*
X70128388Y-48478376D01*
X70041976Y-48503184D01*
X70019297Y-48506829D01*
X69987543Y-48509940D01*
X69949443Y-48512438D01*
X69907728Y-48514247D01*
X69865127Y-48515287D01*
X69824371Y-48515481D01*
X69788189Y-48514750D01*
X69759312Y-48513018D01*
X69747423Y-48511594D01*
X69657494Y-48492160D01*
X69574317Y-48463071D01*
X69497704Y-48424231D01*
X69427469Y-48375545D01*
X69364359Y-48317894D01*
X69310051Y-48253490D01*
X69264968Y-48182504D01*
X69228798Y-48104346D01*
X69201233Y-48018426D01*
X69196361Y-47998719D01*
X69187349Y-47949707D01*
X69181036Y-47893036D01*
X69177550Y-47832514D01*
X69177262Y-47799687D01*
X69596972Y-47799687D01*
X69597608Y-47850233D01*
X69601841Y-47954248D01*
X69610056Y-48047359D01*
X69622352Y-48129820D01*
X69638826Y-48201883D01*
X69659574Y-48263802D01*
X69684696Y-48315830D01*
X69714289Y-48358219D01*
X69748449Y-48391224D01*
X69787275Y-48415097D01*
X69820047Y-48427313D01*
X69851987Y-48432235D01*
X69888570Y-48431543D01*
X69924274Y-48425644D01*
X69947522Y-48417886D01*
X69979023Y-48401087D01*
X70005580Y-48379823D01*
X70030286Y-48351340D01*
X70043861Y-48332116D01*
X70068595Y-48287306D01*
X70090151Y-48232118D01*
X70108354Y-48167600D01*
X70123033Y-48094798D01*
X70134015Y-48014759D01*
X70141128Y-47928532D01*
X70144199Y-47837161D01*
X70143056Y-47741696D01*
X70142708Y-47732093D01*
X70137021Y-47632820D01*
X70127918Y-47544493D01*
X70115259Y-47466709D01*
X70098905Y-47399065D01*
X70078715Y-47341157D01*
X70054549Y-47292580D01*
X70026266Y-47252931D01*
X69993726Y-47221806D01*
X69957615Y-47199206D01*
X69935229Y-47188952D01*
X69916716Y-47183078D01*
X69896842Y-47180414D01*
X69870674Y-47179791D01*
X69844292Y-47180428D01*
X69824456Y-47183117D01*
X69805931Y-47189028D01*
X69783733Y-47199206D01*
X69743802Y-47225020D01*
X69708737Y-47260811D01*
X69678507Y-47306687D01*
X69653083Y-47362754D01*
X69632434Y-47429118D01*
X69616528Y-47505887D01*
X69605337Y-47593167D01*
X69598828Y-47691064D01*
X69596972Y-47799687D01*
X69177262Y-47799687D01*
X69177018Y-47771947D01*
X69179567Y-47715142D01*
X69185244Y-47666382D01*
X69205776Y-47575191D01*
X69235859Y-47490604D01*
X69275325Y-47412893D01*
X69324004Y-47342328D01*
X69381727Y-47279180D01*
X69448324Y-47223717D01*
X69473524Y-47206286D01*
X69547449Y-47164018D01*
X69625793Y-47131890D01*
X69709287Y-47109697D01*
X69798661Y-47097238D01*
X69875968Y-47094140D01*
X69968573Y-47099463D01*
G36*
X65126341Y-47095441D02*
X65138411Y-47095849D01*
X65197750Y-47099438D01*
X65248670Y-47105968D01*
X65294350Y-47116124D01*
X65337969Y-47130592D01*
X65376865Y-47147292D01*
X65445466Y-47185293D01*
X65505212Y-47230926D01*
X65556233Y-47284364D01*
X65598665Y-47345779D01*
X65632638Y-47415344D01*
X65658288Y-47493233D01*
X65665380Y-47522756D01*
X65669140Y-47546616D01*
X65672071Y-47578367D01*
X65674128Y-47615223D01*
X65675265Y-47654397D01*
X65675439Y-47693103D01*
X65674602Y-47728557D01*
X65672712Y-47757971D01*
X65669721Y-47778560D01*
X65669532Y-47779349D01*
X65664423Y-47800024D01*
X64829069Y-47803056D01*
X64829186Y-47836982D01*
X64832046Y-47885309D01*
X64840000Y-47940724D01*
X64852567Y-47999901D01*
X64853241Y-48002630D01*
X64876775Y-48077704D01*
X64907814Y-48144067D01*
X64946172Y-48201510D01*
X64991661Y-48249822D01*
X65044096Y-48288794D01*
X65103288Y-48318217D01*
X65148046Y-48332862D01*
X65179884Y-48338722D01*
X65219366Y-48342129D01*
X65262582Y-48343094D01*
X65305624Y-48341626D01*
X65344582Y-48337735D01*
X65372511Y-48332281D01*
X65419392Y-48317205D01*
X65460728Y-48297873D01*
X65499610Y-48272428D01*
X65539126Y-48239016D01*
X65557844Y-48220980D01*
X65582227Y-48197031D01*
X65600168Y-48180733D01*
X65613467Y-48171272D01*
X65623923Y-48167835D01*
X65633336Y-48169610D01*
X65643506Y-48175783D01*
X65648897Y-48179847D01*
X65662422Y-48190288D01*
X65629650Y-48242488D01*
X65601579Y-48285037D01*
X65575243Y-48319704D01*
X65547965Y-48349566D01*
X65517064Y-48377701D01*
X65499511Y-48392009D01*
X65437793Y-48434179D01*
X65369247Y-48469084D01*
X65297527Y-48494905D01*
X65286860Y-48497846D01*
X65262766Y-48503842D01*
X65240898Y-48508192D01*
X65218368Y-48511204D01*
X65192288Y-48513187D01*
X65159770Y-48514448D01*
X65124418Y-48515192D01*
X65087849Y-48515467D01*
X65052811Y-48515127D01*
X65022095Y-48514243D01*
X64998488Y-48512886D01*
X64987861Y-48511720D01*
X64894547Y-48491913D01*
X64808658Y-48462975D01*
X64730405Y-48425113D01*
X64660000Y-48378534D01*
X64597655Y-48323447D01*
X64543582Y-48260060D01*
X64497991Y-48188579D01*
X64461096Y-48109212D01*
X64433109Y-48022167D01*
X64418373Y-47953605D01*
X64412436Y-47907579D01*
X64408962Y-47854588D01*
X64407958Y-47798546D01*
X64409430Y-47743366D01*
X64411706Y-47714373D01*
X64827246Y-47714373D01*
X65012066Y-47714373D01*
X65074404Y-47714155D01*
X65125347Y-47713494D01*
X65165308Y-47712374D01*
X65194697Y-47710782D01*
X65213926Y-47708705D01*
X65220558Y-47707280D01*
X65251196Y-47692212D01*
X65275130Y-47667582D01*
X65291966Y-47633814D01*
X65293687Y-47628533D01*
X65299533Y-47600712D01*
X65303201Y-47564452D01*
X65304723Y-47522917D01*
X65304134Y-47479274D01*
X65301466Y-47436688D01*
X65296751Y-47398325D01*
X65291013Y-47370858D01*
X65271968Y-47314711D01*
X65247814Y-47268888D01*
X65218082Y-47232850D01*
X65182301Y-47206054D01*
X65140003Y-47187960D01*
X65129621Y-47185054D01*
X65084579Y-47178879D01*
X65042347Y-47183856D01*
X65003174Y-47199602D01*
X64967309Y-47225736D01*
X64935002Y-47261876D01*
X64906502Y-47307639D01*
X64882061Y-47362644D01*
X64861926Y-47426509D01*
X64846348Y-47498851D01*
X64835576Y-47579290D01*
X64830936Y-47642012D01*
X64827246Y-47714373D01*
X64411706Y-47714373D01*
X64413387Y-47692964D01*
X64417847Y-47661441D01*
X64439466Y-47571905D01*
X64470995Y-47488450D01*
X64511937Y-47411559D01*
X64561795Y-47341722D01*
X64620073Y-47279423D01*
X64686273Y-47225151D01*
X64759900Y-47179390D01*
X64840457Y-47142629D01*
X64927446Y-47115352D01*
X64988065Y-47102795D01*
X65019789Y-47098246D01*
X65050875Y-47095621D01*
X65085125Y-47094745D01*
X65126341Y-47095441D01*
X65126341Y-47095441D01*
G37*
X65126341Y-47095441D02*
X65138411Y-47095849D01*
X65197750Y-47099438D01*
X65248670Y-47105968D01*
X65294350Y-47116124D01*
X65337969Y-47130592D01*
X65376865Y-47147292D01*
X65445466Y-47185293D01*
X65505212Y-47230926D01*
X65556233Y-47284364D01*
X65598665Y-47345779D01*
X65632638Y-47415344D01*
X65658288Y-47493233D01*
X65665380Y-47522756D01*
X65669140Y-47546616D01*
X65672071Y-47578367D01*
X65674128Y-47615223D01*
X65675265Y-47654397D01*
X65675439Y-47693103D01*
X65674602Y-47728557D01*
X65672712Y-47757971D01*
X65669721Y-47778560D01*
X65669532Y-47779349D01*
X65664423Y-47800024D01*
X64829069Y-47803056D01*
X64829186Y-47836982D01*
X64832046Y-47885309D01*
X64840000Y-47940724D01*
X64852567Y-47999901D01*
X64853241Y-48002630D01*
X64876775Y-48077704D01*
X64907814Y-48144067D01*
X64946172Y-48201510D01*
X64991661Y-48249822D01*
X65044096Y-48288794D01*
X65103288Y-48318217D01*
X65148046Y-48332862D01*
X65179884Y-48338722D01*
X65219366Y-48342129D01*
X65262582Y-48343094D01*
X65305624Y-48341626D01*
X65344582Y-48337735D01*
X65372511Y-48332281D01*
X65419392Y-48317205D01*
X65460728Y-48297873D01*
X65499610Y-48272428D01*
X65539126Y-48239016D01*
X65557844Y-48220980D01*
X65582227Y-48197031D01*
X65600168Y-48180733D01*
X65613467Y-48171272D01*
X65623923Y-48167835D01*
X65633336Y-48169610D01*
X65643506Y-48175783D01*
X65648897Y-48179847D01*
X65662422Y-48190288D01*
X65629650Y-48242488D01*
X65601579Y-48285037D01*
X65575243Y-48319704D01*
X65547965Y-48349566D01*
X65517064Y-48377701D01*
X65499511Y-48392009D01*
X65437793Y-48434179D01*
X65369247Y-48469084D01*
X65297527Y-48494905D01*
X65286860Y-48497846D01*
X65262766Y-48503842D01*
X65240898Y-48508192D01*
X65218368Y-48511204D01*
X65192288Y-48513187D01*
X65159770Y-48514448D01*
X65124418Y-48515192D01*
X65087849Y-48515467D01*
X65052811Y-48515127D01*
X65022095Y-48514243D01*
X64998488Y-48512886D01*
X64987861Y-48511720D01*
X64894547Y-48491913D01*
X64808658Y-48462975D01*
X64730405Y-48425113D01*
X64660000Y-48378534D01*
X64597655Y-48323447D01*
X64543582Y-48260060D01*
X64497991Y-48188579D01*
X64461096Y-48109212D01*
X64433109Y-48022167D01*
X64418373Y-47953605D01*
X64412436Y-47907579D01*
X64408962Y-47854588D01*
X64407958Y-47798546D01*
X64409430Y-47743366D01*
X64411706Y-47714373D01*
X64827246Y-47714373D01*
X65012066Y-47714373D01*
X65074404Y-47714155D01*
X65125347Y-47713494D01*
X65165308Y-47712374D01*
X65194697Y-47710782D01*
X65213926Y-47708705D01*
X65220558Y-47707280D01*
X65251196Y-47692212D01*
X65275130Y-47667582D01*
X65291966Y-47633814D01*
X65293687Y-47628533D01*
X65299533Y-47600712D01*
X65303201Y-47564452D01*
X65304723Y-47522917D01*
X65304134Y-47479274D01*
X65301466Y-47436688D01*
X65296751Y-47398325D01*
X65291013Y-47370858D01*
X65271968Y-47314711D01*
X65247814Y-47268888D01*
X65218082Y-47232850D01*
X65182301Y-47206054D01*
X65140003Y-47187960D01*
X65129621Y-47185054D01*
X65084579Y-47178879D01*
X65042347Y-47183856D01*
X65003174Y-47199602D01*
X64967309Y-47225736D01*
X64935002Y-47261876D01*
X64906502Y-47307639D01*
X64882061Y-47362644D01*
X64861926Y-47426509D01*
X64846348Y-47498851D01*
X64835576Y-47579290D01*
X64830936Y-47642012D01*
X64827246Y-47714373D01*
X64411706Y-47714373D01*
X64413387Y-47692964D01*
X64417847Y-47661441D01*
X64439466Y-47571905D01*
X64470995Y-47488450D01*
X64511937Y-47411559D01*
X64561795Y-47341722D01*
X64620073Y-47279423D01*
X64686273Y-47225151D01*
X64759900Y-47179390D01*
X64840457Y-47142629D01*
X64927446Y-47115352D01*
X64988065Y-47102795D01*
X65019789Y-47098246D01*
X65050875Y-47095621D01*
X65085125Y-47094745D01*
X65126341Y-47095441D01*
G36*
X70203355Y-49029907D02*
X70213797Y-49039012D01*
X70217414Y-49043805D01*
X70220113Y-49049678D01*
X70221971Y-49058179D01*
X70223067Y-49070854D01*
X70223479Y-49089247D01*
X70223284Y-49114906D01*
X70222560Y-49149375D01*
X70221469Y-49191117D01*
X70220661Y-49227525D01*
X70219930Y-49273538D01*
X70219278Y-49327914D01*
X70218706Y-49389412D01*
X70218215Y-49456790D01*
X70217807Y-49528805D01*
X70217484Y-49604218D01*
X70217247Y-49681785D01*
X70217097Y-49760265D01*
X70217037Y-49838417D01*
X70217066Y-49914998D01*
X70217188Y-49988767D01*
X70217404Y-50058483D01*
X70217714Y-50122904D01*
X70218121Y-50180787D01*
X70218626Y-50230892D01*
X70219230Y-50271977D01*
X70219935Y-50302800D01*
X70220127Y-50308746D01*
X70223989Y-50419235D01*
X70239308Y-50422192D01*
X70249708Y-50423856D01*
X70269777Y-50426774D01*
X70297472Y-50430658D01*
X70330749Y-50435224D01*
X70367564Y-50440184D01*
X70374244Y-50441075D01*
X70493860Y-50457002D01*
X70493860Y-50520186D01*
X69584186Y-50520186D01*
X69584186Y-50457260D01*
X69715616Y-50440973D01*
X69754673Y-50436081D01*
X69790598Y-50431484D01*
X69821449Y-50427439D01*
X69845283Y-50424201D01*
X69860158Y-50422027D01*
X69863290Y-50421488D01*
X69879535Y-50418291D01*
X69879535Y-49201589D01*
X69854430Y-49205013D01*
X69838419Y-49206901D01*
X69814112Y-49209415D01*
X69784988Y-49212206D01*
X69758442Y-49214591D01*
X69727956Y-49217330D01*
X69699262Y-49220069D01*
X69675838Y-49222469D01*
X69662453Y-49224014D01*
X69637348Y-49227282D01*
X69637348Y-49188525D01*
X69637684Y-49168866D01*
X69638563Y-49154919D01*
X69639760Y-49149768D01*
X69645828Y-49148489D01*
X69662272Y-49144823D01*
X69687954Y-49139030D01*
X69721738Y-49131367D01*
X69762484Y-49122093D01*
X69809056Y-49111468D01*
X69860316Y-49099748D01*
X69912724Y-49087745D01*
X69967701Y-49075186D01*
X70019332Y-49063480D01*
X70066440Y-49052886D01*
X70107847Y-49043665D01*
X70142376Y-49036078D01*
X70168850Y-49030386D01*
X70186091Y-49026848D01*
X70192817Y-49025721D01*
X70203355Y-49029907D01*
X70203355Y-49029907D01*
G37*
X70203355Y-49029907D02*
X70213797Y-49039012D01*
X70217414Y-49043805D01*
X70220113Y-49049678D01*
X70221971Y-49058179D01*
X70223067Y-49070854D01*
X70223479Y-49089247D01*
X70223284Y-49114906D01*
X70222560Y-49149375D01*
X70221469Y-49191117D01*
X70220661Y-49227525D01*
X70219930Y-49273538D01*
X70219278Y-49327914D01*
X70218706Y-49389412D01*
X70218215Y-49456790D01*
X70217807Y-49528805D01*
X70217484Y-49604218D01*
X70217247Y-49681785D01*
X70217097Y-49760265D01*
X70217037Y-49838417D01*
X70217066Y-49914998D01*
X70217188Y-49988767D01*
X70217404Y-50058483D01*
X70217714Y-50122904D01*
X70218121Y-50180787D01*
X70218626Y-50230892D01*
X70219230Y-50271977D01*
X70219935Y-50302800D01*
X70220127Y-50308746D01*
X70223989Y-50419235D01*
X70239308Y-50422192D01*
X70249708Y-50423856D01*
X70269777Y-50426774D01*
X70297472Y-50430658D01*
X70330749Y-50435224D01*
X70367564Y-50440184D01*
X70374244Y-50441075D01*
X70493860Y-50457002D01*
X70493860Y-50520186D01*
X69584186Y-50520186D01*
X69584186Y-50457260D01*
X69715616Y-50440973D01*
X69754673Y-50436081D01*
X69790598Y-50431484D01*
X69821449Y-50427439D01*
X69845283Y-50424201D01*
X69860158Y-50422027D01*
X69863290Y-50421488D01*
X69879535Y-50418291D01*
X69879535Y-49201589D01*
X69854430Y-49205013D01*
X69838419Y-49206901D01*
X69814112Y-49209415D01*
X69784988Y-49212206D01*
X69758442Y-49214591D01*
X69727956Y-49217330D01*
X69699262Y-49220069D01*
X69675838Y-49222469D01*
X69662453Y-49224014D01*
X69637348Y-49227282D01*
X69637348Y-49188525D01*
X69637684Y-49168866D01*
X69638563Y-49154919D01*
X69639760Y-49149768D01*
X69645828Y-49148489D01*
X69662272Y-49144823D01*
X69687954Y-49139030D01*
X69721738Y-49131367D01*
X69762484Y-49122093D01*
X69809056Y-49111468D01*
X69860316Y-49099748D01*
X69912724Y-49087745D01*
X69967701Y-49075186D01*
X70019332Y-49063480D01*
X70066440Y-49052886D01*
X70107847Y-49043665D01*
X70142376Y-49036078D01*
X70168850Y-49030386D01*
X70186091Y-49026848D01*
X70192817Y-49025721D01*
X70203355Y-49029907D01*
G36*
X66010882Y-49371813D02*
X66020760Y-49378795D01*
X66025470Y-49383071D01*
X66029066Y-49388799D01*
X66031829Y-49397715D01*
X66034038Y-49411553D01*
X66035975Y-49432050D01*
X66037919Y-49460943D01*
X66040057Y-49498279D01*
X66042212Y-49535592D01*
X66044431Y-49571185D01*
X66046538Y-49602430D01*
X66048357Y-49626699D01*
X66049527Y-49639712D01*
X66052949Y-49671866D01*
X66069580Y-49629122D01*
X66098265Y-49567333D01*
X66133480Y-49511551D01*
X66174037Y-49463184D01*
X66218751Y-49423638D01*
X66266436Y-49394320D01*
X66268179Y-49393479D01*
X66292063Y-49382623D01*
X66311327Y-49375820D01*
X66330628Y-49371973D01*
X66354623Y-49369986D01*
X66370790Y-49369313D01*
X66401116Y-49368856D01*
X66423787Y-49370288D01*
X66442876Y-49374079D01*
X66459395Y-49379530D01*
X66498503Y-49399056D01*
X66528895Y-49425577D01*
X66550115Y-49456439D01*
X66564861Y-49494320D01*
X66569977Y-49533952D01*
X66566058Y-49573229D01*
X66553703Y-49610046D01*
X66533506Y-49642299D01*
X66506065Y-49667883D01*
X66487101Y-49678819D01*
X66446585Y-49691816D01*
X66406276Y-49693036D01*
X66366273Y-49682517D01*
X66326675Y-49660295D01*
X66287578Y-49626409D01*
X66257874Y-49592385D01*
X66241772Y-49571898D01*
X66229975Y-49558760D01*
X66220368Y-49553243D01*
X66210834Y-49555617D01*
X66199256Y-49566153D01*
X66183517Y-49585122D01*
X66168713Y-49603786D01*
X66138048Y-49647968D01*
X66109227Y-49700291D01*
X66084098Y-49757084D01*
X66067135Y-49805747D01*
X66051814Y-49856261D01*
X66051814Y-50128416D01*
X66051893Y-50184654D01*
X66052119Y-50237770D01*
X66052476Y-50286490D01*
X66052948Y-50329543D01*
X66053518Y-50365654D01*
X66054170Y-50393550D01*
X66054889Y-50411958D01*
X66055521Y-50419106D01*
X66057135Y-50426662D01*
X66059618Y-50432291D01*
X66064641Y-50436476D01*
X66073875Y-50439696D01*
X66088991Y-50442435D01*
X66111659Y-50445174D01*
X66143551Y-50448394D01*
X66164046Y-50450390D01*
X66243790Y-50458163D01*
X66245576Y-50489175D01*
X66247361Y-50520186D01*
X65579255Y-50520186D01*
X65579255Y-50456960D01*
X65645143Y-50450251D01*
X65671843Y-50447266D01*
X65694009Y-50444287D01*
X65709117Y-50441684D01*
X65714550Y-50440023D01*
X65715223Y-50433594D01*
X65715821Y-50416482D01*
X65716346Y-50389819D01*
X65716797Y-50354736D01*
X65717176Y-50312363D01*
X65717483Y-50263833D01*
X65717718Y-50210275D01*
X65717884Y-50152822D01*
X65717979Y-50092605D01*
X65718006Y-50030753D01*
X65717964Y-49968400D01*
X65717854Y-49906675D01*
X65717677Y-49846711D01*
X65717435Y-49789637D01*
X65717126Y-49736586D01*
X65716753Y-49688687D01*
X65716315Y-49647074D01*
X65715814Y-49612876D01*
X65715250Y-49587225D01*
X65714623Y-49571252D01*
X65714016Y-49566093D01*
X65707405Y-49564317D01*
X65691703Y-49561590D01*
X65669557Y-49558268D01*
X65643617Y-49554711D01*
X65616531Y-49551275D01*
X65590949Y-49548318D01*
X65569520Y-49546197D01*
X65562672Y-49545661D01*
X65561942Y-49540335D01*
X65562267Y-49527106D01*
X65562672Y-49520758D01*
X65564488Y-49495982D01*
X65783046Y-49432309D01*
X65831718Y-49418150D01*
X65876770Y-49405085D01*
X65916960Y-49393470D01*
X65951041Y-49383665D01*
X65977770Y-49376026D01*
X65995900Y-49370912D01*
X66004189Y-49368681D01*
X66004558Y-49368612D01*
X66010882Y-49371813D01*
X66010882Y-49371813D01*
G37*
X66010882Y-49371813D02*
X66020760Y-49378795D01*
X66025470Y-49383071D01*
X66029066Y-49388799D01*
X66031829Y-49397715D01*
X66034038Y-49411553D01*
X66035975Y-49432050D01*
X66037919Y-49460943D01*
X66040057Y-49498279D01*
X66042212Y-49535592D01*
X66044431Y-49571185D01*
X66046538Y-49602430D01*
X66048357Y-49626699D01*
X66049527Y-49639712D01*
X66052949Y-49671866D01*
X66069580Y-49629122D01*
X66098265Y-49567333D01*
X66133480Y-49511551D01*
X66174037Y-49463184D01*
X66218751Y-49423638D01*
X66266436Y-49394320D01*
X66268179Y-49393479D01*
X66292063Y-49382623D01*
X66311327Y-49375820D01*
X66330628Y-49371973D01*
X66354623Y-49369986D01*
X66370790Y-49369313D01*
X66401116Y-49368856D01*
X66423787Y-49370288D01*
X66442876Y-49374079D01*
X66459395Y-49379530D01*
X66498503Y-49399056D01*
X66528895Y-49425577D01*
X66550115Y-49456439D01*
X66564861Y-49494320D01*
X66569977Y-49533952D01*
X66566058Y-49573229D01*
X66553703Y-49610046D01*
X66533506Y-49642299D01*
X66506065Y-49667883D01*
X66487101Y-49678819D01*
X66446585Y-49691816D01*
X66406276Y-49693036D01*
X66366273Y-49682517D01*
X66326675Y-49660295D01*
X66287578Y-49626409D01*
X66257874Y-49592385D01*
X66241772Y-49571898D01*
X66229975Y-49558760D01*
X66220368Y-49553243D01*
X66210834Y-49555617D01*
X66199256Y-49566153D01*
X66183517Y-49585122D01*
X66168713Y-49603786D01*
X66138048Y-49647968D01*
X66109227Y-49700291D01*
X66084098Y-49757084D01*
X66067135Y-49805747D01*
X66051814Y-49856261D01*
X66051814Y-50128416D01*
X66051893Y-50184654D01*
X66052119Y-50237770D01*
X66052476Y-50286490D01*
X66052948Y-50329543D01*
X66053518Y-50365654D01*
X66054170Y-50393550D01*
X66054889Y-50411958D01*
X66055521Y-50419106D01*
X66057135Y-50426662D01*
X66059618Y-50432291D01*
X66064641Y-50436476D01*
X66073875Y-50439696D01*
X66088991Y-50442435D01*
X66111659Y-50445174D01*
X66143551Y-50448394D01*
X66164046Y-50450390D01*
X66243790Y-50458163D01*
X66245576Y-50489175D01*
X66247361Y-50520186D01*
X65579255Y-50520186D01*
X65579255Y-50456960D01*
X65645143Y-50450251D01*
X65671843Y-50447266D01*
X65694009Y-50444287D01*
X65709117Y-50441684D01*
X65714550Y-50440023D01*
X65715223Y-50433594D01*
X65715821Y-50416482D01*
X65716346Y-50389819D01*
X65716797Y-50354736D01*
X65717176Y-50312363D01*
X65717483Y-50263833D01*
X65717718Y-50210275D01*
X65717884Y-50152822D01*
X65717979Y-50092605D01*
X65718006Y-50030753D01*
X65717964Y-49968400D01*
X65717854Y-49906675D01*
X65717677Y-49846711D01*
X65717435Y-49789637D01*
X65717126Y-49736586D01*
X65716753Y-49688687D01*
X65716315Y-49647074D01*
X65715814Y-49612876D01*
X65715250Y-49587225D01*
X65714623Y-49571252D01*
X65714016Y-49566093D01*
X65707405Y-49564317D01*
X65691703Y-49561590D01*
X65669557Y-49558268D01*
X65643617Y-49554711D01*
X65616531Y-49551275D01*
X65590949Y-49548318D01*
X65569520Y-49546197D01*
X65562672Y-49545661D01*
X65561942Y-49540335D01*
X65562267Y-49527106D01*
X65562672Y-49520758D01*
X65564488Y-49495982D01*
X65783046Y-49432309D01*
X65831718Y-49418150D01*
X65876770Y-49405085D01*
X65916960Y-49393470D01*
X65951041Y-49383665D01*
X65977770Y-49376026D01*
X65995900Y-49370912D01*
X66004189Y-49368681D01*
X66004558Y-49368612D01*
X66010882Y-49371813D01*
G36*
X68738011Y-49399259D02*
X68937372Y-49400814D01*
X68939133Y-49431142D01*
X68940895Y-49461469D01*
X68871203Y-49471740D01*
X68843389Y-49476296D01*
X68819668Y-49481032D01*
X68802611Y-49485378D01*
X68794880Y-49488669D01*
X68791857Y-49495041D01*
X68784941Y-49511679D01*
X68774437Y-49537804D01*
X68760647Y-49572637D01*
X68743875Y-49615400D01*
X68724423Y-49665315D01*
X68702596Y-49721603D01*
X68678695Y-49783486D01*
X68653025Y-49850185D01*
X68625888Y-49920922D01*
X68597588Y-49994918D01*
X68591560Y-50010710D01*
X68394871Y-50526093D01*
X68324847Y-50526093D01*
X68295081Y-50525980D01*
X68274995Y-50525388D01*
X68262456Y-50523942D01*
X68255331Y-50521264D01*
X68251486Y-50516978D01*
X68249599Y-50512803D01*
X68192881Y-50368598D01*
X68140357Y-50235200D01*
X68092032Y-50112625D01*
X68047913Y-50000890D01*
X68008007Y-49900010D01*
X67972319Y-49810003D01*
X67940857Y-49730885D01*
X67913626Y-49662671D01*
X67890634Y-49605379D01*
X67871888Y-49559024D01*
X67857392Y-49523624D01*
X67847155Y-49499194D01*
X67841182Y-49485751D01*
X67839624Y-49482942D01*
X67831051Y-49479420D01*
X67813703Y-49475320D01*
X67790558Y-49471283D01*
X67776651Y-49469350D01*
X67751915Y-49465799D01*
X67731655Y-49462117D01*
X67718713Y-49458859D01*
X67715725Y-49457432D01*
X67713173Y-49449037D01*
X67712455Y-49433628D01*
X67712772Y-49426722D01*
X67714628Y-49400814D01*
X68029174Y-49399286D01*
X68343721Y-49397757D01*
X68343721Y-49430297D01*
X68343264Y-49449021D01*
X68341115Y-49458854D01*
X68336105Y-49462707D01*
X68330430Y-49463398D01*
X68319012Y-49464319D01*
X68299139Y-49466339D01*
X68274085Y-49469115D01*
X68258069Y-49470984D01*
X68230261Y-49474667D01*
X68212552Y-49478071D01*
X68203254Y-49481660D01*
X68200675Y-49485896D01*
X68200774Y-49486668D01*
X68203137Y-49494349D01*
X68208999Y-49511939D01*
X68217952Y-49538276D01*
X68229592Y-49572200D01*
X68243511Y-49612546D01*
X68259303Y-49658153D01*
X68276563Y-49707858D01*
X68294885Y-49760500D01*
X68313861Y-49814915D01*
X68333087Y-49869942D01*
X68352155Y-49924418D01*
X68370660Y-49977181D01*
X68388196Y-50027069D01*
X68404356Y-50072919D01*
X68418734Y-50113569D01*
X68430925Y-50147857D01*
X68440522Y-50174620D01*
X68447118Y-50192696D01*
X68450309Y-50200923D01*
X68450453Y-50201210D01*
X68454833Y-50207068D01*
X68455774Y-50206648D01*
X68457644Y-50200603D01*
X68462981Y-50184312D01*
X68471467Y-50158724D01*
X68482784Y-50124785D01*
X68496618Y-50083442D01*
X68512649Y-50035642D01*
X68530561Y-49982331D01*
X68550038Y-49924458D01*
X68570762Y-49862968D01*
X68577167Y-49843982D01*
X68598162Y-49781666D01*
X68617955Y-49722733D01*
X68636235Y-49668123D01*
X68652691Y-49618776D01*
X68667011Y-49575631D01*
X68678883Y-49539629D01*
X68687995Y-49511708D01*
X68694036Y-49492810D01*
X68696694Y-49483874D01*
X68696783Y-49483274D01*
X68690837Y-49482117D01*
X68675846Y-49479858D01*
X68654488Y-49476850D01*
X68629442Y-49473451D01*
X68603387Y-49470016D01*
X68579000Y-49466899D01*
X68558961Y-49464458D01*
X68545948Y-49463046D01*
X68542830Y-49462838D01*
X68540543Y-49457494D01*
X68539025Y-49443707D01*
X68538651Y-49430271D01*
X68538651Y-49397704D01*
X68738011Y-49399259D01*
X68738011Y-49399259D01*
G37*
X68738011Y-49399259D02*
X68937372Y-49400814D01*
X68939133Y-49431142D01*
X68940895Y-49461469D01*
X68871203Y-49471740D01*
X68843389Y-49476296D01*
X68819668Y-49481032D01*
X68802611Y-49485378D01*
X68794880Y-49488669D01*
X68791857Y-49495041D01*
X68784941Y-49511679D01*
X68774437Y-49537804D01*
X68760647Y-49572637D01*
X68743875Y-49615400D01*
X68724423Y-49665315D01*
X68702596Y-49721603D01*
X68678695Y-49783486D01*
X68653025Y-49850185D01*
X68625888Y-49920922D01*
X68597588Y-49994918D01*
X68591560Y-50010710D01*
X68394871Y-50526093D01*
X68324847Y-50526093D01*
X68295081Y-50525980D01*
X68274995Y-50525388D01*
X68262456Y-50523942D01*
X68255331Y-50521264D01*
X68251486Y-50516978D01*
X68249599Y-50512803D01*
X68192881Y-50368598D01*
X68140357Y-50235200D01*
X68092032Y-50112625D01*
X68047913Y-50000890D01*
X68008007Y-49900010D01*
X67972319Y-49810003D01*
X67940857Y-49730885D01*
X67913626Y-49662671D01*
X67890634Y-49605379D01*
X67871888Y-49559024D01*
X67857392Y-49523624D01*
X67847155Y-49499194D01*
X67841182Y-49485751D01*
X67839624Y-49482942D01*
X67831051Y-49479420D01*
X67813703Y-49475320D01*
X67790558Y-49471283D01*
X67776651Y-49469350D01*
X67751915Y-49465799D01*
X67731655Y-49462117D01*
X67718713Y-49458859D01*
X67715725Y-49457432D01*
X67713173Y-49449037D01*
X67712455Y-49433628D01*
X67712772Y-49426722D01*
X67714628Y-49400814D01*
X68029174Y-49399286D01*
X68343721Y-49397757D01*
X68343721Y-49430297D01*
X68343264Y-49449021D01*
X68341115Y-49458854D01*
X68336105Y-49462707D01*
X68330430Y-49463398D01*
X68319012Y-49464319D01*
X68299139Y-49466339D01*
X68274085Y-49469115D01*
X68258069Y-49470984D01*
X68230261Y-49474667D01*
X68212552Y-49478071D01*
X68203254Y-49481660D01*
X68200675Y-49485896D01*
X68200774Y-49486668D01*
X68203137Y-49494349D01*
X68208999Y-49511939D01*
X68217952Y-49538276D01*
X68229592Y-49572200D01*
X68243511Y-49612546D01*
X68259303Y-49658153D01*
X68276563Y-49707858D01*
X68294885Y-49760500D01*
X68313861Y-49814915D01*
X68333087Y-49869942D01*
X68352155Y-49924418D01*
X68370660Y-49977181D01*
X68388196Y-50027069D01*
X68404356Y-50072919D01*
X68418734Y-50113569D01*
X68430925Y-50147857D01*
X68440522Y-50174620D01*
X68447118Y-50192696D01*
X68450309Y-50200923D01*
X68450453Y-50201210D01*
X68454833Y-50207068D01*
X68455774Y-50206648D01*
X68457644Y-50200603D01*
X68462981Y-50184312D01*
X68471467Y-50158724D01*
X68482784Y-50124785D01*
X68496618Y-50083442D01*
X68512649Y-50035642D01*
X68530561Y-49982331D01*
X68550038Y-49924458D01*
X68570762Y-49862968D01*
X68577167Y-49843982D01*
X68598162Y-49781666D01*
X68617955Y-49722733D01*
X68636235Y-49668123D01*
X68652691Y-49618776D01*
X68667011Y-49575631D01*
X68678883Y-49539629D01*
X68687995Y-49511708D01*
X68694036Y-49492810D01*
X68696694Y-49483874D01*
X68696783Y-49483274D01*
X68690837Y-49482117D01*
X68675846Y-49479858D01*
X68654488Y-49476850D01*
X68629442Y-49473451D01*
X68603387Y-49470016D01*
X68579000Y-49466899D01*
X68558961Y-49464458D01*
X68545948Y-49463046D01*
X68542830Y-49462838D01*
X68540543Y-49457494D01*
X68539025Y-49443707D01*
X68538651Y-49430271D01*
X68538651Y-49397704D01*
X68738011Y-49399259D01*
G36*
X69088865Y-50187020D02*
X69108466Y-50188926D01*
X69124169Y-50193017D01*
X69139922Y-50200042D01*
X69144116Y-50202230D01*
X69183565Y-50229708D01*
X69215162Y-50265858D01*
X69233134Y-50297830D01*
X69245192Y-50337807D01*
X69247134Y-50380182D01*
X69239527Y-50422308D01*
X69222939Y-50461540D01*
X69197936Y-50495230D01*
X69189004Y-50503752D01*
X69153966Y-50527692D01*
X69113503Y-50544120D01*
X69071061Y-50552072D01*
X69030086Y-50550581D01*
X69025120Y-50549658D01*
X68985480Y-50536500D01*
X68948809Y-50514890D01*
X68917539Y-50486843D01*
X68894102Y-50454378D01*
X68884653Y-50433155D01*
X68877447Y-50399534D01*
X68875856Y-50361308D01*
X68879875Y-50324266D01*
X68884753Y-50305668D01*
X68898668Y-50277957D01*
X68920511Y-50249448D01*
X68947181Y-50223575D01*
X68975574Y-50203769D01*
X68978085Y-50202414D01*
X68994731Y-50194489D01*
X69010229Y-50189713D01*
X69028566Y-50187328D01*
X69053729Y-50186574D01*
X69061418Y-50186551D01*
X69088865Y-50187020D01*
X69088865Y-50187020D01*
G37*
X69088865Y-50187020D02*
X69108466Y-50188926D01*
X69124169Y-50193017D01*
X69139922Y-50200042D01*
X69144116Y-50202230D01*
X69183565Y-50229708D01*
X69215162Y-50265858D01*
X69233134Y-50297830D01*
X69245192Y-50337807D01*
X69247134Y-50380182D01*
X69239527Y-50422308D01*
X69222939Y-50461540D01*
X69197936Y-50495230D01*
X69189004Y-50503752D01*
X69153966Y-50527692D01*
X69113503Y-50544120D01*
X69071061Y-50552072D01*
X69030086Y-50550581D01*
X69025120Y-50549658D01*
X68985480Y-50536500D01*
X68948809Y-50514890D01*
X68917539Y-50486843D01*
X68894102Y-50454378D01*
X68884653Y-50433155D01*
X68877447Y-50399534D01*
X68875856Y-50361308D01*
X68879875Y-50324266D01*
X68884753Y-50305668D01*
X68898668Y-50277957D01*
X68920511Y-50249448D01*
X68947181Y-50223575D01*
X68975574Y-50203769D01*
X68978085Y-50202414D01*
X68994731Y-50194489D01*
X69010229Y-50189713D01*
X69028566Y-50187328D01*
X69053729Y-50186574D01*
X69061418Y-50186551D01*
X69088865Y-50187020D01*
G36*
X67268350Y-49372313D02*
X67338280Y-49384485D01*
X67401454Y-49405324D01*
X67458904Y-49435232D01*
X67511664Y-49474614D01*
X67545407Y-49507030D01*
X67582810Y-49553660D01*
X67614918Y-49608272D01*
X67639959Y-49667572D01*
X67650355Y-49702070D01*
X67654175Y-49723106D01*
X67657309Y-49752147D01*
X67659682Y-49786441D01*
X67661220Y-49823236D01*
X67661847Y-49859783D01*
X67661487Y-49893330D01*
X67660067Y-49921124D01*
X67657510Y-49940417D01*
X67656922Y-49942779D01*
X67652379Y-49959024D01*
X66955581Y-49959024D01*
X66955598Y-49972314D01*
X66957029Y-49997059D01*
X66960851Y-50029299D01*
X66966429Y-50065109D01*
X66973130Y-50100564D01*
X66980319Y-50131739D01*
X66982827Y-50140890D01*
X67007041Y-50207520D01*
X67038368Y-50265098D01*
X67076606Y-50313410D01*
X67121558Y-50352243D01*
X67173024Y-50381384D01*
X67224113Y-50398988D01*
X67256238Y-50404520D01*
X67295244Y-50407284D01*
X67336541Y-50407282D01*
X67375539Y-50404513D01*
X67407649Y-50398979D01*
X67407700Y-50398966D01*
X67455054Y-50383717D01*
X67496489Y-50362898D01*
X67535410Y-50334495D01*
X67567529Y-50304448D01*
X67615360Y-50255816D01*
X67631029Y-50265323D01*
X67642057Y-50273806D01*
X67646697Y-50280935D01*
X67646697Y-50280980D01*
X67643209Y-50291820D01*
X67633811Y-50309372D01*
X67620100Y-50331227D01*
X67603675Y-50354978D01*
X67586134Y-50378214D01*
X67569075Y-50398528D01*
X67567708Y-50400032D01*
X67514145Y-50450256D01*
X67454352Y-50490577D01*
X67387919Y-50521235D01*
X67332008Y-50538403D01*
X67298965Y-50544636D01*
X67258232Y-50549356D01*
X67213642Y-50552383D01*
X67169029Y-50553541D01*
X67128224Y-50552650D01*
X67095061Y-50549534D01*
X67094395Y-50549431D01*
X67027624Y-50535582D01*
X66962700Y-50515636D01*
X66902647Y-50490713D01*
X66850490Y-50461933D01*
X66840966Y-50455602D01*
X66781711Y-50407730D01*
X66730152Y-50351147D01*
X66686675Y-50286425D01*
X66651669Y-50214137D01*
X66626668Y-50139186D01*
X66621078Y-50117488D01*
X66616965Y-50098463D01*
X66614098Y-50079623D01*
X66612246Y-50058478D01*
X66611178Y-50032538D01*
X66610662Y-49999313D01*
X66610489Y-49964931D01*
X66611049Y-49909469D01*
X66613420Y-49863071D01*
X66613775Y-49860046D01*
X66955581Y-49860046D01*
X66955581Y-49882233D01*
X67115259Y-49882233D01*
X67166972Y-49882084D01*
X67208102Y-49881599D01*
X67239878Y-49880723D01*
X67263528Y-49879400D01*
X67280280Y-49877574D01*
X67291363Y-49875189D01*
X67294430Y-49874088D01*
X67315106Y-49862145D01*
X67330821Y-49844924D01*
X67342050Y-49821117D01*
X67349268Y-49789413D01*
X67352952Y-49748501D01*
X67353682Y-49710931D01*
X67350921Y-49649261D01*
X67342566Y-49596943D01*
X67328186Y-49552706D01*
X67307352Y-49515277D01*
X67279633Y-49483381D01*
X67275486Y-49479561D01*
X67245463Y-49457226D01*
X67214081Y-49444346D01*
X67177459Y-49439477D01*
X67167547Y-49439339D01*
X67127575Y-49445080D01*
X67091486Y-49461856D01*
X67059375Y-49489513D01*
X67031341Y-49527894D01*
X67007481Y-49576845D01*
X66987893Y-49636208D01*
X66972674Y-49705830D01*
X66964259Y-49764057D01*
X66960876Y-49794591D01*
X66958110Y-49822919D01*
X66956249Y-49845852D01*
X66955581Y-49860046D01*
X66613775Y-49860046D01*
X66618126Y-49823055D01*
X66625694Y-49786741D01*
X66636646Y-49751450D01*
X66651507Y-49714499D01*
X66665388Y-49684390D01*
X66705105Y-49614641D01*
X66753341Y-49552706D01*
X66809407Y-49499000D01*
X66872612Y-49453939D01*
X66942264Y-49417938D01*
X67017674Y-49391414D01*
X67098151Y-49374780D01*
X67183005Y-49368453D01*
X67190632Y-49368404D01*
X67268350Y-49372313D01*
X67268350Y-49372313D01*
G37*
X67268350Y-49372313D02*
X67338280Y-49384485D01*
X67401454Y-49405324D01*
X67458904Y-49435232D01*
X67511664Y-49474614D01*
X67545407Y-49507030D01*
X67582810Y-49553660D01*
X67614918Y-49608272D01*
X67639959Y-49667572D01*
X67650355Y-49702070D01*
X67654175Y-49723106D01*
X67657309Y-49752147D01*
X67659682Y-49786441D01*
X67661220Y-49823236D01*
X67661847Y-49859783D01*
X67661487Y-49893330D01*
X67660067Y-49921124D01*
X67657510Y-49940417D01*
X67656922Y-49942779D01*
X67652379Y-49959024D01*
X66955581Y-49959024D01*
X66955598Y-49972314D01*
X66957029Y-49997059D01*
X66960851Y-50029299D01*
X66966429Y-50065109D01*
X66973130Y-50100564D01*
X66980319Y-50131739D01*
X66982827Y-50140890D01*
X67007041Y-50207520D01*
X67038368Y-50265098D01*
X67076606Y-50313410D01*
X67121558Y-50352243D01*
X67173024Y-50381384D01*
X67224113Y-50398988D01*
X67256238Y-50404520D01*
X67295244Y-50407284D01*
X67336541Y-50407282D01*
X67375539Y-50404513D01*
X67407649Y-50398979D01*
X67407700Y-50398966D01*
X67455054Y-50383717D01*
X67496489Y-50362898D01*
X67535410Y-50334495D01*
X67567529Y-50304448D01*
X67615360Y-50255816D01*
X67631029Y-50265323D01*
X67642057Y-50273806D01*
X67646697Y-50280935D01*
X67646697Y-50280980D01*
X67643209Y-50291820D01*
X67633811Y-50309372D01*
X67620100Y-50331227D01*
X67603675Y-50354978D01*
X67586134Y-50378214D01*
X67569075Y-50398528D01*
X67567708Y-50400032D01*
X67514145Y-50450256D01*
X67454352Y-50490577D01*
X67387919Y-50521235D01*
X67332008Y-50538403D01*
X67298965Y-50544636D01*
X67258232Y-50549356D01*
X67213642Y-50552383D01*
X67169029Y-50553541D01*
X67128224Y-50552650D01*
X67095061Y-50549534D01*
X67094395Y-50549431D01*
X67027624Y-50535582D01*
X66962700Y-50515636D01*
X66902647Y-50490713D01*
X66850490Y-50461933D01*
X66840966Y-50455602D01*
X66781711Y-50407730D01*
X66730152Y-50351147D01*
X66686675Y-50286425D01*
X66651669Y-50214137D01*
X66626668Y-50139186D01*
X66621078Y-50117488D01*
X66616965Y-50098463D01*
X66614098Y-50079623D01*
X66612246Y-50058478D01*
X66611178Y-50032538D01*
X66610662Y-49999313D01*
X66610489Y-49964931D01*
X66611049Y-49909469D01*
X66613420Y-49863071D01*
X66613775Y-49860046D01*
X66955581Y-49860046D01*
X66955581Y-49882233D01*
X67115259Y-49882233D01*
X67166972Y-49882084D01*
X67208102Y-49881599D01*
X67239878Y-49880723D01*
X67263528Y-49879400D01*
X67280280Y-49877574D01*
X67291363Y-49875189D01*
X67294430Y-49874088D01*
X67315106Y-49862145D01*
X67330821Y-49844924D01*
X67342050Y-49821117D01*
X67349268Y-49789413D01*
X67352952Y-49748501D01*
X67353682Y-49710931D01*
X67350921Y-49649261D01*
X67342566Y-49596943D01*
X67328186Y-49552706D01*
X67307352Y-49515277D01*
X67279633Y-49483381D01*
X67275486Y-49479561D01*
X67245463Y-49457226D01*
X67214081Y-49444346D01*
X67177459Y-49439477D01*
X67167547Y-49439339D01*
X67127575Y-49445080D01*
X67091486Y-49461856D01*
X67059375Y-49489513D01*
X67031341Y-49527894D01*
X67007481Y-49576845D01*
X66987893Y-49636208D01*
X66972674Y-49705830D01*
X66964259Y-49764057D01*
X66960876Y-49794591D01*
X66958110Y-49822919D01*
X66956249Y-49845852D01*
X66955581Y-49860046D01*
X66613775Y-49860046D01*
X66618126Y-49823055D01*
X66625694Y-49786741D01*
X66636646Y-49751450D01*
X66651507Y-49714499D01*
X66665388Y-49684390D01*
X66705105Y-49614641D01*
X66753341Y-49552706D01*
X66809407Y-49499000D01*
X66872612Y-49453939D01*
X66942264Y-49417938D01*
X67017674Y-49391414D01*
X67098151Y-49374780D01*
X67183005Y-49368453D01*
X67190632Y-49368404D01*
X67268350Y-49372313D01*
D14*
G04 #@! TO.C,SW1*
X85375000Y-25050000D02*
X85375000Y-27950000D01*
X85375000Y-27950000D02*
X78625000Y-27950000D01*
X78625000Y-27950000D02*
X78625000Y-25100000D01*
X78625000Y-25100000D02*
X85375000Y-25050000D01*
D15*
G04 #@! TO.C,U2*
X99371000Y-34014000D02*
X98609000Y-34014000D01*
X99371000Y-50016000D02*
X99371000Y-34014000D01*
X98609000Y-50016000D02*
X99371000Y-50016000D01*
D12*
G04 #@! TO.C,P1*
X84550000Y-29550000D02*
X86450000Y-29550000D01*
X86450000Y-29550000D02*
X86450000Y-31450000D01*
X86450000Y-31450000D02*
X84550000Y-31450000D01*
X84550000Y-31450000D02*
X84550000Y-29550000D01*
D13*
G04 #@! TO.C,G2*
G36*
X61853910Y-35492348D02*
X61932454Y-35492778D01*
X61989298Y-35493942D01*
X62028105Y-35496207D01*
X62052538Y-35499940D01*
X62066262Y-35505506D01*
X62072940Y-35513273D01*
X62076236Y-35523605D01*
X62076556Y-35524943D01*
X62081562Y-35549079D01*
X62090829Y-35596701D01*
X62103392Y-35662741D01*
X62118287Y-35742128D01*
X62134551Y-35829796D01*
X62135119Y-35832875D01*
X62151410Y-35918789D01*
X62166652Y-35994696D01*
X62179861Y-36056045D01*
X62190054Y-36098282D01*
X62196248Y-36116855D01*
X62196543Y-36117184D01*
X62214788Y-36126253D01*
X62252405Y-36141367D01*
X62301271Y-36159262D01*
X62301543Y-36159358D01*
X62363093Y-36182493D01*
X62435657Y-36211965D01*
X62504057Y-36241597D01*
X62507294Y-36243062D01*
X62618702Y-36293626D01*
X62865399Y-36125160D01*
X62941077Y-36073803D01*
X63009631Y-36027889D01*
X63067088Y-35990030D01*
X63109476Y-35962837D01*
X63132825Y-35948921D01*
X63135042Y-35947889D01*
X63152010Y-35952484D01*
X63183701Y-35974655D01*
X63231352Y-36015447D01*
X63296198Y-36075905D01*
X63362397Y-36140227D01*
X63426214Y-36203612D01*
X63483329Y-36261451D01*
X63530305Y-36310175D01*
X63563703Y-36346210D01*
X63580085Y-36365984D01*
X63580694Y-36367002D01*
X63582505Y-36380572D01*
X63575683Y-36402733D01*
X63558540Y-36436478D01*
X63529393Y-36484800D01*
X63486555Y-36550692D01*
X63429448Y-36635517D01*
X63378766Y-36710177D01*
X63333461Y-36777140D01*
X63296150Y-36832516D01*
X63269452Y-36872420D01*
X63255985Y-36892962D01*
X63255137Y-36894356D01*
X63256781Y-36914038D01*
X63269245Y-36952293D01*
X63290048Y-37001889D01*
X63297462Y-37017728D01*
X63329814Y-37088290D01*
X63364328Y-37168353D01*
X63392365Y-37237629D01*
X63412568Y-37289045D01*
X63428615Y-37328119D01*
X63437888Y-37348541D01*
X63439041Y-37350114D01*
X63456096Y-37352721D01*
X63496298Y-37359863D01*
X63554302Y-37370523D01*
X63624763Y-37383685D01*
X63702335Y-37398333D01*
X63781672Y-37413449D01*
X63857431Y-37428018D01*
X63924264Y-37441022D01*
X63976828Y-37451445D01*
X64009776Y-37458270D01*
X64017857Y-37460199D01*
X64026205Y-37464962D01*
X64032506Y-37475718D01*
X64037045Y-37496098D01*
X64040104Y-37529734D01*
X64041967Y-37580255D01*
X64042918Y-37651292D01*
X64043240Y-37746476D01*
X64043257Y-37785492D01*
X64043257Y-38102799D01*
X63967057Y-38117839D01*
X63924663Y-38125995D01*
X63861400Y-38137899D01*
X63784962Y-38152116D01*
X63703043Y-38167210D01*
X63680400Y-38171355D01*
X63604806Y-38186053D01*
X63538953Y-38200505D01*
X63488366Y-38213375D01*
X63458574Y-38223322D01*
X63453612Y-38226287D01*
X63441426Y-38247283D01*
X63423953Y-38287967D01*
X63404577Y-38340322D01*
X63400734Y-38351600D01*
X63375339Y-38421523D01*
X63343817Y-38500418D01*
X63312969Y-38571266D01*
X63312817Y-38571595D01*
X63261447Y-38682733D01*
X63430399Y-38931253D01*
X63599352Y-39179772D01*
X63382429Y-39397058D01*
X63316819Y-39461726D01*
X63256979Y-39518733D01*
X63206267Y-39565033D01*
X63168046Y-39597584D01*
X63145675Y-39613343D01*
X63142466Y-39614343D01*
X63123626Y-39606469D01*
X63085180Y-39584578D01*
X63031330Y-39551267D01*
X62966276Y-39509131D01*
X62895940Y-39461943D01*
X62824555Y-39413810D01*
X62760908Y-39371928D01*
X62709041Y-39338871D01*
X62672995Y-39317218D01*
X62656867Y-39309543D01*
X62637189Y-39316037D01*
X62599875Y-39333150D01*
X62552621Y-39357326D01*
X62547612Y-39360013D01*
X62483977Y-39391927D01*
X62440341Y-39407579D01*
X62413202Y-39407745D01*
X62399057Y-39393204D01*
X62398975Y-39393000D01*
X62391905Y-39375779D01*
X62375042Y-39334899D01*
X62349695Y-39273525D01*
X62317171Y-39194819D01*
X62278778Y-39101947D01*
X62235822Y-38998072D01*
X62194222Y-38897502D01*
X62148504Y-38786516D01*
X62106526Y-38683703D01*
X62069548Y-38592215D01*
X62038827Y-38515201D01*
X62015622Y-38455815D01*
X62001190Y-38417209D01*
X61996743Y-38402800D01*
X62007896Y-38386272D01*
X62037069Y-38359930D01*
X62075971Y-38330887D01*
X62186757Y-38239039D01*
X62273351Y-38133759D01*
X62334716Y-38017266D01*
X62369815Y-37891776D01*
X62377608Y-37759507D01*
X62371943Y-37698457D01*
X62341078Y-37571795D01*
X62287920Y-37459941D01*
X62215767Y-37364001D01*
X62127917Y-37285076D01*
X62027665Y-37224270D01*
X61918310Y-37182687D01*
X61803147Y-37161428D01*
X61685475Y-37161599D01*
X61568590Y-37184301D01*
X61455789Y-37230638D01*
X61350369Y-37301713D01*
X61306368Y-37341911D01*
X61221979Y-37445129D01*
X61163222Y-37557925D01*
X61129704Y-37677010D01*
X61121035Y-37799095D01*
X61136823Y-37920893D01*
X61176678Y-38039116D01*
X61240207Y-38150475D01*
X61327021Y-38251684D01*
X61424029Y-38330887D01*
X61464437Y-38361162D01*
X61492982Y-38387219D01*
X61503257Y-38402825D01*
X61497877Y-38419843D01*
X61482575Y-38460500D01*
X61458612Y-38521642D01*
X61427244Y-38600119D01*
X61389732Y-38692780D01*
X61347333Y-38796472D01*
X61305663Y-38897526D01*
X61259690Y-39008607D01*
X61217107Y-39111541D01*
X61179221Y-39203165D01*
X61147340Y-39280316D01*
X61122771Y-39339831D01*
X61106820Y-39378544D01*
X61100910Y-39393000D01*
X61086948Y-39407685D01*
X61059940Y-39407642D01*
X61016413Y-39392099D01*
X60952890Y-39360284D01*
X60952388Y-39360013D01*
X60904560Y-39335323D01*
X60865897Y-39317338D01*
X60844095Y-39309614D01*
X60843133Y-39309543D01*
X60826721Y-39317378D01*
X60790487Y-39339165D01*
X60738474Y-39372328D01*
X60674725Y-39414291D01*
X60604060Y-39461943D01*
X60532116Y-39510191D01*
X60467274Y-39552151D01*
X60413735Y-39585227D01*
X60375697Y-39606821D01*
X60357533Y-39614343D01*
X60340808Y-39604457D01*
X60307180Y-39576826D01*
X60260010Y-39534495D01*
X60202658Y-39480505D01*
X60138484Y-39417899D01*
X60117497Y-39396983D01*
X59900499Y-39179623D01*
X60065668Y-38937220D01*
X60115864Y-38862781D01*
X60159919Y-38795972D01*
X60195362Y-38740665D01*
X60219719Y-38700729D01*
X60230522Y-38680036D01*
X60230838Y-38678563D01*
X60225143Y-38659058D01*
X60209826Y-38619822D01*
X60187537Y-38567430D01*
X60171893Y-38532355D01*
X60142641Y-38465201D01*
X60115094Y-38397358D01*
X60093737Y-38340034D01*
X60087935Y-38322572D01*
X60071452Y-38275938D01*
X60055340Y-38239905D01*
X60046490Y-38226287D01*
X60026960Y-38217952D01*
X59984334Y-38206137D01*
X59924145Y-38192181D01*
X59851922Y-38177422D01*
X59819600Y-38171355D01*
X59737522Y-38156273D01*
X59658795Y-38141669D01*
X59591109Y-38128980D01*
X59542160Y-38119642D01*
X59532943Y-38117839D01*
X59456743Y-38102799D01*
X59456743Y-37785492D01*
X59456914Y-37681154D01*
X59457616Y-37602213D01*
X59459134Y-37545038D01*
X59461749Y-37505999D01*
X59465746Y-37481465D01*
X59471409Y-37467805D01*
X59479020Y-37461389D01*
X59482143Y-37460199D01*
X59500978Y-37455980D01*
X59542588Y-37447562D01*
X59601630Y-37435961D01*
X59672757Y-37422195D01*
X59750625Y-37407280D01*
X59829887Y-37392232D01*
X59905198Y-37378069D01*
X59971213Y-37365806D01*
X60022587Y-37356461D01*
X60053975Y-37351050D01*
X60060959Y-37350114D01*
X60067285Y-37337596D01*
X60081290Y-37304246D01*
X60100355Y-37256377D01*
X60107634Y-37237629D01*
X60136996Y-37165195D01*
X60171571Y-37085170D01*
X60202537Y-37017728D01*
X60225323Y-36966159D01*
X60240482Y-36923785D01*
X60245542Y-36897834D01*
X60244736Y-36894356D01*
X60234041Y-36877936D01*
X60209620Y-36841417D01*
X60174095Y-36788687D01*
X60130087Y-36723635D01*
X60080217Y-36650151D01*
X60070356Y-36635645D01*
X60012492Y-36549704D01*
X59969956Y-36484261D01*
X59941054Y-36436304D01*
X59924090Y-36402820D01*
X59917367Y-36380795D01*
X59919190Y-36367217D01*
X59919236Y-36367131D01*
X59933586Y-36349297D01*
X59965323Y-36314817D01*
X60011010Y-36267268D01*
X60067204Y-36210222D01*
X60130468Y-36147255D01*
X60137602Y-36140227D01*
X60217330Y-36063020D01*
X60278857Y-36006330D01*
X60323421Y-35969110D01*
X60352257Y-35950315D01*
X60364958Y-35947889D01*
X60383494Y-35958471D01*
X60421961Y-35982916D01*
X60476386Y-36018612D01*
X60542798Y-36062947D01*
X60617225Y-36113311D01*
X60634601Y-36125160D01*
X60881297Y-36293626D01*
X60992706Y-36243062D01*
X61060457Y-36213595D01*
X61133183Y-36183959D01*
X61195703Y-36160330D01*
X61198457Y-36159358D01*
X61247360Y-36141457D01*
X61285057Y-36126320D01*
X61303425Y-36117210D01*
X61303456Y-36117184D01*
X61309285Y-36100717D01*
X61319192Y-36060219D01*
X61332195Y-36000242D01*
X61347309Y-35925340D01*
X61363552Y-35840064D01*
X61364881Y-35832875D01*
X61381175Y-35745014D01*
X61396133Y-35665260D01*
X61408791Y-35598681D01*
X61418186Y-35550347D01*
X61423354Y-35525325D01*
X61423444Y-35524943D01*
X61426589Y-35514299D01*
X61432704Y-35506262D01*
X61445453Y-35500467D01*
X61468500Y-35496547D01*
X61505509Y-35494135D01*
X61560144Y-35492865D01*
X61636067Y-35492371D01*
X61736944Y-35492286D01*
X61750000Y-35492286D01*
X61853910Y-35492348D01*
X61853910Y-35492348D01*
G37*
X61853910Y-35492348D02*
X61932454Y-35492778D01*
X61989298Y-35493942D01*
X62028105Y-35496207D01*
X62052538Y-35499940D01*
X62066262Y-35505506D01*
X62072940Y-35513273D01*
X62076236Y-35523605D01*
X62076556Y-35524943D01*
X62081562Y-35549079D01*
X62090829Y-35596701D01*
X62103392Y-35662741D01*
X62118287Y-35742128D01*
X62134551Y-35829796D01*
X62135119Y-35832875D01*
X62151410Y-35918789D01*
X62166652Y-35994696D01*
X62179861Y-36056045D01*
X62190054Y-36098282D01*
X62196248Y-36116855D01*
X62196543Y-36117184D01*
X62214788Y-36126253D01*
X62252405Y-36141367D01*
X62301271Y-36159262D01*
X62301543Y-36159358D01*
X62363093Y-36182493D01*
X62435657Y-36211965D01*
X62504057Y-36241597D01*
X62507294Y-36243062D01*
X62618702Y-36293626D01*
X62865399Y-36125160D01*
X62941077Y-36073803D01*
X63009631Y-36027889D01*
X63067088Y-35990030D01*
X63109476Y-35962837D01*
X63132825Y-35948921D01*
X63135042Y-35947889D01*
X63152010Y-35952484D01*
X63183701Y-35974655D01*
X63231352Y-36015447D01*
X63296198Y-36075905D01*
X63362397Y-36140227D01*
X63426214Y-36203612D01*
X63483329Y-36261451D01*
X63530305Y-36310175D01*
X63563703Y-36346210D01*
X63580085Y-36365984D01*
X63580694Y-36367002D01*
X63582505Y-36380572D01*
X63575683Y-36402733D01*
X63558540Y-36436478D01*
X63529393Y-36484800D01*
X63486555Y-36550692D01*
X63429448Y-36635517D01*
X63378766Y-36710177D01*
X63333461Y-36777140D01*
X63296150Y-36832516D01*
X63269452Y-36872420D01*
X63255985Y-36892962D01*
X63255137Y-36894356D01*
X63256781Y-36914038D01*
X63269245Y-36952293D01*
X63290048Y-37001889D01*
X63297462Y-37017728D01*
X63329814Y-37088290D01*
X63364328Y-37168353D01*
X63392365Y-37237629D01*
X63412568Y-37289045D01*
X63428615Y-37328119D01*
X63437888Y-37348541D01*
X63439041Y-37350114D01*
X63456096Y-37352721D01*
X63496298Y-37359863D01*
X63554302Y-37370523D01*
X63624763Y-37383685D01*
X63702335Y-37398333D01*
X63781672Y-37413449D01*
X63857431Y-37428018D01*
X63924264Y-37441022D01*
X63976828Y-37451445D01*
X64009776Y-37458270D01*
X64017857Y-37460199D01*
X64026205Y-37464962D01*
X64032506Y-37475718D01*
X64037045Y-37496098D01*
X64040104Y-37529734D01*
X64041967Y-37580255D01*
X64042918Y-37651292D01*
X64043240Y-37746476D01*
X64043257Y-37785492D01*
X64043257Y-38102799D01*
X63967057Y-38117839D01*
X63924663Y-38125995D01*
X63861400Y-38137899D01*
X63784962Y-38152116D01*
X63703043Y-38167210D01*
X63680400Y-38171355D01*
X63604806Y-38186053D01*
X63538953Y-38200505D01*
X63488366Y-38213375D01*
X63458574Y-38223322D01*
X63453612Y-38226287D01*
X63441426Y-38247283D01*
X63423953Y-38287967D01*
X63404577Y-38340322D01*
X63400734Y-38351600D01*
X63375339Y-38421523D01*
X63343817Y-38500418D01*
X63312969Y-38571266D01*
X63312817Y-38571595D01*
X63261447Y-38682733D01*
X63430399Y-38931253D01*
X63599352Y-39179772D01*
X63382429Y-39397058D01*
X63316819Y-39461726D01*
X63256979Y-39518733D01*
X63206267Y-39565033D01*
X63168046Y-39597584D01*
X63145675Y-39613343D01*
X63142466Y-39614343D01*
X63123626Y-39606469D01*
X63085180Y-39584578D01*
X63031330Y-39551267D01*
X62966276Y-39509131D01*
X62895940Y-39461943D01*
X62824555Y-39413810D01*
X62760908Y-39371928D01*
X62709041Y-39338871D01*
X62672995Y-39317218D01*
X62656867Y-39309543D01*
X62637189Y-39316037D01*
X62599875Y-39333150D01*
X62552621Y-39357326D01*
X62547612Y-39360013D01*
X62483977Y-39391927D01*
X62440341Y-39407579D01*
X62413202Y-39407745D01*
X62399057Y-39393204D01*
X62398975Y-39393000D01*
X62391905Y-39375779D01*
X62375042Y-39334899D01*
X62349695Y-39273525D01*
X62317171Y-39194819D01*
X62278778Y-39101947D01*
X62235822Y-38998072D01*
X62194222Y-38897502D01*
X62148504Y-38786516D01*
X62106526Y-38683703D01*
X62069548Y-38592215D01*
X62038827Y-38515201D01*
X62015622Y-38455815D01*
X62001190Y-38417209D01*
X61996743Y-38402800D01*
X62007896Y-38386272D01*
X62037069Y-38359930D01*
X62075971Y-38330887D01*
X62186757Y-38239039D01*
X62273351Y-38133759D01*
X62334716Y-38017266D01*
X62369815Y-37891776D01*
X62377608Y-37759507D01*
X62371943Y-37698457D01*
X62341078Y-37571795D01*
X62287920Y-37459941D01*
X62215767Y-37364001D01*
X62127917Y-37285076D01*
X62027665Y-37224270D01*
X61918310Y-37182687D01*
X61803147Y-37161428D01*
X61685475Y-37161599D01*
X61568590Y-37184301D01*
X61455789Y-37230638D01*
X61350369Y-37301713D01*
X61306368Y-37341911D01*
X61221979Y-37445129D01*
X61163222Y-37557925D01*
X61129704Y-37677010D01*
X61121035Y-37799095D01*
X61136823Y-37920893D01*
X61176678Y-38039116D01*
X61240207Y-38150475D01*
X61327021Y-38251684D01*
X61424029Y-38330887D01*
X61464437Y-38361162D01*
X61492982Y-38387219D01*
X61503257Y-38402825D01*
X61497877Y-38419843D01*
X61482575Y-38460500D01*
X61458612Y-38521642D01*
X61427244Y-38600119D01*
X61389732Y-38692780D01*
X61347333Y-38796472D01*
X61305663Y-38897526D01*
X61259690Y-39008607D01*
X61217107Y-39111541D01*
X61179221Y-39203165D01*
X61147340Y-39280316D01*
X61122771Y-39339831D01*
X61106820Y-39378544D01*
X61100910Y-39393000D01*
X61086948Y-39407685D01*
X61059940Y-39407642D01*
X61016413Y-39392099D01*
X60952890Y-39360284D01*
X60952388Y-39360013D01*
X60904560Y-39335323D01*
X60865897Y-39317338D01*
X60844095Y-39309614D01*
X60843133Y-39309543D01*
X60826721Y-39317378D01*
X60790487Y-39339165D01*
X60738474Y-39372328D01*
X60674725Y-39414291D01*
X60604060Y-39461943D01*
X60532116Y-39510191D01*
X60467274Y-39552151D01*
X60413735Y-39585227D01*
X60375697Y-39606821D01*
X60357533Y-39614343D01*
X60340808Y-39604457D01*
X60307180Y-39576826D01*
X60260010Y-39534495D01*
X60202658Y-39480505D01*
X60138484Y-39417899D01*
X60117497Y-39396983D01*
X59900499Y-39179623D01*
X60065668Y-38937220D01*
X60115864Y-38862781D01*
X60159919Y-38795972D01*
X60195362Y-38740665D01*
X60219719Y-38700729D01*
X60230522Y-38680036D01*
X60230838Y-38678563D01*
X60225143Y-38659058D01*
X60209826Y-38619822D01*
X60187537Y-38567430D01*
X60171893Y-38532355D01*
X60142641Y-38465201D01*
X60115094Y-38397358D01*
X60093737Y-38340034D01*
X60087935Y-38322572D01*
X60071452Y-38275938D01*
X60055340Y-38239905D01*
X60046490Y-38226287D01*
X60026960Y-38217952D01*
X59984334Y-38206137D01*
X59924145Y-38192181D01*
X59851922Y-38177422D01*
X59819600Y-38171355D01*
X59737522Y-38156273D01*
X59658795Y-38141669D01*
X59591109Y-38128980D01*
X59542160Y-38119642D01*
X59532943Y-38117839D01*
X59456743Y-38102799D01*
X59456743Y-37785492D01*
X59456914Y-37681154D01*
X59457616Y-37602213D01*
X59459134Y-37545038D01*
X59461749Y-37505999D01*
X59465746Y-37481465D01*
X59471409Y-37467805D01*
X59479020Y-37461389D01*
X59482143Y-37460199D01*
X59500978Y-37455980D01*
X59542588Y-37447562D01*
X59601630Y-37435961D01*
X59672757Y-37422195D01*
X59750625Y-37407280D01*
X59829887Y-37392232D01*
X59905198Y-37378069D01*
X59971213Y-37365806D01*
X60022587Y-37356461D01*
X60053975Y-37351050D01*
X60060959Y-37350114D01*
X60067285Y-37337596D01*
X60081290Y-37304246D01*
X60100355Y-37256377D01*
X60107634Y-37237629D01*
X60136996Y-37165195D01*
X60171571Y-37085170D01*
X60202537Y-37017728D01*
X60225323Y-36966159D01*
X60240482Y-36923785D01*
X60245542Y-36897834D01*
X60244736Y-36894356D01*
X60234041Y-36877936D01*
X60209620Y-36841417D01*
X60174095Y-36788687D01*
X60130087Y-36723635D01*
X60080217Y-36650151D01*
X60070356Y-36635645D01*
X60012492Y-36549704D01*
X59969956Y-36484261D01*
X59941054Y-36436304D01*
X59924090Y-36402820D01*
X59917367Y-36380795D01*
X59919190Y-36367217D01*
X59919236Y-36367131D01*
X59933586Y-36349297D01*
X59965323Y-36314817D01*
X60011010Y-36267268D01*
X60067204Y-36210222D01*
X60130468Y-36147255D01*
X60137602Y-36140227D01*
X60217330Y-36063020D01*
X60278857Y-36006330D01*
X60323421Y-35969110D01*
X60352257Y-35950315D01*
X60364958Y-35947889D01*
X60383494Y-35958471D01*
X60421961Y-35982916D01*
X60476386Y-36018612D01*
X60542798Y-36062947D01*
X60617225Y-36113311D01*
X60634601Y-36125160D01*
X60881297Y-36293626D01*
X60992706Y-36243062D01*
X61060457Y-36213595D01*
X61133183Y-36183959D01*
X61195703Y-36160330D01*
X61198457Y-36159358D01*
X61247360Y-36141457D01*
X61285057Y-36126320D01*
X61303425Y-36117210D01*
X61303456Y-36117184D01*
X61309285Y-36100717D01*
X61319192Y-36060219D01*
X61332195Y-36000242D01*
X61347309Y-35925340D01*
X61363552Y-35840064D01*
X61364881Y-35832875D01*
X61381175Y-35745014D01*
X61396133Y-35665260D01*
X61408791Y-35598681D01*
X61418186Y-35550347D01*
X61423354Y-35525325D01*
X61423444Y-35524943D01*
X61426589Y-35514299D01*
X61432704Y-35506262D01*
X61445453Y-35500467D01*
X61468500Y-35496547D01*
X61505509Y-35494135D01*
X61560144Y-35492865D01*
X61636067Y-35492371D01*
X61736944Y-35492286D01*
X61750000Y-35492286D01*
X61853910Y-35492348D01*
G36*
X64903595Y-40216966D02*
X64961021Y-40254497D01*
X64988719Y-40288096D01*
X65010662Y-40349064D01*
X65012405Y-40397308D01*
X65008457Y-40461816D01*
X64859686Y-40526934D01*
X64787349Y-40560202D01*
X64740084Y-40586964D01*
X64715507Y-40610144D01*
X64711237Y-40632667D01*
X64724889Y-40657455D01*
X64739943Y-40673886D01*
X64783746Y-40700235D01*
X64831389Y-40702081D01*
X64875145Y-40681546D01*
X64907289Y-40640752D01*
X64913038Y-40626347D01*
X64940576Y-40581356D01*
X64972258Y-40562182D01*
X65015714Y-40545779D01*
X65015714Y-40607966D01*
X65011872Y-40650283D01*
X64996823Y-40685969D01*
X64965280Y-40726943D01*
X64960592Y-40732267D01*
X64925506Y-40768720D01*
X64895347Y-40788283D01*
X64857615Y-40797283D01*
X64826335Y-40800230D01*
X64770385Y-40800965D01*
X64730555Y-40791660D01*
X64705708Y-40777846D01*
X64666656Y-40747467D01*
X64639625Y-40714613D01*
X64622517Y-40673294D01*
X64613238Y-40617521D01*
X64609693Y-40541305D01*
X64609410Y-40502622D01*
X64610372Y-40456247D01*
X64698007Y-40456247D01*
X64699023Y-40481126D01*
X64701556Y-40485200D01*
X64718274Y-40479665D01*
X64754249Y-40465017D01*
X64802331Y-40444190D01*
X64812386Y-40439714D01*
X64873152Y-40408814D01*
X64906632Y-40381657D01*
X64913990Y-40356220D01*
X64896391Y-40330481D01*
X64881856Y-40319109D01*
X64829410Y-40296364D01*
X64780322Y-40300122D01*
X64739227Y-40327884D01*
X64710758Y-40377152D01*
X64701631Y-40416257D01*
X64698007Y-40456247D01*
X64610372Y-40456247D01*
X64611285Y-40412249D01*
X64618196Y-40345384D01*
X64631884Y-40296695D01*
X64654096Y-40260849D01*
X64686574Y-40232513D01*
X64700733Y-40223355D01*
X64765053Y-40199507D01*
X64835473Y-40198006D01*
X64903595Y-40216966D01*
X64903595Y-40216966D01*
G37*
X64903595Y-40216966D02*
X64961021Y-40254497D01*
X64988719Y-40288096D01*
X65010662Y-40349064D01*
X65012405Y-40397308D01*
X65008457Y-40461816D01*
X64859686Y-40526934D01*
X64787349Y-40560202D01*
X64740084Y-40586964D01*
X64715507Y-40610144D01*
X64711237Y-40632667D01*
X64724889Y-40657455D01*
X64739943Y-40673886D01*
X64783746Y-40700235D01*
X64831389Y-40702081D01*
X64875145Y-40681546D01*
X64907289Y-40640752D01*
X64913038Y-40626347D01*
X64940576Y-40581356D01*
X64972258Y-40562182D01*
X65015714Y-40545779D01*
X65015714Y-40607966D01*
X65011872Y-40650283D01*
X64996823Y-40685969D01*
X64965280Y-40726943D01*
X64960592Y-40732267D01*
X64925506Y-40768720D01*
X64895347Y-40788283D01*
X64857615Y-40797283D01*
X64826335Y-40800230D01*
X64770385Y-40800965D01*
X64730555Y-40791660D01*
X64705708Y-40777846D01*
X64666656Y-40747467D01*
X64639625Y-40714613D01*
X64622517Y-40673294D01*
X64613238Y-40617521D01*
X64609693Y-40541305D01*
X64609410Y-40502622D01*
X64610372Y-40456247D01*
X64698007Y-40456247D01*
X64699023Y-40481126D01*
X64701556Y-40485200D01*
X64718274Y-40479665D01*
X64754249Y-40465017D01*
X64802331Y-40444190D01*
X64812386Y-40439714D01*
X64873152Y-40408814D01*
X64906632Y-40381657D01*
X64913990Y-40356220D01*
X64896391Y-40330481D01*
X64881856Y-40319109D01*
X64829410Y-40296364D01*
X64780322Y-40300122D01*
X64739227Y-40327884D01*
X64710758Y-40377152D01*
X64701631Y-40416257D01*
X64698007Y-40456247D01*
X64610372Y-40456247D01*
X64611285Y-40412249D01*
X64618196Y-40345384D01*
X64631884Y-40296695D01*
X64654096Y-40260849D01*
X64686574Y-40232513D01*
X64700733Y-40223355D01*
X64765053Y-40199507D01*
X64835473Y-40198006D01*
X64903595Y-40216966D01*
G36*
X64402600Y-40208752D02*
X64419948Y-40216334D01*
X64461356Y-40249128D01*
X64496765Y-40296547D01*
X64518664Y-40347151D01*
X64522229Y-40372098D01*
X64510279Y-40406927D01*
X64484067Y-40425357D01*
X64455964Y-40436516D01*
X64443095Y-40438572D01*
X64436829Y-40423649D01*
X64424456Y-40391175D01*
X64419028Y-40376502D01*
X64388590Y-40325744D01*
X64344520Y-40300427D01*
X64288010Y-40301206D01*
X64283825Y-40302203D01*
X64253655Y-40316507D01*
X64231476Y-40344393D01*
X64216327Y-40389287D01*
X64207250Y-40454615D01*
X64203286Y-40543804D01*
X64202914Y-40591261D01*
X64202730Y-40666071D01*
X64201522Y-40717069D01*
X64198309Y-40749471D01*
X64192109Y-40768495D01*
X64181940Y-40779356D01*
X64166819Y-40787272D01*
X64165946Y-40787670D01*
X64136828Y-40799981D01*
X64122403Y-40804514D01*
X64120186Y-40790809D01*
X64118289Y-40752925D01*
X64116847Y-40695715D01*
X64115998Y-40624027D01*
X64115829Y-40571565D01*
X64116692Y-40470047D01*
X64120070Y-40393032D01*
X64127142Y-40336023D01*
X64139088Y-40294526D01*
X64157090Y-40264043D01*
X64182327Y-40240080D01*
X64207247Y-40223355D01*
X64267171Y-40201097D01*
X64336911Y-40196076D01*
X64402600Y-40208752D01*
X64402600Y-40208752D01*
G37*
X64402600Y-40208752D02*
X64419948Y-40216334D01*
X64461356Y-40249128D01*
X64496765Y-40296547D01*
X64518664Y-40347151D01*
X64522229Y-40372098D01*
X64510279Y-40406927D01*
X64484067Y-40425357D01*
X64455964Y-40436516D01*
X64443095Y-40438572D01*
X64436829Y-40423649D01*
X64424456Y-40391175D01*
X64419028Y-40376502D01*
X64388590Y-40325744D01*
X64344520Y-40300427D01*
X64288010Y-40301206D01*
X64283825Y-40302203D01*
X64253655Y-40316507D01*
X64231476Y-40344393D01*
X64216327Y-40389287D01*
X64207250Y-40454615D01*
X64203286Y-40543804D01*
X64202914Y-40591261D01*
X64202730Y-40666071D01*
X64201522Y-40717069D01*
X64198309Y-40749471D01*
X64192109Y-40768495D01*
X64181940Y-40779356D01*
X64166819Y-40787272D01*
X64165946Y-40787670D01*
X64136828Y-40799981D01*
X64122403Y-40804514D01*
X64120186Y-40790809D01*
X64118289Y-40752925D01*
X64116847Y-40695715D01*
X64115998Y-40624027D01*
X64115829Y-40571565D01*
X64116692Y-40470047D01*
X64120070Y-40393032D01*
X64127142Y-40336023D01*
X64139088Y-40294526D01*
X64157090Y-40264043D01*
X64182327Y-40240080D01*
X64207247Y-40223355D01*
X64267171Y-40201097D01*
X64336911Y-40196076D01*
X64402600Y-40208752D01*
G36*
X63894876Y-40206335D02*
X63936667Y-40225344D01*
X63969469Y-40248378D01*
X63993503Y-40274133D01*
X64010097Y-40307358D01*
X64020577Y-40352800D01*
X64026271Y-40415207D01*
X64028507Y-40499327D01*
X64028743Y-40554721D01*
X64028743Y-40770826D01*
X63991774Y-40787670D01*
X63962656Y-40799981D01*
X63948231Y-40804514D01*
X63945472Y-40791025D01*
X63943282Y-40754653D01*
X63941942Y-40701542D01*
X63941657Y-40659372D01*
X63940434Y-40598447D01*
X63937136Y-40550115D01*
X63932321Y-40520518D01*
X63928496Y-40514229D01*
X63902783Y-40520652D01*
X63862418Y-40537125D01*
X63815679Y-40559458D01*
X63770845Y-40583457D01*
X63736193Y-40604930D01*
X63720002Y-40619685D01*
X63719938Y-40619845D01*
X63721330Y-40647152D01*
X63733818Y-40673219D01*
X63755743Y-40694392D01*
X63787743Y-40701474D01*
X63815092Y-40700649D01*
X63853826Y-40700042D01*
X63874158Y-40709116D01*
X63886369Y-40733092D01*
X63887909Y-40737613D01*
X63893203Y-40771806D01*
X63879047Y-40792568D01*
X63842148Y-40802462D01*
X63802289Y-40804292D01*
X63730562Y-40790727D01*
X63693432Y-40771355D01*
X63647576Y-40725845D01*
X63623256Y-40669983D01*
X63621073Y-40610957D01*
X63641629Y-40555953D01*
X63672549Y-40521486D01*
X63703420Y-40502189D01*
X63751942Y-40477759D01*
X63808485Y-40452985D01*
X63817910Y-40449199D01*
X63880019Y-40421791D01*
X63915822Y-40397634D01*
X63927337Y-40373619D01*
X63916580Y-40346635D01*
X63898114Y-40325543D01*
X63854469Y-40299572D01*
X63806446Y-40297624D01*
X63762406Y-40317637D01*
X63730709Y-40357551D01*
X63726549Y-40367848D01*
X63702327Y-40405724D01*
X63666965Y-40433842D01*
X63622343Y-40456917D01*
X63622343Y-40391485D01*
X63624969Y-40351506D01*
X63636230Y-40319997D01*
X63661199Y-40286378D01*
X63685169Y-40260484D01*
X63722441Y-40223817D01*
X63751401Y-40204121D01*
X63782505Y-40196220D01*
X63817713Y-40194914D01*
X63894876Y-40206335D01*
X63894876Y-40206335D01*
G37*
X63894876Y-40206335D02*
X63936667Y-40225344D01*
X63969469Y-40248378D01*
X63993503Y-40274133D01*
X64010097Y-40307358D01*
X64020577Y-40352800D01*
X64026271Y-40415207D01*
X64028507Y-40499327D01*
X64028743Y-40554721D01*
X64028743Y-40770826D01*
X63991774Y-40787670D01*
X63962656Y-40799981D01*
X63948231Y-40804514D01*
X63945472Y-40791025D01*
X63943282Y-40754653D01*
X63941942Y-40701542D01*
X63941657Y-40659372D01*
X63940434Y-40598447D01*
X63937136Y-40550115D01*
X63932321Y-40520518D01*
X63928496Y-40514229D01*
X63902783Y-40520652D01*
X63862418Y-40537125D01*
X63815679Y-40559458D01*
X63770845Y-40583457D01*
X63736193Y-40604930D01*
X63720002Y-40619685D01*
X63719938Y-40619845D01*
X63721330Y-40647152D01*
X63733818Y-40673219D01*
X63755743Y-40694392D01*
X63787743Y-40701474D01*
X63815092Y-40700649D01*
X63853826Y-40700042D01*
X63874158Y-40709116D01*
X63886369Y-40733092D01*
X63887909Y-40737613D01*
X63893203Y-40771806D01*
X63879047Y-40792568D01*
X63842148Y-40802462D01*
X63802289Y-40804292D01*
X63730562Y-40790727D01*
X63693432Y-40771355D01*
X63647576Y-40725845D01*
X63623256Y-40669983D01*
X63621073Y-40610957D01*
X63641629Y-40555953D01*
X63672549Y-40521486D01*
X63703420Y-40502189D01*
X63751942Y-40477759D01*
X63808485Y-40452985D01*
X63817910Y-40449199D01*
X63880019Y-40421791D01*
X63915822Y-40397634D01*
X63927337Y-40373619D01*
X63916580Y-40346635D01*
X63898114Y-40325543D01*
X63854469Y-40299572D01*
X63806446Y-40297624D01*
X63762406Y-40317637D01*
X63730709Y-40357551D01*
X63726549Y-40367848D01*
X63702327Y-40405724D01*
X63666965Y-40433842D01*
X63622343Y-40456917D01*
X63622343Y-40391485D01*
X63624969Y-40351506D01*
X63636230Y-40319997D01*
X63661199Y-40286378D01*
X63685169Y-40260484D01*
X63722441Y-40223817D01*
X63751401Y-40204121D01*
X63782505Y-40196220D01*
X63817713Y-40194914D01*
X63894876Y-40206335D01*
G36*
X63529833Y-40208663D02*
X63532048Y-40246850D01*
X63533784Y-40304886D01*
X63534899Y-40378180D01*
X63535257Y-40455055D01*
X63535257Y-40715196D01*
X63489326Y-40761127D01*
X63457675Y-40789429D01*
X63429890Y-40800893D01*
X63391915Y-40800168D01*
X63376840Y-40798321D01*
X63329726Y-40792948D01*
X63290756Y-40789869D01*
X63281257Y-40789585D01*
X63249233Y-40791445D01*
X63203432Y-40796114D01*
X63185674Y-40798321D01*
X63142057Y-40801735D01*
X63112745Y-40794320D01*
X63083680Y-40771427D01*
X63073188Y-40761127D01*
X63027257Y-40715196D01*
X63027257Y-40228602D01*
X63064226Y-40211758D01*
X63096059Y-40199282D01*
X63114683Y-40194914D01*
X63119458Y-40208718D01*
X63123921Y-40247286D01*
X63127775Y-40306356D01*
X63130722Y-40381663D01*
X63132143Y-40445286D01*
X63136114Y-40695657D01*
X63170759Y-40700556D01*
X63202268Y-40697131D01*
X63217708Y-40686041D01*
X63222023Y-40665308D01*
X63225708Y-40621145D01*
X63228469Y-40559146D01*
X63230012Y-40484909D01*
X63230235Y-40446706D01*
X63230457Y-40226783D01*
X63276166Y-40210849D01*
X63308518Y-40200015D01*
X63326115Y-40194962D01*
X63326623Y-40194914D01*
X63328388Y-40208648D01*
X63330329Y-40246730D01*
X63332282Y-40304482D01*
X63334084Y-40377227D01*
X63335343Y-40445286D01*
X63339314Y-40695657D01*
X63426400Y-40695657D01*
X63430396Y-40467240D01*
X63434392Y-40238822D01*
X63476847Y-40216868D01*
X63508192Y-40201793D01*
X63526744Y-40194951D01*
X63527279Y-40194914D01*
X63529833Y-40208663D01*
X63529833Y-40208663D01*
G37*
X63529833Y-40208663D02*
X63532048Y-40246850D01*
X63533784Y-40304886D01*
X63534899Y-40378180D01*
X63535257Y-40455055D01*
X63535257Y-40715196D01*
X63489326Y-40761127D01*
X63457675Y-40789429D01*
X63429890Y-40800893D01*
X63391915Y-40800168D01*
X63376840Y-40798321D01*
X63329726Y-40792948D01*
X63290756Y-40789869D01*
X63281257Y-40789585D01*
X63249233Y-40791445D01*
X63203432Y-40796114D01*
X63185674Y-40798321D01*
X63142057Y-40801735D01*
X63112745Y-40794320D01*
X63083680Y-40771427D01*
X63073188Y-40761127D01*
X63027257Y-40715196D01*
X63027257Y-40228602D01*
X63064226Y-40211758D01*
X63096059Y-40199282D01*
X63114683Y-40194914D01*
X63119458Y-40208718D01*
X63123921Y-40247286D01*
X63127775Y-40306356D01*
X63130722Y-40381663D01*
X63132143Y-40445286D01*
X63136114Y-40695657D01*
X63170759Y-40700556D01*
X63202268Y-40697131D01*
X63217708Y-40686041D01*
X63222023Y-40665308D01*
X63225708Y-40621145D01*
X63228469Y-40559146D01*
X63230012Y-40484909D01*
X63230235Y-40446706D01*
X63230457Y-40226783D01*
X63276166Y-40210849D01*
X63308518Y-40200015D01*
X63326115Y-40194962D01*
X63326623Y-40194914D01*
X63328388Y-40208648D01*
X63330329Y-40246730D01*
X63332282Y-40304482D01*
X63334084Y-40377227D01*
X63335343Y-40445286D01*
X63339314Y-40695657D01*
X63426400Y-40695657D01*
X63430396Y-40467240D01*
X63434392Y-40238822D01*
X63476847Y-40216868D01*
X63508192Y-40201793D01*
X63526744Y-40194951D01*
X63527279Y-40194914D01*
X63529833Y-40208663D01*
G36*
X62940117Y-40315358D02*
X62939933Y-40423837D01*
X62939219Y-40507287D01*
X62937675Y-40569704D01*
X62935001Y-40615085D01*
X62930894Y-40647429D01*
X62925055Y-40670733D01*
X62917182Y-40688995D01*
X62911221Y-40699418D01*
X62861855Y-40755945D01*
X62799264Y-40791377D01*
X62730013Y-40804090D01*
X62660668Y-40792463D01*
X62619375Y-40771568D01*
X62576025Y-40735422D01*
X62546481Y-40691276D01*
X62528655Y-40633462D01*
X62520463Y-40556313D01*
X62519302Y-40499714D01*
X62519458Y-40495647D01*
X62620857Y-40495647D01*
X62621476Y-40560550D01*
X62624314Y-40603514D01*
X62630840Y-40631622D01*
X62642523Y-40651953D01*
X62656483Y-40667288D01*
X62703365Y-40696890D01*
X62753701Y-40699419D01*
X62801276Y-40674705D01*
X62804979Y-40671356D01*
X62820783Y-40653935D01*
X62830693Y-40633209D01*
X62836058Y-40602362D01*
X62838228Y-40554577D01*
X62838571Y-40501748D01*
X62837827Y-40435381D01*
X62834748Y-40391106D01*
X62828061Y-40362009D01*
X62816496Y-40341173D01*
X62807013Y-40330107D01*
X62762960Y-40302198D01*
X62712224Y-40298843D01*
X62663796Y-40320159D01*
X62654450Y-40328073D01*
X62638540Y-40345647D01*
X62628610Y-40366587D01*
X62623278Y-40397782D01*
X62621163Y-40446122D01*
X62620857Y-40495647D01*
X62519458Y-40495647D01*
X62522810Y-40408568D01*
X62534726Y-40340086D01*
X62557135Y-40288600D01*
X62592124Y-40248443D01*
X62619375Y-40227861D01*
X62668907Y-40205625D01*
X62726316Y-40195304D01*
X62779682Y-40198067D01*
X62809543Y-40209212D01*
X62821261Y-40212383D01*
X62829037Y-40200557D01*
X62834465Y-40168866D01*
X62838571Y-40120593D01*
X62843067Y-40066829D01*
X62849313Y-40034482D01*
X62860676Y-40015985D01*
X62880528Y-40003770D01*
X62893000Y-39998362D01*
X62940171Y-39978601D01*
X62940117Y-40315358D01*
X62940117Y-40315358D01*
G37*
X62940117Y-40315358D02*
X62939933Y-40423837D01*
X62939219Y-40507287D01*
X62937675Y-40569704D01*
X62935001Y-40615085D01*
X62930894Y-40647429D01*
X62925055Y-40670733D01*
X62917182Y-40688995D01*
X62911221Y-40699418D01*
X62861855Y-40755945D01*
X62799264Y-40791377D01*
X62730013Y-40804090D01*
X62660668Y-40792463D01*
X62619375Y-40771568D01*
X62576025Y-40735422D01*
X62546481Y-40691276D01*
X62528655Y-40633462D01*
X62520463Y-40556313D01*
X62519302Y-40499714D01*
X62519458Y-40495647D01*
X62620857Y-40495647D01*
X62621476Y-40560550D01*
X62624314Y-40603514D01*
X62630840Y-40631622D01*
X62642523Y-40651953D01*
X62656483Y-40667288D01*
X62703365Y-40696890D01*
X62753701Y-40699419D01*
X62801276Y-40674705D01*
X62804979Y-40671356D01*
X62820783Y-40653935D01*
X62830693Y-40633209D01*
X62836058Y-40602362D01*
X62838228Y-40554577D01*
X62838571Y-40501748D01*
X62837827Y-40435381D01*
X62834748Y-40391106D01*
X62828061Y-40362009D01*
X62816496Y-40341173D01*
X62807013Y-40330107D01*
X62762960Y-40302198D01*
X62712224Y-40298843D01*
X62663796Y-40320159D01*
X62654450Y-40328073D01*
X62638540Y-40345647D01*
X62628610Y-40366587D01*
X62623278Y-40397782D01*
X62621163Y-40446122D01*
X62620857Y-40495647D01*
X62519458Y-40495647D01*
X62522810Y-40408568D01*
X62534726Y-40340086D01*
X62557135Y-40288600D01*
X62592124Y-40248443D01*
X62619375Y-40227861D01*
X62668907Y-40205625D01*
X62726316Y-40195304D01*
X62779682Y-40198067D01*
X62809543Y-40209212D01*
X62821261Y-40212383D01*
X62829037Y-40200557D01*
X62834465Y-40168866D01*
X62838571Y-40120593D01*
X62843067Y-40066829D01*
X62849313Y-40034482D01*
X62860676Y-40015985D01*
X62880528Y-40003770D01*
X62893000Y-39998362D01*
X62940171Y-39978601D01*
X62940117Y-40315358D01*
G36*
X62279926Y-40199755D02*
X62345858Y-40224084D01*
X62399273Y-40267117D01*
X62420164Y-40297409D01*
X62442939Y-40352994D01*
X62442466Y-40393186D01*
X62418562Y-40420217D01*
X62409717Y-40424813D01*
X62371530Y-40439144D01*
X62352028Y-40435472D01*
X62345422Y-40411407D01*
X62345086Y-40398114D01*
X62332992Y-40349210D01*
X62301471Y-40314999D01*
X62257659Y-40298476D01*
X62208695Y-40302634D01*
X62168894Y-40324227D01*
X62155450Y-40336544D01*
X62145921Y-40351487D01*
X62139485Y-40374075D01*
X62135317Y-40409328D01*
X62132597Y-40462266D01*
X62130502Y-40537907D01*
X62129960Y-40561857D01*
X62127981Y-40643790D01*
X62125731Y-40701455D01*
X62122357Y-40739608D01*
X62117006Y-40763004D01*
X62108824Y-40776398D01*
X62096959Y-40784545D01*
X62089362Y-40788144D01*
X62057102Y-40800452D01*
X62038111Y-40804514D01*
X62031836Y-40790948D01*
X62028006Y-40749934D01*
X62026600Y-40680999D01*
X62027598Y-40583669D01*
X62027908Y-40568657D01*
X62030101Y-40479859D01*
X62032693Y-40415019D01*
X62036382Y-40369067D01*
X62041864Y-40336935D01*
X62049835Y-40313553D01*
X62060993Y-40293852D01*
X62066830Y-40285410D01*
X62100296Y-40248057D01*
X62137727Y-40219003D01*
X62142309Y-40216467D01*
X62209426Y-40196443D01*
X62279926Y-40199755D01*
X62279926Y-40199755D01*
G37*
X62279926Y-40199755D02*
X62345858Y-40224084D01*
X62399273Y-40267117D01*
X62420164Y-40297409D01*
X62442939Y-40352994D01*
X62442466Y-40393186D01*
X62418562Y-40420217D01*
X62409717Y-40424813D01*
X62371530Y-40439144D01*
X62352028Y-40435472D01*
X62345422Y-40411407D01*
X62345086Y-40398114D01*
X62332992Y-40349210D01*
X62301471Y-40314999D01*
X62257659Y-40298476D01*
X62208695Y-40302634D01*
X62168894Y-40324227D01*
X62155450Y-40336544D01*
X62145921Y-40351487D01*
X62139485Y-40374075D01*
X62135317Y-40409328D01*
X62132597Y-40462266D01*
X62130502Y-40537907D01*
X62129960Y-40561857D01*
X62127981Y-40643790D01*
X62125731Y-40701455D01*
X62122357Y-40739608D01*
X62117006Y-40763004D01*
X62108824Y-40776398D01*
X62096959Y-40784545D01*
X62089362Y-40788144D01*
X62057102Y-40800452D01*
X62038111Y-40804514D01*
X62031836Y-40790948D01*
X62028006Y-40749934D01*
X62026600Y-40680999D01*
X62027598Y-40583669D01*
X62027908Y-40568657D01*
X62030101Y-40479859D01*
X62032693Y-40415019D01*
X62036382Y-40369067D01*
X62041864Y-40336935D01*
X62049835Y-40313553D01*
X62060993Y-40293852D01*
X62066830Y-40285410D01*
X62100296Y-40248057D01*
X62137727Y-40219003D01*
X62142309Y-40216467D01*
X62209426Y-40196443D01*
X62279926Y-40199755D01*
G36*
X61789744Y-40200968D02*
X61846616Y-40222087D01*
X61847267Y-40222493D01*
X61882440Y-40248380D01*
X61908407Y-40278633D01*
X61926670Y-40318058D01*
X61938732Y-40371462D01*
X61946096Y-40443651D01*
X61950264Y-40539432D01*
X61950629Y-40553078D01*
X61955876Y-40758842D01*
X61911716Y-40781678D01*
X61879763Y-40797110D01*
X61860470Y-40804423D01*
X61859578Y-40804514D01*
X61856239Y-40791022D01*
X61853587Y-40754626D01*
X61851956Y-40701452D01*
X61851600Y-40658393D01*
X61851592Y-40588641D01*
X61848403Y-40544837D01*
X61837288Y-40523944D01*
X61813501Y-40522925D01*
X61772296Y-40538741D01*
X61710086Y-40567815D01*
X61664341Y-40591963D01*
X61640813Y-40612913D01*
X61633896Y-40635747D01*
X61633886Y-40636877D01*
X61645299Y-40676212D01*
X61679092Y-40697462D01*
X61730809Y-40700539D01*
X61768061Y-40700006D01*
X61787703Y-40710735D01*
X61799952Y-40736505D01*
X61807002Y-40769337D01*
X61796842Y-40787966D01*
X61793017Y-40790632D01*
X61757001Y-40801340D01*
X61706566Y-40802856D01*
X61654626Y-40795759D01*
X61617822Y-40782788D01*
X61566938Y-40739585D01*
X61538014Y-40679446D01*
X61532286Y-40632462D01*
X61536657Y-40590082D01*
X61552475Y-40555488D01*
X61583797Y-40524763D01*
X61634678Y-40493990D01*
X61709176Y-40459252D01*
X61713714Y-40457288D01*
X61780821Y-40426287D01*
X61822232Y-40400862D01*
X61839981Y-40378014D01*
X61836107Y-40354745D01*
X61812643Y-40328056D01*
X61805627Y-40321914D01*
X61758630Y-40298100D01*
X61709933Y-40299103D01*
X61667522Y-40322451D01*
X61639384Y-40365675D01*
X61636769Y-40374160D01*
X61611308Y-40415308D01*
X61579001Y-40435128D01*
X61532286Y-40454770D01*
X61532286Y-40403950D01*
X61546496Y-40330082D01*
X61588675Y-40262327D01*
X61610624Y-40239661D01*
X61660517Y-40210569D01*
X61723967Y-40197400D01*
X61789744Y-40200968D01*
X61789744Y-40200968D01*
G37*
X61789744Y-40200968D02*
X61846616Y-40222087D01*
X61847267Y-40222493D01*
X61882440Y-40248380D01*
X61908407Y-40278633D01*
X61926670Y-40318058D01*
X61938732Y-40371462D01*
X61946096Y-40443651D01*
X61950264Y-40539432D01*
X61950629Y-40553078D01*
X61955876Y-40758842D01*
X61911716Y-40781678D01*
X61879763Y-40797110D01*
X61860470Y-40804423D01*
X61859578Y-40804514D01*
X61856239Y-40791022D01*
X61853587Y-40754626D01*
X61851956Y-40701452D01*
X61851600Y-40658393D01*
X61851592Y-40588641D01*
X61848403Y-40544837D01*
X61837288Y-40523944D01*
X61813501Y-40522925D01*
X61772296Y-40538741D01*
X61710086Y-40567815D01*
X61664341Y-40591963D01*
X61640813Y-40612913D01*
X61633896Y-40635747D01*
X61633886Y-40636877D01*
X61645299Y-40676212D01*
X61679092Y-40697462D01*
X61730809Y-40700539D01*
X61768061Y-40700006D01*
X61787703Y-40710735D01*
X61799952Y-40736505D01*
X61807002Y-40769337D01*
X61796842Y-40787966D01*
X61793017Y-40790632D01*
X61757001Y-40801340D01*
X61706566Y-40802856D01*
X61654626Y-40795759D01*
X61617822Y-40782788D01*
X61566938Y-40739585D01*
X61538014Y-40679446D01*
X61532286Y-40632462D01*
X61536657Y-40590082D01*
X61552475Y-40555488D01*
X61583797Y-40524763D01*
X61634678Y-40493990D01*
X61709176Y-40459252D01*
X61713714Y-40457288D01*
X61780821Y-40426287D01*
X61822232Y-40400862D01*
X61839981Y-40378014D01*
X61836107Y-40354745D01*
X61812643Y-40328056D01*
X61805627Y-40321914D01*
X61758630Y-40298100D01*
X61709933Y-40299103D01*
X61667522Y-40322451D01*
X61639384Y-40365675D01*
X61636769Y-40374160D01*
X61611308Y-40415308D01*
X61579001Y-40435128D01*
X61532286Y-40454770D01*
X61532286Y-40403950D01*
X61546496Y-40330082D01*
X61588675Y-40262327D01*
X61610624Y-40239661D01*
X61660517Y-40210569D01*
X61723967Y-40197400D01*
X61789744Y-40200968D01*
G36*
X61125886Y-40101289D02*
X61130139Y-40160613D01*
X61135025Y-40195572D01*
X61141795Y-40210820D01*
X61151702Y-40211015D01*
X61154914Y-40209195D01*
X61197644Y-40196015D01*
X61253227Y-40196785D01*
X61309737Y-40210333D01*
X61345082Y-40227861D01*
X61381321Y-40255861D01*
X61407813Y-40287549D01*
X61425999Y-40327813D01*
X61437322Y-40381543D01*
X61443222Y-40453626D01*
X61445143Y-40548951D01*
X61445177Y-40567237D01*
X61445200Y-40772646D01*
X61399491Y-40788580D01*
X61367027Y-40799420D01*
X61349215Y-40804468D01*
X61348691Y-40804514D01*
X61346937Y-40790828D01*
X61345444Y-40753076D01*
X61344326Y-40696224D01*
X61343697Y-40625234D01*
X61343600Y-40582073D01*
X61343398Y-40496973D01*
X61342358Y-40435981D01*
X61339831Y-40394177D01*
X61335164Y-40366642D01*
X61327707Y-40348456D01*
X61316811Y-40334698D01*
X61310007Y-40328073D01*
X61263272Y-40301375D01*
X61212272Y-40299375D01*
X61166001Y-40321955D01*
X61157444Y-40330107D01*
X61144893Y-40345436D01*
X61136188Y-40363618D01*
X61130631Y-40389909D01*
X61127526Y-40429562D01*
X61126176Y-40487832D01*
X61125886Y-40568173D01*
X61125886Y-40772646D01*
X61080177Y-40788580D01*
X61047713Y-40799420D01*
X61029901Y-40804468D01*
X61029377Y-40804514D01*
X61028037Y-40790623D01*
X61026828Y-40751439D01*
X61025801Y-40690700D01*
X61025002Y-40612141D01*
X61024481Y-40519498D01*
X61024286Y-40416509D01*
X61024286Y-40019342D01*
X61071457Y-39999444D01*
X61118629Y-39979547D01*
X61125886Y-40101289D01*
X61125886Y-40101289D01*
G37*
X61125886Y-40101289D02*
X61130139Y-40160613D01*
X61135025Y-40195572D01*
X61141795Y-40210820D01*
X61151702Y-40211015D01*
X61154914Y-40209195D01*
X61197644Y-40196015D01*
X61253227Y-40196785D01*
X61309737Y-40210333D01*
X61345082Y-40227861D01*
X61381321Y-40255861D01*
X61407813Y-40287549D01*
X61425999Y-40327813D01*
X61437322Y-40381543D01*
X61443222Y-40453626D01*
X61445143Y-40548951D01*
X61445177Y-40567237D01*
X61445200Y-40772646D01*
X61399491Y-40788580D01*
X61367027Y-40799420D01*
X61349215Y-40804468D01*
X61348691Y-40804514D01*
X61346937Y-40790828D01*
X61345444Y-40753076D01*
X61344326Y-40696224D01*
X61343697Y-40625234D01*
X61343600Y-40582073D01*
X61343398Y-40496973D01*
X61342358Y-40435981D01*
X61339831Y-40394177D01*
X61335164Y-40366642D01*
X61327707Y-40348456D01*
X61316811Y-40334698D01*
X61310007Y-40328073D01*
X61263272Y-40301375D01*
X61212272Y-40299375D01*
X61166001Y-40321955D01*
X61157444Y-40330107D01*
X61144893Y-40345436D01*
X61136188Y-40363618D01*
X61130631Y-40389909D01*
X61127526Y-40429562D01*
X61126176Y-40487832D01*
X61125886Y-40568173D01*
X61125886Y-40772646D01*
X61080177Y-40788580D01*
X61047713Y-40799420D01*
X61029901Y-40804468D01*
X61029377Y-40804514D01*
X61028037Y-40790623D01*
X61026828Y-40751439D01*
X61025801Y-40690700D01*
X61025002Y-40612141D01*
X61024481Y-40519498D01*
X61024286Y-40416509D01*
X61024286Y-40019342D01*
X61071457Y-39999444D01*
X61118629Y-39979547D01*
X61125886Y-40101289D01*
G36*
X59918303Y-40181239D02*
X59975527Y-40219735D01*
X60019749Y-40275335D01*
X60046167Y-40346086D01*
X60051510Y-40398162D01*
X60050903Y-40419893D01*
X60045822Y-40436531D01*
X60031855Y-40451437D01*
X60004589Y-40467973D01*
X59959612Y-40489498D01*
X59892511Y-40519374D01*
X59892171Y-40519524D01*
X59830407Y-40547813D01*
X59779759Y-40572933D01*
X59745404Y-40592179D01*
X59732518Y-40602848D01*
X59732514Y-40602934D01*
X59743872Y-40626166D01*
X59770431Y-40651774D01*
X59800923Y-40670221D01*
X59816370Y-40673886D01*
X59858515Y-40661212D01*
X59894808Y-40629471D01*
X59912517Y-40594572D01*
X59929552Y-40568845D01*
X59962922Y-40539546D01*
X60002149Y-40514235D01*
X60036756Y-40500471D01*
X60043993Y-40499714D01*
X60052139Y-40512160D01*
X60052630Y-40543972D01*
X60046643Y-40586866D01*
X60035357Y-40632558D01*
X60019950Y-40672761D01*
X60019171Y-40674322D01*
X59972804Y-40739062D01*
X59912711Y-40783097D01*
X59844465Y-40804711D01*
X59773638Y-40802185D01*
X59705804Y-40773804D01*
X59702788Y-40771808D01*
X59649427Y-40723448D01*
X59614340Y-40660352D01*
X59594922Y-40577387D01*
X59592316Y-40554078D01*
X59587701Y-40444055D01*
X59593233Y-40392748D01*
X59732514Y-40392748D01*
X59734324Y-40424753D01*
X59744222Y-40434093D01*
X59768898Y-40427105D01*
X59807795Y-40410587D01*
X59851275Y-40389881D01*
X59852356Y-40389333D01*
X59889209Y-40369949D01*
X59904000Y-40357013D01*
X59900353Y-40343451D01*
X59884995Y-40325632D01*
X59845923Y-40299845D01*
X59803846Y-40297950D01*
X59766103Y-40316717D01*
X59740034Y-40352915D01*
X59732514Y-40392748D01*
X59593233Y-40392748D01*
X59597194Y-40356027D01*
X59621550Y-40286212D01*
X59655456Y-40237302D01*
X59716653Y-40187878D01*
X59784063Y-40163359D01*
X59852880Y-40161797D01*
X59918303Y-40181239D01*
X59918303Y-40181239D01*
G37*
X59918303Y-40181239D02*
X59975527Y-40219735D01*
X60019749Y-40275335D01*
X60046167Y-40346086D01*
X60051510Y-40398162D01*
X60050903Y-40419893D01*
X60045822Y-40436531D01*
X60031855Y-40451437D01*
X60004589Y-40467973D01*
X59959612Y-40489498D01*
X59892511Y-40519374D01*
X59892171Y-40519524D01*
X59830407Y-40547813D01*
X59779759Y-40572933D01*
X59745404Y-40592179D01*
X59732518Y-40602848D01*
X59732514Y-40602934D01*
X59743872Y-40626166D01*
X59770431Y-40651774D01*
X59800923Y-40670221D01*
X59816370Y-40673886D01*
X59858515Y-40661212D01*
X59894808Y-40629471D01*
X59912517Y-40594572D01*
X59929552Y-40568845D01*
X59962922Y-40539546D01*
X60002149Y-40514235D01*
X60036756Y-40500471D01*
X60043993Y-40499714D01*
X60052139Y-40512160D01*
X60052630Y-40543972D01*
X60046643Y-40586866D01*
X60035357Y-40632558D01*
X60019950Y-40672761D01*
X60019171Y-40674322D01*
X59972804Y-40739062D01*
X59912711Y-40783097D01*
X59844465Y-40804711D01*
X59773638Y-40802185D01*
X59705804Y-40773804D01*
X59702788Y-40771808D01*
X59649427Y-40723448D01*
X59614340Y-40660352D01*
X59594922Y-40577387D01*
X59592316Y-40554078D01*
X59587701Y-40444055D01*
X59593233Y-40392748D01*
X59732514Y-40392748D01*
X59734324Y-40424753D01*
X59744222Y-40434093D01*
X59768898Y-40427105D01*
X59807795Y-40410587D01*
X59851275Y-40389881D01*
X59852356Y-40389333D01*
X59889209Y-40369949D01*
X59904000Y-40357013D01*
X59900353Y-40343451D01*
X59884995Y-40325632D01*
X59845923Y-40299845D01*
X59803846Y-40297950D01*
X59766103Y-40316717D01*
X59740034Y-40352915D01*
X59732514Y-40392748D01*
X59593233Y-40392748D01*
X59597194Y-40356027D01*
X59621550Y-40286212D01*
X59655456Y-40237302D01*
X59716653Y-40187878D01*
X59784063Y-40163359D01*
X59852880Y-40161797D01*
X59918303Y-40181239D01*
G36*
X58791115Y-40171962D02*
X58859145Y-40207733D01*
X58909351Y-40265301D01*
X58927185Y-40302312D01*
X58941063Y-40357882D01*
X58948167Y-40428096D01*
X58948840Y-40504727D01*
X58943427Y-40579552D01*
X58932270Y-40644342D01*
X58915714Y-40690873D01*
X58910626Y-40698887D01*
X58850355Y-40758707D01*
X58778769Y-40794535D01*
X58701092Y-40805020D01*
X58622548Y-40788810D01*
X58600689Y-40779092D01*
X58558122Y-40749143D01*
X58520763Y-40709433D01*
X58517232Y-40704397D01*
X58502881Y-40680124D01*
X58493394Y-40654178D01*
X58487790Y-40620022D01*
X58485086Y-40571119D01*
X58484299Y-40500935D01*
X58484286Y-40485200D01*
X58484322Y-40480192D01*
X58629429Y-40480192D01*
X58630273Y-40546430D01*
X58633596Y-40590386D01*
X58640583Y-40618779D01*
X58652416Y-40638325D01*
X58658457Y-40644857D01*
X58693186Y-40669680D01*
X58726903Y-40668548D01*
X58760995Y-40647016D01*
X58781329Y-40624029D01*
X58793371Y-40590478D01*
X58800134Y-40537569D01*
X58800598Y-40531399D01*
X58801752Y-40435513D01*
X58789688Y-40364299D01*
X58764570Y-40318194D01*
X58726560Y-40297635D01*
X58712992Y-40296514D01*
X58677364Y-40302152D01*
X58652994Y-40321686D01*
X58638093Y-40359042D01*
X58630875Y-40418150D01*
X58629429Y-40480192D01*
X58484322Y-40480192D01*
X58484826Y-40410413D01*
X58487096Y-40358159D01*
X58492068Y-40321949D01*
X58500713Y-40295299D01*
X58514005Y-40271722D01*
X58516943Y-40267338D01*
X58566313Y-40208249D01*
X58620109Y-40173947D01*
X58685602Y-40160331D01*
X58707842Y-40159665D01*
X58791115Y-40171962D01*
X58791115Y-40171962D01*
G37*
X58791115Y-40171962D02*
X58859145Y-40207733D01*
X58909351Y-40265301D01*
X58927185Y-40302312D01*
X58941063Y-40357882D01*
X58948167Y-40428096D01*
X58948840Y-40504727D01*
X58943427Y-40579552D01*
X58932270Y-40644342D01*
X58915714Y-40690873D01*
X58910626Y-40698887D01*
X58850355Y-40758707D01*
X58778769Y-40794535D01*
X58701092Y-40805020D01*
X58622548Y-40788810D01*
X58600689Y-40779092D01*
X58558122Y-40749143D01*
X58520763Y-40709433D01*
X58517232Y-40704397D01*
X58502881Y-40680124D01*
X58493394Y-40654178D01*
X58487790Y-40620022D01*
X58485086Y-40571119D01*
X58484299Y-40500935D01*
X58484286Y-40485200D01*
X58484322Y-40480192D01*
X58629429Y-40480192D01*
X58630273Y-40546430D01*
X58633596Y-40590386D01*
X58640583Y-40618779D01*
X58652416Y-40638325D01*
X58658457Y-40644857D01*
X58693186Y-40669680D01*
X58726903Y-40668548D01*
X58760995Y-40647016D01*
X58781329Y-40624029D01*
X58793371Y-40590478D01*
X58800134Y-40537569D01*
X58800598Y-40531399D01*
X58801752Y-40435513D01*
X58789688Y-40364299D01*
X58764570Y-40318194D01*
X58726560Y-40297635D01*
X58712992Y-40296514D01*
X58677364Y-40302152D01*
X58652994Y-40321686D01*
X58638093Y-40359042D01*
X58630875Y-40418150D01*
X58629429Y-40480192D01*
X58484322Y-40480192D01*
X58484826Y-40410413D01*
X58487096Y-40358159D01*
X58492068Y-40321949D01*
X58500713Y-40295299D01*
X58514005Y-40271722D01*
X58516943Y-40267338D01*
X58566313Y-40208249D01*
X58620109Y-40173947D01*
X58685602Y-40160331D01*
X58707842Y-40159665D01*
X58791115Y-40171962D01*
G36*
X60466093Y-40177780D02*
X60512672Y-40204723D01*
X60545057Y-40231466D01*
X60568742Y-40259484D01*
X60585059Y-40293748D01*
X60595339Y-40339227D01*
X60600914Y-40400892D01*
X60603116Y-40483711D01*
X60603371Y-40543246D01*
X60603371Y-40762391D01*
X60541686Y-40790044D01*
X60480000Y-40817697D01*
X60472743Y-40577670D01*
X60469744Y-40488028D01*
X60466598Y-40422962D01*
X60462701Y-40378026D01*
X60457447Y-40348770D01*
X60450231Y-40330748D01*
X60440450Y-40319511D01*
X60437312Y-40317079D01*
X60389761Y-40298083D01*
X60341697Y-40305600D01*
X60313086Y-40325543D01*
X60301447Y-40339675D01*
X60293391Y-40358220D01*
X60288271Y-40386334D01*
X60285441Y-40429173D01*
X60284256Y-40491895D01*
X60284057Y-40557261D01*
X60284018Y-40639268D01*
X60282614Y-40697316D01*
X60277914Y-40736465D01*
X60267987Y-40761780D01*
X60250903Y-40778323D01*
X60224732Y-40791156D01*
X60189775Y-40804491D01*
X60151596Y-40819007D01*
X60156141Y-40561389D01*
X60157971Y-40468519D01*
X60160112Y-40399889D01*
X60163181Y-40350711D01*
X60167794Y-40316198D01*
X60174568Y-40291562D01*
X60184119Y-40272016D01*
X60195634Y-40254770D01*
X60251190Y-40199680D01*
X60318980Y-40167822D01*
X60392713Y-40160191D01*
X60466093Y-40177780D01*
X60466093Y-40177780D01*
G37*
X60466093Y-40177780D02*
X60512672Y-40204723D01*
X60545057Y-40231466D01*
X60568742Y-40259484D01*
X60585059Y-40293748D01*
X60595339Y-40339227D01*
X60600914Y-40400892D01*
X60603116Y-40483711D01*
X60603371Y-40543246D01*
X60603371Y-40762391D01*
X60541686Y-40790044D01*
X60480000Y-40817697D01*
X60472743Y-40577670D01*
X60469744Y-40488028D01*
X60466598Y-40422962D01*
X60462701Y-40378026D01*
X60457447Y-40348770D01*
X60450231Y-40330748D01*
X60440450Y-40319511D01*
X60437312Y-40317079D01*
X60389761Y-40298083D01*
X60341697Y-40305600D01*
X60313086Y-40325543D01*
X60301447Y-40339675D01*
X60293391Y-40358220D01*
X60288271Y-40386334D01*
X60285441Y-40429173D01*
X60284256Y-40491895D01*
X60284057Y-40557261D01*
X60284018Y-40639268D01*
X60282614Y-40697316D01*
X60277914Y-40736465D01*
X60267987Y-40761780D01*
X60250903Y-40778323D01*
X60224732Y-40791156D01*
X60189775Y-40804491D01*
X60151596Y-40819007D01*
X60156141Y-40561389D01*
X60157971Y-40468519D01*
X60160112Y-40399889D01*
X60163181Y-40350711D01*
X60167794Y-40316198D01*
X60174568Y-40291562D01*
X60184119Y-40272016D01*
X60195634Y-40254770D01*
X60251190Y-40199680D01*
X60318980Y-40167822D01*
X60392713Y-40160191D01*
X60466093Y-40177780D01*
G36*
X59349744Y-40169918D02*
X59405201Y-40197568D01*
X59454148Y-40248480D01*
X59467629Y-40267338D01*
X59482314Y-40292015D01*
X59491842Y-40318816D01*
X59497293Y-40354587D01*
X59499747Y-40406169D01*
X59500286Y-40474267D01*
X59497852Y-40567588D01*
X59489394Y-40637657D01*
X59473174Y-40689931D01*
X59447454Y-40729869D01*
X59410497Y-40762929D01*
X59407782Y-40764886D01*
X59371360Y-40784908D01*
X59327502Y-40794815D01*
X59271724Y-40797257D01*
X59181048Y-40797257D01*
X59181010Y-40885283D01*
X59180166Y-40934308D01*
X59175024Y-40963065D01*
X59161587Y-40980311D01*
X59135858Y-40994808D01*
X59129679Y-40997769D01*
X59100764Y-41011648D01*
X59078376Y-41020414D01*
X59061729Y-41021171D01*
X59050036Y-41011023D01*
X59042510Y-40987073D01*
X59038366Y-40946426D01*
X59036815Y-40886186D01*
X59037071Y-40803455D01*
X59038349Y-40695339D01*
X59038748Y-40663000D01*
X59040185Y-40551524D01*
X59041472Y-40478603D01*
X59180971Y-40478603D01*
X59181755Y-40540499D01*
X59185240Y-40580997D01*
X59193124Y-40607708D01*
X59207105Y-40628244D01*
X59216597Y-40638260D01*
X59255404Y-40667567D01*
X59289763Y-40669952D01*
X59325216Y-40645750D01*
X59326114Y-40644857D01*
X59340539Y-40626153D01*
X59349313Y-40600732D01*
X59353739Y-40561584D01*
X59355118Y-40501697D01*
X59355143Y-40488430D01*
X59351812Y-40405901D01*
X59340969Y-40348691D01*
X59321340Y-40313766D01*
X59291650Y-40298094D01*
X59274491Y-40296514D01*
X59233766Y-40303926D01*
X59205832Y-40328330D01*
X59189017Y-40372980D01*
X59181650Y-40441130D01*
X59180971Y-40478603D01*
X59041472Y-40478603D01*
X59041708Y-40465245D01*
X59043677Y-40400333D01*
X59046450Y-40352958D01*
X59050388Y-40319290D01*
X59055849Y-40295498D01*
X59063192Y-40277753D01*
X59072777Y-40262224D01*
X59076887Y-40256381D01*
X59131405Y-40201185D01*
X59200336Y-40169890D01*
X59280072Y-40161165D01*
X59349744Y-40169918D01*
X59349744Y-40169918D01*
G37*
X59349744Y-40169918D02*
X59405201Y-40197568D01*
X59454148Y-40248480D01*
X59467629Y-40267338D01*
X59482314Y-40292015D01*
X59491842Y-40318816D01*
X59497293Y-40354587D01*
X59499747Y-40406169D01*
X59500286Y-40474267D01*
X59497852Y-40567588D01*
X59489394Y-40637657D01*
X59473174Y-40689931D01*
X59447454Y-40729869D01*
X59410497Y-40762929D01*
X59407782Y-40764886D01*
X59371360Y-40784908D01*
X59327502Y-40794815D01*
X59271724Y-40797257D01*
X59181048Y-40797257D01*
X59181010Y-40885283D01*
X59180166Y-40934308D01*
X59175024Y-40963065D01*
X59161587Y-40980311D01*
X59135858Y-40994808D01*
X59129679Y-40997769D01*
X59100764Y-41011648D01*
X59078376Y-41020414D01*
X59061729Y-41021171D01*
X59050036Y-41011023D01*
X59042510Y-40987073D01*
X59038366Y-40946426D01*
X59036815Y-40886186D01*
X59037071Y-40803455D01*
X59038349Y-40695339D01*
X59038748Y-40663000D01*
X59040185Y-40551524D01*
X59041472Y-40478603D01*
X59180971Y-40478603D01*
X59181755Y-40540499D01*
X59185240Y-40580997D01*
X59193124Y-40607708D01*
X59207105Y-40628244D01*
X59216597Y-40638260D01*
X59255404Y-40667567D01*
X59289763Y-40669952D01*
X59325216Y-40645750D01*
X59326114Y-40644857D01*
X59340539Y-40626153D01*
X59349313Y-40600732D01*
X59353739Y-40561584D01*
X59355118Y-40501697D01*
X59355143Y-40488430D01*
X59351812Y-40405901D01*
X59340969Y-40348691D01*
X59321340Y-40313766D01*
X59291650Y-40298094D01*
X59274491Y-40296514D01*
X59233766Y-40303926D01*
X59205832Y-40328330D01*
X59189017Y-40372980D01*
X59181650Y-40441130D01*
X59180971Y-40478603D01*
X59041472Y-40478603D01*
X59041708Y-40465245D01*
X59043677Y-40400333D01*
X59046450Y-40352958D01*
X59050388Y-40319290D01*
X59055849Y-40295498D01*
X59063192Y-40277753D01*
X59072777Y-40262224D01*
X59076887Y-40256381D01*
X59131405Y-40201185D01*
X59200336Y-40169890D01*
X59280072Y-40161165D01*
X59349744Y-40169918D01*
D12*
G04 #@! TO.C,U1*
X67010000Y-34080000D02*
X67010000Y-33150000D01*
X67010000Y-30920000D02*
X67010000Y-31850000D01*
X67010000Y-30920000D02*
X63850000Y-30920000D01*
X67010000Y-34080000D02*
X65550000Y-34080000D01*
G04 #@! TO.C,C1*
X60790000Y-33011252D02*
X60790000Y-32488748D01*
X62210000Y-33011252D02*
X62210000Y-32488748D01*
G04 #@! TO.C,J1*
X65920000Y-40620000D02*
X68580000Y-40620000D01*
X65920000Y-38020000D02*
X65920000Y-40620000D01*
X68580000Y-38020000D02*
X68580000Y-40620000D01*
X65920000Y-38020000D02*
X68580000Y-38020000D01*
X65920000Y-36750000D02*
X65920000Y-35420000D01*
X65920000Y-35420000D02*
X67250000Y-35420000D01*
G04 #@! TO.C,J2*
X102170000Y-50030000D02*
X104830000Y-50030000D01*
X102170000Y-37270000D02*
X102170000Y-50030000D01*
X104830000Y-37270000D02*
X104830000Y-50030000D01*
X102170000Y-37270000D02*
X104830000Y-37270000D01*
X102170000Y-36000000D02*
X102170000Y-34670000D01*
X102170000Y-34670000D02*
X103500000Y-34670000D01*
G04 #@! TO.C,J5*
X71170000Y-50985000D02*
X73830000Y-50985000D01*
X71170000Y-33145000D02*
X71170000Y-50985000D01*
X73830000Y-33145000D02*
X73830000Y-50985000D01*
X71170000Y-33145000D02*
X73830000Y-33145000D01*
X71170000Y-31875000D02*
X71170000Y-30545000D01*
X71170000Y-30545000D02*
X72500000Y-30545000D01*
G04 #@! TO.C,R5*
X93991422Y-30790000D02*
X94508578Y-30790000D01*
X93991422Y-32210000D02*
X94508578Y-32210000D01*
G04 #@! TO.C,R4*
X80491422Y-32210000D02*
X81008578Y-32210000D01*
X80491422Y-30790000D02*
X81008578Y-30790000D01*
G04 #@! TO.C,R3*
X76741422Y-30790000D02*
X77258578Y-30790000D01*
X76741422Y-32210000D02*
X77258578Y-32210000D01*
G04 #@! TO.C,R2*
X90258578Y-30790000D02*
X89741422Y-30790000D01*
X90258578Y-32210000D02*
X89741422Y-32210000D01*
G04 #@! TO.C,R1*
X102179422Y-31290000D02*
X102696578Y-31290000D01*
X102179422Y-32710000D02*
X102696578Y-32710000D01*
G04 #@! TO.C,J3*
D14*
X54166666Y-34452380D02*
X54166666Y-35166666D01*
X54119047Y-35309523D01*
X54023809Y-35404761D01*
X53880952Y-35452380D01*
X53785714Y-35452380D01*
X54547619Y-34452380D02*
X55166666Y-34452380D01*
X54833333Y-34833333D01*
X54976190Y-34833333D01*
X55071428Y-34880952D01*
X55119047Y-34928571D01*
X55166666Y-35023809D01*
X55166666Y-35261904D01*
X55119047Y-35357142D01*
X55071428Y-35404761D01*
X54976190Y-35452380D01*
X54690476Y-35452380D01*
X54595238Y-35404761D01*
X54547619Y-35357142D01*
G04 #@! TO.C,SW1*
X82654761Y-27833333D02*
X82702380Y-27690476D01*
X82702380Y-27452380D01*
X82654761Y-27357142D01*
X82607142Y-27309523D01*
X82511904Y-27261904D01*
X82416666Y-27261904D01*
X82321428Y-27309523D01*
X82273809Y-27357142D01*
X82226190Y-27452380D01*
X82178571Y-27642857D01*
X82130952Y-27738095D01*
X82083333Y-27785714D01*
X81988095Y-27833333D01*
X81892857Y-27833333D01*
X81797619Y-27785714D01*
X81750000Y-27738095D01*
X81702380Y-27642857D01*
X81702380Y-27404761D01*
X81750000Y-27261904D01*
X81702380Y-26928571D02*
X82702380Y-26690476D01*
X81988095Y-26500000D01*
X82702380Y-26309523D01*
X81702380Y-26071428D01*
X82702380Y-25166666D02*
X82702380Y-25738095D01*
X82702380Y-25452380D02*
X81702380Y-25452380D01*
X81845238Y-25547619D01*
X81940476Y-25642857D01*
X81988095Y-25738095D01*
G04 #@! TO.C,U2*
X81452380Y-50261904D02*
X82261904Y-50261904D01*
X82357142Y-50214285D01*
X82404761Y-50166666D01*
X82452380Y-50071428D01*
X82452380Y-49880952D01*
X82404761Y-49785714D01*
X82357142Y-49738095D01*
X82261904Y-49690476D01*
X81452380Y-49690476D01*
X81547619Y-49261904D02*
X81500000Y-49214285D01*
X81452380Y-49119047D01*
X81452380Y-48880952D01*
X81500000Y-48785714D01*
X81547619Y-48738095D01*
X81642857Y-48690476D01*
X81738095Y-48690476D01*
X81880952Y-48738095D01*
X82452380Y-49309523D01*
X82452380Y-48690476D01*
G04 #@! TO.C,P1*
X85761904Y-29202380D02*
X85761904Y-28202380D01*
X86142857Y-28202380D01*
X86238095Y-28250000D01*
X86285714Y-28297619D01*
X86333333Y-28392857D01*
X86333333Y-28535714D01*
X86285714Y-28630952D01*
X86238095Y-28678571D01*
X86142857Y-28726190D01*
X85761904Y-28726190D01*
X87285714Y-29202380D02*
X86714285Y-29202380D01*
X87000000Y-29202380D02*
X87000000Y-28202380D01*
X86904761Y-28345238D01*
X86809523Y-28440476D01*
X86714285Y-28488095D01*
G04 #@! TO.C,U1*
X67488095Y-30702380D02*
X67488095Y-31511904D01*
X67535714Y-31607142D01*
X67583333Y-31654761D01*
X67678571Y-31702380D01*
X67869047Y-31702380D01*
X67964285Y-31654761D01*
X68011904Y-31607142D01*
X68059523Y-31511904D01*
X68059523Y-30702380D01*
X69059523Y-31702380D02*
X68488095Y-31702380D01*
X68773809Y-31702380D02*
X68773809Y-30702380D01*
X68678571Y-30845238D01*
X68583333Y-30940476D01*
X68488095Y-30988095D01*
G04 #@! TO.C,C1*
X60207142Y-32916666D02*
X60254761Y-32964285D01*
X60302380Y-33107142D01*
X60302380Y-33202380D01*
X60254761Y-33345238D01*
X60159523Y-33440476D01*
X60064285Y-33488095D01*
X59873809Y-33535714D01*
X59730952Y-33535714D01*
X59540476Y-33488095D01*
X59445238Y-33440476D01*
X59350000Y-33345238D01*
X59302380Y-33202380D01*
X59302380Y-33107142D01*
X59350000Y-32964285D01*
X59397619Y-32916666D01*
X60302380Y-31964285D02*
X60302380Y-32535714D01*
X60302380Y-32250000D02*
X59302380Y-32250000D01*
X59445238Y-32345238D01*
X59540476Y-32440476D01*
X59588095Y-32535714D01*
G04 #@! TO.C,J1*
X69166666Y-34452380D02*
X69166666Y-35166666D01*
X69119047Y-35309523D01*
X69023809Y-35404761D01*
X68880952Y-35452380D01*
X68785714Y-35452380D01*
X70166666Y-35452380D02*
X69595238Y-35452380D01*
X69880952Y-35452380D02*
X69880952Y-34452380D01*
X69785714Y-34595238D01*
X69690476Y-34690476D01*
X69595238Y-34738095D01*
G04 #@! TO.C,J2*
X102416666Y-33452380D02*
X102416666Y-34166666D01*
X102369047Y-34309523D01*
X102273809Y-34404761D01*
X102130952Y-34452380D01*
X102035714Y-34452380D01*
X102845238Y-33547619D02*
X102892857Y-33500000D01*
X102988095Y-33452380D01*
X103226190Y-33452380D01*
X103321428Y-33500000D01*
X103369047Y-33547619D01*
X103416666Y-33642857D01*
X103416666Y-33738095D01*
X103369047Y-33880952D01*
X102797619Y-34452380D01*
X103416666Y-34452380D01*
G04 #@! TO.C,J5*
X69702380Y-31583333D02*
X70416666Y-31583333D01*
X70559523Y-31630952D01*
X70654761Y-31726190D01*
X70702380Y-31869047D01*
X70702380Y-31964285D01*
X69702380Y-30630952D02*
X69702380Y-31107142D01*
X70178571Y-31154761D01*
X70130952Y-31107142D01*
X70083333Y-31011904D01*
X70083333Y-30773809D01*
X70130952Y-30678571D01*
X70178571Y-30630952D01*
X70273809Y-30583333D01*
X70511904Y-30583333D01*
X70607142Y-30630952D01*
X70654761Y-30678571D01*
X70702380Y-30773809D01*
X70702380Y-31011904D01*
X70654761Y-31107142D01*
X70607142Y-31154761D01*
G04 #@! TO.C,R5*
X96833333Y-31452380D02*
X96500000Y-30976190D01*
X96261904Y-31452380D02*
X96261904Y-30452380D01*
X96642857Y-30452380D01*
X96738095Y-30500000D01*
X96785714Y-30547619D01*
X96833333Y-30642857D01*
X96833333Y-30785714D01*
X96785714Y-30880952D01*
X96738095Y-30928571D01*
X96642857Y-30976190D01*
X96261904Y-30976190D01*
X97738095Y-30452380D02*
X97261904Y-30452380D01*
X97214285Y-30928571D01*
X97261904Y-30880952D01*
X97357142Y-30833333D01*
X97595238Y-30833333D01*
X97690476Y-30880952D01*
X97738095Y-30928571D01*
X97785714Y-31023809D01*
X97785714Y-31261904D01*
X97738095Y-31357142D01*
X97690476Y-31404761D01*
X97595238Y-31452380D01*
X97357142Y-31452380D01*
X97261904Y-31404761D01*
X97214285Y-31357142D01*
G04 #@! TO.C,R4*
X80583333Y-30302380D02*
X80250000Y-29826190D01*
X80011904Y-30302380D02*
X80011904Y-29302380D01*
X80392857Y-29302380D01*
X80488095Y-29350000D01*
X80535714Y-29397619D01*
X80583333Y-29492857D01*
X80583333Y-29635714D01*
X80535714Y-29730952D01*
X80488095Y-29778571D01*
X80392857Y-29826190D01*
X80011904Y-29826190D01*
X81440476Y-29635714D02*
X81440476Y-30302380D01*
X81202380Y-29254761D02*
X80964285Y-29969047D01*
X81583333Y-29969047D01*
G04 #@! TO.C,R3*
X78083333Y-30302380D02*
X77750000Y-29826190D01*
X77511904Y-30302380D02*
X77511904Y-29302380D01*
X77892857Y-29302380D01*
X77988095Y-29350000D01*
X78035714Y-29397619D01*
X78083333Y-29492857D01*
X78083333Y-29635714D01*
X78035714Y-29730952D01*
X77988095Y-29778571D01*
X77892857Y-29826190D01*
X77511904Y-29826190D01*
X78416666Y-29302380D02*
X79035714Y-29302380D01*
X78702380Y-29683333D01*
X78845238Y-29683333D01*
X78940476Y-29730952D01*
X78988095Y-29778571D01*
X79035714Y-29873809D01*
X79035714Y-30111904D01*
X78988095Y-30207142D01*
X78940476Y-30254761D01*
X78845238Y-30302380D01*
X78559523Y-30302380D01*
X78464285Y-30254761D01*
X78416666Y-30207142D01*
G04 #@! TO.C,R2*
X87952380Y-31416666D02*
X87476190Y-31750000D01*
X87952380Y-31988095D02*
X86952380Y-31988095D01*
X86952380Y-31607142D01*
X87000000Y-31511904D01*
X87047619Y-31464285D01*
X87142857Y-31416666D01*
X87285714Y-31416666D01*
X87380952Y-31464285D01*
X87428571Y-31511904D01*
X87476190Y-31607142D01*
X87476190Y-31988095D01*
X87047619Y-31035714D02*
X87000000Y-30988095D01*
X86952380Y-30892857D01*
X86952380Y-30654761D01*
X87000000Y-30559523D01*
X87047619Y-30511904D01*
X87142857Y-30464285D01*
X87238095Y-30464285D01*
X87380952Y-30511904D01*
X87952380Y-31083333D01*
X87952380Y-30464285D01*
G04 #@! TO.C,R1*
X100202380Y-31666666D02*
X99726190Y-32000000D01*
X100202380Y-32238095D02*
X99202380Y-32238095D01*
X99202380Y-31857142D01*
X99250000Y-31761904D01*
X99297619Y-31714285D01*
X99392857Y-31666666D01*
X99535714Y-31666666D01*
X99630952Y-31714285D01*
X99678571Y-31761904D01*
X99726190Y-31857142D01*
X99726190Y-32238095D01*
X100202380Y-30714285D02*
X100202380Y-31285714D01*
X100202380Y-31000000D02*
X99202380Y-31000000D01*
X99345238Y-31095238D01*
X99440476Y-31190476D01*
X99488095Y-31285714D01*
G04 #@! TD*
M02*
