G04 #@! TF.GenerationSoftware,KiCad,Pcbnew,5.0.1-33cea8e~66~ubuntu18.04.1*
G04 #@! TF.CreationDate,2019-09-26T22:02:42+09:00*
G04 #@! TF.ProjectId,minidenko,6D696E6964656E6B6F2E6B696361645F,rev?*
G04 #@! TF.SameCoordinates,Original*
G04 #@! TF.FileFunction,Paste,Top*
G04 #@! TF.FilePolarity,Positive*
%FSLAX46Y46*%
G04 Gerber Fmt 4.6, Leading zero omitted, Abs format (unit mm)*
G04 Created by KiCad (PCBNEW 5.0.1-33cea8e~66~ubuntu18.04.1) date 2019年09月26日 22時02分42秒*
%MOMM*%
%LPD*%
G01*
G04 APERTURE LIST*
%ADD10R,1.000000X2.800000*%
%ADD11R,0.700000X1.000000*%
%ADD12O,2.400000X1.100000*%
%ADD13R,1.900000X0.800000*%
%ADD14C,0.100000*%
%ADD15C,1.150000*%
%ADD16C,0.975000*%
G04 APERTURE END LIST*
D10*
G04 #@! TO.C,SW1*
X78025000Y-26550000D03*
D11*
X81375000Y-28450000D03*
X79875000Y-28450000D03*
X84375000Y-28450000D03*
D10*
X85975000Y-26550000D03*
G04 #@! TD*
D12*
G04 #@! TO.C,U2*
X99500000Y-37010000D03*
X99500000Y-39010000D03*
X99500000Y-41010000D03*
X99500000Y-43010000D03*
X99500000Y-45010000D03*
X99500000Y-47010000D03*
G04 #@! TD*
D13*
G04 #@! TO.C,U1*
X64750000Y-31550000D03*
X64750000Y-33450000D03*
X67750000Y-32500000D03*
G04 #@! TD*
D14*
G04 #@! TO.C,C1*
G36*
X61974505Y-33201204D02*
X61998773Y-33204804D01*
X62022572Y-33210765D01*
X62045671Y-33219030D01*
X62067850Y-33229520D01*
X62088893Y-33242132D01*
X62108599Y-33256747D01*
X62126777Y-33273223D01*
X62143253Y-33291401D01*
X62157868Y-33311107D01*
X62170480Y-33332150D01*
X62180970Y-33354329D01*
X62189235Y-33377428D01*
X62195196Y-33401227D01*
X62198796Y-33425495D01*
X62200000Y-33449999D01*
X62200000Y-34100001D01*
X62198796Y-34124505D01*
X62195196Y-34148773D01*
X62189235Y-34172572D01*
X62180970Y-34195671D01*
X62170480Y-34217850D01*
X62157868Y-34238893D01*
X62143253Y-34258599D01*
X62126777Y-34276777D01*
X62108599Y-34293253D01*
X62088893Y-34307868D01*
X62067850Y-34320480D01*
X62045671Y-34330970D01*
X62022572Y-34339235D01*
X61998773Y-34345196D01*
X61974505Y-34348796D01*
X61950001Y-34350000D01*
X61049999Y-34350000D01*
X61025495Y-34348796D01*
X61001227Y-34345196D01*
X60977428Y-34339235D01*
X60954329Y-34330970D01*
X60932150Y-34320480D01*
X60911107Y-34307868D01*
X60891401Y-34293253D01*
X60873223Y-34276777D01*
X60856747Y-34258599D01*
X60842132Y-34238893D01*
X60829520Y-34217850D01*
X60819030Y-34195671D01*
X60810765Y-34172572D01*
X60804804Y-34148773D01*
X60801204Y-34124505D01*
X60800000Y-34100001D01*
X60800000Y-33449999D01*
X60801204Y-33425495D01*
X60804804Y-33401227D01*
X60810765Y-33377428D01*
X60819030Y-33354329D01*
X60829520Y-33332150D01*
X60842132Y-33311107D01*
X60856747Y-33291401D01*
X60873223Y-33273223D01*
X60891401Y-33256747D01*
X60911107Y-33242132D01*
X60932150Y-33229520D01*
X60954329Y-33219030D01*
X60977428Y-33210765D01*
X61001227Y-33204804D01*
X61025495Y-33201204D01*
X61049999Y-33200000D01*
X61950001Y-33200000D01*
X61974505Y-33201204D01*
X61974505Y-33201204D01*
G37*
D15*
X61500000Y-33775000D03*
D14*
G36*
X61974505Y-31151204D02*
X61998773Y-31154804D01*
X62022572Y-31160765D01*
X62045671Y-31169030D01*
X62067850Y-31179520D01*
X62088893Y-31192132D01*
X62108599Y-31206747D01*
X62126777Y-31223223D01*
X62143253Y-31241401D01*
X62157868Y-31261107D01*
X62170480Y-31282150D01*
X62180970Y-31304329D01*
X62189235Y-31327428D01*
X62195196Y-31351227D01*
X62198796Y-31375495D01*
X62200000Y-31399999D01*
X62200000Y-32050001D01*
X62198796Y-32074505D01*
X62195196Y-32098773D01*
X62189235Y-32122572D01*
X62180970Y-32145671D01*
X62170480Y-32167850D01*
X62157868Y-32188893D01*
X62143253Y-32208599D01*
X62126777Y-32226777D01*
X62108599Y-32243253D01*
X62088893Y-32257868D01*
X62067850Y-32270480D01*
X62045671Y-32280970D01*
X62022572Y-32289235D01*
X61998773Y-32295196D01*
X61974505Y-32298796D01*
X61950001Y-32300000D01*
X61049999Y-32300000D01*
X61025495Y-32298796D01*
X61001227Y-32295196D01*
X60977428Y-32289235D01*
X60954329Y-32280970D01*
X60932150Y-32270480D01*
X60911107Y-32257868D01*
X60891401Y-32243253D01*
X60873223Y-32226777D01*
X60856747Y-32208599D01*
X60842132Y-32188893D01*
X60829520Y-32167850D01*
X60819030Y-32145671D01*
X60810765Y-32122572D01*
X60804804Y-32098773D01*
X60801204Y-32074505D01*
X60800000Y-32050001D01*
X60800000Y-31399999D01*
X60801204Y-31375495D01*
X60804804Y-31351227D01*
X60810765Y-31327428D01*
X60819030Y-31304329D01*
X60829520Y-31282150D01*
X60842132Y-31261107D01*
X60856747Y-31241401D01*
X60873223Y-31223223D01*
X60891401Y-31206747D01*
X60911107Y-31192132D01*
X60932150Y-31179520D01*
X60954329Y-31169030D01*
X60977428Y-31160765D01*
X61001227Y-31154804D01*
X61025495Y-31151204D01*
X61049999Y-31150000D01*
X61950001Y-31150000D01*
X61974505Y-31151204D01*
X61974505Y-31151204D01*
G37*
D15*
X61500000Y-31725000D03*
G04 #@! TD*
D14*
G04 #@! TO.C,R5*
G36*
X93580142Y-30801174D02*
X93603803Y-30804684D01*
X93627007Y-30810496D01*
X93649529Y-30818554D01*
X93671153Y-30828782D01*
X93691670Y-30841079D01*
X93710883Y-30855329D01*
X93728607Y-30871393D01*
X93744671Y-30889117D01*
X93758921Y-30908330D01*
X93771218Y-30928847D01*
X93781446Y-30950471D01*
X93789504Y-30972993D01*
X93795316Y-30996197D01*
X93798826Y-31019858D01*
X93800000Y-31043750D01*
X93800000Y-31956250D01*
X93798826Y-31980142D01*
X93795316Y-32003803D01*
X93789504Y-32027007D01*
X93781446Y-32049529D01*
X93771218Y-32071153D01*
X93758921Y-32091670D01*
X93744671Y-32110883D01*
X93728607Y-32128607D01*
X93710883Y-32144671D01*
X93691670Y-32158921D01*
X93671153Y-32171218D01*
X93649529Y-32181446D01*
X93627007Y-32189504D01*
X93603803Y-32195316D01*
X93580142Y-32198826D01*
X93556250Y-32200000D01*
X93068750Y-32200000D01*
X93044858Y-32198826D01*
X93021197Y-32195316D01*
X92997993Y-32189504D01*
X92975471Y-32181446D01*
X92953847Y-32171218D01*
X92933330Y-32158921D01*
X92914117Y-32144671D01*
X92896393Y-32128607D01*
X92880329Y-32110883D01*
X92866079Y-32091670D01*
X92853782Y-32071153D01*
X92843554Y-32049529D01*
X92835496Y-32027007D01*
X92829684Y-32003803D01*
X92826174Y-31980142D01*
X92825000Y-31956250D01*
X92825000Y-31043750D01*
X92826174Y-31019858D01*
X92829684Y-30996197D01*
X92835496Y-30972993D01*
X92843554Y-30950471D01*
X92853782Y-30928847D01*
X92866079Y-30908330D01*
X92880329Y-30889117D01*
X92896393Y-30871393D01*
X92914117Y-30855329D01*
X92933330Y-30841079D01*
X92953847Y-30828782D01*
X92975471Y-30818554D01*
X92997993Y-30810496D01*
X93021197Y-30804684D01*
X93044858Y-30801174D01*
X93068750Y-30800000D01*
X93556250Y-30800000D01*
X93580142Y-30801174D01*
X93580142Y-30801174D01*
G37*
D16*
X93312500Y-31500000D03*
D14*
G36*
X95455142Y-30801174D02*
X95478803Y-30804684D01*
X95502007Y-30810496D01*
X95524529Y-30818554D01*
X95546153Y-30828782D01*
X95566670Y-30841079D01*
X95585883Y-30855329D01*
X95603607Y-30871393D01*
X95619671Y-30889117D01*
X95633921Y-30908330D01*
X95646218Y-30928847D01*
X95656446Y-30950471D01*
X95664504Y-30972993D01*
X95670316Y-30996197D01*
X95673826Y-31019858D01*
X95675000Y-31043750D01*
X95675000Y-31956250D01*
X95673826Y-31980142D01*
X95670316Y-32003803D01*
X95664504Y-32027007D01*
X95656446Y-32049529D01*
X95646218Y-32071153D01*
X95633921Y-32091670D01*
X95619671Y-32110883D01*
X95603607Y-32128607D01*
X95585883Y-32144671D01*
X95566670Y-32158921D01*
X95546153Y-32171218D01*
X95524529Y-32181446D01*
X95502007Y-32189504D01*
X95478803Y-32195316D01*
X95455142Y-32198826D01*
X95431250Y-32200000D01*
X94943750Y-32200000D01*
X94919858Y-32198826D01*
X94896197Y-32195316D01*
X94872993Y-32189504D01*
X94850471Y-32181446D01*
X94828847Y-32171218D01*
X94808330Y-32158921D01*
X94789117Y-32144671D01*
X94771393Y-32128607D01*
X94755329Y-32110883D01*
X94741079Y-32091670D01*
X94728782Y-32071153D01*
X94718554Y-32049529D01*
X94710496Y-32027007D01*
X94704684Y-32003803D01*
X94701174Y-31980142D01*
X94700000Y-31956250D01*
X94700000Y-31043750D01*
X94701174Y-31019858D01*
X94704684Y-30996197D01*
X94710496Y-30972993D01*
X94718554Y-30950471D01*
X94728782Y-30928847D01*
X94741079Y-30908330D01*
X94755329Y-30889117D01*
X94771393Y-30871393D01*
X94789117Y-30855329D01*
X94808330Y-30841079D01*
X94828847Y-30828782D01*
X94850471Y-30818554D01*
X94872993Y-30810496D01*
X94896197Y-30804684D01*
X94919858Y-30801174D01*
X94943750Y-30800000D01*
X95431250Y-30800000D01*
X95455142Y-30801174D01*
X95455142Y-30801174D01*
G37*
D16*
X95187500Y-31500000D03*
G04 #@! TD*
D14*
G04 #@! TO.C,R4*
G36*
X81955142Y-30801174D02*
X81978803Y-30804684D01*
X82002007Y-30810496D01*
X82024529Y-30818554D01*
X82046153Y-30828782D01*
X82066670Y-30841079D01*
X82085883Y-30855329D01*
X82103607Y-30871393D01*
X82119671Y-30889117D01*
X82133921Y-30908330D01*
X82146218Y-30928847D01*
X82156446Y-30950471D01*
X82164504Y-30972993D01*
X82170316Y-30996197D01*
X82173826Y-31019858D01*
X82175000Y-31043750D01*
X82175000Y-31956250D01*
X82173826Y-31980142D01*
X82170316Y-32003803D01*
X82164504Y-32027007D01*
X82156446Y-32049529D01*
X82146218Y-32071153D01*
X82133921Y-32091670D01*
X82119671Y-32110883D01*
X82103607Y-32128607D01*
X82085883Y-32144671D01*
X82066670Y-32158921D01*
X82046153Y-32171218D01*
X82024529Y-32181446D01*
X82002007Y-32189504D01*
X81978803Y-32195316D01*
X81955142Y-32198826D01*
X81931250Y-32200000D01*
X81443750Y-32200000D01*
X81419858Y-32198826D01*
X81396197Y-32195316D01*
X81372993Y-32189504D01*
X81350471Y-32181446D01*
X81328847Y-32171218D01*
X81308330Y-32158921D01*
X81289117Y-32144671D01*
X81271393Y-32128607D01*
X81255329Y-32110883D01*
X81241079Y-32091670D01*
X81228782Y-32071153D01*
X81218554Y-32049529D01*
X81210496Y-32027007D01*
X81204684Y-32003803D01*
X81201174Y-31980142D01*
X81200000Y-31956250D01*
X81200000Y-31043750D01*
X81201174Y-31019858D01*
X81204684Y-30996197D01*
X81210496Y-30972993D01*
X81218554Y-30950471D01*
X81228782Y-30928847D01*
X81241079Y-30908330D01*
X81255329Y-30889117D01*
X81271393Y-30871393D01*
X81289117Y-30855329D01*
X81308330Y-30841079D01*
X81328847Y-30828782D01*
X81350471Y-30818554D01*
X81372993Y-30810496D01*
X81396197Y-30804684D01*
X81419858Y-30801174D01*
X81443750Y-30800000D01*
X81931250Y-30800000D01*
X81955142Y-30801174D01*
X81955142Y-30801174D01*
G37*
D16*
X81687500Y-31500000D03*
D14*
G36*
X80080142Y-30801174D02*
X80103803Y-30804684D01*
X80127007Y-30810496D01*
X80149529Y-30818554D01*
X80171153Y-30828782D01*
X80191670Y-30841079D01*
X80210883Y-30855329D01*
X80228607Y-30871393D01*
X80244671Y-30889117D01*
X80258921Y-30908330D01*
X80271218Y-30928847D01*
X80281446Y-30950471D01*
X80289504Y-30972993D01*
X80295316Y-30996197D01*
X80298826Y-31019858D01*
X80300000Y-31043750D01*
X80300000Y-31956250D01*
X80298826Y-31980142D01*
X80295316Y-32003803D01*
X80289504Y-32027007D01*
X80281446Y-32049529D01*
X80271218Y-32071153D01*
X80258921Y-32091670D01*
X80244671Y-32110883D01*
X80228607Y-32128607D01*
X80210883Y-32144671D01*
X80191670Y-32158921D01*
X80171153Y-32171218D01*
X80149529Y-32181446D01*
X80127007Y-32189504D01*
X80103803Y-32195316D01*
X80080142Y-32198826D01*
X80056250Y-32200000D01*
X79568750Y-32200000D01*
X79544858Y-32198826D01*
X79521197Y-32195316D01*
X79497993Y-32189504D01*
X79475471Y-32181446D01*
X79453847Y-32171218D01*
X79433330Y-32158921D01*
X79414117Y-32144671D01*
X79396393Y-32128607D01*
X79380329Y-32110883D01*
X79366079Y-32091670D01*
X79353782Y-32071153D01*
X79343554Y-32049529D01*
X79335496Y-32027007D01*
X79329684Y-32003803D01*
X79326174Y-31980142D01*
X79325000Y-31956250D01*
X79325000Y-31043750D01*
X79326174Y-31019858D01*
X79329684Y-30996197D01*
X79335496Y-30972993D01*
X79343554Y-30950471D01*
X79353782Y-30928847D01*
X79366079Y-30908330D01*
X79380329Y-30889117D01*
X79396393Y-30871393D01*
X79414117Y-30855329D01*
X79433330Y-30841079D01*
X79453847Y-30828782D01*
X79475471Y-30818554D01*
X79497993Y-30810496D01*
X79521197Y-30804684D01*
X79544858Y-30801174D01*
X79568750Y-30800000D01*
X80056250Y-30800000D01*
X80080142Y-30801174D01*
X80080142Y-30801174D01*
G37*
D16*
X79812500Y-31500000D03*
G04 #@! TD*
D14*
G04 #@! TO.C,R3*
G36*
X76330142Y-30801174D02*
X76353803Y-30804684D01*
X76377007Y-30810496D01*
X76399529Y-30818554D01*
X76421153Y-30828782D01*
X76441670Y-30841079D01*
X76460883Y-30855329D01*
X76478607Y-30871393D01*
X76494671Y-30889117D01*
X76508921Y-30908330D01*
X76521218Y-30928847D01*
X76531446Y-30950471D01*
X76539504Y-30972993D01*
X76545316Y-30996197D01*
X76548826Y-31019858D01*
X76550000Y-31043750D01*
X76550000Y-31956250D01*
X76548826Y-31980142D01*
X76545316Y-32003803D01*
X76539504Y-32027007D01*
X76531446Y-32049529D01*
X76521218Y-32071153D01*
X76508921Y-32091670D01*
X76494671Y-32110883D01*
X76478607Y-32128607D01*
X76460883Y-32144671D01*
X76441670Y-32158921D01*
X76421153Y-32171218D01*
X76399529Y-32181446D01*
X76377007Y-32189504D01*
X76353803Y-32195316D01*
X76330142Y-32198826D01*
X76306250Y-32200000D01*
X75818750Y-32200000D01*
X75794858Y-32198826D01*
X75771197Y-32195316D01*
X75747993Y-32189504D01*
X75725471Y-32181446D01*
X75703847Y-32171218D01*
X75683330Y-32158921D01*
X75664117Y-32144671D01*
X75646393Y-32128607D01*
X75630329Y-32110883D01*
X75616079Y-32091670D01*
X75603782Y-32071153D01*
X75593554Y-32049529D01*
X75585496Y-32027007D01*
X75579684Y-32003803D01*
X75576174Y-31980142D01*
X75575000Y-31956250D01*
X75575000Y-31043750D01*
X75576174Y-31019858D01*
X75579684Y-30996197D01*
X75585496Y-30972993D01*
X75593554Y-30950471D01*
X75603782Y-30928847D01*
X75616079Y-30908330D01*
X75630329Y-30889117D01*
X75646393Y-30871393D01*
X75664117Y-30855329D01*
X75683330Y-30841079D01*
X75703847Y-30828782D01*
X75725471Y-30818554D01*
X75747993Y-30810496D01*
X75771197Y-30804684D01*
X75794858Y-30801174D01*
X75818750Y-30800000D01*
X76306250Y-30800000D01*
X76330142Y-30801174D01*
X76330142Y-30801174D01*
G37*
D16*
X76062500Y-31500000D03*
D14*
G36*
X78205142Y-30801174D02*
X78228803Y-30804684D01*
X78252007Y-30810496D01*
X78274529Y-30818554D01*
X78296153Y-30828782D01*
X78316670Y-30841079D01*
X78335883Y-30855329D01*
X78353607Y-30871393D01*
X78369671Y-30889117D01*
X78383921Y-30908330D01*
X78396218Y-30928847D01*
X78406446Y-30950471D01*
X78414504Y-30972993D01*
X78420316Y-30996197D01*
X78423826Y-31019858D01*
X78425000Y-31043750D01*
X78425000Y-31956250D01*
X78423826Y-31980142D01*
X78420316Y-32003803D01*
X78414504Y-32027007D01*
X78406446Y-32049529D01*
X78396218Y-32071153D01*
X78383921Y-32091670D01*
X78369671Y-32110883D01*
X78353607Y-32128607D01*
X78335883Y-32144671D01*
X78316670Y-32158921D01*
X78296153Y-32171218D01*
X78274529Y-32181446D01*
X78252007Y-32189504D01*
X78228803Y-32195316D01*
X78205142Y-32198826D01*
X78181250Y-32200000D01*
X77693750Y-32200000D01*
X77669858Y-32198826D01*
X77646197Y-32195316D01*
X77622993Y-32189504D01*
X77600471Y-32181446D01*
X77578847Y-32171218D01*
X77558330Y-32158921D01*
X77539117Y-32144671D01*
X77521393Y-32128607D01*
X77505329Y-32110883D01*
X77491079Y-32091670D01*
X77478782Y-32071153D01*
X77468554Y-32049529D01*
X77460496Y-32027007D01*
X77454684Y-32003803D01*
X77451174Y-31980142D01*
X77450000Y-31956250D01*
X77450000Y-31043750D01*
X77451174Y-31019858D01*
X77454684Y-30996197D01*
X77460496Y-30972993D01*
X77468554Y-30950471D01*
X77478782Y-30928847D01*
X77491079Y-30908330D01*
X77505329Y-30889117D01*
X77521393Y-30871393D01*
X77539117Y-30855329D01*
X77558330Y-30841079D01*
X77578847Y-30828782D01*
X77600471Y-30818554D01*
X77622993Y-30810496D01*
X77646197Y-30804684D01*
X77669858Y-30801174D01*
X77693750Y-30800000D01*
X78181250Y-30800000D01*
X78205142Y-30801174D01*
X78205142Y-30801174D01*
G37*
D16*
X77937500Y-31500000D03*
G04 #@! TD*
D14*
G04 #@! TO.C,R2*
G36*
X89330142Y-30801174D02*
X89353803Y-30804684D01*
X89377007Y-30810496D01*
X89399529Y-30818554D01*
X89421153Y-30828782D01*
X89441670Y-30841079D01*
X89460883Y-30855329D01*
X89478607Y-30871393D01*
X89494671Y-30889117D01*
X89508921Y-30908330D01*
X89521218Y-30928847D01*
X89531446Y-30950471D01*
X89539504Y-30972993D01*
X89545316Y-30996197D01*
X89548826Y-31019858D01*
X89550000Y-31043750D01*
X89550000Y-31956250D01*
X89548826Y-31980142D01*
X89545316Y-32003803D01*
X89539504Y-32027007D01*
X89531446Y-32049529D01*
X89521218Y-32071153D01*
X89508921Y-32091670D01*
X89494671Y-32110883D01*
X89478607Y-32128607D01*
X89460883Y-32144671D01*
X89441670Y-32158921D01*
X89421153Y-32171218D01*
X89399529Y-32181446D01*
X89377007Y-32189504D01*
X89353803Y-32195316D01*
X89330142Y-32198826D01*
X89306250Y-32200000D01*
X88818750Y-32200000D01*
X88794858Y-32198826D01*
X88771197Y-32195316D01*
X88747993Y-32189504D01*
X88725471Y-32181446D01*
X88703847Y-32171218D01*
X88683330Y-32158921D01*
X88664117Y-32144671D01*
X88646393Y-32128607D01*
X88630329Y-32110883D01*
X88616079Y-32091670D01*
X88603782Y-32071153D01*
X88593554Y-32049529D01*
X88585496Y-32027007D01*
X88579684Y-32003803D01*
X88576174Y-31980142D01*
X88575000Y-31956250D01*
X88575000Y-31043750D01*
X88576174Y-31019858D01*
X88579684Y-30996197D01*
X88585496Y-30972993D01*
X88593554Y-30950471D01*
X88603782Y-30928847D01*
X88616079Y-30908330D01*
X88630329Y-30889117D01*
X88646393Y-30871393D01*
X88664117Y-30855329D01*
X88683330Y-30841079D01*
X88703847Y-30828782D01*
X88725471Y-30818554D01*
X88747993Y-30810496D01*
X88771197Y-30804684D01*
X88794858Y-30801174D01*
X88818750Y-30800000D01*
X89306250Y-30800000D01*
X89330142Y-30801174D01*
X89330142Y-30801174D01*
G37*
D16*
X89062500Y-31500000D03*
D14*
G36*
X91205142Y-30801174D02*
X91228803Y-30804684D01*
X91252007Y-30810496D01*
X91274529Y-30818554D01*
X91296153Y-30828782D01*
X91316670Y-30841079D01*
X91335883Y-30855329D01*
X91353607Y-30871393D01*
X91369671Y-30889117D01*
X91383921Y-30908330D01*
X91396218Y-30928847D01*
X91406446Y-30950471D01*
X91414504Y-30972993D01*
X91420316Y-30996197D01*
X91423826Y-31019858D01*
X91425000Y-31043750D01*
X91425000Y-31956250D01*
X91423826Y-31980142D01*
X91420316Y-32003803D01*
X91414504Y-32027007D01*
X91406446Y-32049529D01*
X91396218Y-32071153D01*
X91383921Y-32091670D01*
X91369671Y-32110883D01*
X91353607Y-32128607D01*
X91335883Y-32144671D01*
X91316670Y-32158921D01*
X91296153Y-32171218D01*
X91274529Y-32181446D01*
X91252007Y-32189504D01*
X91228803Y-32195316D01*
X91205142Y-32198826D01*
X91181250Y-32200000D01*
X90693750Y-32200000D01*
X90669858Y-32198826D01*
X90646197Y-32195316D01*
X90622993Y-32189504D01*
X90600471Y-32181446D01*
X90578847Y-32171218D01*
X90558330Y-32158921D01*
X90539117Y-32144671D01*
X90521393Y-32128607D01*
X90505329Y-32110883D01*
X90491079Y-32091670D01*
X90478782Y-32071153D01*
X90468554Y-32049529D01*
X90460496Y-32027007D01*
X90454684Y-32003803D01*
X90451174Y-31980142D01*
X90450000Y-31956250D01*
X90450000Y-31043750D01*
X90451174Y-31019858D01*
X90454684Y-30996197D01*
X90460496Y-30972993D01*
X90468554Y-30950471D01*
X90478782Y-30928847D01*
X90491079Y-30908330D01*
X90505329Y-30889117D01*
X90521393Y-30871393D01*
X90539117Y-30855329D01*
X90558330Y-30841079D01*
X90578847Y-30828782D01*
X90600471Y-30818554D01*
X90622993Y-30810496D01*
X90646197Y-30804684D01*
X90669858Y-30801174D01*
X90693750Y-30800000D01*
X91181250Y-30800000D01*
X91205142Y-30801174D01*
X91205142Y-30801174D01*
G37*
D16*
X90937500Y-31500000D03*
G04 #@! TD*
D14*
G04 #@! TO.C,R1*
G36*
X101768142Y-31301174D02*
X101791803Y-31304684D01*
X101815007Y-31310496D01*
X101837529Y-31318554D01*
X101859153Y-31328782D01*
X101879670Y-31341079D01*
X101898883Y-31355329D01*
X101916607Y-31371393D01*
X101932671Y-31389117D01*
X101946921Y-31408330D01*
X101959218Y-31428847D01*
X101969446Y-31450471D01*
X101977504Y-31472993D01*
X101983316Y-31496197D01*
X101986826Y-31519858D01*
X101988000Y-31543750D01*
X101988000Y-32456250D01*
X101986826Y-32480142D01*
X101983316Y-32503803D01*
X101977504Y-32527007D01*
X101969446Y-32549529D01*
X101959218Y-32571153D01*
X101946921Y-32591670D01*
X101932671Y-32610883D01*
X101916607Y-32628607D01*
X101898883Y-32644671D01*
X101879670Y-32658921D01*
X101859153Y-32671218D01*
X101837529Y-32681446D01*
X101815007Y-32689504D01*
X101791803Y-32695316D01*
X101768142Y-32698826D01*
X101744250Y-32700000D01*
X101256750Y-32700000D01*
X101232858Y-32698826D01*
X101209197Y-32695316D01*
X101185993Y-32689504D01*
X101163471Y-32681446D01*
X101141847Y-32671218D01*
X101121330Y-32658921D01*
X101102117Y-32644671D01*
X101084393Y-32628607D01*
X101068329Y-32610883D01*
X101054079Y-32591670D01*
X101041782Y-32571153D01*
X101031554Y-32549529D01*
X101023496Y-32527007D01*
X101017684Y-32503803D01*
X101014174Y-32480142D01*
X101013000Y-32456250D01*
X101013000Y-31543750D01*
X101014174Y-31519858D01*
X101017684Y-31496197D01*
X101023496Y-31472993D01*
X101031554Y-31450471D01*
X101041782Y-31428847D01*
X101054079Y-31408330D01*
X101068329Y-31389117D01*
X101084393Y-31371393D01*
X101102117Y-31355329D01*
X101121330Y-31341079D01*
X101141847Y-31328782D01*
X101163471Y-31318554D01*
X101185993Y-31310496D01*
X101209197Y-31304684D01*
X101232858Y-31301174D01*
X101256750Y-31300000D01*
X101744250Y-31300000D01*
X101768142Y-31301174D01*
X101768142Y-31301174D01*
G37*
D16*
X101500500Y-32000000D03*
D14*
G36*
X103643142Y-31301174D02*
X103666803Y-31304684D01*
X103690007Y-31310496D01*
X103712529Y-31318554D01*
X103734153Y-31328782D01*
X103754670Y-31341079D01*
X103773883Y-31355329D01*
X103791607Y-31371393D01*
X103807671Y-31389117D01*
X103821921Y-31408330D01*
X103834218Y-31428847D01*
X103844446Y-31450471D01*
X103852504Y-31472993D01*
X103858316Y-31496197D01*
X103861826Y-31519858D01*
X103863000Y-31543750D01*
X103863000Y-32456250D01*
X103861826Y-32480142D01*
X103858316Y-32503803D01*
X103852504Y-32527007D01*
X103844446Y-32549529D01*
X103834218Y-32571153D01*
X103821921Y-32591670D01*
X103807671Y-32610883D01*
X103791607Y-32628607D01*
X103773883Y-32644671D01*
X103754670Y-32658921D01*
X103734153Y-32671218D01*
X103712529Y-32681446D01*
X103690007Y-32689504D01*
X103666803Y-32695316D01*
X103643142Y-32698826D01*
X103619250Y-32700000D01*
X103131750Y-32700000D01*
X103107858Y-32698826D01*
X103084197Y-32695316D01*
X103060993Y-32689504D01*
X103038471Y-32681446D01*
X103016847Y-32671218D01*
X102996330Y-32658921D01*
X102977117Y-32644671D01*
X102959393Y-32628607D01*
X102943329Y-32610883D01*
X102929079Y-32591670D01*
X102916782Y-32571153D01*
X102906554Y-32549529D01*
X102898496Y-32527007D01*
X102892684Y-32503803D01*
X102889174Y-32480142D01*
X102888000Y-32456250D01*
X102888000Y-31543750D01*
X102889174Y-31519858D01*
X102892684Y-31496197D01*
X102898496Y-31472993D01*
X102906554Y-31450471D01*
X102916782Y-31428847D01*
X102929079Y-31408330D01*
X102943329Y-31389117D01*
X102959393Y-31371393D01*
X102977117Y-31355329D01*
X102996330Y-31341079D01*
X103016847Y-31328782D01*
X103038471Y-31318554D01*
X103060993Y-31310496D01*
X103084197Y-31304684D01*
X103107858Y-31301174D01*
X103131750Y-31300000D01*
X103619250Y-31300000D01*
X103643142Y-31301174D01*
X103643142Y-31301174D01*
G37*
D16*
X103375500Y-32000000D03*
G04 #@! TD*
M02*
