G04 #@! TF.GenerationSoftware,KiCad,Pcbnew,5.0.1-33cea8e~66~ubuntu18.04.1*
G04 #@! TF.CreationDate,2019-09-26T22:02:42+09:00*
G04 #@! TF.ProjectId,minidenko,6D696E6964656E6B6F2E6B696361645F,rev?*
G04 #@! TF.SameCoordinates,Original*
G04 #@! TF.FileFunction,Soldermask,Top*
G04 #@! TF.FilePolarity,Negative*
%FSLAX46Y46*%
G04 Gerber Fmt 4.6, Leading zero omitted, Abs format (unit mm)*
G04 Created by KiCad (PCBNEW 5.0.1-33cea8e~66~ubuntu18.04.1) date 2019年09月26日 22時02分42秒*
%MOMM*%
%LPD*%
G01*
G04 APERTURE LIST*
%ADD10C,0.100000*%
G04 APERTURE END LIST*
D10*
G36*
X85867817Y-48407696D02*
X85981104Y-48442062D01*
X86085512Y-48497869D01*
X86116591Y-48523375D01*
X86177027Y-48572973D01*
X86240711Y-48650572D01*
X86252131Y-48664488D01*
X86307938Y-48768895D01*
X86342304Y-48882182D01*
X86351000Y-48970481D01*
X86351000Y-50429519D01*
X86342304Y-50517818D01*
X86307938Y-50631105D01*
X86252131Y-50735513D01*
X86177027Y-50827027D01*
X86085513Y-50902131D01*
X85981105Y-50957938D01*
X85867818Y-50992304D01*
X85750000Y-51003907D01*
X85632183Y-50992304D01*
X85518896Y-50957938D01*
X85414488Y-50902131D01*
X85322974Y-50827027D01*
X85247870Y-50735513D01*
X85192063Y-50631105D01*
X85157697Y-50517818D01*
X85149001Y-50429519D01*
X85149000Y-48970482D01*
X85157696Y-48882183D01*
X85192062Y-48768896D01*
X85247869Y-48664488D01*
X85289120Y-48614224D01*
X85322973Y-48572973D01*
X85414487Y-48497870D01*
X85414486Y-48497870D01*
X85414488Y-48497869D01*
X85518895Y-48442062D01*
X85632182Y-48407696D01*
X85750000Y-48396093D01*
X85867817Y-48407696D01*
X85867817Y-48407696D01*
G37*
G36*
X87867817Y-48407696D02*
X87981104Y-48442062D01*
X88085512Y-48497869D01*
X88116591Y-48523375D01*
X88177027Y-48572973D01*
X88240711Y-48650572D01*
X88252131Y-48664488D01*
X88307938Y-48768895D01*
X88342304Y-48882182D01*
X88351000Y-48970481D01*
X88351000Y-50429519D01*
X88342304Y-50517818D01*
X88307938Y-50631105D01*
X88252131Y-50735513D01*
X88177027Y-50827027D01*
X88085513Y-50902131D01*
X87981105Y-50957938D01*
X87867818Y-50992304D01*
X87750000Y-51003907D01*
X87632183Y-50992304D01*
X87518896Y-50957938D01*
X87414488Y-50902131D01*
X87322974Y-50827027D01*
X87247870Y-50735513D01*
X87192063Y-50631105D01*
X87157697Y-50517818D01*
X87149001Y-50429519D01*
X87149000Y-48970482D01*
X87157696Y-48882183D01*
X87192062Y-48768896D01*
X87247869Y-48664488D01*
X87289120Y-48614224D01*
X87322973Y-48572973D01*
X87414487Y-48497870D01*
X87414486Y-48497870D01*
X87414488Y-48497869D01*
X87518895Y-48442062D01*
X87632182Y-48407696D01*
X87750000Y-48396093D01*
X87867817Y-48407696D01*
X87867817Y-48407696D01*
G37*
G36*
X89867817Y-48407696D02*
X89981104Y-48442062D01*
X90085512Y-48497869D01*
X90116591Y-48523375D01*
X90177027Y-48572973D01*
X90240711Y-48650572D01*
X90252131Y-48664488D01*
X90307938Y-48768895D01*
X90342304Y-48882182D01*
X90351000Y-48970481D01*
X90351000Y-50429519D01*
X90342304Y-50517818D01*
X90307938Y-50631105D01*
X90252131Y-50735513D01*
X90177027Y-50827027D01*
X90085513Y-50902131D01*
X89981105Y-50957938D01*
X89867818Y-50992304D01*
X89750000Y-51003907D01*
X89632183Y-50992304D01*
X89518896Y-50957938D01*
X89414488Y-50902131D01*
X89322974Y-50827027D01*
X89247870Y-50735513D01*
X89192063Y-50631105D01*
X89157697Y-50517818D01*
X89149001Y-50429519D01*
X89149000Y-48970482D01*
X89157696Y-48882183D01*
X89192062Y-48768896D01*
X89247869Y-48664488D01*
X89289120Y-48614224D01*
X89322973Y-48572973D01*
X89414487Y-48497870D01*
X89414486Y-48497870D01*
X89414488Y-48497869D01*
X89518895Y-48442062D01*
X89632182Y-48407696D01*
X89750000Y-48396093D01*
X89867817Y-48407696D01*
X89867817Y-48407696D01*
G37*
G36*
X91867817Y-48407696D02*
X91981104Y-48442062D01*
X92085512Y-48497869D01*
X92116591Y-48523375D01*
X92177027Y-48572973D01*
X92240711Y-48650572D01*
X92252131Y-48664488D01*
X92307938Y-48768895D01*
X92342304Y-48882182D01*
X92351000Y-48970481D01*
X92351000Y-50429519D01*
X92342304Y-50517818D01*
X92307938Y-50631105D01*
X92252131Y-50735513D01*
X92177027Y-50827027D01*
X92085513Y-50902131D01*
X91981105Y-50957938D01*
X91867818Y-50992304D01*
X91750000Y-51003907D01*
X91632183Y-50992304D01*
X91518896Y-50957938D01*
X91414488Y-50902131D01*
X91322974Y-50827027D01*
X91247870Y-50735513D01*
X91192063Y-50631105D01*
X91157697Y-50517818D01*
X91149001Y-50429519D01*
X91149000Y-48970482D01*
X91157696Y-48882183D01*
X91192062Y-48768896D01*
X91247869Y-48664488D01*
X91289120Y-48614224D01*
X91322973Y-48572973D01*
X91414487Y-48497870D01*
X91414486Y-48497870D01*
X91414488Y-48497869D01*
X91518895Y-48442062D01*
X91632182Y-48407696D01*
X91750000Y-48396093D01*
X91867817Y-48407696D01*
X91867817Y-48407696D01*
G37*
G36*
X95867817Y-48407696D02*
X95981104Y-48442062D01*
X96085512Y-48497869D01*
X96116591Y-48523375D01*
X96177027Y-48572973D01*
X96240711Y-48650572D01*
X96252131Y-48664488D01*
X96307938Y-48768895D01*
X96342304Y-48882182D01*
X96351000Y-48970481D01*
X96351000Y-50429519D01*
X96342304Y-50517818D01*
X96307938Y-50631105D01*
X96252131Y-50735513D01*
X96177027Y-50827027D01*
X96085513Y-50902131D01*
X95981105Y-50957938D01*
X95867818Y-50992304D01*
X95750000Y-51003907D01*
X95632183Y-50992304D01*
X95518896Y-50957938D01*
X95414488Y-50902131D01*
X95322974Y-50827027D01*
X95247870Y-50735513D01*
X95192063Y-50631105D01*
X95157697Y-50517818D01*
X95149001Y-50429519D01*
X95149000Y-48970482D01*
X95157696Y-48882183D01*
X95192062Y-48768896D01*
X95247869Y-48664488D01*
X95289120Y-48614224D01*
X95322973Y-48572973D01*
X95414487Y-48497870D01*
X95414486Y-48497870D01*
X95414488Y-48497869D01*
X95518895Y-48442062D01*
X95632182Y-48407696D01*
X95750000Y-48396093D01*
X95867817Y-48407696D01*
X95867817Y-48407696D01*
G37*
G36*
X97867817Y-48407696D02*
X97981104Y-48442062D01*
X98085512Y-48497869D01*
X98116591Y-48523375D01*
X98177027Y-48572973D01*
X98240711Y-48650572D01*
X98252131Y-48664488D01*
X98307938Y-48768895D01*
X98342304Y-48882182D01*
X98351000Y-48970481D01*
X98351000Y-50429519D01*
X98342304Y-50517818D01*
X98307938Y-50631105D01*
X98252131Y-50735513D01*
X98177027Y-50827027D01*
X98085513Y-50902131D01*
X97981105Y-50957938D01*
X97867818Y-50992304D01*
X97750000Y-51003907D01*
X97632183Y-50992304D01*
X97518896Y-50957938D01*
X97414488Y-50902131D01*
X97322974Y-50827027D01*
X97247870Y-50735513D01*
X97192063Y-50631105D01*
X97157697Y-50517818D01*
X97149001Y-50429519D01*
X97149000Y-48970482D01*
X97157696Y-48882183D01*
X97192062Y-48768896D01*
X97247869Y-48664488D01*
X97289120Y-48614224D01*
X97322973Y-48572973D01*
X97414487Y-48497870D01*
X97414486Y-48497870D01*
X97414488Y-48497869D01*
X97518895Y-48442062D01*
X97632182Y-48407696D01*
X97750000Y-48396093D01*
X97867817Y-48407696D01*
X97867817Y-48407696D01*
G37*
G36*
X93867817Y-48407696D02*
X93981104Y-48442062D01*
X94085512Y-48497869D01*
X94116591Y-48523375D01*
X94177027Y-48572973D01*
X94240711Y-48650572D01*
X94252131Y-48664488D01*
X94307938Y-48768895D01*
X94342304Y-48882182D01*
X94351000Y-48970481D01*
X94351000Y-50429519D01*
X94342304Y-50517818D01*
X94307938Y-50631105D01*
X94252131Y-50735513D01*
X94177027Y-50827027D01*
X94085513Y-50902131D01*
X93981105Y-50957938D01*
X93867818Y-50992304D01*
X93750000Y-51003907D01*
X93632183Y-50992304D01*
X93518896Y-50957938D01*
X93414488Y-50902131D01*
X93322974Y-50827027D01*
X93247870Y-50735513D01*
X93192063Y-50631105D01*
X93157697Y-50517818D01*
X93149001Y-50429519D01*
X93149000Y-48970482D01*
X93157696Y-48882183D01*
X93192062Y-48768896D01*
X93247869Y-48664488D01*
X93289120Y-48614224D01*
X93322973Y-48572973D01*
X93414487Y-48497870D01*
X93414486Y-48497870D01*
X93414488Y-48497869D01*
X93518895Y-48442062D01*
X93632182Y-48407696D01*
X93750000Y-48396093D01*
X93867817Y-48407696D01*
X93867817Y-48407696D01*
G37*
G36*
X84351000Y-51001000D02*
X83149000Y-51001000D01*
X83149000Y-48399000D01*
X84351000Y-48399000D01*
X84351000Y-51001000D01*
X84351000Y-51001000D01*
G37*
G36*
X72610442Y-48760518D02*
X72676627Y-48767037D01*
X72789853Y-48801384D01*
X72846467Y-48818557D01*
X72965499Y-48882182D01*
X73002991Y-48902222D01*
X73038729Y-48931552D01*
X73140186Y-49014814D01*
X73223448Y-49116271D01*
X73252778Y-49152009D01*
X73252779Y-49152011D01*
X73336443Y-49308533D01*
X73336443Y-49308534D01*
X73387963Y-49478373D01*
X73405359Y-49655000D01*
X73387963Y-49831627D01*
X73353616Y-49944853D01*
X73336443Y-50001467D01*
X73262348Y-50140087D01*
X73252778Y-50157991D01*
X73223448Y-50193729D01*
X73140186Y-50295186D01*
X73038729Y-50378448D01*
X73002991Y-50407778D01*
X73002989Y-50407779D01*
X72846467Y-50491443D01*
X72789853Y-50508616D01*
X72676627Y-50542963D01*
X72610442Y-50549482D01*
X72544260Y-50556000D01*
X72455740Y-50556000D01*
X72389558Y-50549482D01*
X72323373Y-50542963D01*
X72210147Y-50508616D01*
X72153533Y-50491443D01*
X71997011Y-50407779D01*
X71997009Y-50407778D01*
X71961271Y-50378448D01*
X71859814Y-50295186D01*
X71776552Y-50193729D01*
X71747222Y-50157991D01*
X71737652Y-50140087D01*
X71663557Y-50001467D01*
X71646384Y-49944853D01*
X71612037Y-49831627D01*
X71594641Y-49655000D01*
X71612037Y-49478373D01*
X71663557Y-49308534D01*
X71663557Y-49308533D01*
X71747221Y-49152011D01*
X71747222Y-49152009D01*
X71776552Y-49116271D01*
X71859814Y-49014814D01*
X71961271Y-48931552D01*
X71997009Y-48902222D01*
X72034501Y-48882182D01*
X72153533Y-48818557D01*
X72210147Y-48801384D01*
X72323373Y-48767037D01*
X72389558Y-48760518D01*
X72455740Y-48754000D01*
X72544260Y-48754000D01*
X72610442Y-48760518D01*
X72610442Y-48760518D01*
G37*
G36*
X103610443Y-47805519D02*
X103676627Y-47812037D01*
X103789853Y-47846384D01*
X103846467Y-47863557D01*
X103985087Y-47937652D01*
X104002991Y-47947222D01*
X104008134Y-47951443D01*
X104140186Y-48059814D01*
X104223448Y-48161271D01*
X104252778Y-48197009D01*
X104252779Y-48197011D01*
X104336443Y-48353533D01*
X104336443Y-48353534D01*
X104387963Y-48523373D01*
X104405359Y-48700000D01*
X104387963Y-48876627D01*
X104359491Y-48970486D01*
X104336443Y-49046467D01*
X104280029Y-49152009D01*
X104252778Y-49202991D01*
X104223448Y-49238729D01*
X104140186Y-49340186D01*
X104038729Y-49423448D01*
X104002991Y-49452778D01*
X104002989Y-49452779D01*
X103846467Y-49536443D01*
X103789853Y-49553616D01*
X103676627Y-49587963D01*
X103610443Y-49594481D01*
X103544260Y-49601000D01*
X103455740Y-49601000D01*
X103389557Y-49594481D01*
X103323373Y-49587963D01*
X103210147Y-49553616D01*
X103153533Y-49536443D01*
X102997011Y-49452779D01*
X102997009Y-49452778D01*
X102961271Y-49423448D01*
X102859814Y-49340186D01*
X102776552Y-49238729D01*
X102747222Y-49202991D01*
X102719971Y-49152009D01*
X102663557Y-49046467D01*
X102640509Y-48970486D01*
X102612037Y-48876627D01*
X102594641Y-48700000D01*
X102612037Y-48523373D01*
X102663557Y-48353534D01*
X102663557Y-48353533D01*
X102747221Y-48197011D01*
X102747222Y-48197009D01*
X102776552Y-48161271D01*
X102859814Y-48059814D01*
X102991866Y-47951443D01*
X102997009Y-47947222D01*
X103014913Y-47937652D01*
X103153533Y-47863557D01*
X103210147Y-47846384D01*
X103323373Y-47812037D01*
X103389558Y-47805518D01*
X103455740Y-47799000D01*
X103544260Y-47799000D01*
X103610443Y-47805519D01*
X103610443Y-47805519D01*
G37*
G36*
X72610443Y-46220519D02*
X72676627Y-46227037D01*
X72789853Y-46261384D01*
X72846467Y-46278557D01*
X72985087Y-46352652D01*
X73002991Y-46362222D01*
X73038729Y-46391552D01*
X73140186Y-46474814D01*
X73223448Y-46576271D01*
X73252778Y-46612009D01*
X73252779Y-46612011D01*
X73336443Y-46768533D01*
X73336443Y-46768534D01*
X73387963Y-46938373D01*
X73405359Y-47115000D01*
X73387963Y-47291627D01*
X73371617Y-47345513D01*
X73336443Y-47461467D01*
X73309362Y-47512131D01*
X73252778Y-47617991D01*
X73223448Y-47653729D01*
X73140186Y-47755186D01*
X73038729Y-47838448D01*
X73002991Y-47867778D01*
X73002989Y-47867779D01*
X72846467Y-47951443D01*
X72789853Y-47968616D01*
X72676627Y-48002963D01*
X72610442Y-48009482D01*
X72544260Y-48016000D01*
X72455740Y-48016000D01*
X72389558Y-48009482D01*
X72323373Y-48002963D01*
X72210147Y-47968616D01*
X72153533Y-47951443D01*
X71997011Y-47867779D01*
X71997009Y-47867778D01*
X71961271Y-47838448D01*
X71859814Y-47755186D01*
X71776552Y-47653729D01*
X71747222Y-47617991D01*
X71690638Y-47512131D01*
X71663557Y-47461467D01*
X71628383Y-47345513D01*
X71612037Y-47291627D01*
X71594641Y-47115000D01*
X71612037Y-46938373D01*
X71663557Y-46768534D01*
X71663557Y-46768533D01*
X71747221Y-46612011D01*
X71747222Y-46612009D01*
X71776552Y-46576271D01*
X71859814Y-46474814D01*
X71961271Y-46391552D01*
X71997009Y-46362222D01*
X72014913Y-46352652D01*
X72153533Y-46278557D01*
X72210147Y-46261384D01*
X72323373Y-46227037D01*
X72389558Y-46220518D01*
X72455740Y-46214000D01*
X72544260Y-46214000D01*
X72610443Y-46220519D01*
X72610443Y-46220519D01*
G37*
G36*
X100267818Y-46417696D02*
X100381105Y-46452062D01*
X100485513Y-46507869D01*
X100577027Y-46582973D01*
X100652131Y-46674487D01*
X100707938Y-46778895D01*
X100742304Y-46892182D01*
X100753907Y-47010000D01*
X100742304Y-47127818D01*
X100707938Y-47241105D01*
X100652131Y-47345513D01*
X100577027Y-47437027D01*
X100485513Y-47512131D01*
X100381105Y-47567938D01*
X100267818Y-47602304D01*
X100179519Y-47611000D01*
X98820481Y-47611000D01*
X98732182Y-47602304D01*
X98618895Y-47567938D01*
X98514487Y-47512131D01*
X98422973Y-47437027D01*
X98347869Y-47345513D01*
X98292062Y-47241105D01*
X98257696Y-47127818D01*
X98246093Y-47010000D01*
X98257696Y-46892182D01*
X98292062Y-46778895D01*
X98347869Y-46674487D01*
X98422973Y-46582973D01*
X98514487Y-46507869D01*
X98618895Y-46452062D01*
X98732182Y-46417696D01*
X98820481Y-46409000D01*
X100179519Y-46409000D01*
X100267818Y-46417696D01*
X100267818Y-46417696D01*
G37*
G36*
X103610443Y-45265519D02*
X103676627Y-45272037D01*
X103789853Y-45306384D01*
X103846467Y-45323557D01*
X103985087Y-45397652D01*
X104002991Y-45407222D01*
X104008134Y-45411443D01*
X104140186Y-45519814D01*
X104215019Y-45611000D01*
X104252778Y-45657009D01*
X104252779Y-45657011D01*
X104336443Y-45813533D01*
X104336443Y-45813534D01*
X104387963Y-45983373D01*
X104405359Y-46160000D01*
X104387963Y-46336627D01*
X104366009Y-46409000D01*
X104336443Y-46506467D01*
X104335693Y-46507870D01*
X104252778Y-46662991D01*
X104243343Y-46674487D01*
X104140186Y-46800186D01*
X104038729Y-46883448D01*
X104002991Y-46912778D01*
X104002989Y-46912779D01*
X103846467Y-46996443D01*
X103789853Y-47013616D01*
X103676627Y-47047963D01*
X103610442Y-47054482D01*
X103544260Y-47061000D01*
X103455740Y-47061000D01*
X103389557Y-47054481D01*
X103323373Y-47047963D01*
X103210147Y-47013616D01*
X103153533Y-46996443D01*
X102997011Y-46912779D01*
X102997009Y-46912778D01*
X102961271Y-46883448D01*
X102859814Y-46800186D01*
X102756657Y-46674487D01*
X102747222Y-46662991D01*
X102664307Y-46507870D01*
X102663557Y-46506467D01*
X102633991Y-46409000D01*
X102612037Y-46336627D01*
X102594641Y-46160000D01*
X102612037Y-45983373D01*
X102663557Y-45813534D01*
X102663557Y-45813533D01*
X102747221Y-45657011D01*
X102747222Y-45657009D01*
X102784981Y-45611000D01*
X102859814Y-45519814D01*
X102991866Y-45411443D01*
X102997009Y-45407222D01*
X103014913Y-45397652D01*
X103153533Y-45323557D01*
X103210147Y-45306384D01*
X103323373Y-45272037D01*
X103389557Y-45265519D01*
X103455740Y-45259000D01*
X103544260Y-45259000D01*
X103610443Y-45265519D01*
X103610443Y-45265519D01*
G37*
G36*
X53051000Y-46726000D02*
X50449000Y-46726000D01*
X50449000Y-44924000D01*
X53051000Y-44924000D01*
X53051000Y-46726000D01*
X53051000Y-46726000D01*
G37*
G36*
X100267818Y-44417696D02*
X100381105Y-44452062D01*
X100485513Y-44507869D01*
X100577027Y-44582973D01*
X100652131Y-44674487D01*
X100707938Y-44778895D01*
X100742304Y-44892182D01*
X100753907Y-45010000D01*
X100742304Y-45127818D01*
X100707938Y-45241105D01*
X100652131Y-45345513D01*
X100577027Y-45437027D01*
X100485513Y-45512131D01*
X100381105Y-45567938D01*
X100267818Y-45602304D01*
X100179519Y-45611000D01*
X98820481Y-45611000D01*
X98732182Y-45602304D01*
X98618895Y-45567938D01*
X98514487Y-45512131D01*
X98422973Y-45437027D01*
X98347869Y-45345513D01*
X98292062Y-45241105D01*
X98257696Y-45127818D01*
X98246093Y-45010000D01*
X98257696Y-44892182D01*
X98292062Y-44778895D01*
X98347869Y-44674487D01*
X98422973Y-44582973D01*
X98514487Y-44507869D01*
X98618895Y-44452062D01*
X98732182Y-44417696D01*
X98820481Y-44409000D01*
X100179519Y-44409000D01*
X100267818Y-44417696D01*
X100267818Y-44417696D01*
G37*
G36*
X72610442Y-43680518D02*
X72676627Y-43687037D01*
X72789853Y-43721384D01*
X72846467Y-43738557D01*
X72985087Y-43812652D01*
X73002991Y-43822222D01*
X73038729Y-43851552D01*
X73140186Y-43934814D01*
X73223448Y-44036271D01*
X73252778Y-44072009D01*
X73252779Y-44072011D01*
X73336443Y-44228533D01*
X73336443Y-44228534D01*
X73387963Y-44398373D01*
X73405359Y-44575000D01*
X73387963Y-44751627D01*
X73379691Y-44778895D01*
X73336443Y-44921467D01*
X73335089Y-44924000D01*
X73252778Y-45077991D01*
X73223448Y-45113729D01*
X73140186Y-45215186D01*
X73038729Y-45298448D01*
X73002991Y-45327778D01*
X73002989Y-45327779D01*
X72846467Y-45411443D01*
X72789853Y-45428616D01*
X72676627Y-45462963D01*
X72610442Y-45469482D01*
X72544260Y-45476000D01*
X72455740Y-45476000D01*
X72389558Y-45469482D01*
X72323373Y-45462963D01*
X72210147Y-45428616D01*
X72153533Y-45411443D01*
X71997011Y-45327779D01*
X71997009Y-45327778D01*
X71961271Y-45298448D01*
X71859814Y-45215186D01*
X71776552Y-45113729D01*
X71747222Y-45077991D01*
X71664911Y-44924000D01*
X71663557Y-44921467D01*
X71620309Y-44778895D01*
X71612037Y-44751627D01*
X71594641Y-44575000D01*
X71612037Y-44398373D01*
X71663557Y-44228534D01*
X71663557Y-44228533D01*
X71747221Y-44072011D01*
X71747222Y-44072009D01*
X71776552Y-44036271D01*
X71859814Y-43934814D01*
X71961271Y-43851552D01*
X71997009Y-43822222D01*
X72014913Y-43812652D01*
X72153533Y-43738557D01*
X72210147Y-43721384D01*
X72323373Y-43687037D01*
X72389558Y-43680518D01*
X72455740Y-43674000D01*
X72544260Y-43674000D01*
X72610442Y-43680518D01*
X72610442Y-43680518D01*
G37*
G36*
X103610443Y-42725519D02*
X103676627Y-42732037D01*
X103789853Y-42766384D01*
X103846467Y-42783557D01*
X103985087Y-42857652D01*
X104002991Y-42867222D01*
X104008134Y-42871443D01*
X104140186Y-42979814D01*
X104223448Y-43081271D01*
X104252778Y-43117009D01*
X104258556Y-43127818D01*
X104336443Y-43273533D01*
X104336443Y-43273534D01*
X104387963Y-43443373D01*
X104405359Y-43620000D01*
X104387963Y-43796627D01*
X104353616Y-43909853D01*
X104336443Y-43966467D01*
X104280029Y-44072009D01*
X104252778Y-44122991D01*
X104223448Y-44158729D01*
X104140186Y-44260186D01*
X104038729Y-44343448D01*
X104002991Y-44372778D01*
X104002989Y-44372779D01*
X103846467Y-44456443D01*
X103789853Y-44473616D01*
X103676627Y-44507963D01*
X103610443Y-44514481D01*
X103544260Y-44521000D01*
X103455740Y-44521000D01*
X103389557Y-44514481D01*
X103323373Y-44507963D01*
X103210147Y-44473616D01*
X103153533Y-44456443D01*
X102997011Y-44372779D01*
X102997009Y-44372778D01*
X102961271Y-44343448D01*
X102859814Y-44260186D01*
X102776552Y-44158729D01*
X102747222Y-44122991D01*
X102719971Y-44072009D01*
X102663557Y-43966467D01*
X102646384Y-43909853D01*
X102612037Y-43796627D01*
X102594641Y-43620000D01*
X102612037Y-43443373D01*
X102663557Y-43273534D01*
X102663557Y-43273533D01*
X102741444Y-43127818D01*
X102747222Y-43117009D01*
X102776552Y-43081271D01*
X102859814Y-42979814D01*
X102991866Y-42871443D01*
X102997009Y-42867222D01*
X103014913Y-42857652D01*
X103153533Y-42783557D01*
X103210147Y-42766384D01*
X103323373Y-42732037D01*
X103389557Y-42725519D01*
X103455740Y-42719000D01*
X103544260Y-42719000D01*
X103610443Y-42725519D01*
X103610443Y-42725519D01*
G37*
G36*
X53051000Y-44186000D02*
X50449000Y-44186000D01*
X50449000Y-42384000D01*
X53051000Y-42384000D01*
X53051000Y-44186000D01*
X53051000Y-44186000D01*
G37*
G36*
X100267818Y-42417696D02*
X100381105Y-42452062D01*
X100485513Y-42507869D01*
X100577027Y-42582973D01*
X100652131Y-42674487D01*
X100707938Y-42778895D01*
X100742304Y-42892182D01*
X100753907Y-43010000D01*
X100742304Y-43127818D01*
X100707938Y-43241105D01*
X100652131Y-43345513D01*
X100577027Y-43437027D01*
X100485513Y-43512131D01*
X100381105Y-43567938D01*
X100267818Y-43602304D01*
X100179519Y-43611000D01*
X98820481Y-43611000D01*
X98732182Y-43602304D01*
X98618895Y-43567938D01*
X98514487Y-43512131D01*
X98422973Y-43437027D01*
X98347869Y-43345513D01*
X98292062Y-43241105D01*
X98257696Y-43127818D01*
X98246093Y-43010000D01*
X98257696Y-42892182D01*
X98292062Y-42778895D01*
X98347869Y-42674487D01*
X98422973Y-42582973D01*
X98514487Y-42507869D01*
X98618895Y-42452062D01*
X98732182Y-42417696D01*
X98820481Y-42409000D01*
X100179519Y-42409000D01*
X100267818Y-42417696D01*
X100267818Y-42417696D01*
G37*
G36*
X72610443Y-41140519D02*
X72676627Y-41147037D01*
X72789853Y-41181384D01*
X72846467Y-41198557D01*
X72985087Y-41272652D01*
X73002991Y-41282222D01*
X73038729Y-41311552D01*
X73140186Y-41394814D01*
X73223448Y-41496271D01*
X73252778Y-41532009D01*
X73252779Y-41532011D01*
X73336443Y-41688533D01*
X73336443Y-41688534D01*
X73387963Y-41858373D01*
X73405359Y-42035000D01*
X73387963Y-42211627D01*
X73353616Y-42324853D01*
X73336443Y-42381467D01*
X73298708Y-42452063D01*
X73252778Y-42537991D01*
X73223448Y-42573729D01*
X73140186Y-42675186D01*
X73038729Y-42758448D01*
X73002991Y-42787778D01*
X73002989Y-42787779D01*
X72846467Y-42871443D01*
X72789853Y-42888616D01*
X72676627Y-42922963D01*
X72610443Y-42929481D01*
X72544260Y-42936000D01*
X72455740Y-42936000D01*
X72389557Y-42929481D01*
X72323373Y-42922963D01*
X72210147Y-42888616D01*
X72153533Y-42871443D01*
X71997011Y-42787779D01*
X71997009Y-42787778D01*
X71961271Y-42758448D01*
X71859814Y-42675186D01*
X71776552Y-42573729D01*
X71747222Y-42537991D01*
X71701292Y-42452063D01*
X71663557Y-42381467D01*
X71646384Y-42324853D01*
X71612037Y-42211627D01*
X71594641Y-42035000D01*
X71612037Y-41858373D01*
X71663557Y-41688534D01*
X71663557Y-41688533D01*
X71747221Y-41532011D01*
X71747222Y-41532009D01*
X71776552Y-41496271D01*
X71859814Y-41394814D01*
X71961271Y-41311552D01*
X71997009Y-41282222D01*
X72014913Y-41272652D01*
X72153533Y-41198557D01*
X72210147Y-41181384D01*
X72323373Y-41147037D01*
X72389557Y-41140519D01*
X72455740Y-41134000D01*
X72544260Y-41134000D01*
X72610443Y-41140519D01*
X72610443Y-41140519D01*
G37*
G36*
X103610442Y-40185518D02*
X103676627Y-40192037D01*
X103789853Y-40226384D01*
X103846467Y-40243557D01*
X103985087Y-40317652D01*
X104002991Y-40327222D01*
X104008134Y-40331443D01*
X104140186Y-40439814D01*
X104196036Y-40507869D01*
X104252778Y-40577009D01*
X104252779Y-40577011D01*
X104336443Y-40733533D01*
X104336443Y-40733534D01*
X104387963Y-40903373D01*
X104405359Y-41080000D01*
X104387963Y-41256627D01*
X104361000Y-41345513D01*
X104336443Y-41426467D01*
X104330798Y-41437027D01*
X104252778Y-41582991D01*
X104236929Y-41602303D01*
X104140186Y-41720186D01*
X104038729Y-41803448D01*
X104002991Y-41832778D01*
X104002989Y-41832779D01*
X103846467Y-41916443D01*
X103789853Y-41933616D01*
X103676627Y-41967963D01*
X103610443Y-41974481D01*
X103544260Y-41981000D01*
X103455740Y-41981000D01*
X103389557Y-41974481D01*
X103323373Y-41967963D01*
X103210147Y-41933616D01*
X103153533Y-41916443D01*
X102997011Y-41832779D01*
X102997009Y-41832778D01*
X102961271Y-41803448D01*
X102859814Y-41720186D01*
X102763071Y-41602303D01*
X102747222Y-41582991D01*
X102669202Y-41437027D01*
X102663557Y-41426467D01*
X102639000Y-41345513D01*
X102612037Y-41256627D01*
X102594641Y-41080000D01*
X102612037Y-40903373D01*
X102663557Y-40733534D01*
X102663557Y-40733533D01*
X102747221Y-40577011D01*
X102747222Y-40577009D01*
X102803964Y-40507869D01*
X102859814Y-40439814D01*
X102991866Y-40331443D01*
X102997009Y-40327222D01*
X103014913Y-40317652D01*
X103153533Y-40243557D01*
X103210147Y-40226384D01*
X103323373Y-40192037D01*
X103389558Y-40185518D01*
X103455740Y-40179000D01*
X103544260Y-40179000D01*
X103610442Y-40185518D01*
X103610442Y-40185518D01*
G37*
G36*
X53051000Y-41646000D02*
X50449000Y-41646000D01*
X50449000Y-39844000D01*
X53051000Y-39844000D01*
X53051000Y-41646000D01*
X53051000Y-41646000D01*
G37*
G36*
X100267818Y-40417696D02*
X100381105Y-40452062D01*
X100485513Y-40507869D01*
X100577027Y-40582973D01*
X100652131Y-40674487D01*
X100707938Y-40778895D01*
X100742304Y-40892182D01*
X100753907Y-41010000D01*
X100742304Y-41127818D01*
X100707938Y-41241105D01*
X100652131Y-41345513D01*
X100577027Y-41437027D01*
X100485513Y-41512131D01*
X100381105Y-41567938D01*
X100267818Y-41602304D01*
X100179519Y-41611000D01*
X98820481Y-41611000D01*
X98732182Y-41602304D01*
X98618895Y-41567938D01*
X98514487Y-41512131D01*
X98422973Y-41437027D01*
X98347869Y-41345513D01*
X98292062Y-41241105D01*
X98257696Y-41127818D01*
X98246093Y-41010000D01*
X98257696Y-40892182D01*
X98292062Y-40778895D01*
X98347869Y-40674487D01*
X98422973Y-40582973D01*
X98514487Y-40507869D01*
X98618895Y-40452062D01*
X98732182Y-40417696D01*
X98820481Y-40409000D01*
X100179519Y-40409000D01*
X100267818Y-40417696D01*
X100267818Y-40417696D01*
G37*
G36*
X72610442Y-38600518D02*
X72676627Y-38607037D01*
X72789853Y-38641384D01*
X72846467Y-38658557D01*
X72985087Y-38732652D01*
X73002991Y-38742222D01*
X73038729Y-38771552D01*
X73140186Y-38854814D01*
X73223448Y-38956271D01*
X73252778Y-38992009D01*
X73252779Y-38992011D01*
X73336443Y-39148533D01*
X73336443Y-39148534D01*
X73387963Y-39318373D01*
X73405359Y-39495000D01*
X73387963Y-39671627D01*
X73353616Y-39784853D01*
X73336443Y-39841467D01*
X73289021Y-39930186D01*
X73252778Y-39997991D01*
X73223448Y-40033729D01*
X73140186Y-40135186D01*
X73038729Y-40218448D01*
X73002991Y-40247778D01*
X73002989Y-40247779D01*
X72846467Y-40331443D01*
X72789853Y-40348616D01*
X72676627Y-40382963D01*
X72610442Y-40389482D01*
X72544260Y-40396000D01*
X72455740Y-40396000D01*
X72389558Y-40389482D01*
X72323373Y-40382963D01*
X72210147Y-40348616D01*
X72153533Y-40331443D01*
X71997011Y-40247779D01*
X71997009Y-40247778D01*
X71961271Y-40218448D01*
X71859814Y-40135186D01*
X71776552Y-40033729D01*
X71747222Y-39997991D01*
X71710979Y-39930186D01*
X71663557Y-39841467D01*
X71646384Y-39784853D01*
X71612037Y-39671627D01*
X71594641Y-39495000D01*
X71612037Y-39318373D01*
X71663557Y-39148534D01*
X71663557Y-39148533D01*
X71747221Y-38992011D01*
X71747222Y-38992009D01*
X71776552Y-38956271D01*
X71859814Y-38854814D01*
X71961271Y-38771552D01*
X71997009Y-38742222D01*
X72014913Y-38732652D01*
X72153533Y-38658557D01*
X72210147Y-38641384D01*
X72323373Y-38607037D01*
X72389558Y-38600518D01*
X72455740Y-38594000D01*
X72544260Y-38594000D01*
X72610442Y-38600518D01*
X72610442Y-38600518D01*
G37*
G36*
X67360442Y-38395518D02*
X67426627Y-38402037D01*
X67539853Y-38436384D01*
X67596467Y-38453557D01*
X67698076Y-38507869D01*
X67752991Y-38537222D01*
X67788729Y-38566552D01*
X67890186Y-38649814D01*
X67945017Y-38716627D01*
X68002778Y-38787009D01*
X68002779Y-38787011D01*
X68086443Y-38943533D01*
X68086443Y-38943534D01*
X68137963Y-39113373D01*
X68155359Y-39290000D01*
X68137963Y-39466627D01*
X68107231Y-39567937D01*
X68086443Y-39636467D01*
X68067650Y-39671625D01*
X68002778Y-39792991D01*
X67973448Y-39828729D01*
X67890186Y-39930186D01*
X67807564Y-39997991D01*
X67752991Y-40042778D01*
X67752989Y-40042779D01*
X67596467Y-40126443D01*
X67539853Y-40143616D01*
X67426627Y-40177963D01*
X67360443Y-40184481D01*
X67294260Y-40191000D01*
X67205740Y-40191000D01*
X67139557Y-40184481D01*
X67073373Y-40177963D01*
X66960147Y-40143616D01*
X66903533Y-40126443D01*
X66747011Y-40042779D01*
X66747009Y-40042778D01*
X66692436Y-39997991D01*
X66609814Y-39930186D01*
X66526552Y-39828729D01*
X66497222Y-39792991D01*
X66432350Y-39671625D01*
X66413557Y-39636467D01*
X66392769Y-39567937D01*
X66362037Y-39466627D01*
X66344641Y-39290000D01*
X66362037Y-39113373D01*
X66413557Y-38943534D01*
X66413557Y-38943533D01*
X66497221Y-38787011D01*
X66497222Y-38787009D01*
X66554983Y-38716627D01*
X66609814Y-38649814D01*
X66711271Y-38566552D01*
X66747009Y-38537222D01*
X66801924Y-38507869D01*
X66903533Y-38453557D01*
X66960147Y-38436384D01*
X67073373Y-38402037D01*
X67139558Y-38395518D01*
X67205740Y-38389000D01*
X67294260Y-38389000D01*
X67360442Y-38395518D01*
X67360442Y-38395518D01*
G37*
G36*
X100267818Y-38417696D02*
X100381105Y-38452062D01*
X100485513Y-38507869D01*
X100577027Y-38582973D01*
X100652131Y-38674487D01*
X100707938Y-38778895D01*
X100742304Y-38892182D01*
X100753907Y-39010000D01*
X100742304Y-39127818D01*
X100707938Y-39241105D01*
X100652131Y-39345513D01*
X100577027Y-39437027D01*
X100485513Y-39512131D01*
X100381105Y-39567938D01*
X100267818Y-39602304D01*
X100179519Y-39611000D01*
X98820481Y-39611000D01*
X98732182Y-39602304D01*
X98618895Y-39567938D01*
X98514487Y-39512131D01*
X98422973Y-39437027D01*
X98347869Y-39345513D01*
X98292062Y-39241105D01*
X98257696Y-39127818D01*
X98246093Y-39010000D01*
X98257696Y-38892182D01*
X98292062Y-38778895D01*
X98347869Y-38674487D01*
X98422973Y-38582973D01*
X98514487Y-38507869D01*
X98618895Y-38452062D01*
X98732182Y-38417696D01*
X98820481Y-38409000D01*
X100179519Y-38409000D01*
X100267818Y-38417696D01*
X100267818Y-38417696D01*
G37*
G36*
X103610443Y-37645519D02*
X103676627Y-37652037D01*
X103789853Y-37686384D01*
X103846467Y-37703557D01*
X103985087Y-37777652D01*
X104002991Y-37787222D01*
X104008134Y-37791443D01*
X104140186Y-37899814D01*
X104223448Y-38001271D01*
X104252778Y-38037009D01*
X104252779Y-38037011D01*
X104336443Y-38193533D01*
X104336443Y-38193534D01*
X104387963Y-38363373D01*
X104405359Y-38540000D01*
X104387963Y-38716627D01*
X104369074Y-38778895D01*
X104336443Y-38886467D01*
X104280029Y-38992009D01*
X104252778Y-39042991D01*
X104223448Y-39078729D01*
X104140186Y-39180186D01*
X104038729Y-39263448D01*
X104002991Y-39292778D01*
X104002989Y-39292779D01*
X103846467Y-39376443D01*
X103789853Y-39393616D01*
X103676627Y-39427963D01*
X103610442Y-39434482D01*
X103544260Y-39441000D01*
X103455740Y-39441000D01*
X103389558Y-39434482D01*
X103323373Y-39427963D01*
X103210147Y-39393616D01*
X103153533Y-39376443D01*
X102997011Y-39292779D01*
X102997009Y-39292778D01*
X102961271Y-39263448D01*
X102859814Y-39180186D01*
X102776552Y-39078729D01*
X102747222Y-39042991D01*
X102719971Y-38992009D01*
X102663557Y-38886467D01*
X102630926Y-38778895D01*
X102612037Y-38716627D01*
X102594641Y-38540000D01*
X102612037Y-38363373D01*
X102663557Y-38193534D01*
X102663557Y-38193533D01*
X102747221Y-38037011D01*
X102747222Y-38037009D01*
X102776552Y-38001271D01*
X102859814Y-37899814D01*
X102991866Y-37791443D01*
X102997009Y-37787222D01*
X103014913Y-37777652D01*
X103153533Y-37703557D01*
X103210147Y-37686384D01*
X103323373Y-37652037D01*
X103389557Y-37645519D01*
X103455740Y-37639000D01*
X103544260Y-37639000D01*
X103610443Y-37645519D01*
X103610443Y-37645519D01*
G37*
G36*
X53051000Y-39106000D02*
X50449000Y-39106000D01*
X50449000Y-37304000D01*
X53051000Y-37304000D01*
X53051000Y-39106000D01*
X53051000Y-39106000D01*
G37*
G36*
X72610442Y-36060518D02*
X72676627Y-36067037D01*
X72789853Y-36101384D01*
X72846467Y-36118557D01*
X72985087Y-36192652D01*
X73002991Y-36202222D01*
X73038729Y-36231552D01*
X73140186Y-36314814D01*
X73217481Y-36409000D01*
X73252778Y-36452009D01*
X73252779Y-36452011D01*
X73336443Y-36608533D01*
X73336443Y-36608534D01*
X73387963Y-36778373D01*
X73405359Y-36955000D01*
X73387963Y-37131627D01*
X73354753Y-37241105D01*
X73336443Y-37301467D01*
X73263984Y-37437027D01*
X73252778Y-37457991D01*
X73223448Y-37493729D01*
X73140186Y-37595186D01*
X73038729Y-37678448D01*
X73002991Y-37707778D01*
X73002989Y-37707779D01*
X72846467Y-37791443D01*
X72789853Y-37808616D01*
X72676627Y-37842963D01*
X72610443Y-37849481D01*
X72544260Y-37856000D01*
X72455740Y-37856000D01*
X72389557Y-37849481D01*
X72323373Y-37842963D01*
X72210147Y-37808616D01*
X72153533Y-37791443D01*
X71997011Y-37707779D01*
X71997009Y-37707778D01*
X71961271Y-37678448D01*
X71859814Y-37595186D01*
X71776552Y-37493729D01*
X71747222Y-37457991D01*
X71736016Y-37437027D01*
X71663557Y-37301467D01*
X71645247Y-37241105D01*
X71612037Y-37131627D01*
X71594641Y-36955000D01*
X71612037Y-36778373D01*
X71663557Y-36608534D01*
X71663557Y-36608533D01*
X71747221Y-36452011D01*
X71747222Y-36452009D01*
X71782519Y-36409000D01*
X71859814Y-36314814D01*
X71961271Y-36231552D01*
X71997009Y-36202222D01*
X72014913Y-36192652D01*
X72153533Y-36118557D01*
X72210147Y-36101384D01*
X72323373Y-36067037D01*
X72389558Y-36060518D01*
X72455740Y-36054000D01*
X72544260Y-36054000D01*
X72610442Y-36060518D01*
X72610442Y-36060518D01*
G37*
G36*
X68151000Y-37651000D02*
X66349000Y-37651000D01*
X66349000Y-35849000D01*
X68151000Y-35849000D01*
X68151000Y-37651000D01*
X68151000Y-37651000D01*
G37*
G36*
X100267818Y-36417696D02*
X100381105Y-36452062D01*
X100485513Y-36507869D01*
X100577027Y-36582973D01*
X100652131Y-36674487D01*
X100707938Y-36778895D01*
X100742304Y-36892182D01*
X100753907Y-37010000D01*
X100742304Y-37127818D01*
X100707938Y-37241105D01*
X100652131Y-37345513D01*
X100577027Y-37437027D01*
X100485513Y-37512131D01*
X100381105Y-37567938D01*
X100267818Y-37602304D01*
X100179519Y-37611000D01*
X98820481Y-37611000D01*
X98732182Y-37602304D01*
X98618895Y-37567938D01*
X98514487Y-37512131D01*
X98422973Y-37437027D01*
X98347869Y-37345513D01*
X98292062Y-37241105D01*
X98257696Y-37127818D01*
X98246093Y-37010000D01*
X98257696Y-36892182D01*
X98292062Y-36778895D01*
X98347869Y-36674487D01*
X98422973Y-36582973D01*
X98514487Y-36507869D01*
X98618895Y-36452062D01*
X98732182Y-36417696D01*
X98820481Y-36409000D01*
X100179519Y-36409000D01*
X100267818Y-36417696D01*
X100267818Y-36417696D01*
G37*
G36*
X104401000Y-36901000D02*
X102599000Y-36901000D01*
X102599000Y-35099000D01*
X104401000Y-35099000D01*
X104401000Y-36901000D01*
X104401000Y-36901000D01*
G37*
G36*
X53051000Y-36566000D02*
X50449000Y-36566000D01*
X50449000Y-34764000D01*
X53051000Y-34764000D01*
X53051000Y-36566000D01*
X53051000Y-36566000D01*
G37*
G36*
X95867817Y-33107696D02*
X95981104Y-33142062D01*
X96085512Y-33197869D01*
X96123101Y-33228718D01*
X96177027Y-33272973D01*
X96240711Y-33350572D01*
X96252131Y-33364488D01*
X96307938Y-33468895D01*
X96342304Y-33582182D01*
X96351000Y-33670481D01*
X96351000Y-35129519D01*
X96342304Y-35217818D01*
X96307938Y-35331105D01*
X96252131Y-35435513D01*
X96177027Y-35527027D01*
X96085513Y-35602131D01*
X95981105Y-35657938D01*
X95867818Y-35692304D01*
X95750000Y-35703907D01*
X95632183Y-35692304D01*
X95518896Y-35657938D01*
X95414488Y-35602131D01*
X95322974Y-35527027D01*
X95247870Y-35435513D01*
X95192063Y-35331105D01*
X95157697Y-35217818D01*
X95149001Y-35129519D01*
X95149000Y-33670482D01*
X95157696Y-33582183D01*
X95192062Y-33468896D01*
X95247869Y-33364488D01*
X95291501Y-33311323D01*
X95322973Y-33272973D01*
X95414487Y-33197870D01*
X95414486Y-33197870D01*
X95414488Y-33197869D01*
X95518895Y-33142062D01*
X95632182Y-33107696D01*
X95750000Y-33096093D01*
X95867817Y-33107696D01*
X95867817Y-33107696D01*
G37*
G36*
X93867817Y-33007696D02*
X93981104Y-33042062D01*
X94085512Y-33097869D01*
X94135776Y-33139120D01*
X94177027Y-33172973D01*
X94222775Y-33228718D01*
X94252131Y-33264488D01*
X94307938Y-33368895D01*
X94342304Y-33482182D01*
X94351000Y-33570481D01*
X94351000Y-35029519D01*
X94342304Y-35117818D01*
X94307938Y-35231105D01*
X94252131Y-35335513D01*
X94177027Y-35427027D01*
X94085513Y-35502131D01*
X93981105Y-35557938D01*
X93867818Y-35592304D01*
X93750000Y-35603907D01*
X93632183Y-35592304D01*
X93518896Y-35557938D01*
X93414488Y-35502131D01*
X93322974Y-35427027D01*
X93247870Y-35335513D01*
X93192063Y-35231105D01*
X93157697Y-35117818D01*
X93149001Y-35029519D01*
X93149000Y-33570482D01*
X93157696Y-33482183D01*
X93192062Y-33368896D01*
X93247869Y-33264488D01*
X93314362Y-33183466D01*
X93322973Y-33172973D01*
X93414487Y-33097870D01*
X93414486Y-33097870D01*
X93414488Y-33097869D01*
X93518895Y-33042062D01*
X93632182Y-33007696D01*
X93750000Y-32996093D01*
X93867817Y-33007696D01*
X93867817Y-33007696D01*
G37*
G36*
X97867817Y-33007696D02*
X97981104Y-33042062D01*
X98085512Y-33097869D01*
X98135776Y-33139120D01*
X98177027Y-33172973D01*
X98222775Y-33228718D01*
X98252131Y-33264488D01*
X98307938Y-33368895D01*
X98342304Y-33482182D01*
X98351000Y-33570481D01*
X98351000Y-35029519D01*
X98342304Y-35117818D01*
X98307938Y-35231105D01*
X98252131Y-35335513D01*
X98177027Y-35427027D01*
X98085513Y-35502131D01*
X97981105Y-35557938D01*
X97867818Y-35592304D01*
X97750000Y-35603907D01*
X97632183Y-35592304D01*
X97518896Y-35557938D01*
X97414488Y-35502131D01*
X97322974Y-35427027D01*
X97247870Y-35335513D01*
X97192063Y-35231105D01*
X97157697Y-35117818D01*
X97149001Y-35029519D01*
X97149000Y-33570482D01*
X97157696Y-33482183D01*
X97192062Y-33368896D01*
X97247869Y-33264488D01*
X97314362Y-33183466D01*
X97322973Y-33172973D01*
X97414487Y-33097870D01*
X97414486Y-33097870D01*
X97414488Y-33097869D01*
X97518895Y-33042062D01*
X97632182Y-33007696D01*
X97750000Y-32996093D01*
X97867817Y-33007696D01*
X97867817Y-33007696D01*
G37*
G36*
X89867817Y-33007696D02*
X89981104Y-33042062D01*
X90085512Y-33097869D01*
X90135776Y-33139120D01*
X90177027Y-33172973D01*
X90222775Y-33228718D01*
X90252131Y-33264488D01*
X90307938Y-33368895D01*
X90342304Y-33482182D01*
X90351000Y-33570481D01*
X90351000Y-35029519D01*
X90342304Y-35117818D01*
X90307938Y-35231105D01*
X90252131Y-35335513D01*
X90177027Y-35427027D01*
X90085513Y-35502131D01*
X89981105Y-35557938D01*
X89867818Y-35592304D01*
X89750000Y-35603907D01*
X89632183Y-35592304D01*
X89518896Y-35557938D01*
X89414488Y-35502131D01*
X89322974Y-35427027D01*
X89247870Y-35335513D01*
X89192063Y-35231105D01*
X89157697Y-35117818D01*
X89149001Y-35029519D01*
X89149000Y-33570482D01*
X89157696Y-33482183D01*
X89192062Y-33368896D01*
X89247869Y-33264488D01*
X89314362Y-33183466D01*
X89322973Y-33172973D01*
X89414487Y-33097870D01*
X89414486Y-33097870D01*
X89414488Y-33097869D01*
X89518895Y-33042062D01*
X89632182Y-33007696D01*
X89750000Y-32996093D01*
X89867817Y-33007696D01*
X89867817Y-33007696D01*
G37*
G36*
X87867817Y-33007696D02*
X87981104Y-33042062D01*
X88085512Y-33097869D01*
X88135776Y-33139120D01*
X88177027Y-33172973D01*
X88222775Y-33228718D01*
X88252131Y-33264488D01*
X88307938Y-33368895D01*
X88342304Y-33482182D01*
X88351000Y-33570481D01*
X88351000Y-35029519D01*
X88342304Y-35117818D01*
X88307938Y-35231105D01*
X88252131Y-35335513D01*
X88177027Y-35427027D01*
X88085513Y-35502131D01*
X87981105Y-35557938D01*
X87867818Y-35592304D01*
X87750000Y-35603907D01*
X87632183Y-35592304D01*
X87518896Y-35557938D01*
X87414488Y-35502131D01*
X87322974Y-35427027D01*
X87247870Y-35335513D01*
X87192063Y-35231105D01*
X87157697Y-35117818D01*
X87149001Y-35029519D01*
X87149000Y-33570482D01*
X87157696Y-33482183D01*
X87192062Y-33368896D01*
X87247869Y-33264488D01*
X87314362Y-33183466D01*
X87322973Y-33172973D01*
X87414487Y-33097870D01*
X87414486Y-33097870D01*
X87414488Y-33097869D01*
X87518895Y-33042062D01*
X87632182Y-33007696D01*
X87750000Y-32996093D01*
X87867817Y-33007696D01*
X87867817Y-33007696D01*
G37*
G36*
X85867817Y-33007696D02*
X85981104Y-33042062D01*
X86085512Y-33097869D01*
X86135776Y-33139120D01*
X86177027Y-33172973D01*
X86222775Y-33228718D01*
X86252131Y-33264488D01*
X86307938Y-33368895D01*
X86342304Y-33482182D01*
X86351000Y-33570481D01*
X86351000Y-35029519D01*
X86342304Y-35117818D01*
X86307938Y-35231105D01*
X86252131Y-35335513D01*
X86177027Y-35427027D01*
X86085513Y-35502131D01*
X85981105Y-35557938D01*
X85867818Y-35592304D01*
X85750000Y-35603907D01*
X85632183Y-35592304D01*
X85518896Y-35557938D01*
X85414488Y-35502131D01*
X85322974Y-35427027D01*
X85247870Y-35335513D01*
X85192063Y-35231105D01*
X85157697Y-35117818D01*
X85149001Y-35029519D01*
X85149000Y-33570482D01*
X85157696Y-33482183D01*
X85192062Y-33368896D01*
X85247869Y-33264488D01*
X85314362Y-33183466D01*
X85322973Y-33172973D01*
X85414487Y-33097870D01*
X85414486Y-33097870D01*
X85414488Y-33097869D01*
X85518895Y-33042062D01*
X85632182Y-33007696D01*
X85750000Y-32996093D01*
X85867817Y-33007696D01*
X85867817Y-33007696D01*
G37*
G36*
X83867817Y-33007696D02*
X83981104Y-33042062D01*
X84085512Y-33097869D01*
X84135776Y-33139120D01*
X84177027Y-33172973D01*
X84222775Y-33228718D01*
X84252131Y-33264488D01*
X84307938Y-33368895D01*
X84342304Y-33482182D01*
X84351000Y-33570481D01*
X84351000Y-35029519D01*
X84342304Y-35117818D01*
X84307938Y-35231105D01*
X84252131Y-35335513D01*
X84177027Y-35427027D01*
X84085513Y-35502131D01*
X83981105Y-35557938D01*
X83867818Y-35592304D01*
X83750000Y-35603907D01*
X83632183Y-35592304D01*
X83518896Y-35557938D01*
X83414488Y-35502131D01*
X83322974Y-35427027D01*
X83247870Y-35335513D01*
X83192063Y-35231105D01*
X83157697Y-35117818D01*
X83149001Y-35029519D01*
X83149000Y-33570482D01*
X83157696Y-33482183D01*
X83192062Y-33368896D01*
X83247869Y-33264488D01*
X83314362Y-33183466D01*
X83322973Y-33172973D01*
X83414487Y-33097870D01*
X83414486Y-33097870D01*
X83414488Y-33097869D01*
X83518895Y-33042062D01*
X83632182Y-33007696D01*
X83750000Y-32996093D01*
X83867817Y-33007696D01*
X83867817Y-33007696D01*
G37*
G36*
X91867817Y-33007696D02*
X91981104Y-33042062D01*
X92085512Y-33097869D01*
X92135776Y-33139120D01*
X92177027Y-33172973D01*
X92222775Y-33228718D01*
X92252131Y-33264488D01*
X92307938Y-33368895D01*
X92342304Y-33482182D01*
X92351000Y-33570481D01*
X92351000Y-35029519D01*
X92342304Y-35117818D01*
X92307938Y-35231105D01*
X92252131Y-35335513D01*
X92177027Y-35427027D01*
X92085513Y-35502131D01*
X91981105Y-35557938D01*
X91867818Y-35592304D01*
X91750000Y-35603907D01*
X91632183Y-35592304D01*
X91518896Y-35557938D01*
X91414488Y-35502131D01*
X91322974Y-35427027D01*
X91247870Y-35335513D01*
X91192063Y-35231105D01*
X91157697Y-35117818D01*
X91149001Y-35029519D01*
X91149000Y-33570482D01*
X91157696Y-33482183D01*
X91192062Y-33368896D01*
X91247869Y-33264488D01*
X91314362Y-33183466D01*
X91322973Y-33172973D01*
X91414487Y-33097870D01*
X91414486Y-33097870D01*
X91414488Y-33097869D01*
X91518895Y-33042062D01*
X91632182Y-33007696D01*
X91750000Y-32996093D01*
X91867817Y-33007696D01*
X91867817Y-33007696D01*
G37*
G36*
X72610442Y-33520518D02*
X72676627Y-33527037D01*
X72789853Y-33561384D01*
X72846467Y-33578557D01*
X72985087Y-33652652D01*
X73002991Y-33662222D01*
X73038729Y-33691552D01*
X73140186Y-33774814D01*
X73223448Y-33876271D01*
X73252778Y-33912009D01*
X73252779Y-33912011D01*
X73336443Y-34068533D01*
X73336443Y-34068534D01*
X73387963Y-34238373D01*
X73405359Y-34415000D01*
X73387963Y-34591627D01*
X73353616Y-34704853D01*
X73336443Y-34761467D01*
X73335089Y-34764000D01*
X73252778Y-34917991D01*
X73223448Y-34953729D01*
X73140186Y-35055186D01*
X73038729Y-35138448D01*
X73002991Y-35167778D01*
X73002989Y-35167779D01*
X72846467Y-35251443D01*
X72789853Y-35268616D01*
X72676627Y-35302963D01*
X72610442Y-35309482D01*
X72544260Y-35316000D01*
X72455740Y-35316000D01*
X72389558Y-35309482D01*
X72323373Y-35302963D01*
X72210147Y-35268616D01*
X72153533Y-35251443D01*
X71997011Y-35167779D01*
X71997009Y-35167778D01*
X71961271Y-35138448D01*
X71859814Y-35055186D01*
X71776552Y-34953729D01*
X71747222Y-34917991D01*
X71664911Y-34764000D01*
X71663557Y-34761467D01*
X71646384Y-34704853D01*
X71612037Y-34591627D01*
X71594641Y-34415000D01*
X71612037Y-34238373D01*
X71663557Y-34068534D01*
X71663557Y-34068533D01*
X71747221Y-33912011D01*
X71747222Y-33912009D01*
X71776552Y-33876271D01*
X71859814Y-33774814D01*
X71961271Y-33691552D01*
X71997009Y-33662222D01*
X72014913Y-33652652D01*
X72153533Y-33578557D01*
X72210147Y-33561384D01*
X72323373Y-33527037D01*
X72389558Y-33520518D01*
X72455740Y-33514000D01*
X72544260Y-33514000D01*
X72610442Y-33520518D01*
X72610442Y-33520518D01*
G37*
G36*
X62088677Y-33153465D02*
X62126364Y-33164898D01*
X62161103Y-33183466D01*
X62191548Y-33208452D01*
X62216534Y-33238897D01*
X62235102Y-33273636D01*
X62246535Y-33311323D01*
X62251000Y-33356661D01*
X62251000Y-34193339D01*
X62246535Y-34238677D01*
X62235102Y-34276364D01*
X62216534Y-34311103D01*
X62191548Y-34341548D01*
X62161103Y-34366534D01*
X62126364Y-34385102D01*
X62088677Y-34396535D01*
X62043339Y-34401000D01*
X60956661Y-34401000D01*
X60911323Y-34396535D01*
X60873636Y-34385102D01*
X60838897Y-34366534D01*
X60808452Y-34341548D01*
X60783466Y-34311103D01*
X60764898Y-34276364D01*
X60753465Y-34238677D01*
X60749000Y-34193339D01*
X60749000Y-33356661D01*
X60753465Y-33311323D01*
X60764898Y-33273636D01*
X60783466Y-33238897D01*
X60808452Y-33208452D01*
X60838897Y-33183466D01*
X60873636Y-33164898D01*
X60911323Y-33153465D01*
X60956661Y-33149000D01*
X62043339Y-33149000D01*
X62088677Y-33153465D01*
X62088677Y-33153465D01*
G37*
G36*
X65751000Y-33901000D02*
X63749000Y-33901000D01*
X63749000Y-32999000D01*
X65751000Y-32999000D01*
X65751000Y-33901000D01*
X65751000Y-33901000D01*
G37*
G36*
X68751000Y-32951000D02*
X66749000Y-32951000D01*
X66749000Y-32049000D01*
X68751000Y-32049000D01*
X68751000Y-32951000D01*
X68751000Y-32951000D01*
G37*
G36*
X73401000Y-32776000D02*
X71599000Y-32776000D01*
X71599000Y-30974000D01*
X73401000Y-30974000D01*
X73401000Y-32776000D01*
X73401000Y-32776000D01*
G37*
G36*
X103747466Y-31253565D02*
X103786137Y-31265296D01*
X103821779Y-31284348D01*
X103853017Y-31309983D01*
X103878652Y-31341221D01*
X103897704Y-31376863D01*
X103909435Y-31415534D01*
X103914000Y-31461888D01*
X103914000Y-32538112D01*
X103909435Y-32584466D01*
X103897704Y-32623137D01*
X103878652Y-32658779D01*
X103853017Y-32690017D01*
X103821779Y-32715652D01*
X103786137Y-32734704D01*
X103747466Y-32746435D01*
X103701112Y-32751000D01*
X103049888Y-32751000D01*
X103003534Y-32746435D01*
X102964863Y-32734704D01*
X102929221Y-32715652D01*
X102897983Y-32690017D01*
X102872348Y-32658779D01*
X102853296Y-32623137D01*
X102841565Y-32584466D01*
X102837000Y-32538112D01*
X102837000Y-31461888D01*
X102841565Y-31415534D01*
X102853296Y-31376863D01*
X102872348Y-31341221D01*
X102897983Y-31309983D01*
X102929221Y-31284348D01*
X102964863Y-31265296D01*
X103003534Y-31253565D01*
X103049888Y-31249000D01*
X103701112Y-31249000D01*
X103747466Y-31253565D01*
X103747466Y-31253565D01*
G37*
G36*
X101872466Y-31253565D02*
X101911137Y-31265296D01*
X101946779Y-31284348D01*
X101978017Y-31309983D01*
X102003652Y-31341221D01*
X102022704Y-31376863D01*
X102034435Y-31415534D01*
X102039000Y-31461888D01*
X102039000Y-32538112D01*
X102034435Y-32584466D01*
X102022704Y-32623137D01*
X102003652Y-32658779D01*
X101978017Y-32690017D01*
X101946779Y-32715652D01*
X101911137Y-32734704D01*
X101872466Y-32746435D01*
X101826112Y-32751000D01*
X101174888Y-32751000D01*
X101128534Y-32746435D01*
X101089863Y-32734704D01*
X101054221Y-32715652D01*
X101022983Y-32690017D01*
X100997348Y-32658779D01*
X100978296Y-32623137D01*
X100966565Y-32584466D01*
X100962000Y-32538112D01*
X100962000Y-31461888D01*
X100966565Y-31415534D01*
X100978296Y-31376863D01*
X100997348Y-31341221D01*
X101022983Y-31309983D01*
X101054221Y-31284348D01*
X101089863Y-31265296D01*
X101128534Y-31253565D01*
X101174888Y-31249000D01*
X101826112Y-31249000D01*
X101872466Y-31253565D01*
X101872466Y-31253565D01*
G37*
G36*
X62088677Y-31103465D02*
X62126364Y-31114898D01*
X62161103Y-31133466D01*
X62191548Y-31158452D01*
X62216534Y-31188897D01*
X62235102Y-31223636D01*
X62246535Y-31261323D01*
X62251000Y-31306661D01*
X62251000Y-32143339D01*
X62246535Y-32188677D01*
X62235102Y-32226364D01*
X62216534Y-32261103D01*
X62191548Y-32291548D01*
X62161103Y-32316534D01*
X62126364Y-32335102D01*
X62088677Y-32346535D01*
X62043339Y-32351000D01*
X60956661Y-32351000D01*
X60911323Y-32346535D01*
X60873636Y-32335102D01*
X60838897Y-32316534D01*
X60808452Y-32291548D01*
X60783466Y-32261103D01*
X60764898Y-32226364D01*
X60753465Y-32188677D01*
X60749000Y-32143339D01*
X60749000Y-31306661D01*
X60753465Y-31261323D01*
X60764898Y-31223636D01*
X60783466Y-31188897D01*
X60808452Y-31158452D01*
X60838897Y-31133466D01*
X60873636Y-31114898D01*
X60911323Y-31103465D01*
X60956661Y-31099000D01*
X62043339Y-31099000D01*
X62088677Y-31103465D01*
X62088677Y-31103465D01*
G37*
G36*
X91309466Y-30753565D02*
X91348137Y-30765296D01*
X91383779Y-30784348D01*
X91415017Y-30809983D01*
X91440652Y-30841221D01*
X91459704Y-30876863D01*
X91471435Y-30915534D01*
X91476000Y-30961888D01*
X91476000Y-32038112D01*
X91471435Y-32084466D01*
X91459704Y-32123137D01*
X91440652Y-32158779D01*
X91415017Y-32190017D01*
X91383779Y-32215652D01*
X91348137Y-32234704D01*
X91309466Y-32246435D01*
X91263112Y-32251000D01*
X90611888Y-32251000D01*
X90565534Y-32246435D01*
X90526863Y-32234704D01*
X90491221Y-32215652D01*
X90459983Y-32190017D01*
X90434348Y-32158779D01*
X90415296Y-32123137D01*
X90403565Y-32084466D01*
X90399000Y-32038112D01*
X90399000Y-30961888D01*
X90403565Y-30915534D01*
X90415296Y-30876863D01*
X90434348Y-30841221D01*
X90459983Y-30809983D01*
X90491221Y-30784348D01*
X90526863Y-30765296D01*
X90565534Y-30753565D01*
X90611888Y-30749000D01*
X91263112Y-30749000D01*
X91309466Y-30753565D01*
X91309466Y-30753565D01*
G37*
G36*
X95559466Y-30753565D02*
X95598137Y-30765296D01*
X95633779Y-30784348D01*
X95665017Y-30809983D01*
X95690652Y-30841221D01*
X95709704Y-30876863D01*
X95721435Y-30915534D01*
X95726000Y-30961888D01*
X95726000Y-32038112D01*
X95721435Y-32084466D01*
X95709704Y-32123137D01*
X95690652Y-32158779D01*
X95665017Y-32190017D01*
X95633779Y-32215652D01*
X95598137Y-32234704D01*
X95559466Y-32246435D01*
X95513112Y-32251000D01*
X94861888Y-32251000D01*
X94815534Y-32246435D01*
X94776863Y-32234704D01*
X94741221Y-32215652D01*
X94709983Y-32190017D01*
X94684348Y-32158779D01*
X94665296Y-32123137D01*
X94653565Y-32084466D01*
X94649000Y-32038112D01*
X94649000Y-30961888D01*
X94653565Y-30915534D01*
X94665296Y-30876863D01*
X94684348Y-30841221D01*
X94709983Y-30809983D01*
X94741221Y-30784348D01*
X94776863Y-30765296D01*
X94815534Y-30753565D01*
X94861888Y-30749000D01*
X95513112Y-30749000D01*
X95559466Y-30753565D01*
X95559466Y-30753565D01*
G37*
G36*
X89434466Y-30753565D02*
X89473137Y-30765296D01*
X89508779Y-30784348D01*
X89540017Y-30809983D01*
X89565652Y-30841221D01*
X89584704Y-30876863D01*
X89596435Y-30915534D01*
X89601000Y-30961888D01*
X89601000Y-32038112D01*
X89596435Y-32084466D01*
X89584704Y-32123137D01*
X89565652Y-32158779D01*
X89540017Y-32190017D01*
X89508779Y-32215652D01*
X89473137Y-32234704D01*
X89434466Y-32246435D01*
X89388112Y-32251000D01*
X88736888Y-32251000D01*
X88690534Y-32246435D01*
X88651863Y-32234704D01*
X88616221Y-32215652D01*
X88584983Y-32190017D01*
X88559348Y-32158779D01*
X88540296Y-32123137D01*
X88528565Y-32084466D01*
X88524000Y-32038112D01*
X88524000Y-30961888D01*
X88528565Y-30915534D01*
X88540296Y-30876863D01*
X88559348Y-30841221D01*
X88584983Y-30809983D01*
X88616221Y-30784348D01*
X88651863Y-30765296D01*
X88690534Y-30753565D01*
X88736888Y-30749000D01*
X89388112Y-30749000D01*
X89434466Y-30753565D01*
X89434466Y-30753565D01*
G37*
G36*
X78309466Y-30753565D02*
X78348137Y-30765296D01*
X78383779Y-30784348D01*
X78415017Y-30809983D01*
X78440652Y-30841221D01*
X78459704Y-30876863D01*
X78471435Y-30915534D01*
X78476000Y-30961888D01*
X78476000Y-32038112D01*
X78471435Y-32084466D01*
X78459704Y-32123137D01*
X78440652Y-32158779D01*
X78415017Y-32190017D01*
X78383779Y-32215652D01*
X78348137Y-32234704D01*
X78309466Y-32246435D01*
X78263112Y-32251000D01*
X77611888Y-32251000D01*
X77565534Y-32246435D01*
X77526863Y-32234704D01*
X77491221Y-32215652D01*
X77459983Y-32190017D01*
X77434348Y-32158779D01*
X77415296Y-32123137D01*
X77403565Y-32084466D01*
X77399000Y-32038112D01*
X77399000Y-30961888D01*
X77403565Y-30915534D01*
X77415296Y-30876863D01*
X77434348Y-30841221D01*
X77459983Y-30809983D01*
X77491221Y-30784348D01*
X77526863Y-30765296D01*
X77565534Y-30753565D01*
X77611888Y-30749000D01*
X78263112Y-30749000D01*
X78309466Y-30753565D01*
X78309466Y-30753565D01*
G37*
G36*
X76434466Y-30753565D02*
X76473137Y-30765296D01*
X76508779Y-30784348D01*
X76540017Y-30809983D01*
X76565652Y-30841221D01*
X76584704Y-30876863D01*
X76596435Y-30915534D01*
X76601000Y-30961888D01*
X76601000Y-32038112D01*
X76596435Y-32084466D01*
X76584704Y-32123137D01*
X76565652Y-32158779D01*
X76540017Y-32190017D01*
X76508779Y-32215652D01*
X76473137Y-32234704D01*
X76434466Y-32246435D01*
X76388112Y-32251000D01*
X75736888Y-32251000D01*
X75690534Y-32246435D01*
X75651863Y-32234704D01*
X75616221Y-32215652D01*
X75584983Y-32190017D01*
X75559348Y-32158779D01*
X75540296Y-32123137D01*
X75528565Y-32084466D01*
X75524000Y-32038112D01*
X75524000Y-30961888D01*
X75528565Y-30915534D01*
X75540296Y-30876863D01*
X75559348Y-30841221D01*
X75584983Y-30809983D01*
X75616221Y-30784348D01*
X75651863Y-30765296D01*
X75690534Y-30753565D01*
X75736888Y-30749000D01*
X76388112Y-30749000D01*
X76434466Y-30753565D01*
X76434466Y-30753565D01*
G37*
G36*
X80184466Y-30753565D02*
X80223137Y-30765296D01*
X80258779Y-30784348D01*
X80290017Y-30809983D01*
X80315652Y-30841221D01*
X80334704Y-30876863D01*
X80346435Y-30915534D01*
X80351000Y-30961888D01*
X80351000Y-32038112D01*
X80346435Y-32084466D01*
X80334704Y-32123137D01*
X80315652Y-32158779D01*
X80290017Y-32190017D01*
X80258779Y-32215652D01*
X80223137Y-32234704D01*
X80184466Y-32246435D01*
X80138112Y-32251000D01*
X79486888Y-32251000D01*
X79440534Y-32246435D01*
X79401863Y-32234704D01*
X79366221Y-32215652D01*
X79334983Y-32190017D01*
X79309348Y-32158779D01*
X79290296Y-32123137D01*
X79278565Y-32084466D01*
X79274000Y-32038112D01*
X79274000Y-30961888D01*
X79278565Y-30915534D01*
X79290296Y-30876863D01*
X79309348Y-30841221D01*
X79334983Y-30809983D01*
X79366221Y-30784348D01*
X79401863Y-30765296D01*
X79440534Y-30753565D01*
X79486888Y-30749000D01*
X80138112Y-30749000D01*
X80184466Y-30753565D01*
X80184466Y-30753565D01*
G37*
G36*
X82059466Y-30753565D02*
X82098137Y-30765296D01*
X82133779Y-30784348D01*
X82165017Y-30809983D01*
X82190652Y-30841221D01*
X82209704Y-30876863D01*
X82221435Y-30915534D01*
X82226000Y-30961888D01*
X82226000Y-32038112D01*
X82221435Y-32084466D01*
X82209704Y-32123137D01*
X82190652Y-32158779D01*
X82165017Y-32190017D01*
X82133779Y-32215652D01*
X82098137Y-32234704D01*
X82059466Y-32246435D01*
X82013112Y-32251000D01*
X81361888Y-32251000D01*
X81315534Y-32246435D01*
X81276863Y-32234704D01*
X81241221Y-32215652D01*
X81209983Y-32190017D01*
X81184348Y-32158779D01*
X81165296Y-32123137D01*
X81153565Y-32084466D01*
X81149000Y-32038112D01*
X81149000Y-30961888D01*
X81153565Y-30915534D01*
X81165296Y-30876863D01*
X81184348Y-30841221D01*
X81209983Y-30809983D01*
X81241221Y-30784348D01*
X81276863Y-30765296D01*
X81315534Y-30753565D01*
X81361888Y-30749000D01*
X82013112Y-30749000D01*
X82059466Y-30753565D01*
X82059466Y-30753565D01*
G37*
G36*
X93684466Y-30753565D02*
X93723137Y-30765296D01*
X93758779Y-30784348D01*
X93790017Y-30809983D01*
X93815652Y-30841221D01*
X93834704Y-30876863D01*
X93846435Y-30915534D01*
X93851000Y-30961888D01*
X93851000Y-32038112D01*
X93846435Y-32084466D01*
X93834704Y-32123137D01*
X93815652Y-32158779D01*
X93790017Y-32190017D01*
X93758779Y-32215652D01*
X93723137Y-32234704D01*
X93684466Y-32246435D01*
X93638112Y-32251000D01*
X92986888Y-32251000D01*
X92940534Y-32246435D01*
X92901863Y-32234704D01*
X92866221Y-32215652D01*
X92834983Y-32190017D01*
X92809348Y-32158779D01*
X92790296Y-32123137D01*
X92778565Y-32084466D01*
X92774000Y-32038112D01*
X92774000Y-30961888D01*
X92778565Y-30915534D01*
X92790296Y-30876863D01*
X92809348Y-30841221D01*
X92834983Y-30809983D01*
X92866221Y-30784348D01*
X92901863Y-30765296D01*
X92940534Y-30753565D01*
X92986888Y-30749000D01*
X93638112Y-30749000D01*
X93684466Y-30753565D01*
X93684466Y-30753565D01*
G37*
G36*
X65751000Y-32001000D02*
X63749000Y-32001000D01*
X63749000Y-31099000D01*
X65751000Y-31099000D01*
X65751000Y-32001000D01*
X65751000Y-32001000D01*
G37*
G36*
X86301000Y-31301000D02*
X84699000Y-31301000D01*
X84699000Y-29699000D01*
X86301000Y-29699000D01*
X86301000Y-31301000D01*
X86301000Y-31301000D01*
G37*
G36*
X84776000Y-29001000D02*
X83974000Y-29001000D01*
X83974000Y-27899000D01*
X84776000Y-27899000D01*
X84776000Y-29001000D01*
X84776000Y-29001000D01*
G37*
G36*
X80276000Y-29001000D02*
X79474000Y-29001000D01*
X79474000Y-27899000D01*
X80276000Y-27899000D01*
X80276000Y-29001000D01*
X80276000Y-29001000D01*
G37*
G36*
X81776000Y-29001000D02*
X80974000Y-29001000D01*
X80974000Y-27899000D01*
X81776000Y-27899000D01*
X81776000Y-29001000D01*
X81776000Y-29001000D01*
G37*
G36*
X86526000Y-28001000D02*
X85424000Y-28001000D01*
X85424000Y-25099000D01*
X86526000Y-25099000D01*
X86526000Y-28001000D01*
X86526000Y-28001000D01*
G37*
G36*
X78576000Y-28001000D02*
X77474000Y-28001000D01*
X77474000Y-25099000D01*
X78576000Y-25099000D01*
X78576000Y-28001000D01*
X78576000Y-28001000D01*
G37*
G36*
X83771136Y-26168253D02*
X83862312Y-26206019D01*
X83944372Y-26260850D01*
X84014150Y-26330628D01*
X84068981Y-26412688D01*
X84106747Y-26503864D01*
X84126000Y-26600656D01*
X84126000Y-26699344D01*
X84106747Y-26796136D01*
X84068981Y-26887312D01*
X84014150Y-26969372D01*
X83944372Y-27039150D01*
X83862312Y-27093981D01*
X83771136Y-27131747D01*
X83674344Y-27151000D01*
X83575656Y-27151000D01*
X83478864Y-27131747D01*
X83387688Y-27093981D01*
X83305628Y-27039150D01*
X83235850Y-26969372D01*
X83181019Y-26887312D01*
X83143253Y-26796136D01*
X83124000Y-26699344D01*
X83124000Y-26600656D01*
X83143253Y-26503864D01*
X83181019Y-26412688D01*
X83235850Y-26330628D01*
X83305628Y-26260850D01*
X83387688Y-26206019D01*
X83478864Y-26168253D01*
X83575656Y-26149000D01*
X83674344Y-26149000D01*
X83771136Y-26168253D01*
X83771136Y-26168253D01*
G37*
G36*
X80771136Y-26118253D02*
X80862312Y-26156019D01*
X80944372Y-26210850D01*
X81014150Y-26280628D01*
X81068981Y-26362688D01*
X81106747Y-26453864D01*
X81126000Y-26550656D01*
X81126000Y-26649344D01*
X81106747Y-26746136D01*
X81068981Y-26837312D01*
X81014150Y-26919372D01*
X80944372Y-26989150D01*
X80862312Y-27043981D01*
X80771136Y-27081747D01*
X80674344Y-27101000D01*
X80575656Y-27101000D01*
X80478864Y-27081747D01*
X80387688Y-27043981D01*
X80305628Y-26989150D01*
X80235850Y-26919372D01*
X80181019Y-26837312D01*
X80143253Y-26746136D01*
X80124000Y-26649344D01*
X80124000Y-26550656D01*
X80143253Y-26453864D01*
X80181019Y-26362688D01*
X80235850Y-26280628D01*
X80305628Y-26210850D01*
X80387688Y-26156019D01*
X80478864Y-26118253D01*
X80575656Y-26099000D01*
X80674344Y-26099000D01*
X80771136Y-26118253D01*
X80771136Y-26118253D01*
G37*
M02*
