G04 #@! TF.GenerationSoftware,KiCad,Pcbnew,5.0.1-33cea8e~66~ubuntu18.04.1*
G04 #@! TF.CreationDate,2019-09-26T22:02:42+09:00*
G04 #@! TF.ProjectId,minidenko,6D696E6964656E6B6F2E6B696361645F,rev?*
G04 #@! TF.SameCoordinates,Original*
G04 #@! TF.FileFunction,Copper,L2,Bot,Signal*
G04 #@! TF.FilePolarity,Positive*
%FSLAX46Y46*%
G04 Gerber Fmt 4.6, Leading zero omitted, Abs format (unit mm)*
G04 Created by KiCad (PCBNEW 5.0.1-33cea8e~66~ubuntu18.04.1) date 2019年09月26日 22時02分42秒*
%MOMM*%
%LPD*%
G01*
G04 APERTURE LIST*
G04 #@! TA.AperFunction,ComponentPad*
%ADD10R,2.500000X1.700000*%
G04 #@! TD*
G04 #@! TA.AperFunction,WasherPad*
%ADD11C,0.900000*%
G04 #@! TD*
G04 #@! TA.AperFunction,ComponentPad*
%ADD12O,1.100000X2.500000*%
G04 #@! TD*
G04 #@! TA.AperFunction,ComponentPad*
%ADD13R,1.100000X2.500000*%
G04 #@! TD*
G04 #@! TA.AperFunction,ComponentPad*
%ADD14R,1.700000X1.700000*%
G04 #@! TD*
G04 #@! TA.AperFunction,ComponentPad*
%ADD15O,1.700000X1.700000*%
G04 #@! TD*
G04 #@! TA.AperFunction,ViaPad*
%ADD16C,0.800000*%
G04 #@! TD*
G04 #@! TA.AperFunction,Conductor*
%ADD17C,0.250000*%
G04 #@! TD*
G04 #@! TA.AperFunction,Conductor*
%ADD18C,0.254000*%
G04 #@! TD*
G04 APERTURE END LIST*
D10*
G04 #@! TO.P,J3,1*
G04 #@! TO.N,LDO_IN*
X51750000Y-45825000D03*
G04 #@! TO.P,J3,2*
G04 #@! TO.N,GND*
X51750000Y-43285000D03*
G04 #@! TO.P,J3,3*
G04 #@! TO.N,ESP_GPIO13*
X51750000Y-40745000D03*
G04 #@! TO.P,J3,4*
G04 #@! TO.N,ESP_GPIO15*
X51750000Y-38205000D03*
G04 #@! TO.P,J3,5*
G04 #@! TO.N,ESP_GPIO14*
X51750000Y-35665000D03*
G04 #@! TD*
D11*
G04 #@! TO.P,SW1,*
G04 #@! TO.N,*
X80625000Y-26600000D03*
X83625000Y-26650000D03*
G04 #@! TD*
D12*
G04 #@! TO.P,U2,22*
G04 #@! TO.N,UART_TXD*
X83750000Y-34300000D03*
G04 #@! TO.P,U2,21*
G04 #@! TO.N,UART_RXD*
X85750000Y-34300000D03*
G04 #@! TO.P,U2,20*
G04 #@! TO.N,ESP_GPIO5*
X87750000Y-34300000D03*
G04 #@! TO.P,U2,19*
G04 #@! TO.N,ESP_GPIO4*
X89750000Y-34300000D03*
G04 #@! TO.P,U2,18*
G04 #@! TO.N,ESP_BOOT*
X91750000Y-34300000D03*
G04 #@! TO.P,U2,17*
G04 #@! TO.N,ESP_GPIO2*
X93750000Y-34300000D03*
G04 #@! TO.P,U2,16*
G04 #@! TO.N,ESP_GPIO15*
X95750000Y-34400000D03*
G04 #@! TO.P,U2,15*
G04 #@! TO.N,GND*
X97750000Y-34300000D03*
G04 #@! TO.P,U2,8*
G04 #@! TO.N,+3V3*
X97750000Y-49700000D03*
G04 #@! TO.P,U2,7*
G04 #@! TO.N,ESP_GPIO13*
X95750000Y-49700000D03*
G04 #@! TO.P,U2,6*
G04 #@! TO.N,ESP_GPIO12*
X93750000Y-49700000D03*
G04 #@! TO.P,U2,5*
G04 #@! TO.N,ESP_GPIO14*
X91750000Y-49700000D03*
G04 #@! TO.P,U2,4*
G04 #@! TO.N,ESP_GPIO16*
X89750000Y-49700000D03*
G04 #@! TO.P,U2,3*
G04 #@! TO.N,+3V3*
X87750000Y-49700000D03*
G04 #@! TO.P,U2,2*
G04 #@! TO.N,ADC*
X85750000Y-49700000D03*
D13*
G04 #@! TO.P,U2,1*
G04 #@! TO.N,ESP_RESET*
X83750000Y-49700000D03*
G04 #@! TD*
D14*
G04 #@! TO.P,J1,1*
G04 #@! TO.N,LDO_IN*
X67250000Y-36750000D03*
D15*
G04 #@! TO.P,J1,2*
G04 #@! TO.N,GND*
X67250000Y-39290000D03*
G04 #@! TD*
D14*
G04 #@! TO.P,J2,1*
G04 #@! TO.N,LDO_IN*
X103500000Y-36000000D03*
D15*
G04 #@! TO.P,J2,2*
G04 #@! TO.N,ESP_RESET*
X103500000Y-38540000D03*
G04 #@! TO.P,J2,3*
G04 #@! TO.N,ESP_BOOT*
X103500000Y-41080000D03*
G04 #@! TO.P,J2,4*
G04 #@! TO.N,GND*
X103500000Y-43620000D03*
G04 #@! TO.P,J2,5*
G04 #@! TO.N,UART_TXD*
X103500000Y-46160000D03*
G04 #@! TO.P,J2,6*
G04 #@! TO.N,UART_RXD*
X103500000Y-48700000D03*
G04 #@! TD*
D14*
G04 #@! TO.P,J5,1*
G04 #@! TO.N,+3V3*
X72500000Y-31875000D03*
D15*
G04 #@! TO.P,J5,2*
G04 #@! TO.N,GND*
X72500000Y-34415000D03*
G04 #@! TO.P,J5,3*
G04 #@! TO.N,ESP_GPIO5*
X72500000Y-36955000D03*
G04 #@! TO.P,J5,4*
G04 #@! TO.N,ESP_GPIO4*
X72500000Y-39495000D03*
G04 #@! TO.P,J5,5*
G04 #@! TO.N,Net-(J5-Pad5)*
X72500000Y-42035000D03*
G04 #@! TO.P,J5,6*
G04 #@! TO.N,Net-(J5-Pad6)*
X72500000Y-44575000D03*
G04 #@! TO.P,J5,7*
G04 #@! TO.N,Net-(J5-Pad7)*
X72500000Y-47115000D03*
G04 #@! TO.P,J5,8*
G04 #@! TO.N,ESP_GPIO12*
X72500000Y-49655000D03*
G04 #@! TD*
D16*
G04 #@! TO.N,GND*
X65256300Y-34647300D03*
G04 #@! TO.N,LDO_IN*
X69320600Y-32500000D03*
G04 #@! TO.N,ADC*
X74966400Y-32085400D03*
G04 #@! TO.N,ESP_GPIO14*
X60416700Y-42760900D03*
G04 #@! TD*
D17*
G04 #@! TO.N,GND*
X65512100Y-38727300D02*
X65256300Y-38471600D01*
X65256300Y-38471600D02*
X65256300Y-34647300D01*
X66187300Y-39290000D02*
X66074700Y-39290000D01*
X66074700Y-39290000D02*
X65512100Y-38727300D01*
X65512100Y-38727300D02*
X60719900Y-43519500D01*
X60719900Y-43519500D02*
X53559800Y-43519500D01*
X53559800Y-43519500D02*
X53325300Y-43285000D01*
X67250000Y-39290000D02*
X66187300Y-39290000D01*
X51750000Y-43285000D02*
X53325300Y-43285000D01*
X72500000Y-34415000D02*
X73675300Y-34415000D01*
X73675300Y-34415000D02*
X75844200Y-32246100D01*
X75844200Y-32246100D02*
X95565900Y-32246100D01*
X95565900Y-32246100D02*
X97750000Y-34430200D01*
X97750000Y-34430200D02*
X97750000Y-35000000D01*
G04 #@! TO.N,+3V3*
X87750000Y-48237300D02*
X87862600Y-48124700D01*
X87862600Y-48124700D02*
X97750000Y-48124700D01*
X87750000Y-49000000D02*
X87750000Y-48237300D01*
X97750000Y-49000000D02*
X97750000Y-48124700D01*
G04 #@! TO.N,ESP_BOOT*
X91750000Y-35000000D02*
X91750000Y-35875300D01*
X91750000Y-35875300D02*
X96954700Y-41080000D01*
X96954700Y-41080000D02*
X103500000Y-41080000D01*
G04 #@! TO.N,LDO_IN*
X67250000Y-36750000D02*
X67250000Y-37925300D01*
X67250000Y-37925300D02*
X67617300Y-37925300D01*
X67617300Y-37925300D02*
X68429700Y-38737700D01*
X68429700Y-38737700D02*
X68429700Y-39820100D01*
X68429700Y-39820100D02*
X62424800Y-45825000D01*
X62424800Y-45825000D02*
X51750000Y-45825000D01*
X69320600Y-32500000D02*
X67250000Y-34570600D01*
X67250000Y-34570600D02*
X67250000Y-36750000D01*
G04 #@! TO.N,ADC*
X85750000Y-48124700D02*
X78390300Y-40765000D01*
X78390300Y-40765000D02*
X72081000Y-40765000D01*
X72081000Y-40765000D02*
X71303900Y-39987900D01*
X71303900Y-39987900D02*
X71303900Y-33882100D01*
X71303900Y-33882100D02*
X71960600Y-33225400D01*
X71960600Y-33225400D02*
X73826400Y-33225400D01*
X73826400Y-33225400D02*
X74966400Y-32085400D01*
X85750000Y-49000000D02*
X85750000Y-48124700D01*
G04 #@! TO.N,ESP_RESET*
X103500000Y-38540000D02*
X103500000Y-37364700D01*
X83750000Y-49000000D02*
X83750000Y-48124700D01*
X83750000Y-48124700D02*
X78930300Y-43305000D01*
X78930300Y-43305000D02*
X72067400Y-43305000D01*
X72067400Y-43305000D02*
X70831000Y-42068600D01*
X70831000Y-42068600D02*
X70831000Y-31365500D01*
X70831000Y-31365500D02*
X71530300Y-30666200D01*
X71530300Y-30666200D02*
X96079700Y-30666200D01*
X96079700Y-30666200D02*
X102324700Y-36911200D01*
X102324700Y-36911200D02*
X102324700Y-37024700D01*
X102324700Y-37024700D02*
X102664700Y-37364700D01*
X102664700Y-37364700D02*
X103500000Y-37364700D01*
G04 #@! TO.N,ESP_GPIO14*
X51750000Y-35665000D02*
X53325300Y-35665000D01*
X53325300Y-35665000D02*
X53325300Y-35669500D01*
X53325300Y-35669500D02*
X60416700Y-42760900D01*
G04 #@! TO.N,ESP_GPIO4*
X72500000Y-39495000D02*
X73675300Y-39495000D01*
X89750000Y-35000000D02*
X89750000Y-34359900D01*
X89750000Y-34359900D02*
X88104900Y-32714800D01*
X88104900Y-32714800D02*
X80455500Y-32714800D01*
X80455500Y-32714800D02*
X73675300Y-39495000D01*
G04 #@! TO.N,UART_RXD*
X85750000Y-35000000D02*
X85750000Y-35875300D01*
X103500000Y-48700000D02*
X103500000Y-47524700D01*
X85750000Y-35875300D02*
X94764700Y-44890000D01*
X94764700Y-44890000D02*
X103918400Y-44890000D01*
X103918400Y-44890000D02*
X104675300Y-45646900D01*
X104675300Y-45646900D02*
X104675300Y-46716800D01*
X104675300Y-46716800D02*
X103867400Y-47524700D01*
X103867400Y-47524700D02*
X103500000Y-47524700D01*
G04 #@! TO.N,UART_TXD*
X83750000Y-35875300D02*
X94034700Y-46160000D01*
X94034700Y-46160000D02*
X102324700Y-46160000D01*
X103500000Y-46160000D02*
X102324700Y-46160000D01*
X83750000Y-35000000D02*
X83750000Y-35875300D01*
G04 #@! TD*
D18*
G04 #@! TO.N,GND*
G36*
X70346528Y-30775171D02*
X70283072Y-30817571D01*
X70240672Y-30881027D01*
X70240671Y-30881028D01*
X70115097Y-31068963D01*
X70056112Y-31365500D01*
X70071001Y-31440352D01*
X70071001Y-31786690D01*
X69906880Y-31622569D01*
X69526474Y-31465000D01*
X69114726Y-31465000D01*
X68734320Y-31622569D01*
X68443169Y-31913720D01*
X68285600Y-32294126D01*
X68285600Y-32460198D01*
X66765530Y-33980269D01*
X66702071Y-34022671D01*
X66534096Y-34274064D01*
X66490000Y-34495749D01*
X66490000Y-34495753D01*
X66475112Y-34570600D01*
X66490000Y-34645447D01*
X66490000Y-35252560D01*
X66400000Y-35252560D01*
X66152235Y-35301843D01*
X65942191Y-35442191D01*
X65801843Y-35652235D01*
X65752560Y-35900000D01*
X65752560Y-37600000D01*
X65801843Y-37847765D01*
X65942191Y-38057809D01*
X66152235Y-38198157D01*
X66255708Y-38218739D01*
X65978355Y-38523076D01*
X65808524Y-38933110D01*
X65929845Y-39163000D01*
X67123000Y-39163000D01*
X67123000Y-39143000D01*
X67377000Y-39143000D01*
X67377000Y-39163000D01*
X67397000Y-39163000D01*
X67397000Y-39417000D01*
X67377000Y-39417000D01*
X67377000Y-39437000D01*
X67123000Y-39437000D01*
X67123000Y-39417000D01*
X65929845Y-39417000D01*
X65808524Y-39646890D01*
X65978355Y-40056924D01*
X66368642Y-40485183D01*
X66587183Y-40587815D01*
X62109999Y-45065000D01*
X53647440Y-45065000D01*
X53647440Y-44975000D01*
X53598157Y-44727235D01*
X53481051Y-44551975D01*
X53538327Y-44494699D01*
X53635000Y-44261310D01*
X53635000Y-43570750D01*
X53476250Y-43412000D01*
X51877000Y-43412000D01*
X51877000Y-43432000D01*
X51623000Y-43432000D01*
X51623000Y-43412000D01*
X51603000Y-43412000D01*
X51603000Y-43158000D01*
X51623000Y-43158000D01*
X51623000Y-43138000D01*
X51877000Y-43138000D01*
X51877000Y-43158000D01*
X53476250Y-43158000D01*
X53635000Y-42999250D01*
X53635000Y-42308690D01*
X53538327Y-42075301D01*
X53481051Y-42018025D01*
X53598157Y-41842765D01*
X53647440Y-41595000D01*
X53647440Y-39895000D01*
X53598157Y-39647235D01*
X53483072Y-39475000D01*
X53598157Y-39302765D01*
X53647440Y-39055000D01*
X53647440Y-37355000D01*
X53598157Y-37107235D01*
X53483072Y-36935000D01*
X53496261Y-36915262D01*
X59381700Y-42800702D01*
X59381700Y-42966774D01*
X59539269Y-43347180D01*
X59830420Y-43638331D01*
X60210826Y-43795900D01*
X60622574Y-43795900D01*
X61002980Y-43638331D01*
X61294131Y-43347180D01*
X61451700Y-42966774D01*
X61451700Y-42555026D01*
X61294131Y-42174620D01*
X61002980Y-41883469D01*
X60622574Y-41725900D01*
X60456502Y-41725900D01*
X53924693Y-35194092D01*
X53873229Y-35117071D01*
X53647440Y-34966203D01*
X53647440Y-34815000D01*
X53598157Y-34567235D01*
X53526504Y-34460000D01*
X55069926Y-34460000D01*
X55138509Y-34446358D01*
X55138513Y-34446358D01*
X55521196Y-34370238D01*
X55596160Y-34339187D01*
X55777138Y-34264224D01*
X56101561Y-34047451D01*
X56190814Y-33958198D01*
X56297451Y-33851562D01*
X56514223Y-33527138D01*
X56585299Y-33355546D01*
X56620238Y-33271196D01*
X56696358Y-32888514D01*
X56696358Y-32888509D01*
X56710000Y-32819926D01*
X56710000Y-31069930D01*
X56744926Y-30894345D01*
X56804774Y-30804775D01*
X56894345Y-30744926D01*
X57069930Y-30710000D01*
X70411699Y-30710000D01*
X70346528Y-30775171D01*
X70346528Y-30775171D01*
G37*
X70346528Y-30775171D02*
X70283072Y-30817571D01*
X70240672Y-30881027D01*
X70240671Y-30881028D01*
X70115097Y-31068963D01*
X70056112Y-31365500D01*
X70071001Y-31440352D01*
X70071001Y-31786690D01*
X69906880Y-31622569D01*
X69526474Y-31465000D01*
X69114726Y-31465000D01*
X68734320Y-31622569D01*
X68443169Y-31913720D01*
X68285600Y-32294126D01*
X68285600Y-32460198D01*
X66765530Y-33980269D01*
X66702071Y-34022671D01*
X66534096Y-34274064D01*
X66490000Y-34495749D01*
X66490000Y-34495753D01*
X66475112Y-34570600D01*
X66490000Y-34645447D01*
X66490000Y-35252560D01*
X66400000Y-35252560D01*
X66152235Y-35301843D01*
X65942191Y-35442191D01*
X65801843Y-35652235D01*
X65752560Y-35900000D01*
X65752560Y-37600000D01*
X65801843Y-37847765D01*
X65942191Y-38057809D01*
X66152235Y-38198157D01*
X66255708Y-38218739D01*
X65978355Y-38523076D01*
X65808524Y-38933110D01*
X65929845Y-39163000D01*
X67123000Y-39163000D01*
X67123000Y-39143000D01*
X67377000Y-39143000D01*
X67377000Y-39163000D01*
X67397000Y-39163000D01*
X67397000Y-39417000D01*
X67377000Y-39417000D01*
X67377000Y-39437000D01*
X67123000Y-39437000D01*
X67123000Y-39417000D01*
X65929845Y-39417000D01*
X65808524Y-39646890D01*
X65978355Y-40056924D01*
X66368642Y-40485183D01*
X66587183Y-40587815D01*
X62109999Y-45065000D01*
X53647440Y-45065000D01*
X53647440Y-44975000D01*
X53598157Y-44727235D01*
X53481051Y-44551975D01*
X53538327Y-44494699D01*
X53635000Y-44261310D01*
X53635000Y-43570750D01*
X53476250Y-43412000D01*
X51877000Y-43412000D01*
X51877000Y-43432000D01*
X51623000Y-43432000D01*
X51623000Y-43412000D01*
X51603000Y-43412000D01*
X51603000Y-43158000D01*
X51623000Y-43158000D01*
X51623000Y-43138000D01*
X51877000Y-43138000D01*
X51877000Y-43158000D01*
X53476250Y-43158000D01*
X53635000Y-42999250D01*
X53635000Y-42308690D01*
X53538327Y-42075301D01*
X53481051Y-42018025D01*
X53598157Y-41842765D01*
X53647440Y-41595000D01*
X53647440Y-39895000D01*
X53598157Y-39647235D01*
X53483072Y-39475000D01*
X53598157Y-39302765D01*
X53647440Y-39055000D01*
X53647440Y-37355000D01*
X53598157Y-37107235D01*
X53483072Y-36935000D01*
X53496261Y-36915262D01*
X59381700Y-42800702D01*
X59381700Y-42966774D01*
X59539269Y-43347180D01*
X59830420Y-43638331D01*
X60210826Y-43795900D01*
X60622574Y-43795900D01*
X61002980Y-43638331D01*
X61294131Y-43347180D01*
X61451700Y-42966774D01*
X61451700Y-42555026D01*
X61294131Y-42174620D01*
X61002980Y-41883469D01*
X60622574Y-41725900D01*
X60456502Y-41725900D01*
X53924693Y-35194092D01*
X53873229Y-35117071D01*
X53647440Y-34966203D01*
X53647440Y-34815000D01*
X53598157Y-34567235D01*
X53526504Y-34460000D01*
X55069926Y-34460000D01*
X55138509Y-34446358D01*
X55138513Y-34446358D01*
X55521196Y-34370238D01*
X55596160Y-34339187D01*
X55777138Y-34264224D01*
X56101561Y-34047451D01*
X56190814Y-33958198D01*
X56297451Y-33851562D01*
X56514223Y-33527138D01*
X56585299Y-33355546D01*
X56620238Y-33271196D01*
X56696358Y-32888514D01*
X56696358Y-32888509D01*
X56710000Y-32819926D01*
X56710000Y-31069930D01*
X56744926Y-30894345D01*
X56804774Y-30804775D01*
X56894345Y-30744926D01*
X57069930Y-30710000D01*
X70411699Y-30710000D01*
X70346528Y-30775171D01*
G36*
X90895664Y-35854337D02*
X90982481Y-35912346D01*
X90990000Y-35950147D01*
X90990000Y-35950152D01*
X91023039Y-36116245D01*
X91034097Y-36171837D01*
X91063770Y-36216245D01*
X91202072Y-36423229D01*
X91265528Y-36465629D01*
X96364373Y-41564476D01*
X96406771Y-41627929D01*
X96470224Y-41670327D01*
X96470226Y-41670329D01*
X96595602Y-41754102D01*
X96658163Y-41795904D01*
X96879848Y-41840000D01*
X96879852Y-41840000D01*
X96954699Y-41854888D01*
X97029546Y-41840000D01*
X102221822Y-41840000D01*
X102429375Y-42150625D01*
X102748478Y-42363843D01*
X102618642Y-42424817D01*
X102228355Y-42853076D01*
X102058524Y-43263110D01*
X102179845Y-43493000D01*
X103373000Y-43493000D01*
X103373000Y-43473000D01*
X103627000Y-43473000D01*
X103627000Y-43493000D01*
X103647000Y-43493000D01*
X103647000Y-43747000D01*
X103627000Y-43747000D01*
X103627000Y-43767000D01*
X103373000Y-43767000D01*
X103373000Y-43747000D01*
X102179845Y-43747000D01*
X102058524Y-43976890D01*
X102121940Y-44130000D01*
X95079502Y-44130000D01*
X86684246Y-35734745D01*
X86750000Y-35636337D01*
X86895664Y-35854337D01*
X87287637Y-36116245D01*
X87750000Y-36208215D01*
X88212364Y-36116245D01*
X88604337Y-35854337D01*
X88750000Y-35636337D01*
X88895664Y-35854337D01*
X89287637Y-36116245D01*
X89750000Y-36208215D01*
X90212364Y-36116245D01*
X90604337Y-35854337D01*
X90750000Y-35636337D01*
X90895664Y-35854337D01*
X90895664Y-35854337D01*
G37*
X90895664Y-35854337D02*
X90982481Y-35912346D01*
X90990000Y-35950147D01*
X90990000Y-35950152D01*
X91023039Y-36116245D01*
X91034097Y-36171837D01*
X91063770Y-36216245D01*
X91202072Y-36423229D01*
X91265528Y-36465629D01*
X96364373Y-41564476D01*
X96406771Y-41627929D01*
X96470224Y-41670327D01*
X96470226Y-41670329D01*
X96595602Y-41754102D01*
X96658163Y-41795904D01*
X96879848Y-41840000D01*
X96879852Y-41840000D01*
X96954699Y-41854888D01*
X97029546Y-41840000D01*
X102221822Y-41840000D01*
X102429375Y-42150625D01*
X102748478Y-42363843D01*
X102618642Y-42424817D01*
X102228355Y-42853076D01*
X102058524Y-43263110D01*
X102179845Y-43493000D01*
X103373000Y-43493000D01*
X103373000Y-43473000D01*
X103627000Y-43473000D01*
X103627000Y-43493000D01*
X103647000Y-43493000D01*
X103647000Y-43747000D01*
X103627000Y-43747000D01*
X103627000Y-43767000D01*
X103373000Y-43767000D01*
X103373000Y-43747000D01*
X102179845Y-43747000D01*
X102058524Y-43976890D01*
X102121940Y-44130000D01*
X95079502Y-44130000D01*
X86684246Y-35734745D01*
X86750000Y-35636337D01*
X86895664Y-35854337D01*
X87287637Y-36116245D01*
X87750000Y-36208215D01*
X88212364Y-36116245D01*
X88604337Y-35854337D01*
X88750000Y-35636337D01*
X88895664Y-35854337D01*
X89287637Y-36116245D01*
X89750000Y-36208215D01*
X90212364Y-36116245D01*
X90604337Y-35854337D01*
X90750000Y-35636337D01*
X90895664Y-35854337D01*
G36*
X97877000Y-34173000D02*
X97897000Y-34173000D01*
X97897000Y-34427000D01*
X97877000Y-34427000D01*
X97877000Y-36018361D01*
X98059744Y-36143803D01*
X98086146Y-36143398D01*
X98498118Y-35927724D01*
X98796196Y-35570813D01*
X98935000Y-35127000D01*
X98935000Y-34596302D01*
X101596098Y-37257400D01*
X101608796Y-37321237D01*
X101776771Y-37572629D01*
X101840230Y-37615031D01*
X102074369Y-37849170D01*
X102116771Y-37912629D01*
X102128131Y-37920219D01*
X102101161Y-37960582D01*
X101985908Y-38540000D01*
X102101161Y-39119418D01*
X102429375Y-39610625D01*
X102727761Y-39810000D01*
X102429375Y-40009375D01*
X102221822Y-40320000D01*
X97269503Y-40320000D01*
X92684246Y-35734745D01*
X92750000Y-35636337D01*
X92895664Y-35854337D01*
X93287637Y-36116245D01*
X93750000Y-36208215D01*
X94212364Y-36116245D01*
X94604337Y-35854337D01*
X94716591Y-35686337D01*
X94895664Y-35954337D01*
X95287637Y-36216245D01*
X95750000Y-36308215D01*
X96212364Y-36216245D01*
X96604337Y-35954337D01*
X96790910Y-35675111D01*
X97001882Y-35927724D01*
X97413854Y-36143398D01*
X97440256Y-36143803D01*
X97623000Y-36018361D01*
X97623000Y-34427000D01*
X97603000Y-34427000D01*
X97603000Y-34173000D01*
X97623000Y-34173000D01*
X97623000Y-34153000D01*
X97877000Y-34153000D01*
X97877000Y-34173000D01*
X97877000Y-34173000D01*
G37*
X97877000Y-34173000D02*
X97897000Y-34173000D01*
X97897000Y-34427000D01*
X97877000Y-34427000D01*
X97877000Y-36018361D01*
X98059744Y-36143803D01*
X98086146Y-36143398D01*
X98498118Y-35927724D01*
X98796196Y-35570813D01*
X98935000Y-35127000D01*
X98935000Y-34596302D01*
X101596098Y-37257400D01*
X101608796Y-37321237D01*
X101776771Y-37572629D01*
X101840230Y-37615031D01*
X102074369Y-37849170D01*
X102116771Y-37912629D01*
X102128131Y-37920219D01*
X102101161Y-37960582D01*
X101985908Y-38540000D01*
X102101161Y-39119418D01*
X102429375Y-39610625D01*
X102727761Y-39810000D01*
X102429375Y-40009375D01*
X102221822Y-40320000D01*
X97269503Y-40320000D01*
X92684246Y-35734745D01*
X92750000Y-35636337D01*
X92895664Y-35854337D01*
X93287637Y-36116245D01*
X93750000Y-36208215D01*
X94212364Y-36116245D01*
X94604337Y-35854337D01*
X94716591Y-35686337D01*
X94895664Y-35954337D01*
X95287637Y-36216245D01*
X95750000Y-36308215D01*
X96212364Y-36216245D01*
X96604337Y-35954337D01*
X96790910Y-35675111D01*
X97001882Y-35927724D01*
X97413854Y-36143398D01*
X97440256Y-36143803D01*
X97623000Y-36018361D01*
X97623000Y-34427000D01*
X97603000Y-34427000D01*
X97603000Y-34173000D01*
X97623000Y-34173000D01*
X97623000Y-34153000D01*
X97877000Y-34153000D01*
X97877000Y-34173000D01*
G36*
X97007850Y-32669152D02*
X97001882Y-32672276D01*
X96716670Y-33013781D01*
X96604337Y-32845663D01*
X96212363Y-32583755D01*
X95750000Y-32491785D01*
X95287636Y-32583755D01*
X94895663Y-32845663D01*
X94783409Y-33013663D01*
X94604337Y-32745663D01*
X94212363Y-32483755D01*
X93750000Y-32391785D01*
X93287636Y-32483755D01*
X92895663Y-32745663D01*
X92750000Y-32963663D01*
X92604337Y-32745663D01*
X92212363Y-32483755D01*
X91750000Y-32391785D01*
X91287636Y-32483755D01*
X90895663Y-32745663D01*
X90750000Y-32963663D01*
X90604337Y-32745663D01*
X90212363Y-32483755D01*
X89750000Y-32391785D01*
X89287636Y-32483755D01*
X89084433Y-32619531D01*
X88695231Y-32230330D01*
X88652829Y-32166871D01*
X88401437Y-31998896D01*
X88179752Y-31954800D01*
X88179747Y-31954800D01*
X88104900Y-31939912D01*
X88030053Y-31954800D01*
X80530348Y-31954800D01*
X80455500Y-31939912D01*
X80380652Y-31954800D01*
X80380648Y-31954800D01*
X80207105Y-31989320D01*
X80158962Y-31998896D01*
X80029499Y-32085401D01*
X79907571Y-32166871D01*
X79865171Y-32230327D01*
X78146967Y-33948531D01*
X75250000Y-33948531D01*
X75201399Y-33958198D01*
X75160197Y-33985728D01*
X75132667Y-34026930D01*
X75123000Y-34075531D01*
X75123000Y-36972499D01*
X73610879Y-38484620D01*
X73570625Y-38424375D01*
X73272239Y-38225000D01*
X73570625Y-38025625D01*
X73898839Y-37534418D01*
X74014092Y-36955000D01*
X73898839Y-36375582D01*
X73570625Y-35884375D01*
X73251522Y-35671157D01*
X73381358Y-35610183D01*
X73771645Y-35181924D01*
X73941476Y-34771890D01*
X73820155Y-34542000D01*
X72627000Y-34542000D01*
X72627000Y-34562000D01*
X72373000Y-34562000D01*
X72373000Y-34542000D01*
X72353000Y-34542000D01*
X72353000Y-34288000D01*
X72373000Y-34288000D01*
X72373000Y-34268000D01*
X72627000Y-34268000D01*
X72627000Y-34288000D01*
X73820155Y-34288000D01*
X73941476Y-34058110D01*
X73910591Y-33983542D01*
X74122937Y-33941304D01*
X74374329Y-33773329D01*
X74416731Y-33709870D01*
X75006202Y-33120400D01*
X75172274Y-33120400D01*
X75552680Y-32962831D01*
X75843831Y-32671680D01*
X76001400Y-32291274D01*
X76001400Y-31879526D01*
X75843831Y-31499120D01*
X75770911Y-31426200D01*
X95764899Y-31426200D01*
X97007850Y-32669152D01*
X97007850Y-32669152D01*
G37*
X97007850Y-32669152D02*
X97001882Y-32672276D01*
X96716670Y-33013781D01*
X96604337Y-32845663D01*
X96212363Y-32583755D01*
X95750000Y-32491785D01*
X95287636Y-32583755D01*
X94895663Y-32845663D01*
X94783409Y-33013663D01*
X94604337Y-32745663D01*
X94212363Y-32483755D01*
X93750000Y-32391785D01*
X93287636Y-32483755D01*
X92895663Y-32745663D01*
X92750000Y-32963663D01*
X92604337Y-32745663D01*
X92212363Y-32483755D01*
X91750000Y-32391785D01*
X91287636Y-32483755D01*
X90895663Y-32745663D01*
X90750000Y-32963663D01*
X90604337Y-32745663D01*
X90212363Y-32483755D01*
X89750000Y-32391785D01*
X89287636Y-32483755D01*
X89084433Y-32619531D01*
X88695231Y-32230330D01*
X88652829Y-32166871D01*
X88401437Y-31998896D01*
X88179752Y-31954800D01*
X88179747Y-31954800D01*
X88104900Y-31939912D01*
X88030053Y-31954800D01*
X80530348Y-31954800D01*
X80455500Y-31939912D01*
X80380652Y-31954800D01*
X80380648Y-31954800D01*
X80207105Y-31989320D01*
X80158962Y-31998896D01*
X80029499Y-32085401D01*
X79907571Y-32166871D01*
X79865171Y-32230327D01*
X78146967Y-33948531D01*
X75250000Y-33948531D01*
X75201399Y-33958198D01*
X75160197Y-33985728D01*
X75132667Y-34026930D01*
X75123000Y-34075531D01*
X75123000Y-36972499D01*
X73610879Y-38484620D01*
X73570625Y-38424375D01*
X73272239Y-38225000D01*
X73570625Y-38025625D01*
X73898839Y-37534418D01*
X74014092Y-36955000D01*
X73898839Y-36375582D01*
X73570625Y-35884375D01*
X73251522Y-35671157D01*
X73381358Y-35610183D01*
X73771645Y-35181924D01*
X73941476Y-34771890D01*
X73820155Y-34542000D01*
X72627000Y-34542000D01*
X72627000Y-34562000D01*
X72373000Y-34562000D01*
X72373000Y-34542000D01*
X72353000Y-34542000D01*
X72353000Y-34288000D01*
X72373000Y-34288000D01*
X72373000Y-34268000D01*
X72627000Y-34268000D01*
X72627000Y-34288000D01*
X73820155Y-34288000D01*
X73941476Y-34058110D01*
X73910591Y-33983542D01*
X74122937Y-33941304D01*
X74374329Y-33773329D01*
X74416731Y-33709870D01*
X75006202Y-33120400D01*
X75172274Y-33120400D01*
X75552680Y-32962831D01*
X75843831Y-32671680D01*
X76001400Y-32291274D01*
X76001400Y-31879526D01*
X75843831Y-31499120D01*
X75770911Y-31426200D01*
X95764899Y-31426200D01*
X97007850Y-32669152D01*
G04 #@! TD*
M02*
